<svg width="27" height="28" viewBox="0 0 27 28" fill="none" xmlns="http://www.w3.org/2000/svg">
<path d="M13.4935 27.5C20.8927 27.5 27 21.3897 27 14C27 6.61025 20.8797 0.5 13.4804 0.5C6.09425 0.5 0 6.61025 0 14C0 21.3897 6.1073 27.5 13.4935 27.5ZM7.11213 10.5924C6.42049 10.5924 5.93765 10.1615 5.93765 9.5087C5.93765 8.8559 6.42049 8.42505 7.11213 8.42505H19.9009C20.5926 8.42505 21.0623 8.8559 21.0623 9.5087C21.0623 10.1615 20.5926 10.5924 19.9009 10.5924H7.11213ZM7.11213 15.0837C6.42049 15.0837 5.93765 14.6528 5.93765 13.9869C5.93765 13.3341 6.42049 12.9033 7.11213 12.9033H19.9009C20.5926 12.9033 21.0623 13.3341 21.0623 13.9869C21.0623 14.6528 20.5926 15.0837 19.9009 15.0837H7.11213ZM7.11213 19.5619C6.42049 19.5619 5.93765 19.131 5.93765 18.4782C5.93765 17.8385 6.42049 17.3946 7.11213 17.3946H19.9009C20.5926 17.3946 21.0623 17.8385 21.0623 18.4782C21.0623 19.131 20.5926 19.5619 19.9009 19.5619H7.11213Z" fill="#A2D2FF" id="icon-project"/>
</svg>
