<svg width="27" height="25" viewBox="0 0 27 25" fill="none" xmlns="http://www.w3.org/2000/svg">
<path d="M0.931387 10.1414C-0.00984686 10.1414 -0.248134 10.8377 0.264183 11.5224L3.17129 15.4451C3.57637 15.9905 4.19592 15.9789 4.58909 15.4451L7.4962 11.5108C7.9966 10.8493 7.77023 10.1414 6.84091 10.1414H5.11333C6.19753 5.97505 10.0459 2.92283 14.6806 2.92283C20.1492 2.92283 24.5337 7.19362 24.5337 12.5205C24.5337 17.8474 20.1492 22.1414 14.6806 22.1298C11.4994 22.1182 8.71146 20.6675 6.92431 18.3812C6.43582 17.8358 5.72096 17.6617 5.13716 18.0795C4.58909 18.4625 4.48187 19.2168 5.01801 19.8551C7.21025 22.6404 10.8322 24.5205 14.6806 24.5205C21.4241 24.5205 27 19.0892 27 12.5205C27 5.95184 21.4241 0.520508 14.6806 0.520508C8.75912 0.520508 3.74318 4.68685 2.5994 10.1414H0.931387ZM14.2397 5.80097C13.6559 5.80097 13.1913 6.25358 13.1913 6.81064V13.1008C13.1913 13.3793 13.2866 13.6346 13.4891 13.9016L16.3247 17.5457C16.7537 18.0911 17.3732 18.184 17.8855 17.8242C18.374 17.4876 18.4217 16.8725 18.0404 16.3735L15.2763 12.7526V6.81064C15.2763 6.25358 14.8116 5.80097 14.2397 5.80097Z" fill="#A2D2FF" id="icon-project"/>
</svg>
