<svg width="27" height="25" viewBox="0 0 27 25" fill="none" xmlns="http://www.w3.org/2000/svg">
<path d="M23.2471 0.520508H3.75285C1.28897 0.520508 0 2.07158 0 5.03522V6.28162H27V5.03522C27 2.07158 25.7224 0.520508 23.2471 0.520508ZM4.76806 20.0889C4.09506 20.0889 3.63878 19.5488 3.63878 18.7594V16.1974C3.63878 15.4218 4.09506 14.8679 4.76806 14.8679H7.56274C8.22433 14.8679 8.68061 15.4218 8.68061 16.1974V18.7594C8.68061 19.5488 8.22433 20.0889 7.56274 20.0889H4.76806ZM3.75285 24.5205H23.2471C25.7224 24.5205 27 22.9556 27 19.9919V9.53609H0V19.9919C0 22.9694 1.28897 24.5205 3.75285 24.5205Z" fill="#A2D2FF" id="icon-project"/>
</svg>
