<svg width="25" height="29" viewBox="0 0 25 29" fill="none" xmlns="http://www.w3.org/2000/svg">
<path d="M5.9501 4.56764H7.7975C9.6809 4.56764 11.0485 4.97455 12.38 6.18429L19.1939 12.431C20.4894 13.6187 20.8133 14.9824 20.8133 16.6211V22.8677H21.1852C23.4885 22.8677 25 21.713 25 19.2495V4.14973C25 1.76324 23.6564 0.520508 21.0893 0.520508H9.83685C7.29367 0.520508 5.9501 1.76324 5.9501 4.11674V4.56764ZM11.8282 3.77581V3.52286C11.8282 3.19294 12.0921 2.81902 12.644 2.81902H18.2941C18.858 2.81902 19.1099 3.19294 19.1099 3.52286V3.77581C19.1099 4.13873 18.834 4.46866 18.2941 4.46866H12.644C12.1161 4.46866 11.8282 4.13873 11.8282 3.77581ZM0 24.9023C0 27.2888 1.34357 28.5205 3.91075 28.5205H15.1392C17.7063 28.5205 19.0499 27.2778 19.0499 24.9023V16.3791H10.4966C8.97313 16.3791 8.22937 15.6863 8.22937 14.2896V6.1733H3.91075C1.34357 6.1733 0 7.42703 0 9.80252V24.9023ZM10.6406 14.7625H18.834C18.69 14.2896 18.3781 13.8387 17.8383 13.3328L11.5163 7.44902C10.9645 6.94313 10.4966 6.6022 9.98081 6.45924V14.1576C9.98081 14.5535 10.2087 14.7625 10.6406 14.7625Z" fill="#A2D2FF" id="icon-project"/>
</svg>
