<svg width="27" height="28" viewBox="0 0 27 28" fill="none" xmlns="http://www.w3.org/2000/svg">
<path d="M13.4935 27.0205C20.8927 27.0205 27 20.9103 27 13.5205C27 6.13076 20.8797 0.0205078 13.4804 0.0205078C6.09425 0.0205078 0 6.13076 0 13.5205C0 20.9103 6.1073 27.0205 13.4935 27.0205ZM13.4804 21.1453C13.1281 21.1453 12.8671 20.8841 12.8671 20.5186V19.5916C10.9227 19.4349 9.48719 18.4165 9.0957 16.9804C9.0435 16.8106 9.0174 16.654 9.0174 16.4973C9.0174 15.9489 9.39584 15.5703 9.95698 15.5703C10.4268 15.5703 10.74 15.8184 10.9357 16.3015C11.1445 17.0979 11.784 17.6854 12.8671 17.8421V14.2908L12.6322 14.2386C10.3746 13.7163 9.2001 12.6719 9.2001 10.9093C9.2001 9.0031 10.7269 7.69749 12.8671 7.50165V6.58772C12.8671 6.2091 13.1281 5.96103 13.4804 5.96103C13.8328 5.96103 14.1068 6.22215 14.1068 6.58772V7.50165C15.9338 7.68443 17.291 8.68975 17.6564 10.0868C17.6955 10.2434 17.7347 10.4001 17.7347 10.5568C17.7347 11.079 17.3562 11.4576 16.8081 11.4576C16.3253 11.4576 16.0121 11.1835 15.8163 10.7396C15.5553 9.94314 14.9681 9.43395 14.1068 9.27728V12.6327L14.407 12.698C16.769 13.1419 17.9565 14.2255 17.9565 16.0795C17.9565 18.1424 16.3122 19.4088 14.1068 19.6046V20.5186C14.1068 20.8841 13.8328 21.1453 13.4804 21.1453ZM12.8671 12.3193V9.26422C11.8362 9.43395 11.2098 10.0476 11.2098 10.7787C11.2098 11.5099 11.6926 11.9799 12.7757 12.2932L12.8671 12.3193ZM14.1068 14.5911V17.8421C15.3465 17.6985 15.9599 17.0718 15.9599 16.2231C15.9599 15.4659 15.5292 14.9697 14.3548 14.6564L14.1068 14.5911Z" fill="#092C4C" id="icon-project"/>
</svg>
