<svg width="26" height="26" viewBox="0 0 26 26" fill="none" xmlns="http://www.w3.org/2000/svg">
<path d="M13.7911 1.02504C11.94 0.90592 10.0861 1.21291 8.37593 1.92178C6.66573 2.63065 5.14604 3.72198 3.93686 5.10959C2.72096 6.49864 1.84675 8.14589 1.38237 9.92295C0.917989 11.7 0.875996 13.5588 1.25966 15.3545C1.64333 17.1502 2.44229 18.8343 3.59425 20.2753C4.74621 21.7164 6.22005 22.8756 7.90086 23.6625C9.57667 24.4448 11.4141 24.8315 13.2676 24.7922C15.1212 24.7528 16.94 24.2885 18.5802 23.4359C18.6326 23.4094 18.6911 23.3971 18.7499 23.4002C18.8088 23.4034 18.8656 23.4221 18.9146 23.4544C20.4722 24.4832 22.3096 25.0219 24.1841 24.9993C24.2283 24.9993 24.272 24.9907 24.3128 24.974C24.3536 24.9573 24.3906 24.9328 24.4218 24.902C24.453 24.8711 24.4777 24.8345 24.4944 24.7942C24.5112 24.7539 24.5198 24.7108 24.5197 24.6672V20.6296C24.5207 20.5504 24.4933 20.4734 24.4421 20.4124C24.3914 20.3515 24.3201 20.3106 24.2413 20.2975C23.8555 20.2371 23.4788 20.1301 23.1197 19.9787C23.0752 19.9593 23.0357 19.9304 23.0037 19.8943C22.9717 19.8581 22.9482 19.8155 22.9346 19.7694C22.9212 19.7232 22.9177 19.6747 22.9244 19.6271C22.9315 19.5794 22.9489 19.5337 22.9754 19.4932C24.7454 16.8692 25.3904 13.6608 24.7694 10.5692C24.1483 7.47759 22.3117 4.75419 19.661 2.9942C17.9108 1.83523 15.8811 1.15338 13.7775 1.01779L13.7911 1.02504ZM5.74598 12.8986C5.74252 11.4756 6.1663 10.0835 6.9639 8.89782C7.7615 7.7121 8.89719 6.78588 10.2278 6.23594C11.5558 5.69003 13.0187 5.54671 14.4297 5.82427C15.8407 6.10182 17.1359 6.78766 18.1501 7.7943C18.9111 8.54906 19.4937 9.46036 19.856 10.463C20.2184 11.4657 20.3517 12.535 20.2463 13.5944C20.1409 14.6537 19.7995 15.6771 19.2465 16.5912C18.6934 17.5052 17.9424 18.2875 17.0472 18.882C15.6503 19.8064 13.9709 20.2227 12.2969 20.0593C10.6229 19.896 9.0587 19.1632 7.87257 17.9867C6.50864 16.6344 5.74234 14.805 5.74089 12.8975L5.74598 12.8986Z" stroke="#F2994A" stroke-width="2" stroke-linecap="round" stroke-linejoin="round"/>
</svg>
