<svg width="26" height="26" viewBox="0 0 26 26" fill="none" xmlns="http://www.w3.org/2000/svg">
<path d="M4.52327 7.25152L5.57289 4.94752L6.62251 7.25152M6.62251 9.1024L5.57289 11.4064L4.52327 9.1024M4.52327 16.8438L5.57289 14.5398L6.62251 16.8438M6.62251 18.6947L5.57289 20.9987L4.52327 18.6947M9.23734 4.97824H22.1949M22.1949 8.1808H11.5269M13.8102 11.3757H22.1949M9.23734 14.5859H22.1949M22.1949 17.7808H11.5269M13.8102 20.9834H22.1949M2.19693 1C1.88194 1.00974 1.58199 1.17064 1.35919 1.44942C1.13638 1.72819 1.00778 2.10348 1 2.4976V23.464C1 23.8714 1.12934 24.2621 1.35956 24.5501C1.58979 24.8382 1.90204 25 2.22762 25H23.7724C24.098 25 24.4102 24.8382 24.6404 24.5501C24.8707 24.2621 25 23.8714 25 23.464V2.4976C24.992 2.09692 24.8591 1.71603 24.6298 1.43622C24.4004 1.15642 24.0927 0.999875 23.7724 1H2.19693Z" stroke="#F2994A" stroke-width="2" stroke-linecap="round" stroke-linejoin="round"/>
</svg>
