<svg width="27" height="24" viewBox="0 0 27 24" fill="none" xmlns="http://www.w3.org/2000/svg">
<path d="M4.75281 24H22.2472C25.382 24 27 22.5618 27 19.8138V4.1862C27 1.4382 25.382 0 22.2472 0H4.75281C1.63242 0 0 1.42536 0 4.1862V19.8138C0 22.5618 1.63242 24 4.75281 24ZM13.5072 14.2536C10.748 14.2279 8.60995 12.1862 8.59551 9.48957C8.58106 6.93419 10.7624 4.80257 13.5072 4.80257C16.252 4.80257 18.4045 6.93419 18.4045 9.48957C18.4045 12.1862 16.252 14.2793 13.5072 14.2536ZM4.13162 21.5602C5.30177 18.504 9.02889 16.3339 13.5072 16.3339C17.9856 16.3339 21.7127 18.504 22.8684 21.5602H4.13162Z" fill="#092C4C"/>
</svg>