<svg width="27" height="24" viewBox="0 0 27 24" fill="none" xmlns="http://www.w3.org/2000/svg">
<path d="M3.66541 24H15.6767C18.0902 24 19.3421 22.7579 19.3421 20.3623V13.2643H11.1429C10.4436 13.2643 9.85714 12.6876 9.85714 11.9889C9.85714 11.2902 10.4436 10.7024 11.1429 10.7024H19.3421V3.62662C19.3421 1.24214 18.0902 0 15.6767 0H3.66541C1.25188 0 0 1.24214 0 3.62662V20.3623C0 22.7579 1.25188 24 3.66541 24ZM18.1917 11.9889C18.1917 12.5545 18.6541 13.0092 19.2068 13.0092H22.5789L24.2594 12.9316L23.4248 13.6192L21.7444 15.1719C21.5414 15.3494 21.4398 15.6044 21.4398 15.8595C21.4398 16.3586 21.812 16.78 22.3308 16.78C22.6128 16.78 22.8045 16.6691 22.9962 16.4806L26.6504 12.7652C26.9098 12.4991 27 12.2551 27 11.9889C27 11.7227 26.9098 11.4787 26.6504 11.2126L22.9962 7.48614C22.8045 7.2976 22.6128 7.19778 22.3308 7.19778C21.812 7.19778 21.4398 7.59704 21.4398 8.10721C21.4398 8.3512 21.5414 8.61738 21.7444 8.79482L23.4248 10.3586L24.2594 11.0462L22.5789 10.9575H19.2068C18.6541 10.9575 18.1917 11.4233 18.1917 11.9889Z" fill="#A2D2FF"/>
</svg>
