<svg width="25" height="29" viewBox="0 0 25 29" fill="none" xmlns="http://www.w3.org/2000/svg">
<path d="M4.71204 28.6494H23.6329C24.4037 28.6494 25 28.1194 25 27.4343C25 26.8526 24.5492 26.426 23.9965 26.1933C22.2077 25.4823 21.8586 23.2847 23.6766 21.7464C24.4183 21.1646 24.9855 20.5183 24.9855 19.2127V4.90241C24.9855 2.11017 23.3711 0.649414 20.2443 0.649414H4.74113C1.62885 0.649414 0 2.09724 0 4.90241V24.4352C0 27.2016 1.62885 28.6494 4.71204 28.6494ZM4.52298 20.1305C4.04305 20.1305 3.63583 19.7815 3.63583 19.3419V3.60971C3.63583 3.17019 4.04305 2.82116 4.52298 2.82116C5.00291 2.82116 5.41012 3.17019 5.41012 3.60971V19.3419C5.41012 19.7815 5.00291 20.1305 4.52298 20.1305ZM9.46771 9.11663C8.88598 9.11663 8.37696 8.67711 8.37696 8.16003C8.37696 7.6171 8.88598 7.1905 9.46771 7.1905H19.9971C20.5934 7.1905 21.0878 7.6171 21.0878 8.16003C21.0878 8.67711 20.5934 9.11663 19.9971 9.11663H9.46771ZM9.46771 12.8655C8.88598 12.8655 8.37696 12.4389 8.37696 11.896C8.37696 11.3789 8.88598 10.9393 9.46771 10.9393H17.4666C18.0628 10.9393 18.5573 11.3789 18.5573 11.896C18.5573 12.4389 18.0628 12.8655 17.4666 12.8655H9.46771ZM5.10471 26.2191C3.54857 26.2191 2.73415 25.4306 2.73415 24.2154C2.73415 23.0391 3.66492 22.2247 5.20652 22.2247H19.7208C19.8807 22.2247 20.0407 22.2117 20.1862 22.1859C19.459 23.5562 19.5462 25.0428 20.3316 26.2191H5.10471Z" fill="#A2D2FF" id="icon-project"/>
</svg>
