<svg width="26" height="20" viewBox="0 0 26 20" fill="none" xmlns="http://www.w3.org/2000/svg">
<path d="M17 7L23.0707 3.586C23.2739 3.47175 23.4997 3.41782 23.7267 3.42932C23.9536 3.44082 24.1742 3.51737 24.3675 3.65171C24.5608 3.78605 24.7203 3.97371 24.831 4.19691C24.9417 4.4201 24.9999 4.67141 25 4.927V15.073C24.9999 15.3286 24.9417 15.5799 24.831 15.8031C24.7203 16.0263 24.5608 16.214 24.3675 16.3483C24.1742 16.4826 23.9536 16.5592 23.7267 16.5707C23.4997 16.5822 23.2739 16.5282 23.0707 16.414L17 13V7ZM1 4C1 3.20435 1.28095 2.44129 1.78105 1.87868C2.28115 1.31607 2.95942 1 3.66667 1H14.3333C15.0406 1 15.7189 1.31607 16.219 1.87868C16.719 2.44129 17 3.20435 17 4V16C17 16.7956 16.719 17.5587 16.219 18.1213C15.7189 18.6839 15.0406 19 14.3333 19H3.66667C2.95942 19 2.28115 18.6839 1.78105 18.1213C1.28095 17.5587 1 16.7956 1 16V4Z" stroke="#F2994A" stroke-width="2" stroke-linecap="round" stroke-linejoin="round"/>
</svg>
