<svg width="321" height="239" viewBox="0 0 321 239" fill="none" xmlns="http://www.w3.org/2000/svg">
<path fill-rule="evenodd" clip-rule="evenodd" d="M216.655 2.40324C250.11 -4.60673 281.105 3.71024 297.764 27.4661C314.423 51.2219 310.065 88.9177 306.457 105.557C302.848 122.196 293.694 137.436 282.332 150.667C261.229 175.242 232.711 194.047 200.83 204.199C168.949 214.351 134.335 216.432 101.111 211.296C82.4739 208.416 24.1749 194.302 11.5903 151.712C-0.994346 109.122 -8.95885 72.7204 18.2933 57.9338C45.5455 43.1472 64.4221 54.2685 77.9133 59.7375C140.942 85.2882 183.2 9.41321 216.655 2.40324Z" fill="#A2D2FF"/>
<path fill-rule="evenodd" clip-rule="evenodd" d="M271.395 53.2087C276.852 52.771 282.734 53.0541 287.182 56.3679C291.629 59.6817 293.649 66.9584 289.997 71.1928C294.126 69.5167 298.978 72.3597 301.046 76.4315C303.114 80.5034 303.006 85.3819 302.384 89.9399C300.843 101.228 296.412 112.076 289.668 121.072C289.358 122.021 289.048 122.969 288.738 123.917C296.71 126.052 327.837 138.606 319.427 169.555C311.016 200.504 274.286 212.283 270.526 215.987C263.973 222.443 253.97 222.885 244.942 222.587C222.744 221.856 200.613 218.926 178.948 213.851C177.106 213.419 174.773 213.156 173.711 214.778C166.026 226.512 149.955 227.561 136.325 226.54C118.817 225.228 101.41 222.47 84.3218 218.302C74.629 215.937 64.3362 212.645 58.2979 204.424C51.2584 194.839 52.0714 181.551 53.2136 169.555C48.5868 172.226 40.913 173.673 30.1921 173.895C23.8799 172.558 19.9425 170.182 18.3799 166.767C11.2344 151.148 8.78403 131.021 17.6822 115.627C18.7511 113.777 19.9844 111.955 21.7249 110.778C23.5702 109.53 25.8198 109.12 28.0132 108.918C36.6642 108.123 45.5403 110.22 53.0085 114.824C52.9418 89.6164 52.8751 64.4089 52.8084 39.2014C52.8046 37.7579 52.8239 36.2261 53.565 35.0049C54.6368 33.2384 56.8325 32.6909 58.8088 32.3078C76.7868 28.8225 94.9686 26.4719 113.221 25.2733C119.184 24.8817 127.346 26.6054 127.373 32.8111C127.477 56.5764 127.581 80.3418 127.685 104.107C127.71 109.764 128.06 109.291 130.612 107.652C129.007 107.824 129.365 104.999 130.581 103.898C135.119 99.7895 141.732 99.6384 147.753 99.7024C161.218 99.8455 174.684 99.9886 188.15 100.132C201.198 100.27 216.844 101.989 222.751 114.071C222.58 110.48 225.714 107.092 229.176 107.125C232.951 107.161 236.108 103.759 237.21 100.009C238.312 96.2591 237.826 92.2296 237.33 88.3427C231.243 82.2211 229.649 71.8152 233.608 64.0344C237.566 56.2537 246.741 51.7565 255.041 53.5289C260.403 54.6739 265.937 53.6463 271.395 53.2087ZM115.142 169.784C114.963 174.788 114.773 179.859 113.355 184.644L115.142 169.784ZM109.563 108.377C110.816 108.758 112.367 109.912 111.709 111.084C117.153 111.649 115.528 111.387 115.773 104.724C116.021 97.9629 116.042 90.4871 111.78 85.3698C108.008 80.8417 101.858 79.4254 96.1134 78.9162C89.4088 78.3217 82.6324 78.6073 75.9963 79.7641C72.7583 80.3285 69.2511 81.3009 67.3721 84.097C66.3204 85.6619 65.9336 87.5944 65.6246 89.4755C64.4094 96.875 64.0298 104.422 64.4963 111.913C78.455 105.168 94.787 103.887 109.563 108.377ZM230.703 158.053C231.044 157.695 231.562 157.608 232.042 157.539C233.96 157.265 235.878 156.991 237.797 156.717C233.394 154.652 230.726 149.747 229.929 144.799C229.132 139.852 229.91 134.793 230.697 129.843C227.881 133.098 228.084 138.008 228.452 142.367C229.26 151.906 230.362 158.411 230.703 158.053ZM194.485 205.041C194.862 203.767 196.147 203.083 197.087 202.175C198.78 200.541 199.408 198.072 199.961 195.741C201.869 187.688 203.789 179.537 203.765 171.244C203.759 169.487 203.674 167.682 204.234 166.024C204.794 164.367 206.198 162.867 207.889 162.859C209.673 162.85 210.099 160.28 209.94 158.435C209.39 152.072 208.84 145.71 208.29 139.348C208.114 137.315 207.935 135.264 207.341 133.32C205.146 126.129 196.686 121.782 189.849 124.331C189.013 124.643 188.789 125.741 188.694 126.659C187.642 136.836 186.589 147.013 185.537 157.19C185.35 158.998 187.599 160.152 189.296 159.704C190.993 159.256 192.289 157.879 193.756 156.887C195.224 155.895 197.292 155.323 198.64 156.485C200.163 157.797 202.417 156.339 203.74 154.811C205.063 153.282 206.786 151.439 208.667 152.077C206.46 154.269 204.253 156.462 202.046 158.654C201.314 159.381 200.669 160.833 201.594 161.263C204.13 160.329 206.422 158.692 208.17 156.567C208.978 156.54 209.016 157.859 208.565 158.556C206.866 161.181 202.867 161.766 201.837 164.744C199.434 171.694 191.938 176.311 184.913 175.168C183.472 174.933 182.754 176.901 182.58 178.406C181.889 184.403 181.197 190.4 180.506 196.397C180.346 197.776 180.198 199.236 180.745 200.504C181.658 202.619 184.099 203.42 186.263 203.989C189.123 204.742 192.017 205.498 194.94 205.827C196.172 205.965 196.167 205.497 194.485 205.041ZM80.5233 194.046C84.6106 195.468 88.9367 195.949 93.223 196.422C95.0407 196.623 96.9764 196.803 98.6071 195.945C100.527 194.935 101.549 192.747 102.375 190.683C106.979 179.176 109.607 166.819 110.1 154.368C110.17 152.599 107.989 151.818 106.287 151.699C92.7063 150.753 79.718 156.953 67.4181 163.007C66.8286 163.298 66.1977 163.629 65.9064 164.235C65.6892 164.687 65.7006 165.216 65.7168 165.721C65.9371 172.599 66.215 179.724 69.1772 185.881C69.9772 187.543 70.9948 189.143 72.4355 190.246C73.3082 190.914 74.3072 191.378 75.2976 191.836C77.0165 192.631 78.7392 193.425 80.5233 194.046ZM168.381 168.589C170.191 158.479 171.467 148.265 172.201 138.009C172.452 134.501 172.635 130.934 171.905 127.499C171.175 124.064 169.413 120.724 166.532 118.873C164.757 117.732 162.68 117.22 160.625 116.839C156.875 116.144 153.06 115.829 149.251 115.899C145.89 115.961 142.362 116.387 139.619 118.403C138.712 119.07 137.887 119.943 137.556 121.045C137.225 122.147 137.504 123.501 138.424 124.148C140.75 125.784 141.699 128.845 142.134 131.728C142.57 134.61 142.675 137.628 143.94 140.233C144.592 141.577 145.527 142.749 146.508 143.857C151.826 149.861 158.762 154.303 166.316 156.542C167.644 156.936 169.334 157.788 169.053 159.192C173.231 161.929 168.311 168.977 168.381 168.589ZM156.867 198.409C158.405 197.439 159.448 195.823 160.367 194.216C164.262 187.394 166.817 179.751 167.828 171.89C153.815 171.824 139.887 166.334 129.361 156.727C129.001 158.228 129.07 159.8 129.119 161.346C129.426 171.001 128.875 180.685 127.473 190.235C127.139 192.512 128.449 194.788 130.249 196.132C132.05 197.477 134.267 198.054 136.445 198.49C141.353 199.472 146.369 199.874 151.365 199.687C153.264 199.616 155.243 199.434 156.867 198.409ZM245.29 115.13C244.473 113.086 243.86 110.781 242.166 109.439C240.471 108.097 237.28 108.753 237.181 110.964C238.858 110.643 240.14 112.793 239.854 114.539C239.568 116.285 238.346 117.673 237.375 119.129C236.033 121.14 235.116 123.417 234.208 125.675C232.048 131.048 231.208 136.986 231.787 142.776C232.128 146.186 233.028 149.688 235.247 152.224C237.467 154.761 241.272 156.029 244.197 154.441C246.709 153.078 247.963 150.072 248.539 147.189C249.115 144.307 249.217 141.289 250.306 138.571C252.314 133.557 257.266 130.527 262.164 128.625C254.8 127.586 248.138 122.258 245.29 115.13ZM224.927 120.554C225.255 121.869 225.708 123.15 226.278 124.371C226.621 122.65 227.171 120.973 227.911 119.392C227.162 119.303 226.408 119.261 225.654 119.265C225.471 119.266 225.278 119.273 225.124 119.375C224.775 119.604 224.824 120.14 224.927 120.554ZM136.168 119.201C135.705 119.589 135.433 120.423 135.922 120.774C136.672 119.995 137.422 119.215 138.171 118.436C138.016 118.237 137.791 118.097 137.548 118.051C137.251 118.587 136.632 118.814 136.168 119.201Z" fill="white"/>
<path d="M265.976 113.616C267.577 113.616 268.876 112.268 268.876 110.605C268.876 108.942 267.577 107.594 265.976 107.594C264.375 107.594 263.077 108.942 263.077 110.605C263.077 112.268 264.375 113.616 265.976 113.616Z" fill="#FFB61D"/>
<path d="M249.369 110.605C250.243 110.605 250.951 109.87 250.951 108.963C250.951 108.056 250.243 107.32 249.369 107.32C248.496 107.32 247.788 108.056 247.788 108.963C247.788 109.87 248.496 110.605 249.369 110.605Z" fill="#FFB61D"/>
<path fill-rule="evenodd" clip-rule="evenodd" d="M99.6112 67.3963C104.356 67.4275 109.1 67.4588 113.845 67.4901C114.067 67.4915 114.305 67.4984 114.485 67.6349C114.851 67.9139 114.704 68.5673 114.328 68.8303C113.951 69.0933 113.462 69.0822 113.009 69.0658C108.833 68.9153 104.645 69.1405 100.507 69.7381C99.8782 69.829 99.2143 69.9244 98.6257 69.676C98.0371 69.4275 97.5868 68.6957 97.8578 68.0989C98.1408 67.4753 98.9474 67.3919 99.6112 67.3963ZM83.7454 66.9124C84.046 67.2236 83.902 67.795 83.5679 68.0671C83.2339 68.3392 82.7866 68.3936 82.3642 68.438C78.158 68.8803 73.9518 69.3226 69.7456 69.7649C69.2482 69.8172 68.7339 69.8678 68.2579 69.7088C67.782 69.5497 67.3514 69.1224 67.3402 68.6032C67.3285 68.0677 67.7665 67.6129 68.2554 67.442C68.7442 67.2711 69.2753 67.319 69.7895 67.361C74.0993 67.7131 78.4509 67.51 82.713 66.7579C83.07 66.6949 83.4889 66.6469 83.7454 66.9124ZM83.1562 58.5275C83.4705 58.7908 83.3586 59.3554 83.0433 59.6174C82.7279 59.8794 82.2987 59.9229 81.8961 59.9559L68.3881 61.0627C67.8824 61.1041 67.3585 61.1432 66.8815 60.9639C66.4045 60.7847 65.9862 60.3233 66.0135 59.7972C66.0413 59.2644 66.5152 58.851 67.0145 58.7251C67.5139 58.5993 68.0368 58.6933 68.5452 58.7713C73.1298 59.475 77.7917 58.8334 82.4071 58.3976C82.6659 58.3732 82.9539 58.3579 83.1562 58.5275ZM102.021 55.7481C104.84 56.122 107.697 56.1789 110.528 55.9174C111.653 55.8134 113.013 55.7647 113.652 56.7319C112.893 57.3689 111.851 57.4593 110.877 57.5231C107.649 57.7343 104.422 57.9456 101.194 58.1568C100.458 58.205 99.5404 58.1472 99.2371 57.4487C98.965 56.822 99.4439 56.0683 100.059 55.8145C100.674 55.5607 101.365 55.661 102.021 55.7481ZM77.6717 52.1644C77.6751 52.6707 77.0643 52.8892 76.5819 52.9626L69.4884 54.0423C68.9821 54.1194 68.4589 54.1956 67.9645 54.0585C67.4701 53.9214 67.0079 53.513 66.9616 52.9837C66.905 52.3358 67.4908 51.789 68.1023 51.6478C68.7139 51.5066 69.3474 51.6543 69.9688 51.7374C72.1114 52.0241 74.2729 51.5351 76.4319 51.4581C76.9602 51.4392 77.668 51.6155 77.6717 52.1644ZM111.899 50.4011C112.448 50.4648 113.011 50.8049 113.158 51.3578C112.183 52.1234 110.895 52.2627 109.677 52.3748C107.594 52.5666 105.51 52.7584 103.426 52.9502C102.692 53.0177 101.958 53.0853 101.224 53.1528C100.688 53.2022 100.129 53.2488 99.6253 53.051C99.1212 52.8532 98.6906 52.3338 98.7657 51.7797C98.8839 50.9065 99.9875 50.6798 100.836 50.6987C103.986 50.769 107.175 51.2627 110.261 50.6042C110.802 50.4887 111.35 50.3374 111.899 50.4011ZM114.666 42.1411C99.2264 44.3031 83.3968 43.1835 68.1699 46.6038C67.2669 46.8067 66.0065 46.8167 65.7729 45.8883C65.7939 44.7944 67.1563 44.3996 68.2072 44.3218C83.0199 43.2247 97.8326 42.1276 112.645 41.0305C113.514 40.9661 114.734 41.2391 114.666 42.1411Z" fill="#E7EAEE"/>
<path fill-rule="evenodd" clip-rule="evenodd" d="M60.3574 208.346C60.5188 210.286 57.944 210.943 56.0691 210.95C46.3253 210.991 36.5912 212.868 27.4829 216.462C26.0928 217.011 24.6051 217.702 23.9286 219.077C23.0327 220.898 24.0105 223.229 25.5953 224.443C27.1802 225.656 29.2031 226.026 31.1466 226.355C81.6643 234.897 132.933 238.642 184.105 237.527L184.928 237.508C190.829 237.366 196.853 237.037 202.259 234.61C197.784 231.352 193.308 228.094 188.832 224.837C196.58 223.229 204.574 224.374 212.437 225.18C230.434 227.025 248.601 227.063 266.605 225.293C265.337 227.396 262.551 227.688 260.162 227.741C237.516 228.247 214.842 227.412 192.288 225.24C195.23 227.251 198.173 229.262 201.116 231.273C202.182 232.002 203.362 232.927 203.423 234.251C203.516 236.241 201.162 237.234 199.269 237.559C192.988 238.637 186.599 238.809 180.234 238.905C130.522 239.66 80.7482 235.966 31.6449 227.877C29.249 227.483 26.7664 227.042 24.7686 225.613C22.7708 224.183 21.4088 221.466 22.2483 219.102C23.0833 216.751 25.6239 215.647 27.9177 214.869C38.4145 211.309 49.3395 209.112 60.3574 208.346ZM127.375 32.8111C127.479 56.5764 127.583 80.3418 127.687 104.107C127.712 109.764 128.785 116.922 134.052 118.362C141.331 114.872 149.534 113.494 157.501 114.422C162.061 114.953 166.797 116.385 169.885 119.911C174.12 124.748 174.126 132.032 173.672 138.552C172.75 151.769 170.934 164.919 168.243 177.872C170.381 177.732 172.562 178.623 174.035 180.239C171.767 181.316 169.064 181.361 166.763 180.36C168.343 189.256 161.364 198.034 153.005 200.582C144.647 203.131 135.577 200.728 127.717 196.827C126.98 199.808 130.82 201.56 133.752 202.01C141.194 203.152 148.637 204.295 156.079 205.437C146.888 205.724 137.667 204.942 128.642 203.112C126.98 205.556 130.743 208.024 133.587 208.502C141.131 209.77 148.675 211.038 156.218 212.306C147.698 212.247 139.181 211.657 130.728 210.54C136.104 215.576 143.442 218.283 150.672 217.899C146.593 219.292 142.062 219.208 138.034 217.665C143.073 224.673 153.383 225.972 160.912 222.052C168.441 218.132 173.357 210.112 175.762 201.73C178.167 193.347 178.4 184.488 178.827 175.753C179.613 159.628 181.116 143.525 183.836 127.629C185.668 116.924 190.167 104.161 200.534 102.648C182.064 101.764 163.576 101.287 145.087 101.218C139.469 101.197 132.49 102.152 130.614 107.652C129.01 107.824 129.368 104.999 130.583 103.898C135.121 99.7895 141.735 99.6384 147.755 99.7024L188.152 100.132C201.2 100.27 216.846 101.989 222.753 114.071C222.582 110.48 225.716 107.092 229.178 107.125C232.953 107.161 236.11 103.759 237.212 100.009C238.314 96.2591 237.828 92.2296 237.332 88.3427C231.245 82.2211 229.651 71.8152 233.61 64.0344C234.729 61.8337 236.384 56.5862 245.623 53.2087C251.782 50.9569 257.87 51.2045 263.888 53.9514C275.188 51.6821 282.953 52.4876 287.184 56.3679C293.53 62.1884 293.651 66.9584 289.999 71.1928C294.128 69.5167 298.98 72.3597 301.048 76.4315C303.116 80.5034 303.008 85.3819 302.386 89.9399C300.845 101.228 296.414 112.076 289.67 121.072L288.74 123.917C305.055 128.285 318.252 143.261 321.001 160.523C315.577 147.827 308.234 134.38 295.583 129.873C292.729 132.983 289.793 136.227 288.453 140.292C287.112 144.356 287.836 149.492 291.236 151.94C289.101 152.454 286.966 152.968 284.83 153.482C285.541 154.791 286.252 156.1 286.963 157.41C278.895 163.779 277.967 175.826 278.016 186.35C278.065 196.875 277.88 208.744 270.528 215.987C263.975 222.443 253.973 222.885 244.944 222.587C222.746 221.856 200.615 218.926 178.95 213.851C177.108 213.419 174.775 213.156 173.713 214.778C166.028 226.512 149.957 227.561 136.327 226.54C118.819 225.228 101.412 222.47 84.3239 218.302C74.6311 215.937 64.3383 212.645 58.3 204.424C51.2606 194.839 52.0735 181.551 53.2158 169.555C46.2756 173.562 38.0479 175.113 30.1942 173.895C38.4729 168.274 42.4874 157.522 42.5628 147.25C42.6383 136.978 39.3369 127.023 35.6639 117.485C27.5712 122.36 23.3132 132.635 23.9464 142.328C24.5796 152.022 29.532 161.019 36.1766 167.859C27.9856 162.49 22.5656 152.819 22.117 142.771C21.6683 132.723 26.2034 122.572 33.8809 116.44C32.6541 112.083 26.3247 111.55 23.0073 114.506C19.69 117.462 18.649 122.261 17.7956 126.713C16.2189 134.939 14.6357 143.358 15.7813 151.661C16.9269 159.964 21.3434 168.275 28.7441 171.635C25.2855 174.224 20.679 170.497 18.3821 166.767C9.06748 151.64 8.78618 131.021 17.6843 115.627C18.7532 113.777 19.9865 111.955 21.7271 110.778C23.5723 109.53 25.822 109.12 28.0153 108.918C36.6663 108.123 45.5425 110.22 53.0106 114.824C52.9439 89.6164 52.8772 64.4089 52.8105 39.2014C52.8067 37.7579 52.8261 36.2261 53.5671 35.0049C54.639 33.2384 56.8347 32.6909 58.811 32.3078C76.7889 28.8225 94.9707 26.4719 113.223 25.2733C119.186 24.8817 127.348 26.6054 127.375 32.8111ZM115.185 26.7921C95.8338 27.7381 76.5524 30.2224 57.5652 34.2161C56.7571 34.386 55.9014 34.5845 55.314 35.1854C54.5139 36.0039 54.452 37.3008 54.4415 38.4671C54.2148 63.5669 54.3106 88.6698 54.7291 113.767C57.0527 113.165 59.3763 112.564 61.6999 111.962C60.7916 106.812 59.8794 101.592 60.2678 96.3725C60.6562 91.1524 62.5007 85.8437 66.2947 82.3959C70.4009 78.6643 76.1311 77.6099 81.574 77.213C86.8082 76.8313 92.074 76.9198 97.2936 77.477C102.622 78.0458 108.234 79.2744 112.078 83.1481C117.631 88.7436 117.721 97.8089 117.433 105.838C116.67 127.154 115.907 148.469 115.144 169.784C114.965 174.788 114.775 179.859 113.357 184.644C111.939 189.429 109.125 193.978 104.867 196.326C100.689 198.631 95.6889 198.565 90.9881 198.011C86.5001 197.481 82.0553 196.557 77.7168 195.252C75.0814 194.459 72.4445 193.504 70.2048 191.858C62.7936 186.411 61.9173 175.543 61.7374 166.116C58.8916 165.582 56.1097 167.832 54.9347 170.576C53.7597 173.32 53.8118 176.438 53.8847 179.44C54.0668 186.928 54.3478 194.791 58.0289 201.233C63.7086 211.173 75.6384 214.845 86.5306 217.218C105.864 221.431 125.493 224.178 145.21 225.431C136.41 220.777 128.609 212.811 126.753 202.738C126.249 200.002 126.195 197.201 126.142 194.415C125.115 139.953 124.087 85.4911 123.06 31.029C122.995 27.5848 118.499 26.6301 115.185 26.7921ZM190.201 116.209C189.711 117.448 189.355 118.824 189.681 120.12C190.007 121.417 191.22 122.549 192.493 122.328C198.193 121.343 204.338 124.258 207.351 129.379C209.837 133.604 210.183 138.774 210.463 143.717L213.012 188.744C213.284 193.556 213.419 198.851 210.539 202.631C206.803 207.536 199.787 207.699 193.794 207.09C188.849 206.588 183.647 205.734 179.807 202.458C179.943 204.365 179.408 206.315 178.325 207.861C176.988 209.769 179.146 212.28 181.246 213.182C183.81 214.284 186.599 214.668 189.351 215.039C201.957 216.738 214.57 218.376 227.19 219.954C236.904 221.168 246.773 222.344 256.43 220.714C250.321 218.934 244.475 216.183 239.158 212.585C236.506 210.79 233.941 208.739 232.132 206.041C229.179 201.637 228.557 196.04 228.066 190.698C226.605 174.811 225.517 158.887 224.804 142.946C224.279 131.187 220.648 119.595 214.413 109.765C213.298 108.007 211.934 106.183 209.963 105.694C202.125 103.748 193.259 108.466 190.201 116.209ZM154.263 217.962C154.928 218.08 155.61 218.234 156.158 218.642C156.706 219.051 157.088 219.775 156.92 220.454C156.751 221.132 155.889 221.578 155.345 221.164C154.744 220.708 153.945 220.692 153.229 220.482C152.513 220.272 151.762 219.654 151.891 218.893C152.054 217.929 153.333 217.798 154.263 217.962ZM126.661 218.249C127.486 218.427 128.452 219.037 128.283 219.895C128.134 220.65 127.233 220.902 126.497 221.004C125.671 221.119 124.79 221.225 124.041 220.848C123.292 220.471 122.805 219.408 123.297 218.71C123.629 218.239 124.249 218.114 124.81 218.09C125.43 218.064 126.054 218.118 126.661 218.249ZM176.009 208.722C175.226 209.308 174.688 210.173 174.136 210.995C171.618 214.742 168.426 217.999 164.774 220.548C164.866 220.95 165.446 220.848 165.79 220.641C170.018 218.097 173.036 213.894 175.932 209.806C176.169 209.472 176.364 208.912 176.009 208.722ZM213.816 107.497C216.072 110.263 218.346 113.055 219.996 116.25C221.785 119.713 222.79 123.55 223.599 127.389C228.126 148.865 226.918 171.193 229.852 192.966C230.381 196.894 231.081 200.907 233.049 204.306C235.355 208.289 239.182 211.05 243.081 213.331C246.234 215.177 249.525 216.797 252.988 217.89C258.495 219.628 265.11 219.749 269.331 215.686C271.702 213.405 272.949 210.15 273.923 206.949C278.097 193.231 278.556 178.317 275.234 164.35C275.317 172.703 276.362 181.037 276.123 189.387C275.884 197.736 274.233 206.335 269.507 213.094C268.571 214.433 267.486 215.718 266.071 216.479C264.208 217.482 261.994 217.462 259.911 217.198C256.272 216.736 252.715 215.595 249.46 213.844C246.988 212.514 244.7 210.843 242.484 209.093C239.908 207.058 237.379 204.867 235.574 202.077C233.785 199.312 232.787 196.082 231.996 192.854C226.221 169.281 230.351 143.853 223.498 120.594C221.883 115.112 219.078 109.231 213.816 107.497ZM76.0408 211.2C89.3729 213.337 102.705 215.474 116.037 217.611C115.699 218.527 114.48 218.559 113.544 218.43C102.142 216.848 90.7406 215.266 79.3388 213.684C78.0498 213.505 76.7609 213.327 75.4719 213.148C74.8601 213.063 74.1004 212.833 74.0231 212.197C73.9141 211.301 75.1811 211.062 76.0408 211.2ZM230.699 129.843C227.883 133.098 228.086 138.008 228.455 142.367C229.262 151.906 230.069 161.446 230.876 170.986C230.914 171.432 230.96 171.903 231.212 172.266C231.624 172.861 232.422 172.964 233.126 173.016C242.711 173.717 252.296 174.419 261.881 175.12C261.165 176.297 259.549 176.314 258.213 176.207C249.189 175.484 240.128 175.249 231.081 175.505C230.925 180.323 231.609 185.17 233.089 189.739C233.731 191.72 236.202 192.141 238.212 192.226C245.879 192.548 253.546 192.871 261.213 193.193C261.566 194.018 260.327 194.533 259.458 194.523C251.577 194.429 243.697 194.335 235.816 194.24C234.737 194.228 234.346 195.816 234.753 196.854C235.816 199.568 239.2 200.152 242.016 200.335L259.635 201.481C260.038 201.507 260.121 202.164 259.828 202.451C259.534 202.737 259.086 202.745 258.684 202.736L238.054 202.282C243.388 208.874 250.869 213.559 258.973 215.381C260.719 215.773 262.571 216.031 264.267 215.449C266.297 214.753 267.794 212.963 268.966 211.106C275.182 201.259 274.768 188.587 274.133 176.831L273.413 163.506C273.665 163.147 274.181 163.022 274.559 163.23C274.705 162.577 273.887 162.189 273.252 162.068C259.23 159.393 244.841 156.714 230.809 159.327C230.36 159.135 230.364 158.411 230.705 158.053C231.047 157.695 231.564 157.608 232.044 157.539C233.962 157.265 235.881 156.991 237.799 156.717C233.397 154.652 230.728 149.747 229.931 144.799C229.134 139.852 229.912 134.793 230.699 129.843ZM161.783 210.85C163.032 211.092 164.474 211.488 164.961 212.706C163.571 213.691 161.745 213.59 160.067 213.45C159.606 213.412 159.102 213.354 158.777 213.011C158.204 212.403 158.632 211.285 159.37 210.916C160.108 210.547 160.978 210.695 161.783 210.85ZM66.6638 201.949C81.0275 206.636 95.9121 209.599 110.927 210.761C112.091 210.851 113.657 211.428 113.433 212.618C97.5538 210.753 81.7716 207.997 66.1783 204.365C65.1832 204.133 63.9066 203.397 64.2771 202.411C64.6027 201.544 65.8089 201.67 66.6638 201.949ZM119.274 209.183C120.008 209.182 120.716 209.442 121.401 209.713C121.75 209.851 122.134 210.029 122.269 210.39C122.557 211.16 121.535 211.71 120.753 211.857C120.226 211.956 119.7 212.056 119.173 212.155C118.729 212.239 118.251 212.318 117.842 212.119C117.178 211.796 117.005 210.801 117.386 210.15C117.767 209.499 118.541 209.185 119.274 209.183ZM186.913 207.539C193.266 208.794 199.774 208.865 206.241 208.932C206.742 208.937 206.877 209.755 206.519 210.119C206.162 210.483 205.604 210.499 205.103 210.489C199.066 210.365 193.021 209.704 187.002 210.197C186.347 210.251 185.666 210.315 185.051 210.075C184.435 209.836 183.91 209.19 184.027 208.518C184.128 207.939 184.671 207.534 185.228 207.422C185.784 207.31 186.356 207.429 186.913 207.539ZM201.266 104.1C194.073 105.216 188.029 111.865 187.371 119.388C186.757 126.414 184.889 133.246 183.56 140.165C179.291 162.383 180.586 185.408 176.812 207.722C178.191 205.115 178.562 202.081 178.91 199.129L188.061 121.295C188.305 119.224 188.554 117.129 189.27 115.18C191.228 109.852 196.288 106.506 201.266 104.1ZM168.557 204.908C168.949 205.037 169.351 205.207 169.612 205.537C169.873 205.867 169.939 206.399 169.653 206.707C169.438 206.938 169.101 206.98 168.792 207.009C167.78 207.101 166.769 207.194 165.758 207.287C165.212 207.337 164.648 207.385 164.128 207.206C163.608 207.027 163.139 206.559 163.124 205.99C163.098 205.027 164.243 204.542 165.169 204.479C166.311 204.402 167.467 204.548 168.557 204.908ZM189.852 124.331C189.015 124.643 188.791 125.741 188.696 126.659L185.539 157.19C185.352 158.998 187.601 160.152 189.298 159.704C190.995 159.256 192.291 157.879 193.758 156.887C195.226 155.895 197.294 155.323 198.642 156.485C200.165 157.797 202.419 156.339 203.742 154.811C205.065 153.282 206.788 151.439 208.67 152.077C206.463 154.269 204.256 156.462 202.049 158.654C201.316 159.381 200.671 160.833 201.596 161.263C204.132 160.329 206.424 158.692 208.172 156.567C208.98 156.54 209.018 157.859 208.567 158.556C206.868 161.181 202.869 161.766 201.839 164.744C199.436 171.694 191.941 176.311 184.915 175.168C183.474 174.933 182.756 176.901 182.582 178.406C181.891 184.403 181.199 190.4 180.508 196.397C180.349 197.776 180.2 199.236 180.747 200.504C181.66 202.619 184.101 203.42 186.265 203.989C190.33 205.059 194.462 206.136 198.652 205.982C202.843 205.829 207.176 204.272 209.83 200.901C209.095 199.909 207.458 201.18 206.388 200.607C205.341 200.046 205.897 198.178 207.021 197.811C208.145 197.444 209.332 198.027 210.376 198.595C211.031 197.266 211.706 195.844 211.571 194.357C211.436 192.871 210.122 191.4 208.721 191.735C207.8 191.954 207.425 190.297 208.167 189.69C208.91 189.083 209.976 189.28 210.895 189.507C210.946 185.919 210.998 182.331 211.049 178.744C211.059 178.011 211.061 177.243 210.727 176.598C210.393 175.953 209.6 175.501 208.965 175.819C208.099 176.253 207.349 174.722 207.928 173.925C208.507 173.129 209.601 173.026 210.561 172.991C210.636 169.805 210.437 166.612 209.97 163.462C206.354 165.343 205.721 170.309 205.356 174.492C204.657 182.515 203.25 190.47 201.159 198.228C200.69 199.965 200.163 201.742 199.068 203.144C197.973 204.545 196.169 205.497 194.487 205.041C194.865 203.767 196.149 203.083 197.089 202.175C198.782 200.541 199.411 198.072 199.963 195.741C201.871 187.688 203.791 179.537 203.767 171.244L203.763 170.688C203.751 169.109 203.735 167.508 204.236 166.024C204.796 164.367 206.2 162.867 207.892 162.859C209.675 162.85 210.101 160.28 209.942 158.435C209.392 152.072 208.842 145.71 208.292 139.348C208.117 137.315 207.937 135.264 207.344 133.32C205.148 126.129 196.688 121.782 189.852 124.331ZM216.77 201.927C217.609 202.161 218.422 203.056 218.074 203.882C217.741 204.671 216.697 204.714 215.871 204.633C215.467 204.593 215.037 204.543 214.721 204.278C214.169 203.814 214.247 202.829 214.765 202.323C215.282 201.817 216.084 201.736 216.77 201.927ZM116.011 201.045C116.563 201.169 117.137 201.336 117.534 201.753C117.93 202.17 118.061 202.914 117.667 203.333C117.345 203.676 116.826 203.682 116.365 203.666C115.702 203.641 115.04 203.617 114.377 203.593C113.993 203.579 113.583 203.556 113.275 203.318C112.617 202.809 112.906 201.618 113.612 201.186C114.319 200.754 115.209 200.865 116.011 201.045ZM64.9544 194.802C68.6639 196.594 72.7394 197.375 76.7696 198.104C84.9283 199.58 93.1115 200.91 101.314 202.092C102.462 202.257 103.733 202.491 104.433 203.451C101.256 203.676 98.0815 203.127 94.9416 202.579C84.5907 200.774 74.2397 198.969 63.8888 197.164C62.8038 196.975 61.4029 196.349 61.6142 195.228C61.8647 193.899 63.7719 194.231 64.9544 194.802ZM129.363 156.727C129.003 158.228 129.072 159.8 129.121 161.346C129.428 171.001 128.877 180.685 127.476 190.235C127.142 192.512 128.451 194.788 130.251 196.132C132.052 197.477 134.27 198.054 136.447 198.49C141.355 199.472 146.371 199.874 151.367 199.687C153.266 199.616 155.245 199.434 156.869 198.409C158.408 197.439 159.451 195.823 160.369 194.216C164.264 187.394 166.819 179.751 167.83 171.89C153.818 171.824 139.889 166.334 129.363 156.727ZM166.012 195.006C166.969 195.334 167.926 195.662 168.882 195.99C169.201 196.099 169.543 196.226 169.733 196.514C170.053 197.001 169.742 197.714 169.247 198.003C168.752 198.292 168.152 198.277 167.584 198.253C166.552 198.211 165.411 198.12 164.69 197.351C163.969 196.582 164.216 194.923 165.247 194.853C165.508 194.835 165.764 194.921 166.012 195.006ZM216.162 195.15C216.731 195.245 217.331 195.354 217.77 195.742C218.208 196.13 218.388 196.899 217.984 197.325C217.821 197.497 217.595 197.586 217.376 197.665C216.529 197.971 215.589 198.215 214.751 197.882C213.914 197.549 213.343 196.399 213.869 195.645C214.353 194.952 215.348 195.015 216.162 195.15ZM67.4203 163.007C66.8308 163.298 66.1998 163.629 65.9086 164.235C65.6914 164.687 65.7028 165.216 65.7189 165.721C65.9393 172.599 66.2172 179.724 69.1793 185.881C69.9793 187.543 70.9969 189.143 72.4376 190.246C73.3104 190.914 74.3093 191.378 75.2997 191.836C77.0186 192.631 78.7413 193.425 80.5255 194.046C84.6127 195.468 88.9389 195.949 93.2252 196.422C95.0428 196.623 96.9786 196.803 98.6092 195.945C100.529 194.935 101.551 192.747 102.377 190.683C106.981 179.176 109.609 166.819 110.102 154.368C110.172 152.599 107.991 151.818 106.29 151.699C92.7085 150.753 79.7201 156.953 67.4203 163.007ZM112.211 153.869C111.862 154.345 111.819 154.982 111.785 155.579C110.972 169.659 107.597 183.576 101.892 196.377C107.328 193.52 111.378 187.972 112.559 181.765C112.965 179.631 113.048 177.446 113.13 175.273C113.389 168.419 113.647 161.564 113.906 154.71C113.919 154.349 113.922 153.952 113.7 153.672C113.334 153.211 112.559 153.393 112.211 153.869ZM114.462 188.165C115.152 188.204 115.801 188.502 116.471 188.675C117.071 188.83 117.253 189.718 116.918 190.258C116.582 190.798 115.936 191.033 115.323 191.122C114.684 191.215 113.996 191.18 113.446 190.829C112.896 190.477 112.539 189.743 112.758 189.112C112.993 188.438 113.773 188.126 114.462 188.165ZM216.557 186.304C217.202 186.442 217.755 186.857 218.286 187.262C218.575 187.481 218.881 187.728 218.976 188.085C219.096 188.543 218.806 189.035 218.406 189.263C218.005 189.491 217.526 189.507 217.071 189.469C216.425 189.415 215.757 189.249 215.27 188.805C214.782 188.362 214.534 187.583 214.838 186.988C215.147 186.384 215.912 186.165 216.557 186.304ZM63.1218 165.01C62.9454 165.337 62.981 165.737 63.0217 166.109L63.98 174.872C64.5 179.627 65.181 184.752 68.3815 188.195C68.9151 187.932 68.614 187.099 68.2776 186.595C65.6852 182.71 65.1859 177.769 64.7654 173.063C64.519 170.304 64.2725 167.545 64.026 164.786C63.7782 164.514 63.2982 164.683 63.1218 165.01ZM233.782 182.96C242.575 183.185 251.367 183.41 260.16 183.636C261.506 183.67 262.856 183.705 264.187 183.913C263.909 184.911 262.645 185.099 261.644 185.089C252.827 185.003 243.98 184.436 235.21 185.388C234.46 185.469 233.651 185.55 233 185.154C232.35 184.759 232.058 183.674 232.656 183.197C232.966 182.95 233.391 182.95 233.782 182.96ZM209.624 181.165C209.818 181.231 210.016 181.301 210.174 181.435C210.699 181.879 210.504 182.828 209.966 183.257C209.429 183.685 208.704 183.735 208.026 183.752C207.321 183.77 206.499 183.712 206.097 183.11C205.592 182.354 206.192 181.236 207.027 180.929C207.862 180.623 208.782 180.879 209.624 181.165ZM216.053 179.32C216.873 179.412 217.671 179.711 218.359 180.183C218.885 180.544 218.78 181.45 218.301 181.876C217.823 182.302 217.14 182.362 216.51 182.338C215.873 182.314 215.208 182.214 214.693 181.824C214.178 181.435 213.871 180.682 214.147 180.085C214.462 179.405 215.33 179.239 216.053 179.32ZM127.475 158.481C126.996 165.648 126.782 172.834 126.832 180.018C126.834 180.321 127.033 180.753 127.283 180.595C127.813 174.556 128.072 168.492 128.062 162.429C128.059 161.086 128.033 159.693 127.475 158.481ZM118.076 176.867C118.83 176.926 119.496 177.381 120.111 177.839C120.3 177.98 120.495 178.13 120.601 178.346C120.82 178.792 120.557 179.367 120.145 179.628C119.733 179.889 119.223 179.91 118.741 179.886C117.645 179.833 116.267 179.214 116.389 178.081C116.474 177.3 117.321 176.808 118.076 176.867ZM217.879 172.039C218.614 172.352 219.369 173.169 218.99 173.893C218.733 174.383 218.107 174.489 217.57 174.495C216.946 174.502 216.322 174.449 215.707 174.337C214.843 174.181 214.71 172.769 215.382 172.182C216.053 171.595 217.068 171.693 217.879 172.039ZM303.44 158.016C303.743 158.542 303.748 159.19 303.744 159.802C303.719 164.139 303.693 168.476 303.668 172.813C303.664 173.339 303.596 173.978 303.136 174.199C302.738 174.39 302.248 174.121 302.026 173.729C301.805 173.336 301.785 172.859 301.777 172.404C301.713 168.532 302.129 164.568 301.073 160.854C300.759 159.75 300.384 158.372 301.204 157.599C301.846 156.995 302.996 157.244 303.44 158.016ZM196.078 157.514C192.913 159.553 189.583 161.651 185.867 161.929C185.191 161.979 184.887 162.818 184.754 163.508C184.153 166.612 183.822 169.773 183.765 172.939C183.762 173.132 183.764 173.34 183.871 173.498C184.043 173.749 184.392 173.76 184.688 173.744C187.587 173.586 190.525 173.272 193.217 172.145C195.909 171.018 198.359 168.976 199.455 166.185C200.552 163.394 200.025 159.835 197.785 157.918C197.303 157.506 196.609 157.172 196.078 157.514ZM171.844 169.721C172.861 169.998 173.878 170.276 174.895 170.553C175.275 170.657 175.698 170.794 175.88 171.156C176.094 171.582 175.845 172.132 175.457 172.395C175.07 172.658 174.588 172.708 174.127 172.751C173.396 172.818 172.643 172.883 171.942 172.659C171.241 172.435 170.595 171.847 170.514 171.09C170.434 170.332 171.135 169.527 171.844 169.721ZM30.7646 111.929C34.5709 113.53 37.436 116.993 39.2129 120.838C40.9899 124.683 41.7991 128.922 42.5042 133.123C43.6713 140.077 44.6008 147.175 43.7498 154.178C42.8987 161.182 40.0798 168.165 34.854 172.678C38.6607 172.889 43.2058 172.733 45.2724 169.406C46.1999 167.913 48.1959 167.252 49.7842 167.913C48.7857 167.016 49.5394 165.347 50.2804 164.213C53.3168 159.565 55.4002 154.223 56.1446 148.66C57.5882 137.874 53.9589 126.942 48.5737 117.597C45.0797 111.534 36.9298 108.94 30.7646 111.929ZM121.015 167.805C121.801 168.126 121.618 169.474 120.884 169.907C120.15 170.34 119.235 170.146 118.417 169.929C118.035 169.829 117.63 169.711 117.371 169.403C116.766 168.684 117.46 167.469 118.356 167.255C119.252 167.04 120.16 167.456 121.015 167.805ZM149.253 115.899C145.892 115.961 142.365 116.387 139.621 118.403C138.714 119.07 137.89 119.943 137.558 121.045C137.227 122.147 137.506 123.501 138.426 124.148C140.752 125.784 141.701 128.845 142.137 131.728C142.573 134.61 142.677 137.628 143.942 140.233C144.594 141.577 145.53 142.749 146.51 143.857C151.828 149.861 158.765 154.303 166.319 156.542C167.647 156.936 169.336 157.788 169.056 159.192C158.188 156.825 148.277 150.014 141.931 140.551C140.003 146.701 136.199 152.201 131.203 156.063C140.949 164.676 153.56 169.722 166.351 170.126C166.93 170.145 167.586 170.122 167.977 169.677C168.233 169.386 168.313 168.977 168.383 168.589C170.193 158.479 171.469 148.265 172.203 138.009C172.454 134.501 172.638 130.934 171.907 127.499C171.177 124.064 169.415 120.724 166.534 118.873C164.76 117.732 162.682 117.22 160.627 116.839C156.877 116.144 153.062 115.829 149.253 115.899ZM216.03 165.104C216.911 165.104 218.023 165.372 218.178 166.273C218.332 167.171 217.347 167.839 216.476 167.955C215.838 168.039 215.146 167.959 214.64 167.547C214.135 167.136 213.9 166.329 214.251 165.77C214.611 165.198 215.372 165.103 216.03 165.104ZM281.139 147.074C279.521 153.581 278.577 160.245 277.636 166.893C277.589 167.224 277.562 167.615 277.803 167.838C280.324 164.585 282.637 161.158 284.721 157.587C284.926 157.235 285.129 156.774 284.898 156.438C284.376 155.68 283.853 154.922 283.331 154.164C282.944 153.601 282.544 152.86 282.885 152.265C283.162 151.782 283.782 151.68 284.322 151.628L288.751 151.205C288.703 150.92 288.536 150.674 288.374 150.439C287.188 148.725 285.894 146.923 283.995 146.171C282.943 145.755 281.42 145.942 281.139 147.074ZM75.9984 79.7641C72.7605 80.3285 69.2533 81.3009 67.3742 84.097C66.3226 85.6619 65.9357 87.5944 65.6268 89.4755C64.4115 96.875 64.032 104.422 64.4984 111.913C78.4571 105.168 94.7892 103.887 109.565 108.377C110.818 108.758 112.369 109.912 111.711 111.084C100.627 106.826 88.2815 106.191 76.8468 109.291C73.1468 110.294 69.5511 111.673 65.8721 112.756C60.4047 114.366 54.7579 115.318 49.0809 115.586C59.4202 130.165 60.7581 151.041 52.3705 166.914C57.5891 165.888 62.4926 163.611 67.3044 161.276C74.4886 157.789 81.6418 154.113 89.2733 151.874C96.9047 149.636 105.156 148.904 112.725 151.358C113.611 151.645 114.099 150.318 114.134 149.355L115.775 104.724C116.023 97.9629 116.044 90.4871 111.782 85.3698C108.01 80.8417 101.86 79.4254 96.1155 78.9162C89.411 78.3217 82.6345 78.6073 75.9984 79.7641ZM176.003 162.602C176.215 162.746 176.434 162.927 176.483 163.184C176.584 163.708 175.971 164.041 175.477 164.186C174.759 164.397 174.02 164.609 173.278 164.528C172.536 164.447 171.782 164.005 171.538 163.272C171.294 162.54 171.784 161.579 172.53 161.565C173.752 161.542 174.979 161.908 176.003 162.602ZM281.291 134.518C278.591 136.09 275.364 136.664 272.314 136.116C272.704 137.246 274.415 137.64 274.424 138.841C274.429 139.571 273.766 140.086 273.389 140.703C273.099 141.178 272.973 141.739 272.858 142.288C271.771 147.456 271.147 152.729 270.997 158.016C270.971 158.928 271.189 160.131 272.061 160.23C273.868 160.436 275.57 161.488 276.606 163.04C277.454 157.496 278.302 151.952 279.151 146.408C279.347 145.122 279.513 143.685 278.787 142.623C277.788 141.161 278.658 139.159 279.534 137.615L281.291 134.518ZM120.519 158.48C121.441 158.671 122.49 159.497 122.14 160.404C121.925 160.962 121.276 161.187 120.698 161.219C120.119 161.252 119.518 161.163 118.976 161.376C118.339 161.626 117.589 161.041 117.511 160.337C117.433 159.634 117.904 158.952 118.517 158.643C119.13 158.334 119.851 158.341 120.519 158.48ZM216.019 157.624C216.6 157.707 217.213 157.84 217.635 158.262C218.058 158.684 218.175 159.488 217.725 159.878C217.576 160.007 217.388 160.075 217.205 160.14C216.406 160.424 215.552 160.701 214.734 160.491C213.915 160.281 213.203 159.378 213.486 158.553C213.813 157.602 215.055 157.485 216.019 157.624ZM268.907 146.227C268.291 146.381 267.843 146.914 267.437 147.418L264.994 150.457C264.517 151.051 265.357 151.878 266.099 151.943C266.841 152.007 267.708 151.826 268.237 152.372C268.79 152.943 268.562 153.939 268.109 154.599C267.656 155.259 267.013 155.798 266.739 156.557C266.329 157.691 267.007 159.113 268.124 159.463C268.731 159.653 269.582 159.361 269.588 158.702C269.619 154.856 269.836 151.011 270.236 147.187C270.305 146.534 269.522 146.073 268.907 146.227ZM144.934 148.137C145.402 148.46 145.704 148.977 146.017 149.462C148.697 153.63 153.18 156.495 157.971 157.101C159.079 157.241 160.387 157.381 160.943 158.386C159.899 159.46 158.198 159.329 156.767 158.983C151.694 157.758 147.046 154.714 143.795 150.49C143.276 149.816 142.803 148.791 143.381 148.172C143.772 147.753 144.466 147.814 144.934 148.137ZM266.272 129.719C262.69 130.633 259.113 131.923 256.21 134.286C253.306 136.649 251.147 140.239 251.17 144.07C251.199 148.928 248.9 153.742 245.159 156.659L251.458 157.428C252.195 157.519 253.022 157.584 253.599 157.099C254.444 156.39 254.228 155.028 254.014 153.922C253.801 152.816 253.848 151.354 254.861 150.947C256.12 150.442 257.161 152.255 256.97 153.642C256.78 155.029 256.005 156.363 256.247 157.741C259.23 158.181 262.222 158.551 265.221 158.852C264.624 158.343 264.559 157.38 264.861 156.642C265.163 155.904 265.749 155.339 266.318 154.799C266.925 154.222 266.05 153.207 265.233 153.116C264.416 153.024 263.454 153.228 262.878 152.62C262.161 151.862 262.699 150.593 263.31 149.742C264.496 148.09 265.967 146.099 265.203 144.197C263.341 139.56 263.751 134.007 266.272 129.719ZM128.9 117.047C128.401 129.742 128.469 142.462 129.105 155.151C133.774 152.52 137.186 147.889 139.302 142.828C140.594 139.74 141.458 136.337 140.942 133.014C140.557 130.535 139.427 128.246 138.113 126.139C135.783 122.401 132.741 119.026 128.9 117.047ZM237.183 110.964C238.86 110.643 240.142 112.793 239.856 114.539C239.57 116.285 238.348 117.673 237.377 119.129C236.036 121.14 235.118 123.417 234.21 125.675C232.05 131.048 231.21 136.986 231.789 142.776C232.13 146.186 233.03 149.688 235.25 152.224C237.469 154.761 241.274 156.029 244.199 154.441C246.711 153.078 247.965 150.072 248.541 147.189C249.117 144.307 249.22 141.289 250.308 138.571C252.316 133.557 257.268 130.527 262.166 128.625C254.803 127.586 248.14 122.258 245.292 115.13C244.475 113.086 243.862 110.781 242.168 109.439C240.473 108.097 237.282 108.753 237.183 110.964ZM174.94 151.861C175.458 151.964 175.966 152.121 176.454 152.327C177.26 152.668 178.126 153.609 177.608 154.335C177.324 154.732 176.78 154.779 176.305 154.792C175.438 154.815 174.504 154.818 173.796 154.298C173.088 153.778 172.843 152.521 173.557 152.01C173.949 151.729 174.472 151.768 174.94 151.861ZM213.978 149.718C214.68 149.78 215.378 149.881 216.068 150.021C216.41 150.09 216.778 150.186 216.993 150.471C217.319 150.902 217.114 151.578 216.702 151.921C216.29 152.264 215.743 152.36 215.221 152.445C214.425 152.574 213.575 152.697 212.84 152.353C212.106 152.008 211.604 150.999 212.053 150.304C212.445 149.698 213.278 149.657 213.978 149.718ZM13.5634 145.802C12.9696 145.795 12.7642 146.619 12.7822 147.235C12.834 149.006 13.1793 150.768 13.7983 152.42C13.9706 152.602 14.1707 152.221 14.1467 151.967L13.5634 145.802ZM127.665 150.363C127.295 150.571 127.154 151.124 127.376 151.496L127.385 151.51L127.377 151.519C127.367 151.531 127.356 151.546 127.345 151.564C127.196 151.798 127.405 152.17 127.675 152.15C127.857 151.574 127.854 150.936 127.665 150.363ZM119.948 147.856C120.751 148.04 121.623 148.733 121.423 149.562C121.291 150.111 120.734 150.433 120.202 150.556C119.67 150.679 119.107 150.671 118.599 150.876C117.952 151.137 117.174 150.595 117.041 149.888C116.908 149.181 117.325 148.444 117.926 148.085C118.528 147.727 119.27 147.7 119.948 147.856ZM124.598 30.9147C124.644 69.1327 125.49 107.35 127.133 145.53L127.306 149.477L127.332 148.207C127.379 145.24 127.338 142.271 127.296 139.303C126.805 104.515 126.315 69.7271 125.824 34.9391C125.803 33.4826 125.693 31.8247 124.598 30.9147ZM177.234 142.267C177.685 142.407 178.137 142.62 178.43 143.002C178.722 143.385 178.806 143.974 178.516 144.359C178.236 144.732 177.729 144.803 177.275 144.845L175.339 145.023C175.023 145.052 174.683 145.077 174.407 144.911C174.185 144.778 174.038 144.535 173.97 144.277C173.767 143.503 174.271 142.663 174.969 142.318C175.667 141.973 176.494 142.037 177.234 142.267ZM21.2771 112.35C19.2641 114.405 18.2171 117.244 17.2497 119.997C14.5541 127.669 11.9924 135.812 13.3225 143.861C13.7337 143.939 13.9298 143.358 13.9603 142.925C14.5071 135.16 16.0012 127.467 18.3957 120.089C19.3094 117.274 20.4083 114.415 22.4378 112.322C22.4101 111.812 21.6278 111.993 21.2771 112.35ZM268.748 129.133C268.397 129.223 268.17 129.567 267.987 129.89C266.254 132.943 265.439 136.547 265.681 140.082C265.781 141.541 266.233 143.222 267.545 143.754C268.612 142.69 269.679 141.626 270.746 140.562C270.915 140.393 271.089 140.218 271.182 139.995C271.416 139.435 271.082 138.811 270.774 138.291C269.254 135.721 268.112 132.464 269.379 129.751C269.536 129.413 269.099 129.043 268.748 129.133ZM290.918 125.839C290.748 125.932 290.617 126.084 290.489 126.234C287.34 129.933 284.298 133.731 281.369 137.621C280.758 138.434 280.12 139.35 280.18 140.379C280.233 141.294 280.853 142.091 281.604 142.573C282.355 143.054 283.231 143.274 284.089 143.486C284.319 143.543 284.569 143.598 284.785 143.499C284.983 143.407 285.11 143.205 285.224 143.013C287.017 140.011 288.835 136.949 289.682 133.527C289.863 132.798 290.472 132.288 290.959 131.73C291.915 130.632 292.476 129.171 292.508 127.692C292.519 127.191 292.462 126.662 292.183 126.253C291.904 125.845 291.346 125.608 290.918 125.839ZM214.211 140.483C214.645 140.595 215.124 140.766 215.318 141.184C215.661 141.92 214.856 142.688 214.104 142.93C213.52 143.118 212.87 143.183 212.31 142.928C211.75 142.674 211.326 142.034 211.453 141.413C211.678 140.311 213.159 140.212 214.211 140.483ZM120.666 138.875C120.871 139.065 121.061 139.289 121.138 139.563C121.295 140.115 120.924 140.723 120.415 140.949C119.907 141.176 119.313 141.088 118.801 140.871C118.261 140.643 117.735 140.206 117.667 139.605C117.588 138.918 118.188 138.285 118.847 138.186C119.507 138.086 120.169 138.413 120.666 138.875ZM179.038 132.832C179.564 133.054 179.619 133.881 179.256 134.335C178.893 134.789 178.288 134.941 177.721 134.99C177.155 135.04 176.569 135.018 176.04 135.233C175.227 135.564 174.343 134.544 174.536 133.659C174.73 132.775 175.644 132.226 176.516 132.183C177.389 132.141 178.229 132.489 179.038 132.832ZM213.309 131.502C214.055 131.54 214.793 131.743 215.459 132.095C215.748 132.247 216.047 132.458 216.129 132.783C216.298 133.454 215.488 133.914 214.833 134.045C214.252 134.161 213.662 134.23 213.071 134.251C212.341 134.277 211.461 134.131 211.17 133.436C210.944 132.895 211.219 132.232 211.681 131.891C212.144 131.549 212.742 131.473 213.309 131.502ZM261.418 82.0049C257.065 82.7345 252.691 83.3391 248.306 83.818C245.129 84.1649 242.137 86.0367 240.356 88.791C239.99 89.3569 239.738 90.2598 240.303 90.6067C241.902 88.6916 244.072 87.298 246.436 86.6683C247.281 86.4433 248.206 86.3205 249.003 86.6892C249.799 87.0579 250.369 88.0729 250.008 88.8979C249.455 90.1645 247.689 89.8103 246.352 89.7256C242.633 89.4901 239.418 93.9094 240.651 97.5597C241.517 94.0751 246.307 92.5622 248.992 94.8371C251.677 97.1121 251.349 102.108 248.477 104.122C247.528 104.788 246.31 105.252 245.877 106.353C245.506 107.297 245.863 108.362 246.219 109.313C246.778 110.804 247.337 112.295 247.896 113.786C249.068 116.912 250.314 120.153 252.686 122.43C254.51 124.181 256.876 125.223 259.289 125.834C267.991 128.036 277.787 124.531 283.336 117.23C283.78 116.644 284.795 117.2 284.874 117.94C284.953 118.681 284.466 119.347 283.983 119.899C281.499 122.739 278.368 124.964 274.919 126.34C273.289 126.991 271.351 127.694 270.85 129.432C270.435 130.87 271.308 132.46 272.562 133.209C273.816 133.958 275.344 134.021 276.782 133.858C279.649 133.532 282.423 132.367 284.701 130.531C285.392 129.974 286.061 129.324 286.368 128.473C286.658 127.668 286.592 126.778 286.522 125.921L286.461 125.185C286.191 121.991 285.843 118.759 284.589 115.838C283.986 114.433 283.179 113.117 282.735 111.649C282.188 109.839 282.221 107.897 281.852 106.039C281.484 104.181 280.552 102.25 278.849 101.565C279.299 100.378 280.422 99.6309 281.148 98.6022C281.875 97.5735 281.982 95.7765 280.838 95.3119C280.29 95.0896 279.667 95.281 279.146 95.5624C276.948 96.7479 275.762 99.6487 276.468 102.114C276.928 103.723 274.481 104.803 273.163 103.831C271.845 102.859 271.52 101.008 271.26 99.3515C270.253 92.9293 268.231 86.0058 262.95 82.505C262.488 82.199 261.959 81.9143 261.418 82.0049ZM120.204 127.561C120.899 127.794 121.591 128.442 121.447 129.185C121.31 129.888 120.532 130.217 119.851 130.338C118.886 130.509 117.628 130.313 117.357 129.336C117.099 128.406 118.036 127.516 118.962 127.414C119.38 127.368 119.805 127.426 120.204 127.561ZM231.563 114.184C230.916 114.821 230.6 115.731 230.306 116.605C229.643 118.578 228.97 120.608 229.047 122.696C229.096 124.04 228.345 125.251 227.809 126.476C227.273 127.701 226.982 129.269 227.822 130.293C229.829 128.54 230.311 125.59 230.752 122.906C231.28 119.697 231.998 116.37 233.996 113.862C233.297 113.287 232.211 113.547 231.563 114.184ZM178.678 123.128C179.194 123.3 179.779 123.645 179.785 124.209C179.793 124.894 178.981 125.209 178.332 125.333C178.006 125.394 177.68 125.456 177.355 125.518C176.526 125.676 175.637 125.827 174.866 125.472C174.095 125.118 173.581 124.037 174.085 123.334C174.41 122.88 175.009 122.756 175.553 122.721C176.607 122.654 177.673 122.792 178.678 123.128ZM103.256 113.229C104.163 113.679 105.178 114.568 104.842 115.552C95.4928 113.435 85.5043 114.482 76.7507 118.497C72.8118 120.303 69.1144 122.692 65.0379 124.132C63.6432 124.624 62.1207 125.002 60.7118 124.556C59.3029 124.109 58.1279 122.556 58.54 121.088C58.9269 119.709 60.4051 119.054 61.7149 118.593C68.1704 116.324 74.7382 114.399 81.3838 112.829C88.6348 111.116 96.5473 109.896 103.256 113.229ZM237.503 113.112C236.836 113.11 236.274 113.618 235.835 114.141C234.771 115.408 234.014 116.927 233.451 118.504C232.751 120.463 232.338 122.532 232.228 124.618C234.161 121.164 236.228 117.791 238.423 114.51C238.803 113.94 238.171 113.115 237.503 113.112ZM225.657 119.265C225.474 119.266 225.28 119.273 225.126 119.375C224.778 119.604 224.826 120.14 224.929 120.554C225.257 121.869 225.71 123.15 226.281 124.371C226.623 122.65 227.173 120.973 227.913 119.392C227.164 119.303 226.41 119.261 225.657 119.265ZM79.1507 114.827C73.6166 116.593 68.0824 118.36 62.5483 120.126C61.8872 120.337 61.1201 120.663 60.9793 121.366C61.4293 122.048 62.2863 122.337 63.0813 122.297C63.8763 122.257 64.6309 121.941 65.3677 121.628C70.9821 119.246 76.5966 116.863 82.211 114.481C81.2083 114.19 80.1459 114.509 79.1507 114.827ZM137.55 118.051C137.253 118.587 136.634 118.814 136.171 119.201C135.707 119.589 135.435 120.423 135.924 120.774C136.674 119.995 137.424 119.215 138.173 118.436C138.018 118.237 137.793 118.097 137.55 118.051ZM195.941 117.636C199.964 118.071 204.023 118.294 208.052 117.933C209.095 117.84 210.342 117.796 210.96 118.673C210.179 119.499 208.951 119.598 207.838 119.648C203.655 119.834 199.473 120.02 195.29 120.206C194.474 120.242 193.441 120.134 193.176 119.332C192.968 118.701 193.441 118.004 194.036 117.75C194.631 117.497 195.302 117.567 195.941 117.636ZM258.132 113.072C259.106 114.301 259.461 116.031 259.056 117.566C258.956 117.945 258.81 118.317 258.576 118.626C257.964 119.437 256.835 119.677 255.87 119.437C254.905 119.197 254.078 118.559 253.342 117.868C252.583 117.156 251.871 116.345 251.507 115.353C251.142 114.36 251.185 113.153 251.831 112.33C252.364 111.651 253.224 111.326 254.065 111.262C255.593 111.146 257.159 111.842 258.132 113.072ZM122.525 115.93C122.91 116.253 122.845 116.923 122.517 117.306C122.189 117.69 121.688 117.854 121.209 117.978C120.643 118.125 120.047 118.239 119.48 118.099C118.912 117.959 118.38 117.502 118.31 116.9C118.209 116.027 119.088 115.344 119.924 115.207C120.837 115.058 121.806 115.327 122.525 115.93ZM253.678 113.361C253.252 113.934 253.532 114.968 254.223 115.066C255.021 115.18 255.642 116.05 255.513 116.876C255.412 117.524 256.173 118.066 256.777 117.871C257.381 117.677 257.731 116.974 257.717 116.317C257.704 115.661 257.402 115.049 257.06 114.496C256.683 113.888 256.222 113.296 255.586 113C254.95 112.703 254.105 112.788 253.678 113.361ZM251.554 54.5101C245.754 55.6132 240.009 58.2438 236.269 62.9766C232.528 67.7094 231.235 74.7925 234.159 80.1091C235.192 81.9879 236.77 83.6263 238.754 84.2877C240.738 84.949 243.137 84.4623 244.46 82.7913C245.962 80.8959 248.992 82.7137 251.252 81.9943C254.377 80.9991 257.626 80.4216 260.892 80.2806C261.667 80.2472 262.465 80.2421 263.188 80.5332C263.972 80.8491 264.592 81.4824 265.188 82.0991C267.256 84.2383 269.366 86.4393 270.59 89.1906C272.531 93.5537 272.05 98.8738 274.502 102.95C274.789 100.394 275.075 97.8377 275.362 95.2816C275.468 94.3331 275.586 93.3482 276.08 92.5426C276.574 91.737 277.561 91.1716 278.425 91.4977C279.949 92.0728 281.537 92.6904 282.631 93.9339C283.725 95.1774 284.13 97.25 283.078 98.5322C282.062 99.7713 283.215 101.562 283.755 103.09C284.69 105.738 283.59 108.763 284.325 111.478C284.934 113.727 286.693 115.406 288.374 116.959C288.866 117.413 289.439 117.897 290.094 117.835C290.642 117.783 291.083 117.358 291.458 116.939C293.691 114.439 295.221 111.268 295.813 107.913C296.052 106.56 295.598 104.588 294.285 104.772C294.644 101.525 297.519 99.3122 299.207 96.5532C301.028 93.5774 301.458 89.9184 301.541 86.3937C301.625 82.8512 301.292 79.0013 299.019 76.3586C296.288 73.1837 290.981 72.9465 287.997 75.8659C287.254 76.5937 286.273 77.5555 285.386 77.0289C286.082 75.7333 286.777 74.4378 287.472 73.1423C288.606 71.031 289.763 68.843 289.993 66.4377C290.448 61.692 286.969 57.1986 282.667 55.5297C278.365 53.8607 273.508 54.5528 269.193 56.185C268.112 56.5941 266.834 57.4728 267.127 58.6287C267.297 59.2981 267.95 59.7023 268.285 60.3008C268.494 60.6739 268.473 60.7935 268.237 61.0954C268.094 61.2778 267.837 61.8058 267.606 61.7028C265.16 58.7603 262.514 55.6797 258.927 54.5669C256.55 53.8292 253.994 54.0458 251.554 54.5101ZM223.768 115.196C223.462 115.008 222.877 114.885 222.934 115.249C223.099 116.14 223.872 116.803 224.706 117.076C225.54 117.348 226.435 117.302 227.307 117.253C227.649 117.234 228.013 117.207 228.284 116.992C228.512 116.811 228.637 116.527 228.753 116.255C228.952 115.789 229.15 115.322 229.349 114.856C227.727 113.76 225.433 116.221 223.768 115.196ZM176.928 112.152C177.61 112.205 178.287 112.329 178.946 112.52C179.517 112.686 180.173 113.033 180.201 113.648C180.238 114.458 179.224 114.788 178.447 114.858C177.655 114.929 176.864 115 176.073 115.071C175.496 115.123 174.844 115.149 174.421 114.74C173.851 114.191 174.081 113.125 174.697 112.634C175.314 112.142 176.153 112.092 176.928 112.152ZM195.432 111.976C199.216 112.502 203.052 112.629 206.86 112.354C207.307 112.322 207.794 112.294 208.162 112.56C208.53 112.825 208.621 113.509 208.22 113.715C208.098 113.777 207.958 113.784 207.822 113.789C203.217 113.969 198.613 114.15 194.008 114.33C193.588 114.347 193.126 114.349 192.803 114.07C192.225 113.57 192.557 112.501 193.22 112.132C193.882 111.763 194.686 111.872 195.432 111.976ZM232.174 108.081C230.704 108.163 229.208 108.305 227.851 108.897C226.494 109.489 225.276 110.603 224.871 112.073C224.788 112.371 224.758 112.738 224.978 112.948C225.15 113.111 225.408 113.113 225.64 113.104C228.082 113.004 230.514 112.626 232.877 111.98C234.052 111.658 235.469 110.883 235.31 109.632C235.226 108.973 234.679 108.458 234.075 108.24C233.47 108.022 232.813 108.045 232.174 108.081ZM62.5745 107.897C62.3401 109.185 62.2828 110.508 62.4049 111.813C62.7086 112.154 63.1083 111.489 63.0826 111.026C63.024 109.968 62.8533 108.916 62.5745 107.897ZM141.209 106.321C149.674 106.718 158.139 107.116 166.604 107.513C167.394 107.55 168.444 107.864 168.397 108.684C167.387 109.358 166.083 109.219 164.891 109.074C157.345 108.161 149.711 108.035 142.142 108.698C141.488 108.756 140.794 108.811 140.211 108.5C139.627 108.188 139.251 107.358 139.63 106.802C139.961 106.316 140.636 106.294 141.209 106.321ZM120.683 105.399C121.055 105.457 121.443 105.559 121.714 105.831C122.332 106.453 121.95 107.636 121.207 108.087C120.463 108.538 119.541 108.475 118.683 108.398C117.742 108.313 117.436 106.846 118.055 106.104C118.673 105.362 119.748 105.252 120.683 105.399ZM150.455 102.147C164.251 102.891 178.047 103.634 191.842 104.377C192.581 104.417 193.559 104.712 193.52 105.48C191.246 105.905 188.89 105.858 186.632 105.341L188.637 107.132C187.681 107.758 186.663 108.404 185.534 108.43C184.404 108.456 183.175 107.591 183.207 106.419C183.778 106.145 184.35 105.871 184.921 105.597C173.777 104.605 162.58 104.244 151.398 104.514C150.752 104.529 150.064 104.535 149.519 104.176C148.974 103.817 148.698 102.943 149.149 102.464C149.472 102.121 149.994 102.123 150.455 102.147ZM239.785 104.063C239.288 104.092 238.866 104.434 238.481 104.762C238.024 105.15 237.567 105.538 237.111 105.926C236.632 106.333 236.114 106.818 236.086 107.459C236.071 107.808 236.326 108.221 236.653 108.142C236.744 108.12 236.823 108.063 236.9 108.007C237.988 107.21 239.076 106.413 240.164 105.616C240.386 105.454 240.623 105.27 240.695 104.998C240.826 104.499 240.282 104.035 239.785 104.063ZM256.708 99.8889C256.751 101.051 256.196 102.14 255.998 103.285C255.801 104.43 256.177 105.887 257.267 106.155C257.588 106.234 257.682 106.712 257.5 106.999C257.319 107.285 256.976 107.409 256.651 107.47C255.641 107.661 254.445 107.324 253.981 106.374C253.749 105.898 253.731 105.344 253.718 104.811C253.682 103.383 253.647 101.955 253.612 100.527C253.588 99.5509 253.693 98.3487 254.553 97.9546C255.578 97.4853 256.665 98.7267 256.708 99.8889ZM241.702 106.367C241.503 106.463 241.367 106.686 241.369 106.914L241.32 106.927C241.43 107.182 241.827 107.222 241.983 106.994C242.138 106.766 241.969 106.39 241.702 106.367ZM239.798 98.9034C239.342 98.9154 238.831 99.0016 238.561 99.384C238.273 99.7929 238.39 100.393 238.686 100.796C238.983 101.199 239.419 101.458 239.827 101.737C241.543 102.913 242.914 104.626 243.713 106.594C244.256 105.851 244.799 105.109 245.342 104.366C245.748 103.811 246.176 103.177 246.09 102.486C246.028 101.988 245.706 101.568 245.363 101.212C243.911 99.704 241.851 98.8491 239.798 98.9034ZM64.8285 87.4155C64.1904 87.4697 63.8598 88.2137 63.6592 88.8451C63.3536 89.807 63.0479 90.7689 62.7423 91.7309C62.4084 92.7818 62.0721 93.8445 61.9805 94.9471C61.9198 95.6778 61.9679 96.413 62.0159 97.1447C62.1661 99.4298 62.3162 101.715 62.4663 104C62.4953 104.442 62.819 105.052 63.1708 104.802C63.0247 98.9647 63.583 93.1092 64.8285 87.4155ZM245.29 95.8178C244.711 96.0469 244.096 96.4496 244.012 97.0873C243.928 97.7251 244.832 98.3169 245.183 97.7862C245.63 97.1089 246.749 97.4625 247.119 98.1885C247.489 98.9145 247.38 99.7878 247.375 100.609C247.369 101.43 247.551 102.373 248.24 102.775C248.356 101.676 248.472 100.578 248.587 99.4789C248.73 98.1224 248.722 96.4401 247.574 95.7763C246.886 95.3789 246.025 95.5271 245.29 95.8178ZM263.888 95.1971C264.828 95.2406 265.831 95.5808 266.345 96.3993C266.859 97.2178 266.587 98.5583 265.681 98.822C264.388 99.1981 263.179 97.3059 261.915 97.7757C261.124 98.0696 260.636 99.224 259.812 99.0584C259.301 98.9557 259.018 98.3198 259.12 97.7895C259.221 97.2592 259.602 96.8347 260.01 96.499C261.098 95.6042 262.501 95.133 263.888 95.1971ZM119.938 94.2306C120.844 94.3827 121.731 95.413 121.254 96.227C121.119 96.4556 120.901 96.618 120.673 96.7426C120.108 97.0515 119.411 97.1565 118.828 96.8871C118.244 96.6177 117.834 95.9186 117.992 95.2761C118.19 94.4686 119.146 94.0977 119.938 94.2306ZM265.361 88.8729C265.985 89.4887 266.471 90.6483 265.773 91.1708C265.034 91.7235 264.15 90.7905 263.443 90.1946C262.653 89.5286 261.584 89.2348 260.58 89.4081C259.939 89.5189 259.334 89.8084 258.69 89.9055C258.047 90.0027 257.297 89.8491 256.946 89.2805C256.578 88.6841 256.812 87.8397 257.319 87.3653C257.826 86.8909 258.53 86.7173 259.209 86.6528C261.438 86.4411 263.739 87.2716 265.361 88.8729ZM119.907 86.9857C120.463 87.3245 120.763 88.1233 120.453 88.7109C120.044 89.4873 118.971 89.4767 118.144 89.2634C117.846 89.1865 117.533 89.0851 117.336 88.8408C116.865 88.2577 117.393 87.3431 118.05 87.0065C118.628 86.7101 119.35 86.6468 119.907 86.9857Z" fill="#00160A"/>
<path fill-rule="evenodd" clip-rule="evenodd" d="M45.2206 165.071C45.2967 165.29 45.3669 165.536 45.28 165.75C45.124 166.136 44.6161 166.151 44.2135 166.147C41.3819 166.124 38.7494 168.65 38.5483 171.583C38.5271 171.893 38.117 172.035 37.8517 171.891C37.5863 171.748 37.4498 171.438 37.358 171.142C36.8407 169.475 37.174 167.607 37.9987 166.079C38.8234 164.552 40.0995 163.333 41.4858 162.336C42.0236 161.949 42.6933 161.578 43.3017 161.827C43.7037 161.992 43.9664 162.39 44.1853 162.777C44.5976 163.507 44.9447 164.275 45.2206 165.071ZM43.5759 164.737C43.3267 163.945 42.3152 163.661 41.5597 163.941C40.8041 164.221 40.2532 164.888 39.7391 165.527C39.2517 166.133 38.7417 166.795 38.6842 167.582C39.9871 166.149 41.7185 165.142 43.5759 164.737Z" fill="#FFB61D"/>
</svg>
