<svg width="321" height="239" viewBox="0 0 321 239" fill="none" xmlns="http://www.w3.org/2000/svg">
<path fill-rule="evenodd" clip-rule="evenodd" d="M34.9267 212.991C59.1541 239.769 152.843 224.387 214.533 224.387C241.146 224.387 330.457 237.931 293.577 144.915C172.653 -160.067 -41.8384 128.141 34.9267 212.991Z" fill="#A2D2FF"/>
<path fill-rule="evenodd" clip-rule="evenodd" d="M142.122 215.144C142.24 215.052 142.363 214.952 142.414 214.811C142.579 214.357 141.934 214.056 141.458 214.067C140.767 214.083 139.882 214.555 140.093 215.223C140.215 215.609 140.684 215.788 141.078 215.717C141.471 215.646 141.805 215.391 142.122 215.144ZM144.175 207.192C144.696 207.358 145.211 207.563 145.665 207.872C146.518 208.452 147.098 209.352 147.655 210.227C148.054 210.855 148.459 211.495 148.658 212.214C148.874 212.993 148.836 213.824 148.691 214.62C148.241 217.099 146.734 219.36 144.636 220.707C142.538 222.054 139.88 222.466 137.482 221.817C137.015 221.69 136.545 221.518 136.186 221.189C135.884 220.914 135.681 220.546 135.495 220.18C134.518 218.257 133.859 216.12 133.935 213.957C134.01 211.795 134.885 209.606 136.544 208.247C138.625 206.542 141.623 206.379 144.175 207.192" fill="white"/>
<path fill-rule="evenodd" clip-rule="evenodd" d="M254.314 89.5451C253.171 89.5305 252.098 90.5041 251.985 91.6595C251.939 92.1317 252.136 92.7187 252.599 92.7838C252.946 92.8325 253.25 92.5604 253.483 92.2951C253.976 91.7338 254.4 91.1096 254.741 90.4417C254.855 90.2176 254.956 89.9301 254.806 89.7291C254.696 89.5827 254.495 89.5474 254.314 89.5451ZM253.819 84.3644C255.443 84.9397 256.915 85.9514 258.044 87.2688C259.014 88.4009 259.753 89.8706 259.549 91.3571C259.474 91.9028 259.276 92.4232 259.05 92.924C258.193 94.8209 256.72 96.6387 254.697 97.0061C253.636 97.1988 252.542 96.9679 251.522 96.6153C250.341 96.2075 249.216 95.6356 248.187 94.9206C247.641 94.5412 247.099 94.0911 246.86 93.465C246.695 93.0335 246.69 92.5583 246.696 92.0955C246.711 90.951 246.786 89.7871 247.179 88.7142C247.676 87.3568 248.649 86.2363 249.681 85.2362C250.096 84.8341 250.536 84.4378 251.069 84.2222C251.94 83.8695 252.933 84.0505 253.819 84.3644Z" fill="white"/>
<path fill-rule="evenodd" clip-rule="evenodd" d="M254.316 1.78748C261.035 8.823 266.338 17.2359 269.809 26.3658C270.048 26.9929 270.279 27.6894 270.051 28.3207C268.3 33.1808 264.921 37.2327 261.607 41.1725C259.489 43.69 257.372 46.2075 255.254 48.7251C253.233 51.1284 251.211 53.5321 249.121 55.875C238.481 67.804 225.909 78.235 211.348 84.653C210.798 84.8952 210.209 85.1367 209.617 85.0399C209.025 84.9431 208.471 84.362 208.625 83.7762C210.426 76.9689 212.237 69.8518 210.793 62.9583C210.444 61.2955 210.056 59.2019 211.414 58.2014C222.411 50.1006 230.329 38.5217 237.917 27.1C239.825 24.2281 241.728 21.3482 243.417 18.3389C246.414 12.9959 248.723 7.25782 250.266 1.3158C250.478 0.500407 251.495 0.133234 252.301 0.34692C253.108 0.560607 253.737 1.18113 254.316 1.78748" fill="white"/>
<path fill-rule="evenodd" clip-rule="evenodd" d="M44.7906 29.1184C45.8829 39.1455 48.9231 48.95 53.6854 57.8038C56.634 63.2857 60.2205 68.3828 63.7975 73.4645C66.2865 77.0006 68.9482 80.6857 72.832 82.5133C73.8646 82.9992 73.7205 84.511 73.4434 85.6318C72.2454 90.4768 71.6865 95.4843 71.7862 100.479C71.7956 100.951 71.8078 101.44 71.6252 101.874C71.0054 103.347 68.8819 103.101 67.42 102.499C58.3748 98.7704 51.4303 91.2723 44.9431 83.8651C36.5204 74.2478 28.2231 64.2082 23.2474 52.3713C22.9092 51.5666 22.5809 50.7197 22.6375 49.8467C22.6952 48.9571 23.1453 48.1485 23.6018 47.387C28.1124 39.8643 34.3874 33.4407 41.7591 28.7998C42.2784 28.4729 42.8328 28.1453 43.4433 28.1239C44.0538 28.1024 44.7234 28.5018 44.7906 29.1184Z" fill="white"/>
<path fill-rule="evenodd" clip-rule="evenodd" d="M252.998 205.021C253.777 203.68 254.744 202.203 256.257 201.949C256.853 201.848 257.168 201.19 257.371 200.612C259.872 193.488 260.113 185.566 258.05 178.298C257.461 176.224 258.186 174.025 258.903 171.993C260.755 166.748 262.606 161.504 264.458 156.26C263.397 154.396 260.6 154.452 259.167 152.866C257.323 150.825 258.714 147.581 260.159 145.232C268.597 131.509 277.036 117.786 285.475 104.063C286.509 102.382 288.778 101.855 290.68 102.303C292.581 102.751 294.205 103.966 295.769 105.152C301.924 109.82 308.078 114.488 314.233 119.156C317.536 121.661 321.183 124.861 320.993 129.043C320.888 131.358 319.583 133.415 318.322 135.345C313.444 142.808 308.566 150.272 303.689 157.735C300.941 161.94 301.699 167.462 300.869 172.437C299.557 180.299 294.248 186.755 289.332 192.972C284.416 199.19 279.497 206.132 279.22 214.101C278.891 223.598 274.447 232.874 267.293 239C269.368 233.887 256.257 235.927 241.259 229.867C243.727 221.002 248.386 212.955 252.998 205.021Z" fill="white"/>
<path fill-rule="evenodd" clip-rule="evenodd" d="M88.31 227.256C87.3748 226.479 87.0765 225.168 86.9114 223.949C85.0014 209.847 93.2042 195.928 91.7431 181.771C90.9901 174.475 87.6887 167.667 83.5343 161.68C80.6654 157.546 80.5045 152.007 81.5748 147.06C82.6452 142.113 84.8043 137.487 86.2606 132.644C92.7367 111.106 84.8565 88.0964 77.0657 67.0167C92.5903 59.3937 110.706 60.8701 127.905 61.9029C145.104 62.9357 163.6 63.0088 177.935 53.2559C179.899 74.3544 175.567 95.4763 171.26 116.209C193.117 114.047 214.974 111.884 236.832 109.722C237.459 109.66 238.144 109.612 238.665 109.974C239.36 110.456 239.466 111.439 239.506 112.296C240.528 134.237 241.147 156.199 241.364 178.164C241.369 178.715 241.351 179.329 240.97 179.72C240.644 180.054 240.147 180.124 239.688 180.176C209.065 183.642 178.442 187.107 147.819 190.572C145.171 190.872 141.399 190.171 141.554 187.457C142.245 175.354 141.842 163.186 140.35 151.159C132.211 150.846 124.018 152.106 116.331 154.853C114.587 155.476 112.491 157.151 113.431 158.774C119.653 169.511 111.931 185.65 120.381 194.662C123.287 197.761 123.086 202.636 122.51 206.885C121.276 215.992 119.179 224.977 116.258 233.674C117.67 223.663 89.1729 232.624 88.31 227.256Z" fill="white"/>
<path fill-rule="evenodd" clip-rule="evenodd" d="M0.720205 0.0145275C0.746366 0.228279 0.632463 0.452727 0.445851 0.555146C0.297234 0.404165 0.148617 0.253185 0 0.102204C0.222796 0.00325622 0.475471 -0.0249664 0.714121 0.0224403L0.720205 0.0145275Z" fill="#00160A"/>
<path fill-rule="evenodd" clip-rule="evenodd" d="M143.64 207.192C144.161 207.358 144.676 207.563 145.13 207.872C145.983 208.452 146.563 209.352 147.12 210.227C147.519 210.855 147.924 211.495 148.123 212.214C148.339 212.993 148.3 213.824 148.156 214.62C147.706 217.099 146.199 219.36 144.101 220.707C142.003 222.054 139.345 222.466 136.947 221.817C136.48 221.69 136.01 221.518 135.651 221.189C135.349 220.914 135.146 220.546 134.96 220.18C133.983 218.257 133.324 216.12 133.399 213.957C133.475 211.795 134.35 209.606 136.008 208.247C138.089 206.542 141.088 206.379 143.64 207.192M140.715 220.067C142.02 219.866 143.168 219.001 143.917 217.899C144.667 216.796 145.052 215.474 145.237 214.147C145.342 213.39 145.352 212.522 144.825 211.974C144.51 211.647 144.059 211.501 143.627 211.37C142.006 210.877 140.154 210.458 138.701 211.34C137.644 211.983 137.054 213.174 136.519 214.302C135.893 215.623 136.048 217.29 136.906 218.469C137.764 219.648 139.288 220.287 140.715 220.067V220.067Z" fill="#00160A"/>
<path fill-rule="evenodd" clip-rule="evenodd" d="M203.228 147.698C203.251 147.417 203.284 147.115 203.467 146.904C203.647 146.696 203.928 146.622 204.193 146.559C211.008 144.948 218.047 144.318 225.034 144.693C225.924 144.741 227.069 145.047 227.128 145.95C227.465 151.126 227.803 156.303 228.14 161.479C228.157 161.741 228.166 162.032 228.001 162.234C227.866 162.398 227.649 162.462 227.445 162.516C220.178 164.44 212.517 164.819 205.1 163.622C204.909 163.592 204.708 163.555 204.56 163.429C204.38 163.277 204.318 163.029 204.266 162.797C203.173 157.856 202.821 152.746 203.228 147.698ZM204.836 156.286C204.969 158.24 205.373 160.176 206.032 162.018C206.688 162.114 207.338 162.252 207.992 162.365C213.629 163.334 219.394 162.359 225.03 161.385C225.43 161.316 225.868 161.224 226.115 160.897C226.367 160.564 226.334 160.098 226.288 159.68C226.094 157.896 225.9 156.113 225.706 154.329C225.69 154.185 225.67 154.031 225.574 153.924C225.458 153.794 225.267 153.773 225.095 153.761C221.09 153.494 217.071 153.797 213.069 154.1C210.856 154.268 208.644 154.436 206.431 154.603C205.911 154.643 205.321 154.721 205.022 155.155C204.802 155.474 204.809 155.896 204.836 156.286ZM204.897 148.824C204.547 149.964 204.484 151.194 204.716 152.365C204.758 152.575 204.816 152.797 204.974 152.94C205.207 153.153 205.562 153.118 205.872 153.072C209.642 152.511 213.452 152.232 217.261 152.239C217.799 152.24 217.963 151.505 217.958 150.96C217.949 150.16 217.94 149.36 217.932 148.561C217.927 148.098 217.904 147.589 217.592 147.251C217.217 146.846 216.591 146.859 216.045 146.901C214.783 146.999 213.521 147.097 212.259 147.195C211.655 147.242 210.054 147.658 209.318 147.707C208.036 147.915 206.755 148.122 205.474 148.33C205.337 148.352 205.193 148.378 205.088 148.469C204.985 148.558 204.937 148.694 204.897 148.824ZM221.797 152.302C222.799 152.315 223.801 152.213 224.781 151.999C225.014 151.948 225.259 151.884 225.425 151.71C225.669 151.455 225.667 151.056 225.649 150.701C225.597 149.67 225.546 148.639 225.494 147.608C225.475 147.24 225.435 146.826 225.152 146.596C224.903 146.394 224.551 146.406 224.233 146.428C223.119 146.505 222.005 146.582 220.892 146.659C220.715 146.671 220.53 146.686 220.383 146.785C220.113 146.966 220.072 147.345 220.065 147.673C220.04 148.766 220.084 149.86 220.196 150.947C220.229 151.262 220.274 151.593 220.466 151.843C220.765 152.231 221.312 152.296 221.797 152.302Z" fill="#FFB61D"/>
<path fill-rule="evenodd" clip-rule="evenodd" d="M220.669 125.076C222.158 124.422 223.985 124.641 225.283 125.63C226.58 126.618 227.298 128.338 227.096 129.972C228.009 129.471 229.165 128.978 230.017 129.58C230.978 130.259 230.758 131.721 230.614 132.901C230.362 134.963 230.689 137.094 231.547 138.98C231.902 139.759 232.206 140.941 231.42 141.255C231.287 141.308 231.142 141.32 231 141.332C221.779 142.086 212.558 142.841 203.337 143.595C203.084 143.616 202.801 143.627 202.61 143.458C202.415 143.285 202.39 142.992 202.38 142.729C202.291 140.527 202.203 138.324 202.114 136.122C202.091 135.531 202.079 134.894 202.408 134.406C202.952 133.598 204.091 133.601 205.042 133.446C205.994 133.291 207.101 132.476 206.735 131.571C206.326 130.562 207.718 129.825 208.78 129.661C209.842 129.496 211.251 128.854 210.929 127.813C210.578 126.676 212.118 125.97 213.282 125.813C214.103 125.703 214.961 125.596 215.74 125.882C216.518 126.168 217.177 126.982 217.001 127.803C216.8 128.744 217.929 129.621 218.819 129.288C219.708 128.956 220.069 127.721 219.618 126.874C219.251 126.182 219.959 125.389 220.669 125.076ZM225.431 139.59C225.087 138.941 225.084 138.168 225.081 137.43C225.066 133.966 224.857 130.503 224.453 127.063C224.433 126.89 224.401 126.696 224.261 126.594C224.14 126.506 223.978 126.517 223.83 126.531C223.11 126.599 222.256 126.761 221.971 127.436C221.85 127.724 221.864 128.05 221.881 128.363C222.063 131.835 222.246 135.306 222.429 138.778C222.446 139.102 222.488 139.473 222.753 139.654C222.897 139.752 223.079 139.77 223.252 139.78C223.983 139.82 224.718 139.756 225.431 139.59ZM213.029 134.251C212.939 134.83 212.814 135.404 212.78 135.988C212.724 136.965 212.927 137.936 213.129 138.893C213.258 139.506 214.039 139.808 214.611 139.572C215.183 139.335 215.529 138.715 215.624 138.095C215.719 137.475 215.608 136.845 215.51 136.225C215.128 133.791 214.963 131.322 215.017 128.858C215.03 128.235 214.431 127.672 213.82 127.733C213.209 127.795 212.731 128.466 212.865 129.075C213.238 130.77 213.294 132.536 213.029 134.251ZM219.093 130.927C218.734 130.449 217.91 130.703 217.629 131.233C217.349 131.763 217.435 132.406 217.504 133.003C217.686 134.563 217.703 136.143 217.556 137.707C217.512 138.168 217.464 138.671 217.715 139.058C218.1 139.653 218.946 139.648 219.644 139.576C219.863 139.553 220.115 139.51 220.225 139.317C220.301 139.182 220.283 139.015 220.263 138.861C219.941 136.435 219.619 134.008 219.297 131.582C219.267 131.352 219.232 131.111 219.093 130.927ZM227.08 131.969C226.809 132.344 226.752 132.832 226.728 133.296C226.648 134.889 226.856 136.48 227.063 138.061C227.145 138.684 227.425 139.484 228.042 139.442C228.668 139.399 228.832 138.549 228.817 137.912C228.778 136.226 228.74 134.54 228.701 132.854C228.691 132.411 228.645 131.897 228.283 131.65C227.903 131.39 227.351 131.594 227.08 131.969ZM208.18 131.57C208.18 131.57 208.455 133.771 208.551 134.892C208.671 136.3 208.824 137.704 209.01 139.104C209.037 139.308 209.074 139.528 209.221 139.668C209.477 139.91 210.465 139.749 210.647 139.445C210.829 139.141 210.819 138.762 210.803 138.407C210.753 137.283 210.703 136.159 210.653 135.035C210.599 133.83 210.317 131.232 210.317 131.232M204.596 139.537C204.675 139.79 204.768 140.053 204.969 140.222C205.361 140.551 205.996 140.347 206.305 139.937C206.614 139.527 206.683 138.987 206.742 138.474C206.815 137.845 206.885 137.191 206.684 136.591C206.483 135.992 205.928 135.464 205.307 135.52C204.735 135.571 204.292 136.101 204.159 136.668C204.026 137.234 204.138 137.829 204.277 138.394C204.371 138.779 204.478 139.16 204.596 139.537Z" fill="#E7EAEE"/>
<path fill-rule="evenodd" clip-rule="evenodd" d="M241.976 49.4323C241.231 50.5671 240.424 51.7165 239.272 52.4172C238.12 53.1178 236.53 53.2543 235.495 52.3857C234.353 51.4274 234.282 49.6999 234.372 48.1984C234.407 47.6203 234.453 47.0376 234.616 46.4826C234.899 45.5201 235.517 44.6987 236.162 43.937C236.944 43.013 237.811 42.1217 238.896 41.6017C239.981 41.0817 241.33 40.9904 242.347 41.6373C243.564 42.4118 244.015 44.0591 243.784 45.4988C243.554 46.9385 242.772 48.2184 241.976 49.4323M239.611 50.6333C240.55 49.618 241.355 48.4754 241.999 47.2455C242.422 46.4362 242.782 45.5565 242.765 44.6402C242.748 43.7239 242.272 42.7661 241.434 42.4261C240.343 41.9832 239.144 42.6917 238.232 43.4444C237.582 43.9803 236.954 44.5681 236.537 45.3051C236.274 45.7711 236.102 46.2839 235.933 46.7929C235.612 47.7559 235.287 48.7592 235.409 49.7682C235.531 50.7771 236.242 51.79 237.238 51.8946C238.159 51.9913 238.977 51.3192 239.611 50.6333Z" fill="#FFB61D"/>
<path fill-rule="evenodd" clip-rule="evenodd" d="M50.1992 62.2562C51.3655 63.4558 52.3282 64.8588 53.0325 66.3853C53.7402 67.9194 53.0266 69.891 51.6377 70.8295C50.2487 71.768 48.3707 71.7557 46.8477 71.064C45.3247 70.3724 44.1278 69.0815 43.2463 67.6432C42.5818 66.5588 42.0665 65.3435 42.0113 64.0675C41.956 62.7916 42.4187 61.4487 43.4127 60.6662C44.4182 59.8748 45.832 59.7618 47.0479 60.1415C48.2638 60.5213 49.3055 61.3369 50.1992 62.2562ZM45.6488 61.5257C44.6397 61.4202 43.7432 62.3607 43.5701 63.3757C43.397 64.3907 43.7781 65.4205 44.2711 66.3207C45.3403 68.2729 47.2481 70.0068 49.4453 69.8989C50.5748 69.8434 51.8129 69.0489 51.7928 67.9008C51.7841 67.4044 51.5429 66.9463 51.302 66.5142C50.6621 65.3663 49.9708 64.2301 49.0477 63.302C48.1245 62.3739 46.9411 61.6608 45.6488 61.5257Z" fill="#FFB61D"/>
<path fill-rule="evenodd" clip-rule="evenodd" d="M138.383 213.271C139.193 212.646 140.2 212.241 141.216 212.308C142.231 212.374 143.236 212.966 143.66 213.905C144.116 214.912 143.832 216.164 143.121 217.005C142.41 217.847 141.338 218.311 140.257 218.465C139.519 218.569 138.639 218.475 138.235 217.84C138.04 217.533 137.996 217.155 137.957 216.792C137.886 216.14 137.816 215.489 137.745 214.837C137.716 214.561 137.687 214.275 137.774 214.012C137.877 213.702 138.126 213.468 138.383 213.271M141.588 215.145C141.706 215.054 141.829 214.954 141.88 214.813C142.045 214.359 141.4 214.058 140.924 214.069C140.233 214.084 139.348 214.557 139.559 215.225C139.681 215.611 140.15 215.79 140.544 215.719C140.937 215.648 141.271 215.393 141.588 215.145H141.588Z" fill="#00160A"/>
<path fill-rule="evenodd" clip-rule="evenodd" d="M253.133 4.96181C259.444 11.5967 264.426 19.5305 267.688 28.1405C267.912 28.7319 268.129 29.3888 267.915 29.9841C266.27 34.5675 263.095 38.3886 259.982 42.1041L254.013 49.2265C252.114 51.493 250.215 53.7599 248.252 55.9693C238.255 67.2191 226.444 77.056 212.764 83.1086C212.248 83.337 211.694 83.5648 211.138 83.4735C210.582 83.3822 210.061 82.8341 210.207 82.2817C211.898 75.862 213.6 69.1503 212.243 62.6493C211.915 61.0812 211.55 59.1068 212.827 58.1632C223.158 50.5238 230.597 39.6042 237.726 28.833C239.518 26.1246 241.306 23.4087 242.892 20.5707C245.709 15.5319 247.878 10.1206 249.327 4.51699C249.526 3.74803 250.482 3.40176 251.239 3.60328C251.997 3.8048 252.589 4.38998 253.133 4.96181ZM248.715 13.2012C248.074 12.9319 247.482 13.6604 247.155 14.2822C246.802 14.9553 246.448 15.6295 246.094 16.3042C239.555 28.7776 232.915 41.4424 222.949 51.267C222.007 52.1953 220.955 53.3167 221.128 54.6376C221.684 58.8717 219.458 63.343 215.771 65.3987C214.096 66.3319 214.116 68.7401 214.361 70.6634C214.46 71.4334 214.746 72.3985 215.508 72.4637C217.743 72.655 219.887 73.772 221.344 75.5036C221.804 76.0499 222.675 75.7084 223.274 75.326C238.351 65.7017 249.935 51.486 261.246 37.5186C261.636 37.0367 262.051 36.4296 261.847 35.8409C260.136 30.8901 260.41 25.2638 262.595 20.5089C261.306 17.9042 259.77 15.4258 258.014 13.1191C255.093 14.4068 251.658 14.4371 248.715 13.2012ZM212.955 80.5659C213.549 80.8821 214.269 80.5814 214.864 80.2661C216.428 79.4372 217.934 78.4965 219.368 77.4531C219.747 77.1774 219.86 76.6267 219.726 76.1733C219.592 75.72 219.257 75.3545 218.885 75.0683C217.726 74.1749 216.105 73.9399 214.746 74.4682C214.495 74.5658 214.246 74.6931 214.073 74.902C213.87 75.1467 213.796 75.4724 213.731 75.7852C213.402 77.366 213.143 78.9617 212.955 80.5659ZM255.294 9.90512C254.27 7.87121 252.69 6.12942 250.778 4.92578C250.113 5.52118 249.983 6.4259 249.851 7.34825C249.761 7.98115 249.669 8.62235 249.402 9.17759C249.316 9.35841 249.209 9.53138 249.103 9.70397C248.901 10.0325 248.7 10.3597 248.636 10.7371C248.537 11.3126 249.017 12.0347 249.561 11.8442C250.003 11.6894 250.466 11.7889 250.934 11.8892C251.181 11.9421 251.428 11.9953 251.675 12.0114C253.111 12.1055 254.302 10.9633 255.294 9.90512ZM263.414 22.0957C262.316 24.3122 262.49 26.9301 262.689 29.4027L262.975 32.9487C263.007 33.3386 263.216 33.8649 263.586 33.7568C263.816 33.1037 264.254 32.5648 264.693 32.0246C265.077 31.552 265.461 31.0783 265.709 30.5261C266.547 28.6559 265.617 26.5005 264.7 24.6686L263.414 22.0957ZM214.288 61.4524C214.334 62.146 215.043 62.6652 215.728 62.6457C216.412 62.6262 217.028 62.1765 217.428 61.6123C217.828 61.048 218.047 60.3759 218.261 59.7155L218.966 57.5345C219.163 56.9265 219.175 55.9969 218.549 55.9254C218.323 55.8995 218.107 56.0211 217.922 56.1549C217.22 56.6616 216.708 57.3896 216.211 58.1034L214.855 60.0478C214.561 60.4695 214.254 60.9369 214.288 61.4524ZM52.6151 55.6299C47.8528 46.7761 44.8126 36.9717 43.7203 26.9446C43.6531 26.328 42.9835 25.9286 42.373 25.95C41.7624 25.9715 41.208 26.2991 40.6888 26.6259C33.3171 31.2669 27.0421 37.6905 22.5315 45.2132C22.075 45.9747 21.6249 46.7833 21.5672 47.6729C21.5106 48.5459 21.8389 49.3928 22.1771 50.1975C27.1528 62.0343 35.4501 72.074 43.8728 81.6912C50.36 89.0985 57.3045 96.5965 66.3497 100.325C67.8116 100.928 69.9351 101.173 70.5549 99.6998C70.7352 99.2712 70.7255 98.7888 70.7162 98.3224L70.7158 98.3048C70.6162 93.3105 71.1751 88.303 72.3731 83.458C72.6502 82.3371 72.7943 80.8254 71.7617 80.3394C67.8779 78.5119 65.2162 74.8268 62.7271 71.2906C59.1502 66.2089 55.5637 61.1119 52.6151 55.6299ZM61.0219 94.3315C60.4869 94.4764 59.9526 94.1337 59.5059 93.8014C51.2735 87.6767 44.8938 79.3873 38.6257 71.2093L27.564 56.7774C29.4311 55.5699 29.6682 52.9463 29.7089 50.6989C29.7618 47.7776 29.8004 44.7699 28.7612 42.0453C28.5302 41.4397 28.8309 40.7686 29.1529 40.2075C30.5341 37.8011 32.4495 35.713 34.7154 34.1433C34.9348 33.9914 35.167 33.8404 35.4299 33.8027C36.1238 33.7031 36.6562 34.3884 37.027 34.9922C38.4916 37.3769 40.5043 40.0738 43.2653 39.8775C44.3166 39.8027 44.8995 41.0601 45.2062 42.0839C49.0201 54.8152 56.1806 66.2984 64.5779 76.515C65.6692 77.8427 65.943 79.6345 66.2143 81.4101C66.5168 83.3901 66.8162 85.3498 68.2427 86.6229C69.4606 87.7098 69.2346 89.6619 68.9059 91.2742C68.8387 91.6041 68.7586 91.9575 68.5118 92.1827C68.3285 92.3499 68.0807 92.4196 67.8426 92.4841L61.0219 94.3315ZM41.5064 36.9276C39.9962 35.8561 38.6917 34.4869 37.687 32.9188C37.4697 32.5797 37.2586 32.1995 37.2968 31.7967C37.3383 31.3587 37.6628 31.0083 37.9857 30.7148C38.783 29.9903 39.6842 29.3836 40.6519 28.9201C41.0063 28.7503 41.4639 28.6124 41.7583 28.875C41.9316 29.0296 41.9863 29.2766 42.0316 29.5063L43.4264 36.59C43.5089 37.0087 43.0763 37.3859 42.6559 37.398C42.2355 37.4102 41.8511 37.1722 41.5064 36.9276ZM27.7029 50.629C27.6733 51.9614 27.5731 53.4567 26.5897 54.3393C26.3839 54.3642 26.2472 54.1348 26.1666 53.941C25.4581 52.2379 24.7397 50.4938 24.6282 48.6485C24.5166 46.8032 25.1256 44.805 26.6107 43.7353C26.8116 43.5906 27.1064 43.471 27.2837 43.6447C27.355 43.7145 27.3855 43.8157 27.4115 43.9128C27.815 45.4189 27.7833 47.0051 27.7487 48.5657L27.7029 50.629ZM67.7768 94.9486C68.0152 95.1468 68.0406 95.5013 68.0471 95.8141L68.118 99.2388C66.7344 98.46 65.4089 97.5748 64.1565 96.5935C63.9191 96.4074 63.6582 96.1061 63.8036 95.8397C63.8757 95.7076 64.0256 95.6439 64.1652 95.5917C65.0604 95.2565 65.9861 95.0051 66.9266 94.8416C67.2173 94.7911 67.5485 94.7589 67.7768 94.9486ZM67.8567 81.4583C67.844 81.3037 67.844 81.1351 67.9346 81.0101C68.1735 80.6804 68.692 80.9789 68.9112 81.3226C69.4391 82.1503 69.5556 83.2343 69.216 84.1582C68.4408 83.4834 67.9414 82.4915 67.8567 81.4583ZM273.941 55.4552C275.32 53.6917 277.833 53.438 280.05 53.493C280.568 53.5058 281.101 53.5313 281.573 53.7495C282.884 54.3565 283.163 56.0967 283.207 57.5596C283.247 58.8906 283.24 60.2391 282.921 61.5309C282.603 62.8227 281.944 64.0673 280.89 64.86C280.416 65.2164 279.867 65.4761 279.286 65.5749C278.387 65.7277 277.468 65.4933 276.614 65.1707C275.476 64.7408 274.397 64.1504 273.418 63.4217C272.939 63.0658 272.445 62.5997 272.43 61.9977C272.394 60.6094 272.547 59.2162 272.883 57.87C273.098 57.0096 273.397 56.1503 273.941 55.4552ZM277.516 64.2383C279.287 64.7545 281.17 63.3636 281.841 61.6216C282.512 59.8796 282.263 57.923 281.895 56.0904C281.753 55.3868 281.013 54.9938 280.33 54.8057C279.273 54.5145 278.15 54.4759 277.076 54.6939C276.543 54.8022 275.998 54.9877 275.624 55.3886C275.42 55.607 275.278 55.8767 275.14 56.1428L274.103 58.1334C273.92 58.4835 273.736 58.8368 273.629 59.2176C273.308 60.3566 273.732 61.6214 274.516 62.4993C275.299 63.3773 276.395 63.9114 277.516 64.2383ZM253.819 84.3644C255.443 84.9397 256.915 85.9514 258.044 87.2688C259.014 88.4009 259.753 89.8706 259.549 91.3571C259.474 91.9028 259.276 92.4232 259.05 92.924C258.194 94.8209 256.72 96.6387 254.697 97.0061C253.636 97.1988 252.542 96.9679 251.522 96.6153C250.341 96.2075 249.216 95.6356 248.187 94.9206C247.641 94.5412 247.099 94.0911 246.86 93.465C246.695 93.0335 246.69 92.5583 246.696 92.0955C246.712 90.951 246.786 89.7871 247.179 88.7142C247.676 87.3568 248.649 86.2363 249.681 85.2362C250.096 84.8341 250.536 84.4378 251.069 84.2222C251.94 83.8695 252.933 84.0505 253.819 84.3644ZM255.48 94.3419C256.653 93.163 257.336 91.4539 257.15 89.7884C256.964 88.1229 255.854 86.56 254.301 85.9914C253.656 85.7551 252.941 85.6892 252.28 85.8749C251.923 85.9751 251.588 86.1457 251.276 86.3473C249.94 87.2105 249.001 88.6829 248.773 90.2745C248.546 91.8661 249.032 93.5489 250.072 94.7626C250.737 95.5399 251.823 95.8732 252.829 95.7441C253.836 95.615 254.759 95.0663 255.48 94.3419ZM107.295 74.5459C107.241 73.7606 106.207 73.5548 105.432 73.5779C101.363 73.6993 97.2998 74.0089 93.2589 74.5052C92.595 74.5868 92.5414 75.6734 93.074 76.0839C93.6067 76.4944 94.3487 76.4181 95.0107 76.3223L107.295 74.5459ZM94.2884 79.8558C94.3234 79.4514 94.8239 79.305 95.2212 79.2593L119.185 76.5037C119.619 76.4538 120.081 76.4087 120.471 76.6069C120.861 76.8051 121.112 77.3473 120.857 77.7068C120.67 77.9719 120.309 78.0257 119.989 78.0572L95.4785 80.4724C94.9688 80.5226 94.2436 80.3738 94.2884 79.8558ZM148.011 83.9541C146.67 84.2533 145.294 83.762 144.009 83.274C139.851 81.6962 135.709 80.0749 131.585 78.4102C129.92 77.7383 128.093 78.7445 126.595 79.7435C122.261 82.6343 118.089 85.7743 114.104 89.1434C113.081 90.0089 111.506 89.4018 110.474 88.547C110.255 88.3662 110.041 88.1734 109.825 87.9799C109.021 87.2585 108.207 86.5278 107.167 86.378C105.568 86.1477 104.162 87.3781 103.004 88.5203L95.5343 95.8864C94.5297 96.877 93.4723 98.4635 94.3663 99.5579C94.9563 100.28 96.0393 100.243 96.9571 100.135C101.749 99.5711 106.517 98.7802 111.284 97.9896C119.162 96.6829 127.036 95.377 135.004 95.097C136.77 95.035 138.537 95.0236 140.304 95.0121C141.41 95.005 142.517 94.9978 143.623 94.9783C148.612 94.89 153.597 94.5486 158.553 93.9558C158.793 93.9272 159.066 93.8771 159.19 93.667C159.284 93.5084 159.261 93.3083 159.234 93.1252L157.135 78.6219C157.028 77.885 156.842 77.0332 156.179 76.7149C155.509 76.3932 154.719 76.8079 154.169 77.3123C153.308 78.1018 152.645 79.1502 151.991 80.1843C150.919 81.8809 149.87 83.5393 148.011 83.9541ZM113.921 91.8903C118.404 88.1472 123.079 84.6406 127.92 81.3892C128.914 80.7216 130.123 80.0381 131.233 80.4764L142.972 85.1082C144.931 85.8813 147.074 86.6644 149.085 86.0446C151.424 85.3241 152.821 82.9619 153.999 80.7879C154.228 80.365 154.894 80.4137 155.224 80.7611C155.553 81.1085 155.637 81.6197 155.705 82.0973L156.564 88.1456C156.696 89.0743 156.826 90.038 156.561 90.9371C156.297 91.8362 155.521 92.6529 154.597 92.6347C139.486 92.3385 124.347 93.6037 109.487 96.4045C109.028 96.491 108.569 96.579 108.11 96.667L108.106 96.6678C104.556 97.3483 100.993 98.0313 97.3857 98.0436C99.1277 95.5382 101.335 93.4102 103.527 91.3002C104.73 90.1417 106.235 88.892 107.851 89.271C108.724 89.4757 109.393 90.1123 110.059 90.7456L110.059 90.7458L110.059 90.746L110.059 90.7461L110.059 90.7463L110.06 90.7464L110.06 90.7466L110.06 90.7468L110.06 90.7469L110.061 90.7478C110.274 90.9502 110.486 91.1522 110.705 91.3396C111.608 92.1142 113.008 92.6529 113.921 91.8903ZM307.776 134.082C307.376 134.234 306.928 134.13 306.52 134C303.757 133.118 301.513 131.146 299.308 129.207C299.009 128.945 298.711 128.683 298.413 128.424C294.758 125.259 290.793 122.465 286.594 120.097C286.167 119.856 285.719 119.603 285.457 119.183C285.195 118.764 285.203 118.126 285.607 117.847C287.489 116.541 288.711 114.301 288.8 111.988C288.824 111.372 289.51 110.961 290.116 111.01C290.721 111.059 291.249 111.429 291.745 111.786L310.932 125.616C311.305 125.885 311.707 126.197 311.799 126.653C311.873 127.025 311.72 127.401 311.566 127.747C310.738 129.601 309.786 131.398 308.719 133.121C308.478 133.511 308.202 133.921 307.776 134.082ZM288.581 117.677C288.356 118.081 288.16 118.665 288.526 118.944L304.183 130.915C305.04 131.57 306.373 132.185 307.048 131.338C307.823 130.365 308.547 129.35 309.216 128.299C309.399 128.011 309.586 127.682 309.52 127.347C309.46 127.04 309.206 126.817 308.967 126.621C303.221 121.89 297.137 117.582 290.779 113.742L288.581 117.677ZM280.789 124.996C281.042 124.556 281.349 124.074 281.84 123.966C282.215 123.883 282.597 124.046 282.942 124.216C284.828 125.146 286.554 126.406 288.023 127.924C288.377 128.289 288.421 128.877 288.263 129.364C288.106 129.85 287.782 130.26 287.464 130.657C286.953 131.296 286.409 131.961 285.655 132.264C284.842 132.592 283.895 132.434 283.125 132.013C282.355 131.591 281.737 130.933 281.192 130.238C280.481 129.331 279.845 128.244 279.955 127.09C280.027 126.334 280.413 125.652 280.789 124.996ZM284.087 130.072C285.273 130.54 286.031 130.169 286.062 129.379C286.082 128.881 285.654 128.497 285.265 128.193L284.087 127.274C283.698 126.97 283.268 126.651 282.777 126.654C282.286 126.658 281.787 127.172 281.988 127.627C281.957 127.846 282.901 129.604 284.087 130.072ZM279.407 139.791C279.696 139.952 280.003 140.109 280.332 140.116C280.662 140.123 281.019 139.934 281.1 139.609C281.29 138.848 281.787 138.216 282.272 137.598C282.325 137.531 282.378 137.463 282.431 137.396C282.963 136.712 283.476 135.937 283.491 135.066C283.505 134.195 282.794 133.266 281.944 133.385C281.274 133.479 280.651 133.033 280.164 132.556C280.087 132.48 280.01 132.402 279.932 132.324C279.525 131.911 279.111 131.492 278.571 131.313C277.928 131.1 277.052 131.439 277.001 132.124C276.899 133.503 275.77 134.541 274.723 135.425C274.41 135.69 274.693 136.198 274.986 136.486C276.306 137.781 277.797 138.896 279.407 139.791ZM279.617 137.164L277.554 135.748C277.03 135.388 277.072 134.505 277.54 134.072C278.007 133.638 278.734 133.605 279.33 133.822C279.925 134.039 280.421 134.465 280.903 134.882C281.221 135.158 281.266 135.661 281.12 136.06C280.974 136.459 280.677 136.779 280.388 137.086C280.289 137.192 280.178 137.303 280.036 137.322C279.884 137.342 279.743 137.251 279.617 137.164ZM295.966 137.258L296.974 135.083C297.283 134.417 297.582 133.592 297.165 132.99C297.02 132.781 296.807 132.633 296.598 132.49L292.929 129.98C292.534 129.709 292.105 129.428 291.628 129.436C291.063 129.445 290.589 129.855 290.187 130.259C289.586 130.864 289.024 131.509 288.506 132.189C288.111 132.707 287.787 133.558 288.326 133.917L293.94 137.657C294.383 137.952 294.945 138.256 295.411 137.999C295.684 137.848 295.833 137.544 295.966 137.258ZM294.721 135.718C294.486 135.773 294.24 135.712 294.008 135.641C292.591 135.207 291.294 134.377 290.297 133.266C289.966 132.896 290.153 132.243 290.574 131.984C290.995 131.725 291.543 131.784 291.997 131.978C292.29 132.103 292.558 132.277 292.827 132.451C292.974 132.547 293.121 132.643 293.273 132.73C293.436 132.824 293.606 132.911 293.776 132.997C294.258 133.243 294.741 133.489 295.07 133.914C295.515 134.488 295.423 135.554 294.721 135.718ZM296.617 138.147C297.264 137.991 297.462 137.321 297.667 136.625C297.837 136.05 298.012 135.456 298.451 135.12C299.205 134.54 300.274 135.024 301.088 135.516L303.674 137.078C304.086 137.327 304.508 137.584 304.803 137.968C305.099 138.351 305.244 138.894 305.037 139.333C304.899 139.627 304.638 139.821 304.375 140.017C304.16 140.178 303.943 140.339 303.792 140.557C303.597 140.837 303.525 141.187 303.454 141.534C303.364 141.968 303.276 142.397 302.949 142.67C302.354 143.168 301.468 142.769 300.81 142.361L297.167 140.1C296.8 139.872 296.412 139.622 296.232 139.224C296.051 138.827 296.198 138.248 296.617 138.147ZM301.394 140.391C301.916 140.211 302.335 139.818 302.737 139.435C303.029 139.158 302.639 138.702 302.291 138.503L300.059 137.227C299.826 137.094 299.502 136.972 299.321 137.172C298.74 137.816 298.655 138.868 299.126 139.599C299.597 140.331 300.579 140.674 301.394 140.391ZM275.783 140.314C275.284 140.171 274.775 140.025 274.367 139.742C273.733 139.303 272.85 139.41 272.185 139.798C271.52 140.186 271.024 140.807 270.544 141.415C270.278 141.752 270.004 142.104 269.902 142.524C269.801 142.943 269.922 143.452 270.294 143.662L274.186 145.865C274.481 146.032 274.81 146.205 275.139 146.13C275.468 146.057 275.694 145.761 275.892 145.485L276.893 144.085C277.451 143.307 278.033 142.314 277.625 141.444C277.299 140.748 276.552 140.534 275.783 140.314ZM274.551 143.938C274.348 143.992 274.138 143.893 273.951 143.796L271.299 142.425C271.809 141.693 272.779 141.411 273.658 141.5C274.537 141.589 275.353 141.986 276.149 142.377L274.93 143.662C274.821 143.777 274.703 143.897 274.551 143.938ZM256.18 89.1421C256.591 89.7778 256.462 90.6272 256.19 91.3353C255.831 92.2686 255.224 93.1333 254.367 93.6297C253.51 94.1261 252.384 94.1987 251.549 93.6652C250.714 93.1316 250.295 91.945 250.742 91.0521C250.846 90.8456 250.987 90.6627 251.128 90.4797C251.263 90.3045 251.399 90.1294 251.501 89.9334C251.568 89.8045 251.621 89.6677 251.673 89.5311C251.748 89.3341 251.824 89.1374 251.943 88.9655C252.368 88.3544 253.206 88.2342 253.942 88.2448C254.778 88.2568 255.722 88.4322 256.18 89.1421ZM254.314 89.5451C253.171 89.5305 252.098 90.5041 251.985 91.6595C251.939 92.1317 252.136 92.7187 252.599 92.7838C252.946 92.8325 253.25 92.5604 253.484 92.2951C253.977 91.7338 254.4 91.1096 254.741 90.4417C254.856 90.2176 254.956 89.9301 254.806 89.7291C254.697 89.5827 254.495 89.5474 254.314 89.5451ZM281.663 59.2631C281.574 58.2 280.874 57.1543 279.857 56.888C278.564 56.5497 277.311 57.4737 276.286 58.3405C275.982 58.5969 275.665 58.8726 275.537 59.2516C275.318 59.8948 275.711 60.5726 276.097 61.1282C276.54 61.7646 277.013 62.4042 277.658 62.8248C278.304 63.2454 279.165 63.4087 279.843 63.0432C280.188 62.8569 280.457 62.5526 280.69 62.2341C281.318 61.3782 281.751 60.3262 281.663 59.2631ZM278.797 61.9897C278.359 62.0564 277.904 61.8767 277.582 61.5685C277.099 61.1065 276.907 60.3641 277.076 59.7124C277.254 59.0264 277.821 58.4597 278.499 58.2905C279.178 58.1213 279.939 58.3566 280.409 58.881C280.392 59.0239 280.377 59.1676 280.362 59.3115C280.312 59.8004 280.262 60.2902 280.096 60.7495C279.88 61.3439 279.414 61.8958 278.797 61.9897ZM244.008 227.823C246.391 219.264 250.89 211.495 255.342 203.834C256.095 202.539 257.028 201.113 258.489 200.867C259.065 200.77 259.368 200.135 259.564 199.577C261.979 192.698 262.212 185.049 260.22 178.032C259.651 176.03 260.351 173.906 261.044 171.944L266.407 156.753C265.849 155.774 264.795 155.344 263.726 154.908C262.832 154.543 261.929 154.174 261.299 153.477C259.519 151.507 260.861 148.374 262.256 146.106L286.7 106.356C287.698 104.733 289.889 104.224 291.725 104.657C293.561 105.089 295.129 106.263 296.639 107.408L314.466 120.929C317.656 123.348 321.177 126.438 320.993 130.476C320.891 132.71 319.632 134.696 318.414 136.56L304.285 158.178C302.458 160.974 302.237 164.372 302.014 167.786C301.914 169.33 301.813 170.877 301.563 172.374C300.345 179.673 295.558 185.717 290.971 191.508C290.788 191.74 290.606 191.97 290.423 192.2C285.677 198.204 280.927 204.907 280.661 212.6C280.343 221.77 276.052 230.726 269.144 236.641L275.156 221.833C276.585 218.311 277.909 213.929 275.517 210.996C274.434 209.668 272.798 208.966 271.228 208.312L261.891 204.422C261.247 204.154 260.584 203.881 259.888 203.877C257.719 203.864 256.429 206.252 255.549 208.265C252.507 215.23 248.621 221.815 244.008 227.823ZM274.707 207.712C276.308 208.314 278.562 208.679 279.32 207.127C282.992 199.612 286.764 191.952 292.608 186.022C295.976 182.605 298.041 178.044 299.209 173.357C300.378 168.669 300.708 163.815 301.034 158.991C299.616 159.515 299.493 161.458 299.499 162.991C299.512 166.369 298.931 169.749 297.79 172.923C297.551 173.587 297.23 174.305 296.591 174.585C295.952 174.865 295.01 174.302 295.225 173.63C296.874 168.467 297.489 162.967 297.02 157.561C296.875 155.885 296.568 154.092 295.394 152.904C295.521 155.55 295.649 158.209 295.385 160.845C294.928 165.406 293.317 169.754 291.721 174.043C291.514 174.599 291.263 175.206 290.736 175.468C290.21 175.73 289.393 175.315 289.53 174.736L291.921 164.703C293.235 159.186 294.528 153.251 292.493 147.964C291.468 147.894 291.227 149.382 291.318 150.421C291.945 157.536 290.008 164.597 288.09 171.47C287.866 172.272 287.074 173.276 286.458 172.724C286.193 172.486 286.181 172.076 286.202 171.717C286.323 169.696 286.869 167.739 287.414 165.785C287.583 165.178 287.752 164.572 287.908 163.964C289.349 158.359 289.717 152.471 288.984 146.727C287.722 148.37 287.186 150.454 286.681 152.475L283.68 164.467C282.324 169.888 280.591 175.848 275.888 178.76C275.513 178.992 275.079 179.208 274.652 179.105C274.121 178.977 273.821 178.42 273.599 177.914C270.598 171.049 270.223 163.04 272.57 155.917C272.712 155.485 272.279 155.033 271.831 154.997C271.384 154.962 270.965 155.209 270.598 155.472C266.747 158.231 265.272 163.229 264.047 167.85L262.419 173.994C262.181 174.892 261.942 175.797 261.892 176.725C261.816 178.136 262.179 179.516 262.54 180.889C262.624 181.207 262.707 181.524 262.785 181.842C264.352 188.226 263.644 195.159 260.821 201.081C260.405 201.954 261.504 202.748 262.4 203.085L274.707 207.712ZM280.79 149.072C280.148 148.623 279.46 148.111 279.262 147.345C278.957 146.171 280.059 144.992 281.244 144.834C282.43 144.676 283.589 145.257 284.572 145.949C285.955 146.923 287.707 145.437 288.743 144.089C287.345 143.24 286.012 141.922 285.957 140.269C285.902 138.616 287.881 137.042 289.198 138.014C289.709 138.392 290.327 138.623 290.939 138.851L290.939 138.851C291.855 139.194 292.756 139.53 293.258 140.345C293.83 141.271 293.627 142.524 293.045 143.444C292.463 144.364 291.568 145.024 290.693 145.662C291.948 145.789 293.17 146.243 294.208 146.97L295.34 143.621C295.428 143.361 295.523 143.09 295.724 142.906C296.112 142.553 296.716 142.662 297.213 142.822C298.516 143.242 299.794 143.898 300.654 144.977C301.514 146.056 301.873 147.624 301.272 148.871C300.671 150.118 298.974 150.782 297.825 150.031C297.586 149.875 297.347 149.666 297.107 149.458C296.467 148.9 295.826 148.343 295.208 148.789C297.096 150.282 298.393 152.525 298.757 154.927C304.702 145.732 310.582 136.495 316.399 127.216C316.954 126.331 317.402 124.935 316.498 124.425C312.635 122.249 309.221 119.335 305.815 116.428L305.815 116.428C301.515 112.758 297.229 109.1 292.07 106.951C291.743 106.815 291.385 106.683 291.042 106.775C290.684 106.871 290.431 107.187 290.206 107.486C280.599 120.219 271.977 133.717 264.446 147.816C263.395 149.783 264.801 152.127 266.146 153.9C266.819 154.785 268.116 155.721 268.849 154.887C269.773 153.835 271.288 153.234 272.596 153.704C273.904 154.173 274.719 155.901 274.007 157.111C273.492 157.986 274.5 158.958 275.38 159.448C277.139 160.426 278.943 161.32 280.785 162.126C281.041 162.239 281.339 162.349 281.588 162.222C281.825 162.101 281.922 161.814 281.996 161.555L284.036 154.427C284.371 153.255 284.596 151.734 283.606 151.041L280.79 149.072ZM317.285 129.091C317.014 128.997 316.766 129.272 316.607 129.514L301.332 152.732C300.921 153.357 300.5 154.006 300.38 154.748C300.26 155.489 300.529 156.35 301.193 156.681C302.293 157.227 303.444 156.079 304.15 155.063L318.343 134.638C319.396 133.121 318.504 131.048 317.603 129.433C317.525 129.294 317.434 129.143 317.285 129.091ZM274.277 160.096C274.008 159.897 273.606 160.016 273.381 160.265C273.156 160.513 273.064 160.854 272.979 161.18C272.77 161.984 272.561 162.796 272.53 163.627C272.499 164.458 272.647 165.284 272.795 166.102L274.258 174.175C274.32 174.514 274.391 174.874 274.628 175.12C274.864 175.367 275.325 175.42 275.516 175.136C277.681 171.921 279.877 168.643 281.009 164.922C281.15 164.459 281.191 163.809 280.744 163.638C278.445 162.76 276.263 161.565 274.277 160.096ZM291.17 140.174C290.437 139.465 289.468 139.012 288.46 138.907C287.542 138.812 287.012 140.122 287.431 140.957C287.851 141.792 288.777 142.206 289.633 142.555C290.238 142.801 290.972 143.033 291.499 142.644C292.257 142.086 291.848 140.829 291.17 140.174ZM285.139 149.531C285.438 149.315 285.477 148.874 285.394 148.511C285.078 147.144 283.603 146.446 282.278 146.046C281.765 145.891 281.128 145.783 280.766 146.183C280.465 146.518 280.529 147.071 280.789 147.44C281.049 147.808 281.456 148.035 281.849 148.25L283.896 149.369C284.285 149.582 284.779 149.791 285.139 149.531ZM296.785 144.604C296.351 145.193 296.395 146.05 296.757 146.687C297.119 147.324 297.744 147.767 298.405 148.068C298.632 148.171 298.88 148.262 299.123 148.213C299.333 148.17 299.512 148.027 299.64 147.853C300.113 147.212 299.883 146.246 299.342 145.663C298.8 145.08 298.029 144.789 297.288 144.515C297.16 144.468 297.011 144.423 296.894 144.494C296.849 144.521 296.815 144.562 296.785 144.604ZM91.5389 198.004C91.8223 195.878 92.2194 193.538 93.8646 192.191C95.1765 191.118 96.9775 190.946 98.6622 190.913C104.181 190.806 109.718 191.716 114.921 193.586C116.568 194.178 118.291 194.957 119.191 196.476C120.165 198.121 119.927 200.196 119.658 202.096L115.479 231.578C118.36 223.04 120.429 214.219 121.647 205.279C122.216 201.108 122.414 196.322 119.547 193.279C115.071 188.53 115.194 181.765 115.318 174.887C115.425 168.951 115.533 162.93 112.69 158.047C111.762 156.454 113.83 154.809 115.551 154.197C123.135 151.501 131.219 150.264 139.248 150.571C140.72 162.378 141.118 174.324 140.436 186.206C140.283 188.87 144.005 189.558 146.617 189.264L237.257 179.058C237.71 179.007 238.201 178.938 238.522 178.61C238.898 178.227 238.916 177.623 238.911 177.083C238.697 155.519 238.086 133.959 237.078 112.418C237.038 111.577 236.933 110.612 236.248 110.139C235.734 109.784 235.058 109.831 234.439 109.892L169.744 116.26C173.994 95.9059 178.269 75.17 176.33 54.457C162.188 64.0318 143.938 63.96 126.97 62.9461C126.265 62.9039 125.558 62.861 124.85 62.8181C108.52 61.8271 91.491 60.7937 76.8107 67.9664C84.4973 88.6609 92.2721 111.25 85.8826 132.394C85.3173 134.265 84.6447 136.102 83.9724 137.939C82.9359 140.771 81.9001 143.601 81.2595 146.547C80.2035 151.403 80.3623 156.841 83.1928 160.9C87.2916 166.778 90.5488 173.461 91.2917 180.624C91.9967 187.42 90.4215 194.161 88.848 200.895C87.2039 207.93 85.5618 214.957 86.5247 222.031C86.6876 223.227 86.9819 224.515 87.9045 225.277L91.5389 198.004ZM97.9517 112.594C99.6657 112.656 100.347 114.841 100.566 116.568L102.302 130.246C98.9132 128.462 94.1464 131.49 94.2437 135.364C91.3885 129.768 90.9547 123.354 90.5253 117.006C90.4318 115.625 90.3386 114.247 90.2207 112.881C88.9601 98.2751 84.6251 84.1477 80.3168 70.1537C79.7025 68.1582 82.356 66.8642 84.3932 66.5609C97.7616 64.5707 111.292 64.8455 124.828 65.1204C130.963 65.2451 137.1 65.3697 143.224 65.2834C154.105 65.1302 165.619 64.0845 174.445 57.6211C176.429 71.0503 173.732 84.5994 171.07 97.9778C170.71 99.7874 170.35 101.594 170.003 103.397C167.089 118.526 165.106 134.653 170.681 148.992C170.916 149.597 170.115 150.052 169.489 150.185C164.903 151.156 160.162 151.365 155.51 150.802C153.515 150.56 151.54 150.178 149.566 149.795C148.079 149.507 146.591 149.22 145.095 148.992C133.828 147.275 122.068 149.057 111.785 154.038C111.373 154.238 110.883 154.144 110.451 153.993C108.369 153.261 106.883 151.307 106.142 149.2C105.401 147.092 105.295 144.818 105.196 142.582L104.781 133.207C104.766 132.87 104.853 132.412 105.185 132.402C123.198 131.831 141.19 130.597 159.115 128.706C158.357 124.4 158.282 119.97 158.893 115.64C159.279 112.906 156.747 110.413 154.051 110.048C151.356 109.682 148.689 110.922 146.451 112.491C145.614 113.077 144.81 113.715 144.006 114.352C142.662 115.418 141.319 116.483 139.823 117.308C138.844 117.848 137.667 118.284 136.639 117.847C135.381 117.314 134.959 115.794 134.582 114.437C134.559 114.352 134.535 114.267 134.512 114.184C134.021 112.437 133.211 110.698 131.786 109.599C130.361 108.5 128.212 108.227 126.805 109.35C125.603 110.31 125.222 111.973 125.021 113.512C125.003 113.649 124.986 113.787 124.968 113.925C124.79 115.341 124.605 116.804 123.773 117.939C122.86 119.185 120.822 119.719 119.82 118.545C117.839 116.224 114.363 115.737 111.446 116.552C108.53 117.366 106.034 119.248 103.614 121.091C102.154 118.772 102.033 115.648 103.309 113.219L103.331 113.178C103.571 112.722 103.846 112.199 103.634 111.734C103.503 111.447 103.213 111.27 102.926 111.145C101.21 110.398 99.017 111.037 97.9517 112.594ZM149.527 151.799C150.487 151.993 151.666 152.428 151.726 153.42C152.292 162.879 159.695 171.379 168.796 173.472C177.898 175.566 187.986 171.332 193.293 163.537C198.6 155.742 199.015 144.914 194.663 136.531C189.996 127.541 178.655 122.767 169.092 125.767C168.649 123.78 168.699 121.682 169.236 119.719C169.336 119.355 169.467 118.974 169.756 118.736C170.039 118.504 170.422 118.451 170.783 118.407L197.72 115.112C200.088 114.822 202.462 114.532 204.847 114.512C215.104 114.427 225.354 113.388 235.425 111.414C236.99 132.752 237.726 154.153 237.632 175.55C237.628 176.565 237.323 177.914 236.324 177.943C219.371 178.445 202.552 180.709 185.726 182.974C174.422 184.496 163.114 186.019 151.761 187.007C149.231 187.227 146.683 187.421 144.155 187.176C143.697 187.132 143.18 187.037 142.931 186.644C142.78 186.407 142.764 186.11 142.751 185.828L141.239 151.604C141.22 151.162 141.246 150.629 141.623 150.407C141.873 150.26 142.186 150.313 142.47 150.37L149.527 151.799ZM103.146 143.876C102.878 145.654 102.577 147.654 103.724 148.998C108.001 154.015 112.445 159.374 113.582 165.909C114.113 168.96 113.885 172.101 113.658 175.228C113.372 179.168 113.087 183.088 114.323 186.784C114.355 186.88 114.388 186.977 114.422 187.073C114.649 187.732 114.88 188.404 114.807 189.092C114.722 189.881 114.048 190.675 113.278 190.54L104.335 188.974C101.373 188.455 98.2446 187.95 95.4315 189.024C94.8876 189.231 94.2616 188.867 93.9701 188.357C93.6787 187.846 93.6404 187.232 93.6151 186.643C93.5846 185.931 93.5617 185.214 93.5387 184.496C93.3942 179.975 93.2471 175.37 91.1865 171.409L84.6119 158.772C83.6413 156.906 82.6481 154.957 82.5811 152.848C82.5364 151.44 82.9108 150.057 83.282 148.699L86.5618 136.703C87.2523 134.177 87.9829 131.571 89.6181 129.543C93.5907 136.387 93.9828 145.24 90.631 152.418C90.3209 153.083 91.2681 153.766 91.9433 153.502C92.6185 153.237 92.9613 152.486 93.1993 151.792C94.1528 149.012 94.4871 146.081 94.8219 143.146C95.0928 140.772 95.364 138.395 95.9637 136.092C96.3311 134.682 96.861 133.242 97.9337 132.271C99.0063 131.3 100.756 130.968 101.88 131.877C102.74 132.572 103.02 133.761 103.183 134.865C103.615 137.778 103.613 140.757 103.177 143.67C103.167 143.738 103.157 143.807 103.146 143.876ZM118.577 120.193C119.895 121.218 121.186 122.221 122.768 122.035C124.778 121.799 126.031 119.698 126.615 117.73C126.743 117.3 126.856 116.859 126.97 116.417C127.377 114.841 127.787 113.252 128.852 112.066C129.162 111.721 129.607 111.4 130.047 111.536C130.403 111.645 130.611 112.011 130.776 112.35C131.011 112.829 131.232 113.317 131.454 113.805C132.08 115.181 132.706 116.558 133.615 117.754C134.845 119.373 136.76 120.647 138.763 120.424C140.554 120.225 141.953 118.937 143.317 117.682C143.596 117.425 143.875 117.169 144.154 116.924C147.439 114.048 151.717 112.365 156.053 112.244C155.469 113.728 155.859 115.347 156.241 116.935C156.333 117.318 156.425 117.699 156.503 118.075C157.115 121.047 156.805 124.207 155.629 126.998L126.668 129.262C119.908 129.79 113.13 130.319 106.353 130.077C105.925 130.062 105.486 130.041 105.092 129.87C104.348 129.547 103.907 128.741 103.746 127.935C103.387 126.13 104.207 124.249 105.449 122.907C106.691 121.564 108.312 120.659 109.905 119.777C111.562 118.86 113.403 117.911 115.251 118.303C116.48 118.564 117.537 119.385 118.577 120.193ZM173.418 163.031C169.03 162.939 165.229 159.304 163.926 155.049C163.66 154.18 164.213 153.227 164.976 152.75C165.739 152.273 166.662 152.161 167.553 152.059L173.981 151.326C172.026 147.467 170.634 143.316 169.864 139.048C169.794 138.66 169.73 138.254 169.85 137.88C170.062 137.223 170.759 136.877 171.404 136.657C176.627 134.875 182.899 137.038 185.97 141.684C189.042 146.329 188.639 153.043 185.034 157.275C183.473 159.107 181.428 160.459 179.274 161.5C177.437 162.387 175.452 163.073 173.418 163.031ZM194.237 140.096C195.018 142.713 195.243 145.467 195.351 148.199C193.598 147.93 191.827 147.777 190.054 147.742C189.708 143.145 186.695 138.992 182.734 136.739C178.772 134.486 173.991 133.999 169.515 134.771C169.478 134.123 169.361 133.447 169.245 132.771C168.938 130.986 168.631 129.202 169.767 127.935C170.453 127.17 171.499 126.864 172.501 126.675C177.064 125.812 181.93 126.716 185.896 129.165C189.862 131.614 192.892 135.584 194.237 140.096ZM162.059 154.584C162.052 154.669 162.045 154.752 162.041 154.832C162.011 155.467 162.303 156.05 162.592 156.627C162.669 156.781 162.746 156.935 162.817 157.09C163.151 157.821 163.313 158.785 162.754 159.358C161.402 160.744 160.207 162.288 159.2 163.95C158.951 164.361 158.339 164.395 157.929 164.15C157.52 163.905 157.266 163.468 157.029 163.049C155.533 160.4 153.999 157.629 153.813 154.581C153.789 154.202 153.83 153.743 154.162 153.566C154.307 153.488 154.479 153.486 154.644 153.486L161.336 153.465C161.496 153.464 161.664 153.466 161.803 153.546C162.132 153.736 162.094 154.176 162.059 154.584Z" fill="#00160A"/>
</svg>
