<svg width="321" height="239" viewBox="0 0 321 239" fill="none" xmlns="http://www.w3.org/2000/svg">
<path fill-rule="evenodd" clip-rule="evenodd" d="M320.494 90.4274C316.52 120.715 312.035 136.714 285.855 168.432C259.675 200.15 139.874 221.016 95.5834 221.016C51.2931 221.016 -3.28966 186.102 0.155217 145.649C3.6001 105.195 21.5725 72.1315 64.5904 68.0613C108.552 63.9017 147.169 83.164 190.329 72.8332C227.644 63.9017 239.061 29.8581 264.689 19.1174C316.52 -2.6047 323.197 69.8228 320.494 90.4274Z" fill="#A2D2FF"/>
<path d="M293.828 105.221C292.363 107.759 273.826 120.598 262.582 122.498C260.406 122.866 258.03 122.992 256.14 121.83C255.023 121.144 254.191 120.074 253.401 119.016C251.593 116.595 249.87 114.11 248.233 111.566C247.373 110.229 246.52 108.833 246.228 107.261C245.454 103.098 248.737 99.3593 251.981 96.7217C259.437 90.6586 268.168 86.2417 277.406 83.8589C279.042 83.4372 280.776 83.08 282.396 83.5591C285.025 84.3367 286.598 87.0567 287.601 89.6603C288.604 92.2639 289.387 95.1117 291.392 97.0163C291.85 97.4513 295.292 102.684 293.828 105.221Z" fill="white"/>
<path fill-rule="evenodd" clip-rule="evenodd" d="M194.223 215.831C176.232 218.976 184.807 205.609 187.288 188.878C191.364 161.386 196.392 119.607 196.392 119.607C196.392 119.607 199.67 183.268 199.67 198.769C199.67 214.27 196.391 215.452 194.223 215.831Z" fill="white"/>
<path d="M174.999 200.686C175.458 205.113 175.942 209.634 177.782 213.669C176.778 204.532 175.774 195.396 174.77 186.259C174.646 185.131 174.683 183.695 175.698 183.235C176.557 193.551 177.838 203.832 179.536 214.039C179.738 215.251 177.957 215.944 176.957 215.261C175.957 214.578 175.637 213.249 175.41 212.042C173.753 203.246 172.842 194.303 172.69 185.347C170.58 185.772 169.101 187.863 168.674 190.017C168.247 192.172 168.659 194.397 169.07 196.554C170.393 203.499 171.716 210.444 173.039 217.39C173.658 220.638 174.277 223.995 173.594 227.23C170.968 214.973 168.857 202.602 167.268 190.161C147.12 202.756 121.158 205.098 99.1628 196.305C94.359 194.385 89.5883 191.84 86.4154 187.682C83.916 184.407 82.5823 180.341 81.8836 176.249C79.402 161.716 84.4872 146.892 91.3893 133.937C94.0083 129.021 96.9909 123.901 96.7795 118.307C96.7068 116.382 96.3006 114.249 97.4006 112.684C97.5564 112.974 90.1992 59.1736 93.1506 47.2731C100.256 18.6236 123.337 14.7436 138.116 15.097C148.031 15.3341 210.883 28.1033 219.964 45.4681C231.899 68.2903 229.365 87.4781 227.246 100.13C226.615 103.897 196.399 119.331 196.391 119.409C194.663 135.826 183.071 171.598 173.349 184.783C173.899 190.084 174.449 195.385 174.999 200.686Z" fill="white"/>
<path fill-rule="evenodd" clip-rule="evenodd" d="M29.92 133.889C24.2535 131.577 17.5007 132.263 12.3919 135.669C11.8973 135.999 11.1862 135.632 10.9414 135.083C10.6965 134.534 10.7881 133.896 10.9134 133.307C12.545 125.631 19.0449 119.757 26.2735 117.058C33.502 114.359 41.4088 114.351 49.0927 114.813C49.8552 114.859 50.6521 114.92 51.3024 115.328C51.9528 115.737 52.3904 116.61 52.0662 117.316C49.0435 123.896 46.7666 130.833 45.2952 137.943C45.0566 139.096 43.888 139.861 42.737 139.957C41.5861 140.053 40.4583 139.619 39.4138 139.116C36.1586 137.55 33.2616 135.253 29.92 133.889Z" fill="white"/>
<path fill-rule="evenodd" clip-rule="evenodd" d="M204.096 18.0109C204.377 13.6075 204.053 9.16416 203.134 4.85245L203.115 4.76047L203.115 4.76036C202.959 4.03136 202.799 3.28152 202.942 2.55195C203.26 0.938276 205.013 -0.0330187 206.623 0.000858041C208.233 0.0347348 209.724 0.820308 211.148 1.58748C217.98 5.26658 224.935 9.03855 230.314 14.702C230.482 19.287 229.425 23.8117 228.382 28.2784L228.284 28.6982C223.928 47.3671 220.361 66.2285 217.596 85.2119C217.331 87.0315 216.829 89.1778 215.14 89.8151C213.93 90.2722 212.521 89.688 211.661 88.7041C210.801 87.7203 210.39 86.4139 210.103 85.1273C209.395 81.9528 209.31 78.6347 209.854 75.4266C210.186 73.4649 210.749 71.5567 211.311 69.648L211.311 69.6476C211.816 67.934 212.321 66.2199 212.66 64.4663C212.999 62.7128 213.17 60.9305 213.336 59.1511C214.217 49.6889 214.965 40.2138 215.579 30.7296C215.666 29.3894 215.745 28.007 215.315 26.7376C214.552 24.4799 212.327 23.0529 210.079 22.3986C209.692 22.2859 209.298 22.19 208.905 22.0941C207.989 21.8709 207.074 21.6478 206.239 21.2127C205.044 20.5908 204.009 19.3781 204.096 18.0109ZM208.271 17.6498C211.447 18.3351 214.552 19.37 217.514 20.7307C218.11 21.0047 218.737 21.3254 219.059 21.907C219.322 22.3819 219.337 22.9539 219.345 23.4997C219.438 29.91 219.458 36.3372 218.794 42.712C218.396 46.5292 217.755 50.3131 217.114 54.0967L217.114 54.0969L217.113 54.0992C216.91 55.2961 216.708 56.4929 216.512 57.6907C215.546 63.6219 214.769 69.5851 214.181 75.5679C213.755 79.9088 213.443 84.3955 214.763 88.5441C215.441 88.4175 215.702 87.5832 215.83 86.8912L228.037 21.1179C228.333 19.5243 228.628 17.8767 228.28 16.2942C227.67 13.5238 225.264 11.5974 222.945 10.0343C218.48 7.02532 213.728 4.46259 208.778 2.39453C208.366 7.46714 208.197 12.5603 208.271 17.6498ZM214.549 60.8436C216.784 49.1138 217.794 37.1405 217.555 25.1927C217.537 24.2903 217.49 23.3206 216.95 22.6064C216.554 22.0831 215.95 21.7766 215.359 21.5063C213.142 20.4909 210.811 19.7354 208.426 19.2592C207.736 19.1213 206.722 19.2707 206.752 19.989L215.323 23.6097C215.825 23.822 216.361 24.0622 216.645 24.5365C216.924 25.0016 216.897 25.5858 216.86 26.13L214.549 60.8436ZM206.572 1.23389C205.865 0.755024 204.844 1.24865 204.45 2.01623C204.057 2.78381 204.117 3.7027 204.206 4.56453C204.337 5.8287 204.509 7.09353 204.681 8.35855L204.682 8.35944C205.16 11.87 205.638 15.3819 205.232 18.8851C205.88 19.1125 206.603 18.6455 206.918 18.023C207.232 17.4005 207.24 16.6693 207.242 15.9687L207.263 3.33567C207.265 2.56357 207.201 1.66051 206.572 1.23389ZM212.916 88.2588C212.527 85.1369 212.425 81.9776 212.612 78.8361C212.712 77.1578 212.894 75.4854 213.076 73.8133L213.076 73.8127L213.076 73.8121L213.076 73.8114L213.076 73.8108L213.076 73.8102L213.076 73.8096L213.076 73.809C213.317 71.5958 213.558 69.3832 213.609 67.1582C211.829 72.5747 211.156 78.3688 211.648 84.0607C211.776 85.5413 212.013 87.0939 212.916 88.2588ZM213.896 63.9576C214.182 63.8263 214.303 63.415 214.134 63.1445C213.843 63.2911 213.719 63.7063 213.881 63.9937L213.896 63.9576ZM211.233 36.8293C197.067 27.8977 181.048 22.5465 165.029 17.9289C159.908 16.4528 154.744 15.0384 149.456 14.4328C133.789 12.6385 117.906 18.1646 104.879 27.2413C99.6546 30.8815 94.6139 35.3593 92.3565 41.3969C90.6817 45.8766 90.6933 50.8083 90.8548 55.6013C91.4119 72.1315 93.4867 88.5644 95.5591 104.968C97.1793 104.669 97.3394 102.379 97.1047 100.713C94.9498 85.415 93.7416 69.9779 93.4896 54.5245C93.419 50.1912 93.4412 45.7486 94.9081 41.6825C97.5635 34.3218 104.412 29.5079 111.133 25.7195C119.597 20.9478 128.798 16.9367 138.462 16.7238C150.168 16.4659 161.263 21.7741 171.489 27.604C177.19 30.8541 182.97 34.4836 186.597 40.0318C189.89 45.0697 191.086 51.2095 191.95 57.204C194.693 76.2296 194.793 95.5368 194.889 114.768C194.892 115.545 194.846 116.437 194.25 116.921C193.842 117.251 193.286 117.293 192.766 117.32L173.668 118.336C182.568 120.952 192.439 119.92 200.637 115.518L221.856 104.122C223.837 103.058 225.881 101.941 227.246 100.129C229.125 97.6358 229.394 94.2812 229.482 91.135C229.81 79.5153 228.673 67.8533 226.11 56.528C226.998 68.7793 227.122 81.0885 226.479 93.3557C226.369 95.4506 226.204 97.6485 225.09 99.4102C223.9 101.292 221.831 102.358 219.859 103.337L196.959 114.716C197.906 96.5257 197.171 78.2445 194.766 60.1954C193.957 54.1248 192.925 47.9692 190.208 42.5086C183.786 29.6039 169.571 23.2204 156.434 17.8113C176.075 23.6857 195.941 29.6572 213.611 40.2104C213.841 38.7524 212.463 37.6044 211.233 36.8293ZM284.419 92.3521C285.437 95.0348 286.869 97.8943 289.5 98.9168C290.123 98.966 290.495 98.1211 290.291 97.5173C290.12 97.0129 289.718 96.6456 289.324 96.2848C289.246 96.2136 289.168 96.1427 289.093 96.071C287.418 94.4808 286.597 92.2332 285.787 90.0192C285.627 89.5814 285.467 89.1449 285.302 88.715C284.298 86.1114 282.726 83.3914 280.097 82.6138C278.476 82.1346 276.742 82.4919 275.107 82.9136C265.869 85.2964 257.138 89.7133 249.681 95.7764C246.437 98.414 243.155 102.153 243.929 106.316C244.221 107.888 245.074 109.283 245.934 110.62C247.57 113.164 249.294 115.65 251.101 118.07C251.892 119.129 252.724 120.199 253.84 120.885C255.73 122.047 258.107 121.92 260.282 121.553C271.527 119.653 281.151 112.509 290.309 105.573C290.786 105.212 291.281 104.827 291.528 104.276C291.775 103.725 291.67 102.958 291.146 102.673C290.546 102.347 289.837 102.797 289.302 103.226C280.78 110.047 271.677 116.712 261.11 119.108C259.107 119.562 256.899 119.83 255.097 118.827C253.749 118.077 252.838 116.728 251.978 115.428L246.648 107.365C246.199 106.686 245.733 105.956 245.717 105.137C245.7 104.317 246.348 103.431 247.143 103.536C254.615 104.53 262.122 105.244 269.645 105.677C270.244 105.711 270.87 105.739 271.416 105.484C272.119 105.156 272.548 104.429 272.922 103.738C276.107 97.869 278.54 91.5738 280.139 85.0639C282.265 86.6221 283.257 89.2614 284.203 91.7798L284.207 91.7887L284.213 91.8066C284.282 91.9893 284.35 92.1713 284.419 92.3521ZM277.841 84.5485C276.418 89.9928 274.312 95.2501 271.591 100.151C271.135 100.973 270.629 101.819 269.832 102.296C268.817 102.904 267.555 102.789 266.386 102.656L247.774 100.533C250.862 96.3614 255.449 93.6542 260.033 91.3279C264.371 89.1259 268.825 87.1617 273.369 85.4465C274.808 84.9035 276.317 84.3774 277.841 84.5485ZM174.999 200.688C175.459 205.115 175.943 209.635 177.783 213.67L174.771 186.26C174.647 185.132 174.684 183.696 175.699 183.236C176.558 193.553 177.839 203.833 179.537 214.04C179.739 215.252 177.958 215.945 176.958 215.262C175.958 214.58 175.638 213.251 175.411 212.044C173.753 203.247 172.842 194.305 172.691 185.348C170.581 185.773 169.102 187.864 168.675 190.018C168.248 192.173 168.66 194.398 169.071 196.555L173.04 217.391C173.659 220.639 174.277 223.996 173.595 227.231C170.969 214.975 168.858 202.603 167.269 190.162C147.121 202.757 121.159 205.1 99.1636 196.306C94.3597 194.386 89.589 191.841 86.4161 187.683C83.9167 184.408 82.583 180.342 81.8843 176.25C79.4027 161.717 84.488 146.894 91.3901 133.938C91.5699 133.6 91.7514 133.262 91.9335 132.922C94.4035 128.317 96.9771 123.518 96.7803 118.309C96.7673 117.965 96.7437 117.615 96.7199 117.263L96.7199 117.262L96.7199 117.262L96.7199 117.262L96.7198 117.262L96.7198 117.262L96.7198 117.261L96.7198 117.261L96.7198 117.261L96.7198 117.261C96.6104 115.639 96.4979 113.971 97.4013 112.686C98.6131 114.939 99.0746 117.606 98.6928 120.147C119.552 119.23 140.442 119.045 161.313 119.593C161.557 120.574 160.167 121.03 159.177 121.015C139.699 120.718 120.212 121.057 100.755 122.032C100.139 122.063 99.4925 122.104 98.9701 122.439C98.4207 122.792 98.1005 123.411 97.8052 124.002C92.2832 135.047 86.743 146.253 84.0739 158.354C82.7013 164.577 82.1756 171.387 84.9888 177.081C86.056 179.241 87.5655 181.149 89.2508 182.848C98.2983 191.971 111.847 194.768 124.553 194.55C132.663 194.411 140.754 193.219 148.573 191.012C156.861 188.673 165.128 184.986 170.785 178.366C174.108 174.479 176.366 169.771 178.343 165.021C182.119 155.952 185.015 146.5 186.976 136.85C188.203 137.114 188.22 138.888 187.937 140.137C184.433 155.593 180.359 172.067 168.817 182.672C158.391 192.251 143.701 195.221 129.706 196.022C121.622 196.485 113.411 196.34 105.581 194.234C97.7509 192.127 90.2746 187.913 85.3037 181.379C86.7535 187.03 91.6645 191.063 96.7773 193.673C110.202 200.526 126.054 200.164 140.877 197.782C150.751 196.195 160.886 193.591 168.571 187.056C175.139 181.471 179.325 173.494 182.476 165.375C185.963 156.388 188.383 146.969 189.664 137.39C190.461 136.875 191.052 138.316 190.952 139.275C189.224 155.692 183.072 171.599 173.349 184.784L174.999 200.688ZM165.668 228.758C164.811 227.28 164.26 225.617 164.06 223.911L162.829 228.174L159.723 216.066C159.483 215.126 158.896 213.951 157.967 214.153C157.064 214.349 156.962 215.616 157.097 216.55C157.774 221.248 159.064 225.852 160.923 230.203L157.62 227.241C157.46 228.651 157.823 230.117 158.621 231.28C156.9 229.984 154.593 229.543 152.531 230.115C154.004 232.208 156.005 233.909 158.286 235.01L155.495 231.028C157.751 232.359 160.114 233.5 162.553 234.435L160.189 231.403L163.111 232.231C160.875 227.032 158.597 221.634 158.651 215.954C159.498 220.575 160.736 225.12 162.349 229.521C162.623 230.267 162.926 231.039 163.508 231.568C164.091 232.097 165.037 232.297 165.647 231.801C166.121 231.416 166.259 230.751 166.367 230.142L167.683 222.681L169.128 231.934C170.224 229.104 173.788 228.394 176.766 228.376C180.697 228.35 184.658 228.793 188.609 229.235C195.73 230.031 202.818 230.823 209.641 228.865C209.441 229.944 209.09 230.993 208.603 231.971C214.109 231.152 219.68 230.792 225.243 230.897C227.593 230.941 229.949 231.068 232.305 231.194H232.305H232.306H232.306H232.306H232.306H232.306H232.307H232.307H232.307C238.537 231.529 244.766 231.863 250.87 230.68L210.36 230.316C211.121 230.271 211.704 229.367 211.445 228.634C211.186 227.902 210.171 227.588 209.558 228.051C209.16 226.756 207.369 226.18 206.317 227.009C206.927 225.087 208.133 223.368 209.718 222.161C207.929 222.063 206.112 222.623 204.675 223.715L209.032 203.1C208.664 202.776 208.049 202.994 207.777 203.405C207.508 203.812 207.478 204.331 207.449 204.822L207.448 204.838C207.04 211.877 204.612 218.782 200.542 224.475L198.944 219.748L196.653 225.395C195.615 224.573 194.143 224.365 192.926 224.87C193.237 226.077 194.181 227.093 195.345 227.471L195.887 225.986L199.466 228.436C198.098 226.971 197.802 224.574 198.77 222.807L200.935 226.52L205.132 218.034C205.156 221.441 203.727 224.662 202.327 227.754C203.849 226.536 205.157 225.039 206.171 223.357C207.15 225.128 206.081 227.504 204.379 228.559C202.677 229.613 200.572 229.671 198.583 229.585C195.549 229.454 192.492 229.064 189.438 228.675L189.438 228.675C182.58 227.801 175.742 226.93 169.228 228.994L168.288 220.14C166.854 222.79 165.956 225.743 165.668 228.758ZM206.538 228.994C206.391 228.814 206.392 228.526 206.54 228.347L206.659 228.393C206.857 227.906 207.694 227.946 207.848 228.449C207.462 228.734 207.009 228.922 206.538 228.994ZM228.668 134.924C223.95 132.486 218.336 133.144 213.098 133.878C211.619 134.085 210.11 134.303 208.769 134.977C207.429 135.65 206.262 136.87 206.03 138.379C193.24 136.746 180.983 130.991 171.438 122.135C169.366 120.213 167.252 117.477 168.184 114.78C168.477 113.932 169.046 113.217 169.639 112.553C174.089 107.565 180.225 104.565 186.198 101.686C179.428 102.292 172.933 105.659 168.452 110.882C167.425 112.079 166.479 113.416 166.125 114.967C165.252 118.795 168.161 122.387 171.072 124.956C180.361 133.152 192.045 138.474 204.217 140.055C204.947 140.149 204.985 141.199 204.918 141.948C204.622 145.28 206.398 148.532 208.861 150.736C211.324 152.94 214.408 154.263 217.469 155.448C226.948 159.119 236.785 161.822 246.786 163.505C247.447 163.616 248.355 163.563 248.494 162.894C246.186 161.333 243.408 160.738 240.692 160.157L240.692 160.157L240.669 160.152L240.252 160.063C233.365 158.581 226.571 156.65 219.924 154.287C217.197 153.318 214.464 152.259 212.086 150.585C209.708 148.911 207.689 146.545 206.928 143.698C206.553 142.292 207.062 140.193 208.477 140.37C214.24 141.09 220.16 141.802 225.787 140.341C227.06 140.01 228.388 139.511 229.164 138.428C229.94 137.344 229.84 135.53 228.668 134.924ZM214.134 138.818C212.156 138.47 210.136 138.376 208.135 138.541C209.107 136.653 211.482 136.156 213.549 135.868C218.043 135.243 222.723 134.633 227.029 136.089C227.314 136.186 227.617 136.308 227.771 136.571C227.974 136.917 227.826 137.388 227.538 137.664C227.25 137.939 226.858 138.065 226.478 138.173C222.478 139.316 218.228 139.538 214.134 138.818ZM148.679 234.053C151.989 233.958 155.32 234.706 158.286 236.211C157.493 237.376 155.9 237.539 154.512 237.593L118.252 239C117.919 238.958 117.857 238.433 118.092 238.19C118.328 237.946 118.696 237.915 119.03 237.898L154.427 236.133C152.382 235.941 150.387 235.219 148.679 234.053ZM78.8952 111.459C78.3785 113.985 80.4691 116.68 82.9869 116.871C78.8697 123.215 71.4534 126.345 64.3276 128.555C59.8802 129.934 54.9469 131.066 50.7071 129.12C50.1809 129.449 50.742 130.258 51.2975 130.532C55.4235 132.564 60.3151 131.432 64.7039 130.093C71.14 128.129 77.7741 125.592 82.1536 120.386C82.333 120.172 82.5117 119.953 82.6916 119.732C83.8187 118.347 84.9941 116.903 86.6889 116.582C92.1451 115.551 96.6894 112.057 101.18 108.605C102.198 107.822 103.214 107.041 104.237 106.292C110.454 101.736 117.35 98.1504 124.612 95.6959C125.254 95.4792 126.034 95.0768 125.977 94.3887C116.973 95.2336 109.102 100.723 101.845 106.237L101.603 106.421C96.6705 110.169 91.5165 114.086 85.4477 115.015C87.4301 113.417 87.0116 109.724 84.775 108.526C82.5385 107.329 79.4119 108.932 78.8952 111.459ZM80.5768 113.002C80.1721 111.777 80.7968 110.319 81.9069 109.698C82.222 109.522 82.5746 109.405 82.9338 109.404C84.1192 109.403 84.985 110.699 84.9928 111.911C85.0006 113.123 84.3996 114.241 83.8156 115.295C82.4494 115.082 81.0189 114.341 80.5768 113.002ZM215.31 85.9954C214.975 85.6134 215.078 85.0988 215.185 84.5658C215.26 84.1892 215.338 83.8033 215.263 83.4485C215.199 83.1409 215.023 82.8789 214.847 82.6161C214.692 82.3835 214.535 82.1503 214.455 81.8843C214.473 81.5326 214.933 81.3522 215.247 81.4981C215.56 81.6439 215.736 81.988 215.845 82.3219C216.245 83.5403 216.039 84.9487 215.31 85.9954ZM184.958 59.2581C185.797 57.2246 187.461 55.4214 189.581 55.0086C190.268 54.875 190.246 53.7183 189.645 53.3547C189.044 52.9911 188.271 53.206 187.641 53.513C184.702 54.9427 182.847 58.0899 182.12 61.3325C181.394 64.5751 181.634 67.9521 181.878 71.2693L183.177 88.9018C183.222 89.5014 183.275 90.1308 183.602 90.6309C184.267 91.6494 185.694 91.6813 186.889 91.6037L192.94 91.2107C191.595 90.1334 189.79 89.6799 188.11 89.9971C187.129 90.1824 186.143 89.5207 185.623 88.6501C185.103 87.7796 184.951 86.7377 184.822 85.7262C183.979 79.1088 183.67 72.4203 183.898 65.751C183.974 63.5454 184.119 61.2916 184.958 59.2581ZM200.408 215.768C200.064 216.023 199.719 215.442 199.669 215.011C197.331 194.917 196.978 174.643 196.628 154.411L196.392 140.771C196.386 140.382 196.391 139.957 196.635 139.659C197.056 139.147 197.94 139.382 198.307 139.935C198.675 140.489 198.675 141.206 198.663 141.874C198.303 161.784 198.539 181.733 200.404 201.555C200.427 201.796 200.45 202.038 200.473 202.279L200.473 202.279C200.9 206.782 201.334 211.353 200.408 215.768ZM180.966 89.1104C180.454 88.8229 179.822 88.9857 179.262 89.1551C153.338 96.9933 127.474 105.075 101.99 114.3C101.513 114.473 100.968 114.721 100.858 115.227C100.742 115.761 101.235 116.272 101.762 116.372C102.289 116.471 102.822 116.278 103.325 116.089C128.864 106.485 154.787 97.9486 181.008 90.5095C181.571 90.3497 181.479 89.398 180.966 89.1104Z" fill="#00160A"/>
<path fill-rule="evenodd" clip-rule="evenodd" d="M273.33 209.008C272.726 209.279 272.073 209.532 271.423 209.417C270.774 209.303 270.166 208.68 270.296 208.019C271.489 201.979 269.991 195.439 266.299 190.569C265.005 188.862 263.465 187.36 262.204 185.627C261.41 184.536 260.703 183.163 261.106 181.866C261.679 180.02 263.988 179.572 265.878 179.44C270.271 179.134 274.664 178.828 279.056 178.522C281.08 178.381 283.412 178.36 284.763 179.907C288.524 184.214 295.855 184.503 299.93 180.505C300.56 179.887 301.354 181.118 301.329 182.011C301.25 184.819 300.118 187.583 298.216 189.61C297.768 190.089 297.194 190.557 296.549 190.489C295.904 190.42 295.429 189.474 295.943 189.07C297.046 188.204 298.169 187.316 298.942 186.134C299.716 184.952 300.091 183.403 299.563 182.087C296.726 185.757 293.861 189.405 290.97 193.03C285.956 199.317 280.594 205.746 273.33 209.008ZM281.253 190.511C280.532 190.715 279.762 190.558 279.041 190.35C273.857 188.853 269.08 184.711 263.776 185.681C269.96 190.772 273.244 199.309 272.108 207.343C276.183 206.451 279.4 203.341 282.286 200.268C286.558 195.72 290.613 190.96 294.435 186.011C291.688 185.988 288.952 185.178 286.618 183.697C283.735 184.427 284.116 189.702 281.253 190.511ZM285.02 182.148C283.302 180.078 280.215 180.142 277.57 180.38C274.12 180.689 270.671 180.999 267.221 181.309C265.82 181.435 264.211 181.686 263.481 182.914C269.452 184.192 275.274 186.199 280.782 188.879C281.49 186.604 282.91 184.567 284.783 183.14C284.993 182.979 285.234 182.773 285.206 182.506C285.192 182.37 285.107 182.253 285.02 182.148V182.148Z" fill="#FFB61D"/>
<path fill-rule="evenodd" clip-rule="evenodd" d="M29.2537 132.788C24.0575 130.664 17.8653 131.294 13.1806 134.423C12.7271 134.726 12.075 134.388 11.8505 133.884C11.626 133.38 11.71 132.794 11.8248 132.253C13.321 125.201 19.2814 119.805 25.9098 117.326C32.5383 114.846 39.7887 114.839 46.8349 115.263C47.534 115.305 48.2648 115.361 48.8611 115.736C49.4575 116.112 49.8588 116.914 49.5615 117.563C46.7898 123.608 44.7018 129.98 43.3526 136.512C43.1338 137.571 42.0621 138.274 41.0067 138.362C39.9513 138.45 38.9172 138.051 37.9594 137.59C34.9744 136.151 32.3179 134.041 29.2537 132.788ZM29.8463 125.653C29.3832 126.038 28.6594 125.835 28.2237 125.418C27.7879 125.001 27.5396 124.425 27.1971 123.925C25.3599 121.246 21.1438 121.468 18.6447 123.512C16.1456 125.557 14.9363 128.787 13.835 131.859C21.1668 128.603 30.1971 129.772 36.5043 134.792C37.3654 135.477 38.2199 136.249 39.2803 136.513C40.3408 136.777 41.6766 136.303 41.9452 135.222C43.3801 129.445 45.1484 123.754 47.2376 118.189C43.2288 123.283 34.8099 121.531 29.8463 125.653ZM28.2508 122.574C28.6626 123.103 29.4101 123.243 30.0608 123.124C30.7116 123.005 31.3028 122.673 31.9091 122.404C33.9966 121.476 36.3087 121.269 38.5467 120.845C40.7848 120.421 43.0932 119.703 44.6687 118.024C41.114 118.013 37.5592 118.002 34.0045 117.991C30.4321 117.98 26.5825 118.057 23.7126 120.232C25.4596 120.297 27.1621 121.176 28.2508 122.574Z" fill="#FFB61D"/>
<path fill-rule="evenodd" clip-rule="evenodd" d="M196.193 132.3C196.184 129.104 196.176 125.908 196.167 122.711C196.165 121.793 196.163 120.875 196.16 119.957C196.159 119.324 196.262 118.532 196.851 118.335C197.296 118.186 197.786 118.513 197.994 118.942C198.202 119.371 198.2 119.871 198.193 120.35C198.128 124.81 198.063 129.271 197.998 133.732C197.988 134.373 197.883 135.163 197.296 135.388C196.316 134.82 196.196 133.452 196.193 132.3H196.193Z" fill="#00160A"/>
<path fill-rule="evenodd" clip-rule="evenodd" d="M189.951 129.341C189.498 129.544 189.265 128.781 189.335 128.281C189.585 126.491 189.836 124.698 190.262 122.943C190.527 121.85 190.909 120.701 191.792 120.028C192.675 119.355 194.19 119.472 194.622 120.508C194.831 121.009 194.744 121.583 194.648 122.119C194.054 125.44 193.254 128.722 192.253 131.939C192.211 132.075 192.165 132.218 192.063 132.317C191.817 132.558 191.373 132.396 191.203 132.094C191.032 131.792 191.054 131.42 191.082 131.073C191.488 131.042 191.678 130.553 191.775 130.149C192.174 128.497 192.572 126.845 192.971 125.193C193.281 123.908 193.564 122.444 192.842 121.345C192.101 121.812 191.822 122.756 191.602 123.617C191.158 125.349 190.714 127.082 190.27 128.814C190.217 129.021 190.143 129.255 189.951 129.341L189.951 129.341Z" fill="#00160A"/>
</svg>
