<svg width="284" height="87" viewBox="0 0 284 87" fill="none" xmlns="http://www.w3.org/2000/svg">
<g clip-path="url(#clip0_2172_13287)">
<mask id="mask0_2172_13287" style="mask-type:luminance" maskUnits="userSpaceOnUse" x="0" y="4" width="84" height="53">
<path d="M46.1942 37.3134L51.4161 56.5721L70.2955 46.9427L83.1495 8.02423L77.5259 4.81445L69.8938 8.42545L60.2533 20.4621L0 9.62912L46.1942 37.3134Z" fill="white"/>
</mask>
<g mask="url(#mask0_2172_13287)">
<path fill-rule="evenodd" clip-rule="evenodd" d="M35.7503 16.0485L46.1942 37.3132L0 9.62891L35.7503 16.0485Z" fill="#FCBE4F"/>
<path fill-rule="evenodd" clip-rule="evenodd" d="M46.9975 38.9185L35.7502 16.0488L60.2532 20.4623L46.9975 38.9185Z" fill="#E08D3D"/>
<path fill-rule="evenodd" clip-rule="evenodd" d="M7.23047 14.043L51.8179 31.6967L46.5959 38.9187L46.1942 37.3138L7.23047 14.043Z" fill="#FF9533"/>
<path fill-rule="evenodd" clip-rule="evenodd" d="M46.9977 38.9188L41.374 27.6846L52.2196 31.2956L46.9977 38.9188Z" fill="#E2712F"/>
<path fill-rule="evenodd" clip-rule="evenodd" d="M46.1941 37.3132L60.2532 20.4619L51.416 56.5719L46.1941 37.3132Z" fill="#FA5563"/>
<path fill-rule="evenodd" clip-rule="evenodd" d="M46.1941 37.3132L51.416 31.2949V56.5719L46.1941 37.3132Z" fill="#D43A46"/>
<path fill-rule="evenodd" clip-rule="evenodd" d="M51.416 56.5719L60.2532 20.4619L78.7308 21.2644L54.2278 54.967L51.416 56.5719Z" fill="#FB5690"/>
<path fill-rule="evenodd" clip-rule="evenodd" d="M60.2533 20.4619L78.731 21.2644L55.8347 38.5169L60.2533 20.4619Z" fill="#FE3277"/>
<path fill-rule="evenodd" clip-rule="evenodd" d="M54.228 54.9671L70.2956 46.9427L78.731 20.8633L54.228 54.9671Z" fill="#E04EB1"/>
<path fill-rule="evenodd" clip-rule="evenodd" d="M54.228 54.9674L70.2956 46.9429L66.6804 37.7148L54.228 54.9674Z" fill="#D93490"/>
<path fill-rule="evenodd" clip-rule="evenodd" d="M60.2532 20.4626L69.492 8.82715L79.1325 20.8638L78.7308 21.6662L60.2532 20.4626Z" fill="#FF5F70"/>
<path fill-rule="evenodd" clip-rule="evenodd" d="M79.1327 20.8633L69.4922 8.82667L77.526 4.81445L83.1496 8.02423L79.1327 20.8633Z" fill="#FE993F"/>
<path fill-rule="evenodd" clip-rule="evenodd" d="M83.1495 8.02423L77.5259 4.81445L79.1326 20.8633L83.1495 8.02423Z" fill="#FFBC65"/>
</g>
<path fill-rule="evenodd" clip-rule="evenodd" d="M51.416 56.9738L61.0565 52.1592L71.9021 66.2019L59.0481 86.263L51.416 56.9738Z" fill="#5E1D6F"/>
<mask id="mask1_2172_13287" style="mask-type:luminance" maskUnits="userSpaceOnUse" x="51" y="52" width="21" height="35">
<path d="M51.416 56.9738L61.0565 52.1592L71.9021 66.2019L59.0481 86.263L51.416 56.9738Z" fill="white"/>
</mask>
<g mask="url(#mask1_2172_13287)">
<path fill-rule="evenodd" clip-rule="evenodd" d="M59.0481 86.263L61.0565 52.1592L71.9021 66.2019L59.0481 86.263Z" fill="#AA379C"/>
<path fill-rule="evenodd" clip-rule="evenodd" d="M59.0482 86.263L52.2195 60.1836L61.0566 52.1592L59.0482 86.263Z" fill="#852B82"/>
</g>
<path fill-rule="evenodd" clip-rule="evenodd" d="M35.7502 15.6477L60.2532 20.0611L28.5198 0L35.7502 15.6477Z" fill="#FF8E42"/>
<mask id="mask2_2172_13287" style="mask-type:luminance" maskUnits="userSpaceOnUse" x="28" y="0" width="33" height="21">
<path d="M35.7502 15.6477L60.2532 20.0611L28.5198 0L35.7502 15.6477Z" fill="white"/>
</mask>
<g mask="url(#mask2_2172_13287)">
<path fill-rule="evenodd" clip-rule="evenodd" d="M35.7502 15.6477L28.5198 0L44.989 17.2525L35.7502 15.6477Z" fill="#FF7352"/>
</g>
<path fill-rule="evenodd" clip-rule="evenodd" d="M81.9443 13.2404L83.5511 8.42578L111.268 11.6356L81.9443 13.2404Z" fill="#FC5461"/>
<mask id="mask3_2172_13287" style="mask-type:luminance" maskUnits="userSpaceOnUse" x="81" y="8" width="31" height="6">
<path d="M81.9443 13.2404L83.5511 8.42578L111.268 11.6356L81.9443 13.2404Z" fill="white"/>
</mask>
<g mask="url(#mask3_2172_13287)">
<path fill-rule="evenodd" clip-rule="evenodd" d="M81.9443 13.2403L111.268 11.6355L82.7477 10.833L81.9443 13.2403Z" fill="#D43A44"/>
</g>
</g>
<path d="M115.923 54.1934H108.651V45.0134H100.047V54.1934H92.7748V30.1814H100.047V38.6774H108.651V30.1814H115.923V54.1934ZM144.074 54.1934H136.19L135.254 51.0974H126.038L125.102 54.1934H117.218L126.074 30.1814H135.218L144.074 54.1934ZM133.382 45.0494L130.646 36.5894L127.91 45.0494H133.382ZM166.861 54.1934H158.581L155.269 46.4894H152.641V54.1934H145.369V30.1814H158.185C163.801 30.1814 166.825 33.9254 166.825 38.4254C166.825 42.5654 164.413 44.7614 162.505 45.6974L166.861 54.1934ZM159.445 38.3174C159.445 37.0214 158.293 36.2294 157.069 36.2294H152.641V40.4414H157.069C158.293 40.4414 159.445 39.6494 159.445 38.3174ZM167.931 50.8094L171.711 45.4094C173.511 47.1374 176.211 48.5054 179.451 48.5054C180.819 48.5054 182.115 48.0374 182.115 47.1014C182.115 46.1654 181.107 45.6974 178.731 45.2654C174.771 44.5454 168.723 43.6094 168.723 37.5974C168.723 33.5294 172.107 29.8214 178.695 29.8214C182.619 29.8214 186.147 30.9374 188.883 33.1694L184.995 38.3174C182.907 36.7334 180.207 35.9414 178.299 35.9414C176.499 35.9414 176.103 36.5894 176.103 37.2014C176.103 38.1374 177.075 38.4614 179.631 38.8934C183.591 39.5774 189.459 40.7294 189.459 46.2734C189.459 51.5654 185.535 54.6254 179.091 54.6254C173.979 54.6254 170.487 53.1134 167.931 50.8094ZM216.109 54.1934H208.225L207.289 51.0974H198.073L197.137 54.1934H189.253L198.109 30.1814H207.253L216.109 54.1934ZM205.417 45.0494L202.681 36.5894L199.945 45.0494H205.417Z" fill="#213571"/>
<path d="M91.396 69.012C91.38 68.892 91.38 68.764 91.396 68.628C91.772 68.588 92.04 68.552 92.2 68.52C92.36 68.48 92.46 68.4 92.5 68.28C92.54 68.152 92.56 67.948 92.56 67.668V62.088C92.56 61.752 92.54 61.512 92.5 61.368C92.46 61.224 92.356 61.132 92.188 61.092C92.028 61.044 91.764 61.004 91.396 60.972C91.38 60.852 91.38 60.724 91.396 60.588C91.564 60.588 91.76 60.592 91.984 60.6C92.216 60.6 92.444 60.604 92.668 60.612C92.892 60.612 93.076 60.612 93.22 60.612C93.372 60.612 93.56 60.612 93.784 60.612C94.016 60.604 94.248 60.6 94.48 60.6C94.72 60.592 94.916 60.588 95.068 60.588C95.092 60.708 95.092 60.836 95.068 60.972C94.692 61.004 94.42 61.04 94.252 61.08C94.084 61.12 93.98 61.2 93.94 61.32C93.9 61.44 93.88 61.644 93.88 61.932V67.512C93.88 67.784 93.88 68.004 93.88 68.172C93.888 68.332 93.896 68.44 93.904 68.496H95.608C96.272 68.496 96.764 68.348 97.084 68.052C97.348 67.796 97.624 67.348 97.912 66.708C98.04 66.684 98.164 66.684 98.284 66.708C98.188 67.196 98.108 67.636 98.044 68.028C97.988 68.412 97.94 68.736 97.9 69C97.124 69 96.348 69 95.572 69C94.804 68.992 94.032 68.988 93.256 68.988C93.104 68.988 92.912 68.992 92.68 69C92.448 69 92.216 69 91.984 69C91.752 69.008 91.556 69.012 91.396 69.012ZM101.479 69.144C100.911 69.144 100.431 69.012 100.039 68.748C99.6471 68.484 99.3471 68.132 99.1391 67.692C98.9391 67.244 98.8391 66.752 98.8391 66.216C98.8391 65.664 98.9431 65.152 99.1511 64.68C99.3671 64.208 99.6791 63.828 100.087 63.54C100.495 63.244 100.991 63.096 101.575 63.096C102.279 63.096 102.827 63.308 103.219 63.732C103.619 64.148 103.819 64.688 103.819 65.352C103.819 65.432 103.815 65.504 103.807 65.568C103.807 65.624 103.803 65.672 103.795 65.712L100.015 65.676C100.015 65.708 100.015 65.736 100.015 65.76C100.015 66.544 100.195 67.16 100.555 67.608C100.915 68.056 101.419 68.28 102.067 68.28C102.611 68.28 103.147 68.104 103.675 67.752C103.755 67.848 103.815 67.94 103.855 68.028C103.175 68.772 102.383 69.144 101.479 69.144ZM100.051 65.232L102.535 65.184C102.543 65.168 102.547 65.148 102.547 65.124C102.547 65.092 102.547 65.072 102.547 65.064C102.547 64.632 102.451 64.272 102.259 63.984C102.075 63.696 101.799 63.552 101.431 63.552C101.087 63.552 100.787 63.692 100.531 63.972C100.275 64.252 100.115 64.672 100.051 65.232ZM108.932 69.12C108.404 69.12 108.072 68.856 107.936 68.328C107.368 68.872 106.788 69.144 106.196 69.144C105.788 69.144 105.44 69.024 105.152 68.784C104.872 68.536 104.732 68.196 104.732 67.764C104.732 66.708 105.808 66.044 107.96 65.772C107.96 65.58 107.96 65.384 107.96 65.184C107.968 64.984 107.972 64.772 107.972 64.548C107.972 64.268 107.868 64.052 107.66 63.9C107.46 63.74 107.216 63.66 106.928 63.66C106.72 63.66 106.544 63.692 106.4 63.756C106.4 63.94 106.36 64.128 106.28 64.32C106.2 64.512 106.088 64.676 105.944 64.812C105.808 64.94 105.64 65.004 105.44 65.004C105.264 65.004 105.124 64.956 105.02 64.86C104.924 64.756 104.876 64.632 104.876 64.488C104.876 64.296 104.964 64.116 105.14 63.948C105.324 63.772 105.556 63.624 105.836 63.504C106.116 63.376 106.408 63.276 106.712 63.204C107.016 63.132 107.288 63.096 107.528 63.096C107.824 63.096 108.096 63.152 108.344 63.264C108.6 63.368 108.804 63.528 108.956 63.744C109.116 63.952 109.196 64.212 109.196 64.524C109.196 64.716 109.192 64.968 109.184 65.28C109.176 65.584 109.168 65.912 109.16 66.264C109.16 66.608 109.156 66.936 109.148 67.248C109.14 67.56 109.136 67.812 109.136 68.004C109.136 68.26 109.248 68.388 109.472 68.388C109.616 68.388 109.836 68.34 110.132 68.244C110.164 68.284 110.184 68.328 110.192 68.376C110.208 68.424 110.22 68.468 110.228 68.508C110.028 68.724 109.816 68.88 109.592 68.976C109.376 69.072 109.156 69.12 108.932 69.12ZM107.936 68.004L107.96 66.204C107.224 66.3 106.716 66.456 106.436 66.672C106.164 66.888 106.028 67.164 106.028 67.5C106.028 67.78 106.1 67.996 106.244 68.148C106.396 68.292 106.584 68.364 106.808 68.364C106.952 68.364 107.112 68.332 107.288 68.268C107.472 68.204 107.688 68.116 107.936 68.004ZM110.578 69.012C110.554 68.884 110.554 68.76 110.578 68.64C110.85 68.624 111.05 68.6 111.178 68.568C111.306 68.528 111.39 68.448 111.43 68.328C111.47 68.208 111.49 68.016 111.49 67.752V65.064C111.49 64.752 111.474 64.52 111.442 64.368C111.418 64.216 111.342 64.112 111.214 64.056C111.094 63.992 110.886 63.94 110.59 63.9C110.566 63.788 110.566 63.684 110.59 63.588C110.91 63.524 111.222 63.452 111.526 63.372C111.83 63.284 112.15 63.172 112.486 63.036L112.69 63.108V64.164C113.25 63.452 113.822 63.096 114.406 63.096C114.686 63.096 114.894 63.172 115.03 63.324C115.166 63.468 115.234 63.632 115.234 63.816C115.234 64.032 115.162 64.2 115.018 64.32C114.874 64.432 114.71 64.488 114.526 64.488C114.374 64.488 114.222 64.448 114.07 64.368C113.926 64.288 113.818 64.164 113.746 63.996C113.474 63.996 113.23 64.104 113.014 64.32C112.806 64.528 112.702 64.772 112.702 65.052V67.632C112.702 67.944 112.718 68.168 112.75 68.304C112.79 68.44 112.886 68.528 113.038 68.568C113.198 68.6 113.454 68.624 113.806 68.64C113.822 68.752 113.822 68.876 113.806 69.012C113.534 69.012 113.254 69.008 112.966 69C112.678 68.992 112.382 68.988 112.078 68.988C111.782 68.988 111.518 68.992 111.286 69C111.062 69.008 110.826 69.012 110.578 69.012ZM119.256 69.012C119.24 68.884 119.24 68.76 119.256 68.64C119.504 68.624 119.688 68.6 119.808 68.568C119.928 68.528 120.008 68.448 120.048 68.328C120.088 68.208 120.108 68.016 120.108 67.752V65.328C120.108 64.848 120.032 64.492 119.88 64.26C119.736 64.02 119.444 63.9 119.004 63.9C118.772 63.9 118.548 63.944 118.332 64.032C118.116 64.112 117.88 64.268 117.624 64.5V67.632C117.624 67.944 117.64 68.168 117.672 68.304C117.712 68.44 117.792 68.528 117.912 68.568C118.032 68.6 118.22 68.624 118.476 68.64C118.492 68.76 118.492 68.884 118.476 69.012C118.252 69.012 118.016 69.008 117.768 69C117.528 68.992 117.268 68.988 116.988 68.988C116.732 68.988 116.48 68.992 116.232 69C115.984 69.008 115.74 69.012 115.5 69.012C115.476 68.884 115.476 68.76 115.5 68.64C115.772 68.624 115.972 68.6 116.1 68.568C116.228 68.528 116.312 68.448 116.352 68.328C116.392 68.208 116.412 68.016 116.412 67.752V65.064C116.412 64.752 116.396 64.52 116.364 64.368C116.34 64.216 116.264 64.112 116.136 64.056C116.016 63.992 115.808 63.94 115.512 63.9C115.488 63.788 115.488 63.684 115.512 63.588C116.2 63.452 116.832 63.268 117.408 63.036L117.612 63.108V64.008C117.98 63.672 118.34 63.436 118.692 63.3C119.044 63.164 119.38 63.096 119.7 63.096C120.228 63.096 120.632 63.252 120.912 63.564C121.192 63.876 121.332 64.324 121.332 64.908V67.632C121.332 67.944 121.348 68.168 121.38 68.304C121.42 68.44 121.5 68.528 121.62 68.568C121.74 68.6 121.932 68.624 122.196 68.64C122.212 68.76 122.212 68.884 122.196 69.012C121.956 69.012 121.72 69.008 121.488 69C121.264 68.992 121 68.988 120.696 68.988C120.4 68.988 120.14 68.992 119.916 69C119.7 69.008 119.48 69.012 119.256 69.012ZM125.73 69.012C125.506 69.012 125.274 69.008 125.034 69C124.794 68.992 124.534 68.988 124.254 68.988C123.998 68.988 123.738 68.992 123.474 69C123.218 69.008 122.97 69.012 122.73 69.012C122.706 68.884 122.706 68.76 122.73 68.64C123.002 68.624 123.202 68.6 123.33 68.568C123.458 68.528 123.542 68.448 123.582 68.328C123.622 68.208 123.642 68.016 123.642 67.752V65.064C123.642 64.752 123.63 64.52 123.606 64.368C123.582 64.216 123.506 64.112 123.378 64.056C123.258 63.992 123.046 63.94 122.742 63.9C122.718 63.788 122.718 63.684 122.742 63.588C123.094 63.524 123.43 63.444 123.75 63.348C124.07 63.252 124.378 63.148 124.674 63.036L124.878 63.108C124.87 63.356 124.862 63.588 124.854 63.804C124.854 64.02 124.854 64.224 124.854 64.416V67.632C124.854 67.944 124.87 68.168 124.902 68.304C124.942 68.44 125.022 68.528 125.142 68.568C125.27 68.6 125.466 68.624 125.73 68.64C125.754 68.76 125.754 68.884 125.73 69.012ZM123.33 60.996C123.33 60.764 123.41 60.568 123.57 60.408C123.738 60.248 123.938 60.168 124.17 60.168C124.394 60.168 124.586 60.248 124.746 60.408C124.914 60.568 124.998 60.76 124.998 60.984C124.998 61.192 124.918 61.384 124.758 61.56C124.598 61.728 124.394 61.812 124.146 61.812C123.922 61.812 123.73 61.732 123.57 61.572C123.41 61.412 123.33 61.22 123.33 60.996ZM130.06 69.012C130.044 68.884 130.044 68.76 130.06 68.64C130.308 68.624 130.492 68.6 130.612 68.568C130.732 68.528 130.812 68.448 130.852 68.328C130.892 68.208 130.912 68.016 130.912 67.752V65.328C130.912 64.848 130.836 64.492 130.684 64.26C130.54 64.02 130.248 63.9 129.808 63.9C129.576 63.9 129.352 63.944 129.136 64.032C128.92 64.112 128.684 64.268 128.428 64.5V67.632C128.428 67.944 128.444 68.168 128.476 68.304C128.516 68.44 128.596 68.528 128.716 68.568C128.836 68.6 129.024 68.624 129.28 68.64C129.296 68.76 129.296 68.884 129.28 69.012C129.056 69.012 128.82 69.008 128.572 69C128.332 68.992 128.072 68.988 127.792 68.988C127.536 68.988 127.284 68.992 127.036 69C126.788 69.008 126.544 69.012 126.304 69.012C126.28 68.884 126.28 68.76 126.304 68.64C126.576 68.624 126.776 68.6 126.904 68.568C127.032 68.528 127.116 68.448 127.156 68.328C127.196 68.208 127.216 68.016 127.216 67.752V65.064C127.216 64.752 127.2 64.52 127.168 64.368C127.144 64.216 127.068 64.112 126.94 64.056C126.82 63.992 126.612 63.94 126.316 63.9C126.292 63.788 126.292 63.684 126.316 63.588C127.004 63.452 127.636 63.268 128.212 63.036L128.416 63.108V64.008C128.784 63.672 129.144 63.436 129.496 63.3C129.848 63.164 130.184 63.096 130.504 63.096C131.032 63.096 131.436 63.252 131.716 63.564C131.996 63.876 132.136 64.324 132.136 64.908V67.632C132.136 67.944 132.152 68.168 132.184 68.304C132.224 68.44 132.304 68.528 132.424 68.568C132.544 68.6 132.736 68.624 133 68.64C133.016 68.76 133.016 68.884 133 69.012C132.76 69.012 132.524 69.008 132.292 69C132.068 68.992 131.804 68.988 131.5 68.988C131.204 68.988 130.944 68.992 130.72 69C130.504 69.008 130.284 69.012 130.06 69.012ZM135.887 72.06C135.183 72.06 134.615 71.936 134.183 71.688C133.751 71.44 133.535 71.096 133.535 70.656C133.535 70.312 133.655 70.028 133.895 69.804C134.135 69.58 134.431 69.356 134.783 69.132C134.471 69.06 134.235 68.936 134.075 68.76C133.915 68.576 133.835 68.36 133.835 68.112C133.835 67.68 134.151 67.244 134.783 66.804C134.519 66.636 134.307 66.42 134.147 66.156C133.987 65.884 133.907 65.572 133.907 65.22C133.907 64.78 134.019 64.404 134.243 64.092C134.475 63.772 134.775 63.528 135.143 63.36C135.519 63.184 135.919 63.096 136.343 63.096C136.967 63.096 137.487 63.268 137.903 63.612C138.335 63.268 138.759 63.096 139.175 63.096C139.383 63.096 139.547 63.144 139.667 63.24C139.787 63.328 139.847 63.46 139.847 63.636C139.847 63.812 139.791 63.952 139.679 64.056C139.567 64.16 139.431 64.212 139.271 64.212C139.119 64.212 138.987 64.168 138.875 64.08C138.771 63.984 138.703 63.852 138.671 63.684C138.559 63.708 138.467 63.736 138.395 63.768C138.331 63.8 138.255 63.844 138.167 63.9C138.439 64.244 138.575 64.652 138.575 65.124C138.575 65.564 138.467 65.94 138.251 66.252C138.035 66.556 137.747 66.792 137.387 66.96C137.035 67.12 136.647 67.2 136.223 67.2C135.823 67.2 135.451 67.128 135.107 66.984C134.907 67.184 134.807 67.396 134.807 67.62C134.807 67.82 134.883 67.948 135.035 68.004C135.187 68.052 135.467 68.076 135.875 68.076C136.059 68.076 136.279 68.076 136.535 68.076C136.791 68.068 136.979 68.064 137.099 68.064C137.899 68.064 138.475 68.208 138.827 68.496C139.179 68.776 139.355 69.164 139.355 69.66C139.355 70.052 139.259 70.396 139.067 70.692C138.875 70.996 138.615 71.248 138.287 71.448C137.959 71.656 137.587 71.808 137.171 71.904C136.763 72.008 136.335 72.06 135.887 72.06ZM135.299 69.192C134.867 69.552 134.651 69.932 134.651 70.332C134.651 70.612 134.735 70.84 134.903 71.016C135.071 71.192 135.291 71.32 135.563 71.4C135.835 71.48 136.123 71.52 136.427 71.52C136.699 71.52 136.983 71.48 137.279 71.4C137.575 71.32 137.827 71.176 138.035 70.968C138.243 70.768 138.347 70.484 138.347 70.116C138.347 69.78 138.227 69.54 137.987 69.396C137.755 69.252 137.319 69.18 136.679 69.18C136.527 69.18 136.339 69.18 136.115 69.18C135.891 69.188 135.643 69.192 135.371 69.192C135.347 69.192 135.323 69.192 135.299 69.192ZM136.247 66.78C136.599 66.78 136.867 66.64 137.051 66.36C137.243 66.072 137.339 65.676 137.339 65.172C137.339 64.66 137.243 64.256 137.051 63.96C136.859 63.664 136.579 63.516 136.211 63.516C135.867 63.516 135.599 63.656 135.407 63.936C135.223 64.208 135.131 64.596 135.131 65.1C135.131 65.612 135.227 66.02 135.419 66.324C135.619 66.628 135.895 66.78 136.247 66.78ZM148.206 67.176L150.774 60.6C150.942 60.608 151.118 60.612 151.302 60.612C151.486 60.612 151.642 60.612 151.77 60.612C151.834 60.612 151.95 60.612 152.118 60.612C152.294 60.604 152.482 60.6 152.682 60.6C152.89 60.6 153.078 60.6 153.246 60.6C153.422 60.592 153.542 60.588 153.606 60.588C153.63 60.708 153.63 60.832 153.606 60.96H153.582C153.214 61 152.946 61.04 152.778 61.08C152.61 61.112 152.506 61.192 152.466 61.32C152.434 61.44 152.418 61.64 152.418 61.92L152.514 67.524C152.514 67.772 152.522 67.968 152.538 68.112C152.554 68.256 152.598 68.36 152.67 68.424C152.742 68.488 152.858 68.536 153.018 68.568C153.178 68.592 153.406 68.616 153.702 68.64C153.726 68.76 153.726 68.884 153.702 69.012C153.638 69.012 153.518 69.008 153.342 69C153.174 69 152.986 69 152.778 69C152.578 69 152.39 69 152.214 69C152.046 68.992 151.93 68.988 151.866 68.988C151.802 68.988 151.686 68.992 151.518 69C151.35 69 151.166 69 150.966 69C150.766 69 150.582 69 150.414 69C150.246 69.008 150.13 69.012 150.066 69.012C150.058 68.892 150.058 68.768 150.066 68.64H150.09C150.442 68.6 150.698 68.564 150.858 68.532C151.018 68.492 151.114 68.412 151.146 68.292C151.186 68.164 151.206 67.96 151.206 67.68L151.098 61.248L148.074 68.988C148.018 69.012 147.93 69.028 147.81 69.036C147.69 69.044 147.586 69.048 147.498 69.048L144.654 61.5L144.462 67.68C144.454 67.944 144.466 68.136 144.498 68.256C144.53 68.368 144.626 68.448 144.786 68.496C144.946 68.544 145.214 68.592 145.59 68.64C145.622 68.768 145.622 68.892 145.59 69.012C145.51 69.012 145.37 69.008 145.17 69C144.978 69 144.782 69 144.582 69C144.39 68.992 144.25 68.988 144.162 68.988C144.114 68.988 144.018 68.992 143.874 69C143.738 69 143.586 69 143.418 69C143.25 69 143.094 69 142.95 69C142.814 69.008 142.722 69.012 142.674 69.012C142.658 68.884 142.658 68.76 142.674 68.64C143.05 68.592 143.318 68.544 143.478 68.496C143.638 68.448 143.738 68.352 143.778 68.208C143.826 68.064 143.854 67.836 143.862 67.524L144.09 61.92C144.106 61.64 144.094 61.44 144.054 61.32C144.014 61.2 143.906 61.12 143.73 61.08C143.562 61.032 143.282 60.992 142.89 60.96C142.882 60.832 142.882 60.708 142.89 60.588C143.162 60.588 143.442 60.592 143.73 60.6C144.018 60.608 144.338 60.612 144.69 60.612C144.81 60.612 144.97 60.612 145.17 60.612C145.37 60.612 145.554 60.608 145.722 60.6L148.206 67.176ZM158.643 69.12C158.115 69.12 157.783 68.856 157.647 68.328C157.079 68.872 156.499 69.144 155.907 69.144C155.499 69.144 155.151 69.024 154.863 68.784C154.583 68.536 154.443 68.196 154.443 67.764C154.443 66.708 155.519 66.044 157.671 65.772C157.671 65.58 157.671 65.384 157.671 65.184C157.679 64.984 157.683 64.772 157.683 64.548C157.683 64.268 157.579 64.052 157.371 63.9C157.171 63.74 156.927 63.66 156.639 63.66C156.431 63.66 156.255 63.692 156.111 63.756C156.111 63.94 156.071 64.128 155.991 64.32C155.911 64.512 155.799 64.676 155.655 64.812C155.519 64.94 155.351 65.004 155.151 65.004C154.975 65.004 154.835 64.956 154.731 64.86C154.635 64.756 154.587 64.632 154.587 64.488C154.587 64.296 154.675 64.116 154.851 63.948C155.035 63.772 155.267 63.624 155.547 63.504C155.827 63.376 156.119 63.276 156.423 63.204C156.727 63.132 156.999 63.096 157.239 63.096C157.535 63.096 157.807 63.152 158.055 63.264C158.311 63.368 158.515 63.528 158.667 63.744C158.827 63.952 158.907 64.212 158.907 64.524C158.907 64.716 158.903 64.968 158.895 65.28C158.887 65.584 158.879 65.912 158.871 66.264C158.871 66.608 158.867 66.936 158.859 67.248C158.851 67.56 158.847 67.812 158.847 68.004C158.847 68.26 158.959 68.388 159.183 68.388C159.327 68.388 159.547 68.34 159.843 68.244C159.875 68.284 159.895 68.328 159.903 68.376C159.919 68.424 159.931 68.468 159.939 68.508C159.739 68.724 159.527 68.88 159.303 68.976C159.087 69.072 158.867 69.12 158.643 69.12ZM157.647 68.004L157.671 66.204C156.935 66.3 156.427 66.456 156.147 66.672C155.875 66.888 155.739 67.164 155.739 67.5C155.739 67.78 155.811 67.996 155.955 68.148C156.107 68.292 156.295 68.364 156.519 68.364C156.663 68.364 156.823 68.332 156.999 68.268C157.183 68.204 157.399 68.116 157.647 68.004ZM164.045 69.012C164.029 68.884 164.029 68.76 164.045 68.64C164.293 68.624 164.477 68.6 164.597 68.568C164.717 68.528 164.797 68.448 164.837 68.328C164.877 68.208 164.897 68.016 164.897 67.752V65.328C164.897 64.848 164.821 64.492 164.669 64.26C164.525 64.02 164.233 63.9 163.793 63.9C163.561 63.9 163.337 63.944 163.121 64.032C162.905 64.112 162.669 64.268 162.413 64.5V67.632C162.413 67.944 162.429 68.168 162.461 68.304C162.501 68.44 162.581 68.528 162.701 68.568C162.821 68.6 163.009 68.624 163.265 68.64C163.281 68.76 163.281 68.884 163.265 69.012C163.041 69.012 162.805 69.008 162.557 69C162.317 68.992 162.057 68.988 161.777 68.988C161.521 68.988 161.269 68.992 161.021 69C160.773 69.008 160.529 69.012 160.289 69.012C160.265 68.884 160.265 68.76 160.289 68.64C160.561 68.624 160.761 68.6 160.889 68.568C161.017 68.528 161.101 68.448 161.141 68.328C161.181 68.208 161.201 68.016 161.201 67.752V65.064C161.201 64.752 161.185 64.52 161.153 64.368C161.129 64.216 161.053 64.112 160.925 64.056C160.805 63.992 160.597 63.94 160.301 63.9C160.277 63.788 160.277 63.684 160.301 63.588C160.989 63.452 161.621 63.268 162.197 63.036L162.401 63.108V64.008C162.769 63.672 163.129 63.436 163.481 63.3C163.833 63.164 164.169 63.096 164.489 63.096C165.017 63.096 165.421 63.252 165.701 63.564C165.981 63.876 166.121 64.324 166.121 64.908V67.632C166.121 67.944 166.137 68.168 166.169 68.304C166.209 68.44 166.289 68.528 166.409 68.568C166.529 68.6 166.721 68.624 166.985 68.64C167.001 68.76 167.001 68.884 166.985 69.012C166.745 69.012 166.509 69.008 166.277 69C166.053 68.992 165.789 68.988 165.485 68.988C165.189 68.988 164.929 68.992 164.705 69C164.489 69.008 164.269 69.012 164.045 69.012ZM171.791 69.12C171.263 69.12 170.931 68.856 170.795 68.328C170.227 68.872 169.647 69.144 169.055 69.144C168.647 69.144 168.299 69.024 168.011 68.784C167.731 68.536 167.591 68.196 167.591 67.764C167.591 66.708 168.667 66.044 170.819 65.772C170.819 65.58 170.819 65.384 170.819 65.184C170.827 64.984 170.831 64.772 170.831 64.548C170.831 64.268 170.727 64.052 170.519 63.9C170.319 63.74 170.075 63.66 169.787 63.66C169.579 63.66 169.403 63.692 169.259 63.756C169.259 63.94 169.219 64.128 169.139 64.32C169.059 64.512 168.947 64.676 168.803 64.812C168.667 64.94 168.499 65.004 168.299 65.004C168.123 65.004 167.983 64.956 167.879 64.86C167.783 64.756 167.735 64.632 167.735 64.488C167.735 64.296 167.823 64.116 167.999 63.948C168.183 63.772 168.415 63.624 168.695 63.504C168.975 63.376 169.267 63.276 169.571 63.204C169.875 63.132 170.147 63.096 170.387 63.096C170.683 63.096 170.955 63.152 171.203 63.264C171.459 63.368 171.663 63.528 171.815 63.744C171.975 63.952 172.055 64.212 172.055 64.524C172.055 64.716 172.051 64.968 172.043 65.28C172.035 65.584 172.027 65.912 172.019 66.264C172.019 66.608 172.015 66.936 172.007 67.248C171.999 67.56 171.995 67.812 171.995 68.004C171.995 68.26 172.107 68.388 172.331 68.388C172.475 68.388 172.695 68.34 172.991 68.244C173.023 68.284 173.043 68.328 173.051 68.376C173.067 68.424 173.079 68.468 173.087 68.508C172.887 68.724 172.675 68.88 172.451 68.976C172.235 69.072 172.015 69.12 171.791 69.12ZM170.795 68.004L170.819 66.204C170.083 66.3 169.575 66.456 169.295 66.672C169.023 66.888 168.887 67.164 168.887 67.5C168.887 67.78 168.959 67.996 169.103 68.148C169.255 68.292 169.443 68.364 169.667 68.364C169.811 68.364 169.971 68.332 170.147 68.268C170.331 68.204 170.547 68.116 170.795 68.004ZM175.789 72.06C175.085 72.06 174.517 71.936 174.085 71.688C173.653 71.44 173.437 71.096 173.437 70.656C173.437 70.312 173.557 70.028 173.797 69.804C174.037 69.58 174.333 69.356 174.685 69.132C174.373 69.06 174.137 68.936 173.977 68.76C173.817 68.576 173.737 68.36 173.737 68.112C173.737 67.68 174.053 67.244 174.685 66.804C174.421 66.636 174.209 66.42 174.049 66.156C173.889 65.884 173.809 65.572 173.809 65.22C173.809 64.78 173.921 64.404 174.145 64.092C174.377 63.772 174.677 63.528 175.045 63.36C175.421 63.184 175.821 63.096 176.245 63.096C176.869 63.096 177.389 63.268 177.805 63.612C178.237 63.268 178.661 63.096 179.077 63.096C179.285 63.096 179.449 63.144 179.569 63.24C179.689 63.328 179.749 63.46 179.749 63.636C179.749 63.812 179.693 63.952 179.581 64.056C179.469 64.16 179.333 64.212 179.173 64.212C179.021 64.212 178.889 64.168 178.777 64.08C178.673 63.984 178.605 63.852 178.573 63.684C178.461 63.708 178.369 63.736 178.297 63.768C178.233 63.8 178.157 63.844 178.069 63.9C178.341 64.244 178.477 64.652 178.477 65.124C178.477 65.564 178.369 65.94 178.153 66.252C177.937 66.556 177.649 66.792 177.289 66.96C176.937 67.12 176.549 67.2 176.125 67.2C175.725 67.2 175.353 67.128 175.009 66.984C174.809 67.184 174.709 67.396 174.709 67.62C174.709 67.82 174.785 67.948 174.937 68.004C175.089 68.052 175.369 68.076 175.777 68.076C175.961 68.076 176.181 68.076 176.437 68.076C176.693 68.068 176.881 68.064 177.001 68.064C177.801 68.064 178.377 68.208 178.729 68.496C179.081 68.776 179.257 69.164 179.257 69.66C179.257 70.052 179.161 70.396 178.969 70.692C178.777 70.996 178.517 71.248 178.189 71.448C177.861 71.656 177.489 71.808 177.073 71.904C176.665 72.008 176.237 72.06 175.789 72.06ZM175.201 69.192C174.769 69.552 174.553 69.932 174.553 70.332C174.553 70.612 174.637 70.84 174.805 71.016C174.973 71.192 175.193 71.32 175.465 71.4C175.737 71.48 176.025 71.52 176.329 71.52C176.601 71.52 176.885 71.48 177.181 71.4C177.477 71.32 177.729 71.176 177.937 70.968C178.145 70.768 178.249 70.484 178.249 70.116C178.249 69.78 178.129 69.54 177.889 69.396C177.657 69.252 177.221 69.18 176.581 69.18C176.429 69.18 176.241 69.18 176.017 69.18C175.793 69.188 175.545 69.192 175.273 69.192C175.249 69.192 175.225 69.192 175.201 69.192ZM176.149 66.78C176.501 66.78 176.769 66.64 176.953 66.36C177.145 66.072 177.241 65.676 177.241 65.172C177.241 64.66 177.145 64.256 176.953 63.96C176.761 63.664 176.481 63.516 176.113 63.516C175.769 63.516 175.501 63.656 175.309 63.936C175.125 64.208 175.033 64.596 175.033 65.1C175.033 65.612 175.129 66.02 175.321 66.324C175.521 66.628 175.797 66.78 176.149 66.78ZM182.678 69.144C182.11 69.144 181.63 69.012 181.238 68.748C180.846 68.484 180.546 68.132 180.338 67.692C180.138 67.244 180.038 66.752 180.038 66.216C180.038 65.664 180.142 65.152 180.35 64.68C180.566 64.208 180.878 63.828 181.286 63.54C181.694 63.244 182.19 63.096 182.774 63.096C183.478 63.096 184.026 63.308 184.418 63.732C184.818 64.148 185.018 64.688 185.018 65.352C185.018 65.432 185.014 65.504 185.006 65.568C185.006 65.624 185.002 65.672 184.994 65.712L181.214 65.676C181.214 65.708 181.214 65.736 181.214 65.76C181.214 66.544 181.394 67.16 181.754 67.608C182.114 68.056 182.618 68.28 183.266 68.28C183.81 68.28 184.346 68.104 184.874 67.752C184.954 67.848 185.014 67.94 185.054 68.028C184.374 68.772 183.582 69.144 182.678 69.144ZM181.25 65.232L183.734 65.184C183.742 65.168 183.746 65.148 183.746 65.124C183.746 65.092 183.746 65.072 183.746 65.064C183.746 64.632 183.65 64.272 183.458 63.984C183.274 63.696 182.998 63.552 182.63 63.552C182.286 63.552 181.986 63.692 181.73 63.972C181.474 64.252 181.314 64.672 181.25 65.232ZM193.143 69.012C193.119 68.884 193.119 68.76 193.143 68.64C193.383 68.624 193.563 68.6 193.683 68.568C193.803 68.528 193.883 68.448 193.923 68.328C193.971 68.208 193.995 68.016 193.995 67.752V65.328C193.995 64.856 193.923 64.5 193.779 64.26C193.643 64.02 193.359 63.9 192.927 63.9C192.391 63.9 191.935 64.1 191.559 64.5C191.575 64.628 191.583 64.764 191.583 64.908V67.632C191.583 67.944 191.599 68.168 191.631 68.304C191.671 68.44 191.751 68.528 191.871 68.568C191.991 68.6 192.175 68.624 192.423 68.64C192.439 68.76 192.439 68.884 192.423 69.012C192.199 69.012 191.975 69.008 191.751 69C191.527 68.992 191.263 68.988 190.959 68.988C190.663 68.988 190.403 68.992 190.179 69C189.963 69.008 189.755 69.012 189.555 69.012C189.531 68.884 189.531 68.76 189.555 68.64C189.787 68.624 189.959 68.6 190.071 68.568C190.191 68.528 190.271 68.448 190.311 68.328C190.351 68.208 190.371 68.016 190.371 67.752V65.328C190.371 64.856 190.303 64.5 190.167 64.26C190.031 64.02 189.743 63.9 189.303 63.9C188.799 63.9 188.359 64.104 187.983 64.512V67.632C187.983 67.944 187.999 68.168 188.031 68.304C188.071 68.44 188.151 68.528 188.271 68.568C188.399 68.6 188.591 68.624 188.847 68.64C188.863 68.76 188.863 68.884 188.847 69.012C188.623 69.012 188.391 69.008 188.151 69C187.919 68.992 187.651 68.988 187.347 68.988C187.059 68.988 186.799 68.992 186.567 69C186.335 69.008 186.099 69.012 185.859 69.012C185.835 68.884 185.835 68.76 185.859 68.64C186.131 68.624 186.331 68.6 186.459 68.568C186.587 68.528 186.671 68.448 186.711 68.328C186.751 68.208 186.771 68.016 186.771 67.752V65.064C186.771 64.752 186.755 64.52 186.723 64.368C186.699 64.216 186.623 64.112 186.495 64.056C186.375 63.992 186.167 63.94 185.871 63.9C185.847 63.788 185.847 63.684 185.871 63.588C186.207 63.524 186.531 63.448 186.843 63.36C187.155 63.272 187.463 63.164 187.767 63.036L187.971 63.108V63.996C188.619 63.396 189.295 63.096 189.999 63.096C190.439 63.096 190.771 63.188 190.995 63.372C191.219 63.556 191.375 63.784 191.463 64.056C191.807 63.728 192.159 63.488 192.519 63.336C192.879 63.176 193.243 63.096 193.611 63.096C194.139 63.096 194.535 63.252 194.799 63.564C195.071 63.876 195.207 64.324 195.207 64.908V67.632C195.207 67.944 195.223 68.168 195.255 68.304C195.287 68.44 195.363 68.528 195.483 68.568C195.603 68.6 195.787 68.624 196.035 68.64C196.059 68.76 196.059 68.884 196.035 69.012C195.811 69.012 195.587 69.008 195.363 69C195.139 68.992 194.879 68.988 194.583 68.988C194.279 68.988 194.011 68.992 193.779 69C193.555 69.008 193.343 69.012 193.143 69.012ZM199.401 69.144C198.833 69.144 198.353 69.012 197.961 68.748C197.569 68.484 197.269 68.132 197.061 67.692C196.861 67.244 196.761 66.752 196.761 66.216C196.761 65.664 196.865 65.152 197.073 64.68C197.289 64.208 197.601 63.828 198.009 63.54C198.417 63.244 198.913 63.096 199.497 63.096C200.201 63.096 200.749 63.308 201.141 63.732C201.541 64.148 201.741 64.688 201.741 65.352C201.741 65.432 201.737 65.504 201.729 65.568C201.729 65.624 201.725 65.672 201.717 65.712L197.937 65.676C197.937 65.708 197.937 65.736 197.937 65.76C197.937 66.544 198.117 67.16 198.477 67.608C198.837 68.056 199.341 68.28 199.989 68.28C200.533 68.28 201.069 68.104 201.597 67.752C201.677 67.848 201.737 67.94 201.777 68.028C201.097 68.772 200.305 69.144 199.401 69.144ZM197.973 65.232L200.457 65.184C200.465 65.168 200.469 65.148 200.469 65.124C200.469 65.092 200.469 65.072 200.469 65.064C200.469 64.632 200.373 64.272 200.181 63.984C199.997 63.696 199.721 63.552 199.353 63.552C199.009 63.552 198.709 63.692 198.453 63.972C198.197 64.252 198.037 64.672 197.973 65.232ZM206.338 69.012C206.322 68.884 206.322 68.76 206.338 68.64C206.586 68.624 206.77 68.6 206.89 68.568C207.01 68.528 207.09 68.448 207.13 68.328C207.17 68.208 207.19 68.016 207.19 67.752V65.328C207.19 64.848 207.114 64.492 206.962 64.26C206.818 64.02 206.526 63.9 206.086 63.9C205.854 63.9 205.63 63.944 205.414 64.032C205.198 64.112 204.962 64.268 204.706 64.5V67.632C204.706 67.944 204.722 68.168 204.754 68.304C204.794 68.44 204.874 68.528 204.994 68.568C205.114 68.6 205.302 68.624 205.558 68.64C205.574 68.76 205.574 68.884 205.558 69.012C205.334 69.012 205.098 69.008 204.85 69C204.61 68.992 204.35 68.988 204.07 68.988C203.814 68.988 203.562 68.992 203.314 69C203.066 69.008 202.822 69.012 202.582 69.012C202.558 68.884 202.558 68.76 202.582 68.64C202.854 68.624 203.054 68.6 203.182 68.568C203.31 68.528 203.394 68.448 203.434 68.328C203.474 68.208 203.494 68.016 203.494 67.752V65.064C203.494 64.752 203.478 64.52 203.446 64.368C203.422 64.216 203.346 64.112 203.218 64.056C203.098 63.992 202.89 63.94 202.594 63.9C202.57 63.788 202.57 63.684 202.594 63.588C203.282 63.452 203.914 63.268 204.49 63.036L204.694 63.108V64.008C205.062 63.672 205.422 63.436 205.774 63.3C206.126 63.164 206.462 63.096 206.782 63.096C207.31 63.096 207.714 63.252 207.994 63.564C208.274 63.876 208.414 64.324 208.414 64.908V67.632C208.414 67.944 208.43 68.168 208.462 68.304C208.502 68.44 208.582 68.528 208.702 68.568C208.822 68.6 209.014 68.624 209.278 68.64C209.294 68.76 209.294 68.884 209.278 69.012C209.038 69.012 208.802 69.008 208.57 69C208.346 68.992 208.082 68.988 207.778 68.988C207.482 68.988 207.222 68.992 206.998 69C206.782 69.008 206.562 69.012 206.338 69.012ZM212.116 69.144C211.636 69.144 211.256 69.032 210.976 68.808C210.696 68.576 210.556 68.244 210.556 67.812C210.556 67.108 210.56 66.428 210.568 65.772C210.584 65.116 210.596 64.484 210.604 63.876H209.692C209.668 63.756 209.668 63.648 209.692 63.552C210.484 63.216 211.08 62.668 211.48 61.908C211.544 61.908 211.608 61.912 211.672 61.92C211.736 61.92 211.792 61.924 211.84 61.932C211.832 62.14 211.824 62.36 211.816 62.592C211.816 62.824 211.812 63.068 211.804 63.324H213.628C213.652 63.5 213.652 63.684 213.628 63.876H211.804C211.788 64.436 211.776 65.028 211.768 65.652C211.768 66.268 211.768 66.888 211.768 67.512C211.768 68.16 212.104 68.484 212.776 68.484C213.064 68.484 213.332 68.408 213.58 68.256C213.652 68.352 213.696 68.472 213.712 68.616C213.24 68.968 212.708 69.144 212.116 69.144ZM219.545 69.168C219.537 69.168 219.405 69.16 219.149 69.144C218.901 69.136 218.613 69.104 218.285 69.048C218.013 69 217.765 68.968 217.541 68.952C217.325 68.928 217.193 68.916 217.145 68.916C217.137 68.252 217.101 67.448 217.037 66.504C217.101 66.496 217.165 66.492 217.229 66.492C217.301 66.492 217.365 66.492 217.421 66.492C217.573 67.196 217.825 67.74 218.177 68.124C218.537 68.508 219.009 68.7 219.593 68.7C220.113 68.7 220.537 68.56 220.865 68.28C221.193 67.992 221.357 67.616 221.357 67.152C221.357 66.8 221.265 66.512 221.081 66.288C220.905 66.064 220.669 65.876 220.373 65.724C220.085 65.564 219.777 65.416 219.449 65.28C219.065 65.112 218.697 64.936 218.345 64.752C218.001 64.56 217.717 64.316 217.493 64.02C217.269 63.724 217.157 63.34 217.157 62.868C217.157 62.364 217.281 61.932 217.529 61.572C217.785 61.212 218.125 60.94 218.549 60.756C218.973 60.564 219.441 60.468 219.953 60.468C220.113 60.468 220.277 60.476 220.445 60.492C220.621 60.508 220.801 60.532 220.985 60.564C221.217 60.596 221.393 60.616 221.513 60.624C221.641 60.632 221.725 60.636 221.765 60.636C221.789 60.636 221.833 60.636 221.897 60.636C221.961 60.628 222.013 60.62 222.053 60.612C222.069 60.964 222.085 61.328 222.101 61.704C222.117 62.08 222.141 62.472 222.173 62.88C222.013 62.904 221.881 62.912 221.777 62.904C221.593 62.208 221.365 61.708 221.093 61.404C220.821 61.092 220.433 60.936 219.929 60.936C219.489 60.936 219.113 61.056 218.801 61.296C218.489 61.528 218.333 61.876 218.333 62.34C218.333 62.588 218.389 62.808 218.501 63C218.621 63.192 218.817 63.376 219.089 63.552C219.361 63.728 219.737 63.916 220.217 64.116C220.481 64.228 220.745 64.352 221.009 64.488C221.281 64.624 221.529 64.788 221.753 64.98C221.977 65.164 222.157 65.392 222.293 65.664C222.429 65.928 222.497 66.244 222.497 66.612C222.497 67.156 222.361 67.62 222.089 68.004C221.817 68.38 221.457 68.668 221.009 68.868C220.569 69.068 220.081 69.168 219.545 69.168ZM224.046 72.06C223.83 72.06 223.662 71.996 223.542 71.868C223.43 71.748 223.374 71.604 223.374 71.436C223.374 71.212 223.494 70.992 223.734 70.776C223.974 70.568 224.366 70.464 224.91 70.464C225.014 70.28 225.114 70.08 225.21 69.864C225.314 69.656 225.434 69.396 225.57 69.084C225.482 68.86 225.37 68.572 225.234 68.22C225.098 67.868 224.942 67.48 224.766 67.056C224.598 66.624 224.426 66.18 224.25 65.724C224.074 65.26 223.902 64.812 223.734 64.38C223.638 64.124 223.53 63.948 223.41 63.852C223.298 63.756 223.078 63.692 222.75 63.66C222.726 63.548 222.726 63.424 222.75 63.288C222.982 63.288 223.218 63.292 223.458 63.3C223.698 63.308 223.946 63.312 224.202 63.312C224.434 63.312 224.686 63.308 224.958 63.3C225.23 63.292 225.462 63.288 225.654 63.288C225.67 63.408 225.67 63.532 225.654 63.66C225.382 63.676 225.19 63.704 225.078 63.744C224.974 63.784 224.922 63.864 224.922 63.984C224.922 64.096 224.962 64.268 225.042 64.5C225.25 65.068 225.45 65.592 225.642 66.072C225.842 66.552 226.042 67.044 226.242 67.548C226.498 66.964 226.722 66.44 226.914 65.976C227.114 65.512 227.314 65.028 227.514 64.524C227.602 64.292 227.646 64.12 227.646 64.008C227.646 63.896 227.586 63.816 227.466 63.768C227.346 63.72 227.134 63.684 226.83 63.66C226.806 63.532 226.806 63.408 226.83 63.288C227.03 63.288 227.234 63.292 227.442 63.3C227.658 63.308 227.886 63.312 228.126 63.312C228.286 63.312 228.458 63.308 228.642 63.3C228.834 63.292 229.006 63.288 229.158 63.288C229.182 63.408 229.182 63.532 229.158 63.66C228.822 63.684 228.594 63.76 228.474 63.888C228.354 64.008 228.242 64.192 228.138 64.44L226.086 69.228C226.046 69.324 225.974 69.484 225.87 69.708C225.766 69.94 225.654 70.176 225.534 70.416C225.422 70.664 225.326 70.868 225.246 71.028C225.046 71.42 224.85 71.688 224.658 71.832C224.466 71.984 224.262 72.06 224.046 72.06ZM229.782 67.104C229.902 67.632 230.094 68.036 230.358 68.316C230.622 68.588 230.962 68.724 231.378 68.724C231.69 68.724 231.954 68.652 232.17 68.508C232.386 68.356 232.494 68.12 232.494 67.8C232.494 67.56 232.434 67.368 232.314 67.224C232.202 67.08 232.042 66.96 231.834 66.864C231.634 66.76 231.406 66.656 231.15 66.552C230.854 66.432 230.574 66.304 230.31 66.168C230.054 66.024 229.842 65.848 229.674 65.64C229.514 65.424 229.434 65.148 229.434 64.812C229.434 64.428 229.534 64.112 229.734 63.864C229.942 63.608 230.206 63.416 230.526 63.288C230.854 63.16 231.202 63.096 231.57 63.096C231.754 63.096 231.938 63.108 232.122 63.132C232.306 63.156 232.406 63.168 232.422 63.168C232.582 63.192 232.73 63.208 232.866 63.216C233.002 63.216 233.074 63.216 233.082 63.216C233.09 63.216 233.106 63.216 233.13 63.216C233.162 63.216 233.202 63.212 233.25 63.204C233.25 63.46 233.254 63.72 233.262 63.984C233.27 64.248 233.286 64.528 233.31 64.824C233.302 64.824 233.286 64.824 233.262 64.824C233.19 64.832 233.122 64.84 233.058 64.848C233.002 64.848 232.946 64.844 232.89 64.836C232.786 64.388 232.63 64.064 232.422 63.864C232.222 63.656 231.938 63.552 231.57 63.552C231.242 63.552 230.978 63.624 230.778 63.768C230.586 63.912 230.49 64.112 230.49 64.368C230.49 64.576 230.554 64.748 230.682 64.884C230.81 65.012 230.966 65.12 231.15 65.208C231.334 65.296 231.51 65.372 231.678 65.436C231.99 65.556 232.286 65.692 232.566 65.844C232.854 65.988 233.086 66.176 233.262 66.408C233.446 66.64 233.538 66.952 233.538 67.344C233.538 67.76 233.43 68.104 233.214 68.376C233.006 68.64 232.738 68.836 232.41 68.964C232.082 69.084 231.738 69.144 231.378 69.144C231.17 69.144 230.962 69.128 230.754 69.096C230.554 69.064 230.446 69.048 230.43 69.048C230.414 69.048 230.346 69.04 230.226 69.024C230.114 69.008 229.986 68.992 229.842 68.976C229.706 68.96 229.586 68.952 229.482 68.952C229.482 68.704 229.47 68.428 229.446 68.124C229.43 67.82 229.41 67.484 229.386 67.116C229.402 67.116 229.422 67.116 229.446 67.116C229.518 67.108 229.578 67.104 229.626 67.104C229.682 67.096 229.734 67.096 229.782 67.104ZM236.62 69.144C236.14 69.144 235.76 69.032 235.48 68.808C235.2 68.576 235.06 68.244 235.06 67.812C235.06 67.108 235.064 66.428 235.072 65.772C235.088 65.116 235.1 64.484 235.108 63.876H234.196C234.172 63.756 234.172 63.648 234.196 63.552C234.988 63.216 235.584 62.668 235.984 61.908C236.048 61.908 236.112 61.912 236.176 61.92C236.24 61.92 236.296 61.924 236.344 61.932C236.336 62.14 236.328 62.36 236.32 62.592C236.32 62.824 236.316 63.068 236.308 63.324H238.132C238.156 63.5 238.156 63.684 238.132 63.876H236.308C236.292 64.436 236.28 65.028 236.272 65.652C236.272 66.268 236.272 66.888 236.272 67.512C236.272 68.16 236.608 68.484 237.28 68.484C237.568 68.484 237.836 68.408 238.084 68.256C238.156 68.352 238.2 68.472 238.216 68.616C237.744 68.968 237.212 69.144 236.62 69.144ZM241.331 69.144C240.763 69.144 240.283 69.012 239.891 68.748C239.499 68.484 239.199 68.132 238.991 67.692C238.791 67.244 238.691 66.752 238.691 66.216C238.691 65.664 238.795 65.152 239.003 64.68C239.219 64.208 239.531 63.828 239.939 63.54C240.347 63.244 240.843 63.096 241.427 63.096C242.131 63.096 242.679 63.308 243.071 63.732C243.471 64.148 243.671 64.688 243.671 65.352C243.671 65.432 243.667 65.504 243.659 65.568C243.659 65.624 243.655 65.672 243.647 65.712L239.867 65.676C239.867 65.708 239.867 65.736 239.867 65.76C239.867 66.544 240.047 67.16 240.407 67.608C240.767 68.056 241.271 68.28 241.919 68.28C242.463 68.28 242.999 68.104 243.527 67.752C243.607 67.848 243.667 67.94 243.707 68.028C243.027 68.772 242.235 69.144 241.331 69.144ZM239.903 65.232L242.387 65.184C242.395 65.168 242.399 65.148 242.399 65.124C242.399 65.092 242.399 65.072 242.399 65.064C242.399 64.632 242.303 64.272 242.111 63.984C241.927 63.696 241.651 63.552 241.283 63.552C240.939 63.552 240.639 63.692 240.383 63.972C240.127 64.252 239.967 64.672 239.903 65.232ZM251.796 69.012C251.772 68.884 251.772 68.76 251.796 68.64C252.036 68.624 252.216 68.6 252.336 68.568C252.456 68.528 252.536 68.448 252.576 68.328C252.624 68.208 252.648 68.016 252.648 67.752V65.328C252.648 64.856 252.576 64.5 252.432 64.26C252.296 64.02 252.012 63.9 251.58 63.9C251.044 63.9 250.588 64.1 250.212 64.5C250.228 64.628 250.236 64.764 250.236 64.908V67.632C250.236 67.944 250.252 68.168 250.284 68.304C250.324 68.44 250.404 68.528 250.523 68.568C250.644 68.6 250.828 68.624 251.076 68.64C251.092 68.76 251.092 68.884 251.076 69.012C250.852 69.012 250.628 69.008 250.404 69C250.18 68.992 249.916 68.988 249.612 68.988C249.316 68.988 249.056 68.992 248.832 69C248.616 69.008 248.408 69.012 248.208 69.012C248.184 68.884 248.184 68.76 248.208 68.64C248.44 68.624 248.612 68.6 248.724 68.568C248.844 68.528 248.924 68.448 248.964 68.328C249.004 68.208 249.024 68.016 249.024 67.752V65.328C249.024 64.856 248.956 64.5 248.82 64.26C248.684 64.02 248.396 63.9 247.956 63.9C247.452 63.9 247.012 64.104 246.636 64.512V67.632C246.636 67.944 246.652 68.168 246.684 68.304C246.724 68.44 246.804 68.528 246.924 68.568C247.052 68.6 247.244 68.624 247.5 68.64C247.516 68.76 247.516 68.884 247.5 69.012C247.276 69.012 247.044 69.008 246.804 69C246.572 68.992 246.304 68.988 246 68.988C245.712 68.988 245.452 68.992 245.22 69C244.988 69.008 244.752 69.012 244.512 69.012C244.488 68.884 244.488 68.76 244.512 68.64C244.784 68.624 244.984 68.6 245.112 68.568C245.24 68.528 245.324 68.448 245.364 68.328C245.404 68.208 245.424 68.016 245.424 67.752V65.064C245.424 64.752 245.408 64.52 245.376 64.368C245.352 64.216 245.276 64.112 245.148 64.056C245.028 63.992 244.82 63.94 244.524 63.9C244.5 63.788 244.5 63.684 244.524 63.588C244.86 63.524 245.184 63.448 245.496 63.36C245.808 63.272 246.116 63.164 246.42 63.036L246.624 63.108V63.996C247.272 63.396 247.948 63.096 248.652 63.096C249.092 63.096 249.424 63.188 249.648 63.372C249.872 63.556 250.028 63.784 250.116 64.056C250.46 63.728 250.812 63.488 251.172 63.336C251.532 63.176 251.896 63.096 252.264 63.096C252.792 63.096 253.188 63.252 253.452 63.564C253.724 63.876 253.86 64.324 253.86 64.908V67.632C253.86 67.944 253.876 68.168 253.908 68.304C253.94 68.44 254.016 68.528 254.136 68.568C254.256 68.6 254.44 68.624 254.688 68.64C254.712 68.76 254.712 68.884 254.688 69.012C254.464 69.012 254.24 69.008 254.016 69C253.792 68.992 253.532 68.988 253.236 68.988C252.932 68.988 252.664 68.992 252.432 69C252.208 69.008 251.996 69.012 251.796 69.012Z" fill="#213571"/>
<defs>
<clipPath id="clip0_2172_13287">
<rect width="111.268" height="86.2892" fill="white"/>
</clipPath>
</defs>
</svg>
