<svg width="28" height="26" viewBox="0 0 28 26" fill="none" xmlns="http://www.w3.org/2000/svg">
<g clip-path="url(#clip0_3632_40217)">
<rect x="0.5" width="27" height="26" rx="5" fill="#092C4C"/>
<path d="M15.9281 13.3327C15.9315 13.0437 15.8778 12.7568 15.7703 12.4885C15.6628 12.2202 15.5035 11.9757 15.3015 11.769C15.0995 11.5623 14.8588 11.3974 14.593 11.2837C14.3273 11.17 14.0418 11.1097 13.7527 11.1064C13.4637 11.103 13.1769 11.1566 12.9086 11.2642C12.6403 11.3717 12.3958 11.531 12.189 11.733C11.9823 11.935 11.8174 12.1757 11.7037 12.4415C11.59 12.7072 11.5298 12.9927 11.5264 13.2818C11.5198 13.8655 11.7453 14.4279 12.1534 14.8453C12.5614 15.2627 13.1186 15.501 13.7023 15.5076C14.286 15.5142 14.8484 15.2887 15.2658 14.8806C15.6833 14.4726 15.9215 13.9154 15.9281 13.3317L15.9281 13.3327ZM18.5279 13.3628C18.5247 13.6517 18.5784 13.9384 18.686 14.2065C18.7936 14.4747 18.953 14.719 19.155 14.9255C19.357 15.1321 19.5977 15.2968 19.8633 15.4103C20.129 15.5238 20.4144 15.5839 20.7033 15.5871C20.9922 15.5904 21.2789 15.5366 21.5471 15.429C21.8152 15.3215 22.0595 15.1621 22.266 14.9601C22.4726 14.7581 22.6373 14.5174 22.7509 14.2517C22.8644 13.9861 22.9245 13.7006 22.9277 13.4117C22.9342 12.8283 22.7086 12.2662 22.3006 11.849C21.8927 11.4319 21.3357 11.1939 20.7523 11.1874C20.1688 11.1809 19.6067 11.4065 19.1896 11.8144C18.7724 12.2224 18.5344 12.7794 18.5279 13.3628ZM8.92858 13.2517C8.93534 12.668 8.70995 12.1055 8.30199 11.688C7.89402 11.2705 7.33691 11.0321 6.75321 11.0253C6.16951 11.0186 5.60703 11.244 5.18951 11.6519C4.77199 12.0599 4.53364 12.617 4.52688 13.2007C4.52012 13.7844 4.74551 14.3469 5.15348 14.7644C5.56144 15.1819 6.11855 15.4203 6.70225 15.427C7.28595 15.4338 7.84843 15.2084 8.26595 14.8004C8.68347 14.3925 8.92183 13.8354 8.92858 13.2517Z" fill="white"/>
</g>
<defs>
<clipPath id="clip0_3632_40217">
<rect x="0.5" width="27" height="26" rx="5" fill="white"/>
</clipPath>
</defs>
</svg>
