<svg width="198" height="58" viewBox="0 0 198 58" fill="none" xmlns="http://www.w3.org/2000/svg">
<g id="Group">
<path id="BG" d="M196.902 51.0036C196.902 54.0519 194.381 56.521 191.263 56.521H6.74724C3.63101 56.521 1.10156 54.0519 1.10156 51.0036V7.0041C1.10156 3.95728 3.63101 1.47949 6.74724 1.47949H191.262C194.381 1.47949 196.9 3.95728 196.9 7.0041L196.902 51.0036Z" fill="black"/>
<path id="Border" d="M190.667 1.54638C194.062 1.54638 196.825 4.24014 196.825 7.55059V50.4506C196.825 53.761 194.062 56.4548 190.667 56.4548H7.33333C3.938 56.4548 1.17517 53.761 1.17517 50.4506V7.55059C1.17517 4.24014 3.938 1.54638 7.33333 1.54638H190.667ZM190.667 0.400589H7.33333C3.30183 0.400589 0 3.61988 0 7.55059V50.4506C0 54.3813 3.30183 57.6006 7.33333 57.6006H190.667C194.698 57.6006 198 54.3813 198 50.4506V7.55059C198 3.61988 194.698 0.400589 190.667 0.400589Z" fill="#A6A6A6"/>
<g id="Icon">
<g id="Vector">
<path d="M44.188 28.6918C44.1455 24.0829 48.0585 21.8407 48.2375 21.7363C46.0213 18.586 42.5864 18.1556 41.3793 18.1213C38.4944 17.8253 35.696 19.8044 34.2264 19.8044C32.7275 19.8044 30.4644 18.1499 28.0253 18.1985C24.8867 18.2457 21.9504 20.0174 20.34 22.7688C17.0165 28.3787 19.4952 36.6226 22.6793 41.1571C24.2721 43.3779 26.1333 45.8575 28.5695 45.7703C30.9528 45.6745 31.8431 44.2888 34.7192 44.2888C37.5689 44.2888 38.4049 45.7703 40.8895 45.7145C43.4473 45.6745 45.0577 43.4837 46.5948 41.2429C48.4355 38.6975 49.1747 36.1907 49.204 36.062C49.1439 36.042 44.2364 34.2159 44.188 28.6918Z" fill="white"/>
<path d="M39.4947 15.1383C40.7765 13.5753 41.6536 11.4489 41.4101 9.29102C39.5548 9.3711 37.2345 10.5423 35.8984 12.0709C34.7163 13.418 33.6603 15.6259 33.9331 17.7023C36.0172 17.8539 38.1571 16.677 39.4947 15.1383Z" fill="white"/>
</g>
</g>
<g id="Download on the">
<path id="D" d="M71.9405 14.7135C71.9405 16.3966 71.4227 17.6636 70.3887 18.5145C69.431 19.2995 68.0699 19.6928 66.307 19.6928C65.4329 19.6928 64.6849 19.6556 64.0586 19.5812V10.3849C64.8755 10.2562 65.7555 10.1904 66.7059 10.1904C68.3853 10.1904 69.651 10.5465 70.5046 11.2586C71.4609 12.0637 71.9405 13.2149 71.9405 14.7135ZM70.3198 14.755C70.3198 13.6639 70.0235 12.8273 69.431 12.2439C68.8385 11.6619 67.9731 11.3702 66.8335 11.3702C66.3495 11.3702 65.9374 11.4016 65.5957 11.4674V18.4587C65.7849 18.4873 66.131 18.5002 66.6341 18.5002C67.8103 18.5002 68.7182 18.1813 69.3577 17.5435C69.9971 16.9057 70.3198 15.9762 70.3198 14.755Z" fill="white"/>
<path id="o" d="M80.5333 16.1835C80.5333 17.2202 80.2297 18.0696 79.6225 18.736C78.986 19.421 78.1427 19.7628 77.0896 19.7628C76.0747 19.7628 75.2665 19.4353 74.6637 18.7775C74.0624 18.1211 73.7617 17.2931 73.7617 16.295C73.7617 15.2511 74.0712 14.3945 74.6931 13.7296C75.3149 13.0646 76.1509 12.7314 77.204 12.7314C78.2189 12.7314 79.0344 13.0589 79.6519 13.7153C80.2385 14.3531 80.5333 15.1767 80.5333 16.1835ZM78.9391 16.2321C78.9391 15.61 78.8012 15.0766 78.5269 14.6319C78.2043 14.0942 77.7452 13.8254 77.1483 13.8254C76.5308 13.8254 76.0615 14.0942 75.7388 14.6319C75.4631 15.0766 75.3267 15.6186 75.3267 16.2593C75.3267 16.8813 75.4645 17.4147 75.7388 17.8594C76.0717 18.3971 76.5352 18.6659 77.1336 18.6659C77.7203 18.6659 78.1808 18.3928 78.5123 17.8451C78.7968 17.3918 78.9391 16.8541 78.9391 16.2321Z" fill="white"/>
<path id="w" d="M92.0564 12.8682L89.8931 19.6092H88.4851L87.5889 16.682C87.3616 15.9512 87.1768 15.2248 87.0331 14.5041H87.0052C86.8717 15.2448 86.6869 15.9698 86.4493 16.682L85.4975 19.6092H84.0733L82.0391 12.8682H83.6187L84.4004 16.0728C84.5896 16.8307 84.7451 17.5528 84.8697 18.2364H84.8976C85.012 17.673 85.2012 16.9551 85.4681 16.0871L86.4493 12.8696H87.7019L88.642 16.0185C88.8693 16.7864 89.0541 17.5257 89.1964 18.2378H89.2389C89.3431 17.5443 89.5 16.805 89.7083 16.0185L90.5472 12.8696H92.0564V12.8682Z" fill="white"/>
<path id="n" d="M100.025 19.6092H98.488V15.7482C98.488 14.5584 98.0246 13.9635 97.0947 13.9635C96.6386 13.9635 96.2704 14.1265 95.9844 14.454C95.7014 14.7815 95.5576 15.1676 95.5576 15.6094V19.6077H94.0206V14.7943C94.0206 14.2023 94.0015 13.5603 93.9648 12.8653H95.3156L95.3875 13.9192H95.43C95.609 13.5917 95.8759 13.3214 96.2264 13.1055C96.643 12.8538 97.1094 12.7266 97.6198 12.7266C98.2651 12.7266 98.8019 12.9296 99.2287 13.3372C99.7596 13.8362 100.025 14.5813 100.025 15.5708V19.6092Z" fill="white"/>
<path id="l" d="M104.262 19.6095H102.727V9.77539H104.262V19.6095Z" fill="white"/>
<path id="o_2" d="M113.311 16.1835C113.311 17.2202 113.007 18.0696 112.4 18.736C111.763 19.421 110.919 19.7628 109.867 19.7628C108.851 19.7628 108.042 19.4353 107.441 18.7775C106.84 18.1211 106.539 17.2931 106.539 16.295C106.539 15.2511 106.849 14.3945 107.47 13.7296C108.092 13.0646 108.928 12.7314 109.98 12.7314C110.996 12.7314 111.81 13.0589 112.429 13.7153C113.016 14.3531 113.311 15.1767 113.311 16.1835ZM111.715 16.2321C111.715 15.61 111.577 15.0766 111.303 14.6319C110.982 14.0942 110.521 13.8254 109.926 13.8254C109.307 13.8254 108.837 14.0942 108.516 14.6319C108.24 15.0766 108.104 15.6186 108.104 16.2593C108.104 16.8813 108.242 17.4147 108.516 17.8594C108.849 18.3971 109.313 18.6659 109.911 18.6659C110.498 18.6659 110.957 18.3928 111.288 17.8451C111.574 17.3918 111.715 16.8541 111.715 16.2321Z" fill="white"/>
<path id="a" d="M120.75 19.6097H119.37L119.256 18.8333H119.213C118.741 19.4524 118.068 19.7628 117.194 19.7628C116.541 19.7628 116.013 19.5583 115.615 19.1521C115.255 18.7832 115.074 18.3242 115.074 17.7793C115.074 16.9557 115.426 16.3279 116.135 15.8932C116.842 15.4585 117.836 15.2454 119.116 15.2554V15.1296C119.116 14.2415 118.638 13.7982 117.68 13.7982C116.998 13.7982 116.397 13.9655 115.878 14.2973L115.566 13.3135C116.208 12.9259 117.001 12.7314 117.937 12.7314C119.744 12.7314 120.65 13.6609 120.65 15.5199V18.0024C120.65 18.676 120.684 19.2122 120.75 19.6097ZM119.154 17.2931V16.2535C117.459 16.2249 116.611 16.6782 116.611 17.612C116.611 17.9638 116.708 18.2269 116.906 18.4028C117.104 18.5787 117.356 18.6659 117.657 18.6659C117.994 18.6659 118.31 18.5616 118.597 18.3542C118.886 18.1454 119.064 17.8809 119.13 17.5563C119.146 17.4833 119.154 17.3947 119.154 17.2931Z" fill="white"/>
<path id="d" d="M129.487 19.6095H128.123L128.051 18.527H128.008C127.573 19.3507 126.831 19.7625 125.788 19.7625C124.955 19.7625 124.261 19.4436 123.711 18.8058C123.161 18.1681 122.887 17.3401 122.887 16.3234C122.887 15.2323 123.184 14.3485 123.783 13.6736C124.362 13.0444 125.072 12.7298 125.917 12.7298C126.845 12.7298 127.495 13.0344 127.865 13.645H127.894V9.77539H129.432V17.7934C129.432 18.4498 129.45 19.0547 129.487 19.6095ZM127.894 16.7667V15.6427C127.894 15.4482 127.879 15.2909 127.851 15.1708C127.765 14.8104 127.579 14.5073 127.296 14.2627C127.01 14.0182 126.665 13.8952 126.267 13.8952C125.694 13.8952 125.245 14.1169 124.915 14.5616C124.588 15.0063 124.422 15.574 124.422 16.2676C124.422 16.934 124.579 17.4745 124.895 17.8906C125.228 18.3339 125.676 18.5556 126.238 18.5556C126.743 18.5556 127.146 18.3711 127.452 18.0008C127.749 17.659 127.894 17.2471 127.894 16.7667Z" fill="white"/>
<path id="o_3" d="M142.631 16.1835C142.631 17.2202 142.327 18.0696 141.72 18.736C141.084 19.421 140.242 19.7628 139.187 19.7628C138.174 19.7628 137.366 19.4353 136.761 18.7775C136.16 18.1211 135.859 17.2931 135.859 16.295C135.859 15.2511 136.169 14.3945 136.791 13.7296C137.413 13.0646 138.249 12.7314 139.303 12.7314C140.317 12.7314 141.134 13.0589 141.75 13.7153C142.336 14.3531 142.631 15.1767 142.631 16.1835ZM141.038 16.2321C141.038 15.61 140.9 15.0766 140.626 14.6319C140.302 14.0942 139.844 13.8254 139.246 13.8254C138.63 13.8254 138.161 14.0942 137.836 14.6319C137.561 15.0766 137.424 15.6186 137.424 16.2593C137.424 16.8813 137.562 17.4147 137.836 17.8594C138.169 18.3971 138.633 18.6659 139.231 18.6659C139.818 18.6659 140.28 18.3928 140.611 17.8451C140.894 17.3918 141.038 16.8541 141.038 16.2321Z" fill="white"/>
<path id="n_2" d="M150.895 19.6092H149.359V15.7482C149.359 14.5584 148.896 13.9635 147.964 13.9635C147.508 13.9635 147.14 14.1265 146.856 14.454C146.571 14.7815 146.429 15.1676 146.429 15.6094V19.6077H144.89V14.7943C144.89 14.2023 144.873 13.5603 144.836 12.8653H146.185L146.257 13.9192H146.3C146.48 13.5917 146.747 13.3214 147.096 13.1055C147.514 12.8538 147.979 12.7266 148.491 12.7266C149.135 12.7266 149.672 12.9296 150.098 13.3372C150.631 13.8362 150.895 14.5813 150.895 15.5708V19.6092Z" fill="white"/>
<path id="t" d="M161.238 13.9908H159.546V17.2655C159.546 18.0978 159.846 18.5139 160.442 18.5139C160.717 18.5139 160.946 18.491 161.127 18.4438L161.166 19.5807C160.863 19.6922 160.464 19.748 159.972 19.748C159.365 19.748 158.893 19.5678 158.551 19.2075C158.208 18.8471 158.038 18.2408 158.038 17.3899V13.9908H157.027V12.8683H158.038V11.6328L159.544 11.1895V12.8668H161.237V13.9908H161.238Z" fill="white"/>
<path id="h" d="M169.376 19.6095H167.837V15.7771C167.837 14.5688 167.374 13.9639 166.445 13.9639C165.732 13.9639 165.246 14.3142 164.979 15.0149C164.933 15.1622 164.907 15.3424 164.907 15.554V19.6081H163.371V9.77539H164.907V13.838H164.936C165.42 13.0987 166.114 12.7298 167.013 12.7298C167.649 12.7298 168.176 12.9328 168.594 13.3404C169.115 13.848 169.376 14.6031 169.376 15.6012V19.6095Z" fill="white"/>
<path id="e" d="M177.772 15.9205C177.772 16.1894 177.751 16.4153 177.715 16.5998H173.105C173.125 17.2661 173.345 17.7738 173.772 18.1256C174.162 18.4402 174.665 18.5975 175.281 18.5975C175.963 18.5975 176.585 18.4917 177.146 18.2786L177.386 19.3196C176.73 19.597 175.959 19.7358 175.066 19.7358C173.995 19.7358 173.152 19.4283 172.542 18.8134C171.929 18.1985 171.625 17.3734 171.625 16.3381C171.625 15.3213 171.908 14.4748 172.479 13.7998C173.074 13.0791 173.879 12.7188 174.896 12.7188C175.89 12.7188 176.645 13.0791 177.156 13.7998C177.568 14.3718 177.772 15.0797 177.772 15.9205ZM176.305 15.533C176.317 15.0883 176.216 14.705 176.007 14.3818C175.74 13.9657 175.334 13.7569 174.784 13.7569C174.283 13.7569 173.873 13.96 173.561 14.3675C173.306 14.6921 173.155 15.0797 173.105 15.533H176.305Z" fill="white"/>
</g>
<g id="App Store">
<path id="A" d="M78.6811 45.4513H75.3503L73.5258 39.8615H67.1839L65.4459 45.4513H62.2031L68.4863 26.4209H72.3671L78.6811 45.4513ZM72.9758 37.5163L71.3258 32.547C71.1513 32.0394 70.8242 30.8439 70.3417 28.962H70.283C70.0909 29.7714 69.7814 30.9669 69.3561 32.547L67.7354 37.5163H72.9758Z" fill="white"/>
<path id="p" d="M94.8386 38.4214C94.8386 40.7551 94.1918 42.5998 92.8982 43.954C91.7396 45.1595 90.3008 45.7616 88.5833 45.7616C86.7294 45.7616 85.3977 45.1123 84.5866 43.8139H84.528V51.0426H81.401V36.2463C81.401 34.7792 81.3614 33.2734 81.2852 31.729H84.0352L84.2097 33.904H84.2684C85.3112 32.2652 86.8937 31.4473 89.0174 31.4473C90.6777 31.4473 92.0637 32.0865 93.1725 33.3663C94.2842 34.6476 94.8386 36.3321 94.8386 38.4214ZM91.653 38.5329C91.653 37.1973 91.345 36.0962 90.7261 35.2296C90.05 34.3259 89.1421 33.874 88.004 33.874C87.2325 33.874 86.5314 34.1257 85.9052 34.6219C85.2774 35.1224 84.8668 35.7759 84.6746 36.5853C84.5778 36.9628 84.5294 37.2717 84.5294 37.5148V39.8028C84.5294 40.8009 84.8433 41.6432 85.471 42.331C86.0988 43.0188 86.9142 43.362 87.9174 43.362C89.0952 43.362 90.0118 42.9187 90.6674 42.035C91.3245 41.1498 91.653 39.9829 91.653 38.5329Z" fill="white"/>
<path id="p_2" d="M111.029 38.4214C111.029 40.7551 110.382 42.5998 109.087 43.954C107.929 45.1595 106.491 45.7616 104.773 45.7616C102.919 45.7616 101.588 45.1123 100.778 43.8139H100.719V51.0426H97.5924V36.2463C97.5924 34.7792 97.5528 33.2734 97.4766 31.729H100.227L100.401 33.904H100.46C101.501 32.2652 103.084 31.4473 105.209 31.4473C106.868 31.4473 108.254 32.0865 109.365 33.3663C110.473 34.6476 111.029 36.3321 111.029 38.4214ZM107.843 38.5329C107.843 37.1973 107.533 36.0962 106.915 35.2296C106.238 34.3259 105.334 33.874 104.194 33.874C103.421 33.874 102.721 34.1257 102.094 34.6219C101.466 35.1224 101.057 35.7759 100.865 36.5853C100.769 36.9628 100.719 37.2717 100.719 37.5148V39.8028C100.719 40.8009 101.033 41.6432 101.658 42.331C102.286 43.0174 103.101 43.362 104.107 43.362C105.285 43.362 106.202 42.9187 106.857 42.035C107.514 41.1498 107.843 39.9829 107.843 38.5329Z" fill="white"/>
<path id="S" d="M129.124 40.1141C129.124 41.7329 128.548 43.0499 127.391 44.0667C126.119 45.1778 124.349 45.7326 122.074 45.7326C119.974 45.7326 118.29 45.3379 117.016 44.5471L117.74 42.006C119.113 42.8154 120.619 43.2215 122.26 43.2215C123.438 43.2215 124.355 42.9613 125.013 42.4436C125.669 41.9259 125.996 41.231 125.996 40.3644C125.996 39.5922 125.726 38.9415 125.185 38.4139C124.647 37.8862 123.748 37.3957 122.492 36.9424C119.075 35.6997 117.368 33.8793 117.368 31.4855C117.368 29.9211 117.966 28.6384 119.164 27.6402C120.358 26.6407 121.951 26.1416 123.943 26.1416C125.719 26.1416 127.194 26.4433 128.372 27.0454L127.59 29.5307C126.49 28.9473 125.247 28.6555 123.855 28.6555C122.755 28.6555 121.895 28.9201 121.279 29.4463C120.759 29.9168 120.497 30.4902 120.497 31.1695C120.497 31.9217 120.795 32.5437 121.394 33.0328C121.914 33.4847 122.86 33.9737 124.233 34.5014C125.912 35.1606 127.146 35.9314 127.939 36.8151C128.73 37.696 129.124 38.7985 129.124 40.1141Z" fill="white"/>
<path id="t_2" d="M139.466 34.0167H136.019V40.6791C136.019 42.3736 136.626 43.2202 137.844 43.2202C138.402 43.2202 138.866 43.173 139.233 43.0786L139.319 45.3938C138.703 45.6183 137.892 45.7313 136.887 45.7313C135.652 45.7313 134.687 45.3638 133.991 44.6302C133.297 43.8951 132.948 42.6625 132.948 40.9308V34.0138H130.895V31.7258H132.948V29.2133L136.019 28.3096V31.7258H139.466V34.0167Z" fill="white"/>
<path id="o_4" d="M155.016 38.4767C155.016 40.5859 154.397 42.3177 153.162 43.6719C151.867 45.0661 150.148 45.7611 148.005 45.7611C145.94 45.7611 144.296 45.0933 143.07 43.7577C141.844 42.4221 141.23 40.7361 141.23 38.7041C141.23 36.5777 141.861 34.8359 143.127 33.4817C144.39 32.1261 146.094 31.4482 148.237 31.4482C150.302 31.4482 151.964 32.1161 153.218 33.4531C154.417 34.7501 155.016 36.4246 155.016 38.4767ZM151.771 38.5754C151.771 37.3098 151.494 36.2244 150.932 35.3193C150.277 34.2239 149.34 33.6776 148.125 33.6776C146.868 33.6776 145.914 34.2253 145.258 35.3193C144.696 36.2259 144.419 37.3284 144.419 38.6326C144.419 39.8981 144.696 40.9835 145.258 41.8872C145.934 42.9826 146.879 43.5289 148.097 43.5289C149.291 43.5289 150.228 42.9712 150.905 41.8586C151.481 40.9363 151.771 39.8395 151.771 38.5754Z" fill="white"/>
<path id="r" d="M165.178 34.4102C164.869 34.3545 164.539 34.3259 164.193 34.3259C163.093 34.3259 162.242 34.7305 161.644 35.5414C161.123 36.2564 160.862 37.1601 160.862 38.2512V45.4513H157.736L157.766 36.0504C157.766 34.4689 157.726 33.0288 157.648 31.7304H160.372L160.486 34.3559H160.573C160.903 33.4536 161.424 32.7271 162.136 32.1823C162.833 31.6918 163.586 31.4473 164.397 31.4473C164.686 31.4473 164.947 31.4673 165.178 31.503V34.4102Z" fill="white"/>
<path id="e_2" d="M179.164 37.9403C179.164 38.4865 179.127 38.947 179.05 39.3231H169.669C169.705 40.6787 170.159 41.7155 171.03 42.4305C171.82 43.0697 172.843 43.39 174.098 43.39C175.487 43.39 176.754 43.1741 177.894 42.7408L178.384 44.8572C177.052 45.4235 175.48 45.7052 173.665 45.7052C171.483 45.7052 169.77 45.0788 168.523 43.8276C167.28 42.5763 166.656 40.8961 166.656 38.7883C166.656 36.719 167.236 34.9959 168.396 33.6217C169.61 32.1545 171.251 31.4209 173.316 31.4209C175.345 31.4209 176.88 32.1545 177.923 33.6217C178.749 34.7871 179.164 36.2286 179.164 37.9403ZM176.182 37.1495C176.203 36.2457 175.999 35.4649 175.575 34.8057C175.034 33.9577 174.202 33.5344 173.083 33.5344C172.061 33.5344 171.229 33.9477 170.594 34.7771C170.074 35.4363 169.764 36.2271 169.669 37.148H176.182V37.1495Z" fill="white"/>
</g>
</g>
</svg>
