<svg width="58" height="57" viewBox="0 0 58 57" fill="none" xmlns="http://www.w3.org/2000/svg">
<rect width="58" height="57" rx="28.5" fill="#092C4C"/>
<path d="M14.5088 40.4634H43.4912C45.3581 40.4634 46.5 39.439 46.5 37.9024C46.5 35.9634 44.76 34.2988 43.1287 32.7256C41.8418 31.4634 41.5518 28.8293 41.3162 26.3963C41.0262 19.7012 39.0867 14.9817 34.3923 13.2805C33.6491 10.8659 31.6735 9 28.9909 9C26.3265 9 24.3509 10.8659 23.5896 13.2805C18.9133 14.9817 16.9557 19.7012 16.6838 26.3963C16.4482 28.8293 16.1401 31.4634 14.8713 32.7256C13.24 34.2988 11.5 35.9634 11.5 37.9024C11.5 39.439 12.6419 40.4634 14.5088 40.4634ZM28.9909 48C32.2172 48 34.5554 45.6768 34.791 43.0244H23.209C23.4446 45.6768 25.7828 48 28.9909 48Z" fill="#F6F6F6"/>
</svg>
