<svg width="20" height="16" viewBox="0 0 20 16" fill="none" xmlns="http://www.w3.org/2000/svg">
<path d="M6.03402 12.5198L1.98569 8.47142C1.76755 8.25328 1.47169 8.13073 1.16319 8.13073C0.854693 8.13073 0.558831 8.25328 0.340691 8.47142C0.12255 8.68956 0 8.98542 0 9.29392C0 9.44667 0.0300871 9.59793 0.0885429 9.73905C0.146999 9.88018 0.232678 10.0084 0.340691 10.1164L5.21736 14.9931C5.67236 15.4481 6.40736 15.4481 6.86236 14.9931L19.2057 2.64975C19.4238 2.43161 19.5464 2.13575 19.5464 1.82725C19.5464 1.51876 19.4238 1.22289 19.2057 1.00475C18.9876 0.786613 18.6917 0.664063 18.3832 0.664062C18.0747 0.664063 17.7788 0.786613 17.5607 1.00475L6.03402 12.5198Z" fill="#092C4C"/>
</svg>
