<svg width="50" height="50" viewBox="0 0 50 50" fill="none" xmlns="http://www.w3.org/2000/svg">
<path d="M42.1875 6.64062H17.1875C16.8767 6.64063 16.5786 6.76409 16.3589 6.98386C16.1391 7.20363 16.0156 7.5017 16.0156 7.8125V16.0156H7.8125C7.5017 16.0156 7.20363 16.1391 6.98386 16.3589C6.76409 16.5786 6.64063 16.8767 6.64062 17.1875V42.1875C6.64063 42.4983 6.76409 42.7964 6.98386 43.0161C7.20363 43.2359 7.5017 43.3594 7.8125 43.3594H32.8125C33.1233 43.3594 33.4214 43.2359 33.6411 43.0161C33.8609 42.7964 33.9844 42.4983 33.9844 42.1875V33.9844H42.1875C42.4983 33.9844 42.7964 33.8609 43.0161 33.6411C43.2359 33.4214 43.3594 33.1233 43.3594 32.8125V7.8125C43.3594 7.5017 43.2359 7.20363 43.0161 6.98386C42.7964 6.76409 42.4983 6.64063 42.1875 6.64062ZM31.6406 41.0156H8.98438V18.3594H31.6406V41.0156ZM41.0156 31.6406H33.9844V17.1875C33.9844 16.8767 33.8609 16.5786 33.6411 16.3589C33.4214 16.1391 33.1233 16.0156 32.8125 16.0156H18.3594V8.98438H41.0156V31.6406Z" fill="#092C4C"/>
</svg>
