<svg width="238" height="237" viewBox="0 0 238 237" fill="none" xmlns="http://www.w3.org/2000/svg">
<path d="M73.9176 185.132H164.008C180.077 185.132 188.409 176.8 188.409 160.954V70.418C188.409 54.4979 180.077 46.2402 164.008 46.2402H73.9176C57.8486 46.2402 49.5166 54.4979 49.5166 70.418V160.954C49.5166 176.875 57.8486 185.132 73.9176 185.132ZM74.8103 170.551C67.8917 170.551 64.0977 166.906 64.0977 159.69V71.6083C64.0977 64.3922 67.8917 60.8213 74.8103 60.8213H163.115C169.959 60.8213 173.828 64.3922 173.828 71.6083V159.69C173.828 166.906 169.959 170.551 163.115 170.551H74.8103ZM78.4555 80.6843V97.9435C78.4555 102.779 81.2825 105.532 86.0436 105.532H103.303C108.138 105.532 110.965 102.779 110.965 97.9435V80.6843C110.965 75.8487 108.138 73.0962 103.303 73.0962H86.0436C81.2825 73.0962 78.4555 75.8487 78.4555 80.6843ZM83.0679 130.304H154.337C157.015 130.304 159.023 128.221 159.023 125.543C159.023 122.94 157.015 120.931 154.337 120.931H83.0679C80.3154 120.931 78.3067 122.94 78.3067 125.543C78.3067 128.221 80.3154 130.304 83.0679 130.304ZM83.0679 154.854H135.738C138.416 154.854 140.425 152.771 140.425 150.167C140.425 147.489 138.416 145.406 135.738 145.406H83.0679C80.3154 145.406 78.3067 147.489 78.3067 150.167C78.3067 152.771 80.3154 154.854 83.0679 154.854Z" fill="#999999"/>
</svg>
