<svg width="285" height="88" viewBox="0 0 285 88" fill="none" xmlns="http://www.w3.org/2000/svg">
<g clip-path="url(#clip0_2249_5695)">
<mask id="mask0_2249_5695" style="mask-type:luminance" maskUnits="userSpaceOnUse" x="0" y="5" width="84" height="53">
<path d="M46.6942 38.1691L51.9161 57.4278L70.7955 47.7985L83.6495 8.87994L78.0259 5.67017L70.3938 9.28116L60.7533 21.3178L0.5 10.4848L46.6942 38.1691Z" fill="white"/>
</mask>
<g mask="url(#mask0_2249_5695)">
<path fill-rule="evenodd" clip-rule="evenodd" d="M36.2503 16.9044L46.6942 38.1692L0.5 10.4849L36.2503 16.9044Z" fill="#FCBE4F"/>
<path fill-rule="evenodd" clip-rule="evenodd" d="M47.4975 39.7739L36.2502 16.9043L60.7532 21.3177L47.4975 39.7739Z" fill="#E08D3D"/>
<path fill-rule="evenodd" clip-rule="evenodd" d="M7.73047 14.8982L52.3179 32.552L47.0959 39.7739L46.6942 38.1691L7.73047 14.8982Z" fill="#FF9533"/>
<path fill-rule="evenodd" clip-rule="evenodd" d="M47.4977 39.774L41.874 28.5398L52.7196 32.1508L47.4977 39.774Z" fill="#E2712F"/>
<path fill-rule="evenodd" clip-rule="evenodd" d="M46.6941 38.1692L60.7532 21.3179L51.916 57.4278L46.6941 38.1692Z" fill="#FA5563"/>
<path fill-rule="evenodd" clip-rule="evenodd" d="M46.6941 38.1692L51.916 32.1509V57.4279L46.6941 38.1692Z" fill="#D43A46"/>
<path fill-rule="evenodd" clip-rule="evenodd" d="M51.916 57.4278L60.7532 21.3179L79.2308 22.1203L54.7278 55.8229L51.916 57.4278Z" fill="#FB5690"/>
<path fill-rule="evenodd" clip-rule="evenodd" d="M60.7533 21.3179L79.231 22.1203L56.3347 39.3729L60.7533 21.3179Z" fill="#FE3277"/>
<path fill-rule="evenodd" clip-rule="evenodd" d="M54.728 55.8228L70.7956 47.7984L79.231 21.719L54.728 55.8228Z" fill="#E04EB1"/>
<path fill-rule="evenodd" clip-rule="evenodd" d="M54.728 55.8229L70.7956 47.7984L67.1804 38.5703L54.728 55.8229Z" fill="#D93490"/>
<path fill-rule="evenodd" clip-rule="evenodd" d="M60.7532 21.3178L69.992 9.68237L79.6325 21.719L79.2308 22.5215L60.7532 21.3178Z" fill="#FF5F70"/>
<path fill-rule="evenodd" clip-rule="evenodd" d="M79.6327 21.719L69.9922 9.68238L78.026 5.67017L83.6496 8.87994L79.6327 21.719Z" fill="#FE993F"/>
<path fill-rule="evenodd" clip-rule="evenodd" d="M83.6495 8.87994L78.0259 5.67017L79.6326 21.719L83.6495 8.87994Z" fill="#FFBC65"/>
</g>
<path fill-rule="evenodd" clip-rule="evenodd" d="M51.916 57.8291L61.5565 53.0144L72.4021 67.0572L59.5481 87.1183L51.916 57.8291Z" fill="#5E1D6F"/>
<mask id="mask1_2249_5695" style="mask-type:luminance" maskUnits="userSpaceOnUse" x="51" y="53" width="22" height="35">
<path d="M51.916 57.8291L61.5565 53.0144L72.4021 67.0572L59.5481 87.1183L51.916 57.8291Z" fill="white"/>
</mask>
<g mask="url(#mask1_2249_5695)">
<path fill-rule="evenodd" clip-rule="evenodd" d="M59.5481 87.1183L61.5565 53.0144L72.4021 67.0572L59.5481 87.1183Z" fill="#AA379C"/>
<path fill-rule="evenodd" clip-rule="evenodd" d="M59.5482 87.1183L52.7195 61.0388L61.5566 53.0144L59.5482 87.1183Z" fill="#852B82"/>
</g>
<path fill-rule="evenodd" clip-rule="evenodd" d="M36.2502 16.5031L60.7532 20.9166L29.0198 0.855469L36.2502 16.5031Z" fill="#FF8E42"/>
<mask id="mask2_2249_5695" style="mask-type:luminance" maskUnits="userSpaceOnUse" x="29" y="0" width="32" height="21">
<path d="M36.2502 16.5031L60.7532 20.9166L29.0198 0.855469L36.2502 16.5031Z" fill="white"/>
</mask>
<g mask="url(#mask2_2249_5695)">
<path fill-rule="evenodd" clip-rule="evenodd" d="M36.2502 16.5031L29.0198 0.855469L45.489 18.108L36.2502 16.5031Z" fill="#FF7352"/>
</g>
<path fill-rule="evenodd" clip-rule="evenodd" d="M82.4443 14.0957L84.0511 9.28101L111.768 12.4908L82.4443 14.0957Z" fill="#FC5461"/>
<mask id="mask3_2249_5695" style="mask-type:luminance" maskUnits="userSpaceOnUse" x="82" y="9" width="30" height="6">
<path d="M82.4443 14.0957L84.0511 9.28101L111.768 12.4908L82.4443 14.0957Z" fill="white"/>
</mask>
<g mask="url(#mask3_2249_5695)">
<path fill-rule="evenodd" clip-rule="evenodd" d="M82.4443 14.0956L111.768 12.4907L83.2477 11.6882L82.4443 14.0956Z" fill="#D43A44"/>
</g>
</g>
<path d="M116.423 55.0493H109.151V45.8693H100.547V55.0493H93.2748V31.0373H100.547V39.5333H109.151V31.0373H116.423V55.0493ZM144.574 55.0493H136.69L135.754 51.9533H126.538L125.602 55.0493H117.718L126.574 31.0373H135.718L144.574 55.0493ZM133.882 45.9053L131.146 37.4453L128.41 45.9053H133.882ZM167.361 55.0493H159.081L155.769 47.3453H153.141V55.0493H145.869V31.0373H158.685C164.301 31.0373 167.325 34.7813 167.325 39.2813C167.325 43.4213 164.913 45.6173 163.005 46.5533L167.361 55.0493ZM159.945 39.1733C159.945 37.8773 158.793 37.0853 157.569 37.0853H153.141V41.2973H157.569C158.793 41.2973 159.945 40.5053 159.945 39.1733ZM168.431 51.6653L172.211 46.2653C174.011 47.9933 176.711 49.3613 179.951 49.3613C181.319 49.3613 182.615 48.8933 182.615 47.9573C182.615 47.0213 181.607 46.5533 179.231 46.1213C175.271 45.4013 169.223 44.4653 169.223 38.4533C169.223 34.3853 172.607 30.6773 179.195 30.6773C183.119 30.6773 186.647 31.7933 189.383 34.0253L185.495 39.1733C183.407 37.5893 180.707 36.7973 178.799 36.7973C176.999 36.7973 176.603 37.4453 176.603 38.0573C176.603 38.9933 177.575 39.3173 180.131 39.7493C184.091 40.4333 189.959 41.5853 189.959 47.1293C189.959 52.4213 186.035 55.4813 179.591 55.4813C174.479 55.4813 170.987 53.9693 168.431 51.6653ZM216.609 55.0493H208.725L207.789 51.9533H198.573L197.637 55.0493H189.753L198.609 31.0373H207.753L216.609 55.0493ZM205.917 45.9053L203.181 37.4453L200.445 45.9053H205.917Z" fill="#A2D2FF"/>
<path d="M91.896 69.8675C91.88 69.7475 91.88 69.6195 91.896 69.4835C92.272 69.4435 92.54 69.4075 92.7 69.3755C92.86 69.3355 92.96 69.2555 93 69.1355C93.04 69.0075 93.06 68.8035 93.06 68.5235V62.9435C93.06 62.6075 93.04 62.3675 93 62.2235C92.96 62.0795 92.856 61.9875 92.688 61.9475C92.528 61.8995 92.264 61.8595 91.896 61.8275C91.88 61.7075 91.88 61.5795 91.896 61.4435C92.064 61.4435 92.26 61.4475 92.484 61.4555C92.716 61.4555 92.944 61.4595 93.168 61.4675C93.392 61.4675 93.576 61.4675 93.72 61.4675C93.872 61.4675 94.06 61.4675 94.284 61.4675C94.516 61.4595 94.748 61.4555 94.98 61.4555C95.22 61.4475 95.416 61.4435 95.568 61.4435C95.592 61.5635 95.592 61.6915 95.568 61.8275C95.192 61.8595 94.92 61.8955 94.752 61.9355C94.584 61.9755 94.48 62.0555 94.44 62.1755C94.4 62.2955 94.38 62.4995 94.38 62.7875V68.3675C94.38 68.6395 94.38 68.8595 94.38 69.0275C94.388 69.1875 94.396 69.2955 94.404 69.3515H96.108C96.772 69.3515 97.264 69.2035 97.584 68.9075C97.848 68.6515 98.124 68.2035 98.412 67.5635C98.54 67.5395 98.664 67.5395 98.784 67.5635C98.688 68.0515 98.608 68.4915 98.544 68.8835C98.488 69.2675 98.44 69.5915 98.4 69.8555C97.624 69.8555 96.848 69.8555 96.072 69.8555C95.304 69.8475 94.532 69.8435 93.756 69.8435C93.604 69.8435 93.412 69.8475 93.18 69.8555C92.948 69.8555 92.716 69.8555 92.484 69.8555C92.252 69.8635 92.056 69.8675 91.896 69.8675ZM101.979 69.9995C101.411 69.9995 100.931 69.8675 100.539 69.6035C100.147 69.3395 99.8471 68.9875 99.6391 68.5475C99.4391 68.0995 99.3391 67.6075 99.3391 67.0715C99.3391 66.5195 99.4431 66.0075 99.6511 65.5355C99.8671 65.0635 100.179 64.6835 100.587 64.3955C100.995 64.0995 101.491 63.9515 102.075 63.9515C102.779 63.9515 103.327 64.1635 103.719 64.5875C104.119 65.0035 104.319 65.5435 104.319 66.2075C104.319 66.2875 104.315 66.3595 104.307 66.4235C104.307 66.4795 104.303 66.5275 104.295 66.5675L100.515 66.5315C100.515 66.5635 100.515 66.5915 100.515 66.6155C100.515 67.3995 100.695 68.0155 101.055 68.4635C101.415 68.9115 101.919 69.1355 102.567 69.1355C103.111 69.1355 103.647 68.9595 104.175 68.6075C104.255 68.7035 104.315 68.7955 104.355 68.8835C103.675 69.6275 102.883 69.9995 101.979 69.9995ZM100.551 66.0875L103.035 66.0395C103.043 66.0235 103.047 66.0035 103.047 65.9795C103.047 65.9475 103.047 65.9275 103.047 65.9195C103.047 65.4875 102.951 65.1275 102.759 64.8395C102.575 64.5515 102.299 64.4075 101.931 64.4075C101.587 64.4075 101.287 64.5475 101.031 64.8275C100.775 65.1075 100.615 65.5275 100.551 66.0875ZM109.432 69.9755C108.904 69.9755 108.572 69.7115 108.436 69.1835C107.868 69.7275 107.288 69.9995 106.696 69.9995C106.288 69.9995 105.94 69.8795 105.652 69.6395C105.372 69.3915 105.232 69.0515 105.232 68.6195C105.232 67.5635 106.308 66.8995 108.46 66.6275C108.46 66.4355 108.46 66.2395 108.46 66.0395C108.468 65.8395 108.472 65.6275 108.472 65.4035C108.472 65.1235 108.368 64.9075 108.16 64.7555C107.96 64.5955 107.716 64.5155 107.428 64.5155C107.22 64.5155 107.044 64.5475 106.9 64.6115C106.9 64.7955 106.86 64.9835 106.78 65.1755C106.7 65.3675 106.588 65.5315 106.444 65.6675C106.308 65.7955 106.14 65.8595 105.94 65.8595C105.764 65.8595 105.624 65.8115 105.52 65.7155C105.424 65.6115 105.376 65.4875 105.376 65.3435C105.376 65.1515 105.464 64.9715 105.64 64.8035C105.824 64.6275 106.056 64.4795 106.336 64.3595C106.616 64.2315 106.908 64.1315 107.212 64.0595C107.516 63.9875 107.788 63.9515 108.028 63.9515C108.324 63.9515 108.596 64.0075 108.844 64.1195C109.1 64.2235 109.304 64.3835 109.456 64.5995C109.616 64.8075 109.696 65.0675 109.696 65.3795C109.696 65.5715 109.692 65.8235 109.684 66.1355C109.676 66.4395 109.668 66.7675 109.66 67.1195C109.66 67.4635 109.656 67.7915 109.648 68.1035C109.64 68.4155 109.636 68.6675 109.636 68.8595C109.636 69.1155 109.748 69.2435 109.972 69.2435C110.116 69.2435 110.336 69.1955 110.632 69.0995C110.664 69.1395 110.684 69.1835 110.692 69.2315C110.708 69.2795 110.72 69.3235 110.728 69.3635C110.528 69.5795 110.316 69.7355 110.092 69.8315C109.876 69.9275 109.656 69.9755 109.432 69.9755ZM108.436 68.8595L108.46 67.0595C107.724 67.1555 107.216 67.3115 106.936 67.5275C106.664 67.7435 106.528 68.0195 106.528 68.3555C106.528 68.6355 106.6 68.8515 106.744 69.0035C106.896 69.1475 107.084 69.2195 107.308 69.2195C107.452 69.2195 107.612 69.1875 107.788 69.1235C107.972 69.0595 108.188 68.9715 108.436 68.8595ZM111.078 69.8675C111.054 69.7395 111.054 69.6155 111.078 69.4955C111.35 69.4795 111.55 69.4555 111.678 69.4235C111.806 69.3835 111.89 69.3035 111.93 69.1835C111.97 69.0635 111.99 68.8715 111.99 68.6075V65.9195C111.99 65.6075 111.974 65.3755 111.942 65.2235C111.918 65.0715 111.842 64.9675 111.714 64.9115C111.594 64.8475 111.386 64.7955 111.09 64.7555C111.066 64.6435 111.066 64.5395 111.09 64.4435C111.41 64.3795 111.722 64.3075 112.026 64.2275C112.33 64.1395 112.65 64.0275 112.986 63.8915L113.19 63.9635V65.0195C113.75 64.3075 114.322 63.9515 114.906 63.9515C115.186 63.9515 115.394 64.0275 115.53 64.1795C115.666 64.3235 115.734 64.4875 115.734 64.6715C115.734 64.8875 115.662 65.0555 115.518 65.1755C115.374 65.2875 115.21 65.3435 115.026 65.3435C114.874 65.3435 114.722 65.3035 114.57 65.2235C114.426 65.1435 114.318 65.0195 114.246 64.8515C113.974 64.8515 113.73 64.9595 113.514 65.1755C113.306 65.3835 113.202 65.6275 113.202 65.9075V68.4875C113.202 68.7995 113.218 69.0235 113.25 69.1595C113.29 69.2955 113.386 69.3835 113.538 69.4235C113.698 69.4555 113.954 69.4795 114.306 69.4955C114.322 69.6075 114.322 69.7315 114.306 69.8675C114.034 69.8675 113.754 69.8635 113.466 69.8555C113.178 69.8475 112.882 69.8435 112.578 69.8435C112.282 69.8435 112.018 69.8475 111.786 69.8555C111.562 69.8635 111.326 69.8675 111.078 69.8675ZM119.756 69.8675C119.74 69.7395 119.74 69.6155 119.756 69.4955C120.004 69.4795 120.188 69.4555 120.308 69.4235C120.428 69.3835 120.508 69.3035 120.548 69.1835C120.588 69.0635 120.608 68.8715 120.608 68.6075V66.1835C120.608 65.7035 120.532 65.3475 120.38 65.1155C120.236 64.8755 119.944 64.7555 119.504 64.7555C119.272 64.7555 119.048 64.7995 118.832 64.8875C118.616 64.9675 118.38 65.1235 118.124 65.3555V68.4875C118.124 68.7995 118.14 69.0235 118.172 69.1595C118.212 69.2955 118.292 69.3835 118.412 69.4235C118.532 69.4555 118.72 69.4795 118.976 69.4955C118.992 69.6155 118.992 69.7395 118.976 69.8675C118.752 69.8675 118.516 69.8635 118.268 69.8555C118.028 69.8475 117.768 69.8435 117.488 69.8435C117.232 69.8435 116.98 69.8475 116.732 69.8555C116.484 69.8635 116.24 69.8675 116 69.8675C115.976 69.7395 115.976 69.6155 116 69.4955C116.272 69.4795 116.472 69.4555 116.6 69.4235C116.728 69.3835 116.812 69.3035 116.852 69.1835C116.892 69.0635 116.912 68.8715 116.912 68.6075V65.9195C116.912 65.6075 116.896 65.3755 116.864 65.2235C116.84 65.0715 116.764 64.9675 116.636 64.9115C116.516 64.8475 116.308 64.7955 116.012 64.7555C115.988 64.6435 115.988 64.5395 116.012 64.4435C116.7 64.3075 117.332 64.1235 117.908 63.8915L118.112 63.9635V64.8635C118.48 64.5275 118.84 64.2915 119.192 64.1555C119.544 64.0195 119.88 63.9515 120.2 63.9515C120.728 63.9515 121.132 64.1075 121.412 64.4195C121.692 64.7315 121.832 65.1795 121.832 65.7635V68.4875C121.832 68.7995 121.848 69.0235 121.88 69.1595C121.92 69.2955 122 69.3835 122.12 69.4235C122.24 69.4555 122.432 69.4795 122.696 69.4955C122.712 69.6155 122.712 69.7395 122.696 69.8675C122.456 69.8675 122.22 69.8635 121.988 69.8555C121.764 69.8475 121.5 69.8435 121.196 69.8435C120.9 69.8435 120.64 69.8475 120.416 69.8555C120.2 69.8635 119.98 69.8675 119.756 69.8675ZM126.23 69.8675C126.006 69.8675 125.774 69.8635 125.534 69.8555C125.294 69.8475 125.034 69.8435 124.754 69.8435C124.498 69.8435 124.238 69.8475 123.974 69.8555C123.718 69.8635 123.47 69.8675 123.23 69.8675C123.206 69.7395 123.206 69.6155 123.23 69.4955C123.502 69.4795 123.702 69.4555 123.83 69.4235C123.958 69.3835 124.042 69.3035 124.082 69.1835C124.122 69.0635 124.142 68.8715 124.142 68.6075V65.9195C124.142 65.6075 124.13 65.3755 124.106 65.2235C124.082 65.0715 124.006 64.9675 123.878 64.9115C123.758 64.8475 123.546 64.7955 123.242 64.7555C123.218 64.6435 123.218 64.5395 123.242 64.4435C123.594 64.3795 123.93 64.2995 124.25 64.2035C124.57 64.1075 124.878 64.0035 125.174 63.8915L125.378 63.9635C125.37 64.2115 125.362 64.4435 125.354 64.6595C125.354 64.8755 125.354 65.0795 125.354 65.2715V68.4875C125.354 68.7995 125.37 69.0235 125.402 69.1595C125.442 69.2955 125.522 69.3835 125.642 69.4235C125.77 69.4555 125.966 69.4795 126.23 69.4955C126.254 69.6155 126.254 69.7395 126.23 69.8675ZM123.83 61.8515C123.83 61.6195 123.91 61.4235 124.07 61.2635C124.238 61.1035 124.438 61.0235 124.67 61.0235C124.894 61.0235 125.086 61.1035 125.246 61.2635C125.414 61.4235 125.498 61.6155 125.498 61.8395C125.498 62.0475 125.418 62.2395 125.258 62.4155C125.098 62.5835 124.894 62.6675 124.646 62.6675C124.422 62.6675 124.23 62.5875 124.07 62.4275C123.91 62.2675 123.83 62.0755 123.83 61.8515ZM130.56 69.8675C130.544 69.7395 130.544 69.6155 130.56 69.4955C130.808 69.4795 130.992 69.4555 131.112 69.4235C131.232 69.3835 131.312 69.3035 131.352 69.1835C131.392 69.0635 131.412 68.8715 131.412 68.6075V66.1835C131.412 65.7035 131.336 65.3475 131.184 65.1155C131.04 64.8755 130.748 64.7555 130.308 64.7555C130.076 64.7555 129.852 64.7995 129.636 64.8875C129.42 64.9675 129.184 65.1235 128.928 65.3555V68.4875C128.928 68.7995 128.944 69.0235 128.976 69.1595C129.016 69.2955 129.096 69.3835 129.216 69.4235C129.336 69.4555 129.524 69.4795 129.78 69.4955C129.796 69.6155 129.796 69.7395 129.78 69.8675C129.556 69.8675 129.32 69.8635 129.072 69.8555C128.832 69.8475 128.572 69.8435 128.292 69.8435C128.036 69.8435 127.784 69.8475 127.536 69.8555C127.288 69.8635 127.044 69.8675 126.804 69.8675C126.78 69.7395 126.78 69.6155 126.804 69.4955C127.076 69.4795 127.276 69.4555 127.404 69.4235C127.532 69.3835 127.616 69.3035 127.656 69.1835C127.696 69.0635 127.716 68.8715 127.716 68.6075V65.9195C127.716 65.6075 127.7 65.3755 127.668 65.2235C127.644 65.0715 127.568 64.9675 127.44 64.9115C127.32 64.8475 127.112 64.7955 126.816 64.7555C126.792 64.6435 126.792 64.5395 126.816 64.4435C127.504 64.3075 128.136 64.1235 128.712 63.8915L128.916 63.9635V64.8635C129.284 64.5275 129.644 64.2915 129.996 64.1555C130.348 64.0195 130.684 63.9515 131.004 63.9515C131.532 63.9515 131.936 64.1075 132.216 64.4195C132.496 64.7315 132.636 65.1795 132.636 65.7635V68.4875C132.636 68.7995 132.652 69.0235 132.684 69.1595C132.724 69.2955 132.804 69.3835 132.924 69.4235C133.044 69.4555 133.236 69.4795 133.5 69.4955C133.516 69.6155 133.516 69.7395 133.5 69.8675C133.26 69.8675 133.024 69.8635 132.792 69.8555C132.568 69.8475 132.304 69.8435 132 69.8435C131.704 69.8435 131.444 69.8475 131.22 69.8555C131.004 69.8635 130.784 69.8675 130.56 69.8675ZM136.387 72.9155C135.683 72.9155 135.115 72.7915 134.683 72.5435C134.251 72.2955 134.035 71.9515 134.035 71.5115C134.035 71.1675 134.155 70.8835 134.395 70.6595C134.635 70.4355 134.931 70.2115 135.283 69.9875C134.971 69.9155 134.735 69.7915 134.575 69.6155C134.415 69.4315 134.335 69.2155 134.335 68.9675C134.335 68.5355 134.651 68.0995 135.283 67.6595C135.019 67.4915 134.807 67.2755 134.647 67.0115C134.487 66.7395 134.407 66.4275 134.407 66.0755C134.407 65.6355 134.519 65.2595 134.743 64.9475C134.975 64.6275 135.275 64.3835 135.643 64.2155C136.019 64.0395 136.419 63.9515 136.843 63.9515C137.467 63.9515 137.987 64.1235 138.403 64.4675C138.835 64.1235 139.259 63.9515 139.675 63.9515C139.883 63.9515 140.047 63.9995 140.167 64.0955C140.287 64.1835 140.347 64.3155 140.347 64.4915C140.347 64.6675 140.291 64.8075 140.179 64.9115C140.067 65.0155 139.931 65.0675 139.771 65.0675C139.619 65.0675 139.487 65.0235 139.375 64.9355C139.271 64.8395 139.203 64.7075 139.171 64.5395C139.059 64.5635 138.967 64.5915 138.895 64.6235C138.831 64.6555 138.755 64.6995 138.667 64.7555C138.939 65.0995 139.075 65.5075 139.075 65.9795C139.075 66.4195 138.967 66.7955 138.751 67.1075C138.535 67.4115 138.247 67.6475 137.887 67.8155C137.535 67.9755 137.147 68.0555 136.723 68.0555C136.323 68.0555 135.951 67.9835 135.607 67.8395C135.407 68.0395 135.307 68.2515 135.307 68.4755C135.307 68.6755 135.383 68.8035 135.535 68.8595C135.687 68.9075 135.967 68.9315 136.375 68.9315C136.559 68.9315 136.779 68.9315 137.035 68.9315C137.291 68.9235 137.479 68.9195 137.599 68.9195C138.399 68.9195 138.975 69.0635 139.327 69.3515C139.679 69.6315 139.855 70.0195 139.855 70.5155C139.855 70.9075 139.759 71.2515 139.567 71.5475C139.375 71.8515 139.115 72.1035 138.787 72.3035C138.459 72.5115 138.087 72.6635 137.671 72.7595C137.263 72.8635 136.835 72.9155 136.387 72.9155ZM135.799 70.0475C135.367 70.4075 135.151 70.7875 135.151 71.1875C135.151 71.4675 135.235 71.6955 135.403 71.8715C135.571 72.0475 135.791 72.1755 136.063 72.2555C136.335 72.3355 136.623 72.3755 136.927 72.3755C137.199 72.3755 137.483 72.3355 137.779 72.2555C138.075 72.1755 138.327 72.0315 138.535 71.8235C138.743 71.6235 138.847 71.3395 138.847 70.9715C138.847 70.6355 138.727 70.3955 138.487 70.2515C138.255 70.1075 137.819 70.0355 137.179 70.0355C137.027 70.0355 136.839 70.0355 136.615 70.0355C136.391 70.0435 136.143 70.0475 135.871 70.0475C135.847 70.0475 135.823 70.0475 135.799 70.0475ZM136.747 67.6355C137.099 67.6355 137.367 67.4955 137.551 67.2155C137.743 66.9275 137.839 66.5315 137.839 66.0275C137.839 65.5155 137.743 65.1115 137.551 64.8155C137.359 64.5195 137.079 64.3715 136.711 64.3715C136.367 64.3715 136.099 64.5115 135.907 64.7915C135.723 65.0635 135.631 65.4515 135.631 65.9555C135.631 66.4675 135.727 66.8755 135.919 67.1795C136.119 67.4835 136.395 67.6355 136.747 67.6355ZM148.706 68.0315L151.274 61.4555C151.442 61.4635 151.618 61.4675 151.802 61.4675C151.986 61.4675 152.142 61.4675 152.27 61.4675C152.334 61.4675 152.45 61.4675 152.618 61.4675C152.794 61.4595 152.982 61.4555 153.182 61.4555C153.39 61.4555 153.578 61.4555 153.746 61.4555C153.922 61.4475 154.042 61.4435 154.106 61.4435C154.13 61.5635 154.13 61.6875 154.106 61.8155H154.082C153.714 61.8555 153.446 61.8955 153.278 61.9355C153.11 61.9675 153.006 62.0475 152.966 62.1755C152.934 62.2955 152.918 62.4955 152.918 62.7755L153.014 68.3795C153.014 68.6275 153.022 68.8235 153.038 68.9675C153.054 69.1115 153.098 69.2155 153.17 69.2795C153.242 69.3435 153.358 69.3915 153.518 69.4235C153.678 69.4475 153.906 69.4715 154.202 69.4955C154.226 69.6155 154.226 69.7395 154.202 69.8675C154.138 69.8675 154.018 69.8635 153.842 69.8555C153.674 69.8555 153.486 69.8555 153.278 69.8555C153.078 69.8555 152.89 69.8555 152.714 69.8555C152.546 69.8475 152.43 69.8435 152.366 69.8435C152.302 69.8435 152.186 69.8475 152.018 69.8555C151.85 69.8555 151.666 69.8555 151.466 69.8555C151.266 69.8555 151.082 69.8555 150.914 69.8555C150.746 69.8635 150.63 69.8675 150.566 69.8675C150.558 69.7475 150.558 69.6235 150.566 69.4955H150.59C150.942 69.4555 151.198 69.4195 151.358 69.3875C151.518 69.3475 151.614 69.2675 151.646 69.1475C151.686 69.0195 151.706 68.8155 151.706 68.5355L151.598 62.1035L148.574 69.8435C148.518 69.8675 148.43 69.8835 148.31 69.8915C148.19 69.8995 148.086 69.9035 147.998 69.9035L145.154 62.3555L144.962 68.5355C144.954 68.7995 144.966 68.9915 144.998 69.1115C145.03 69.2235 145.126 69.3035 145.286 69.3515C145.446 69.3995 145.714 69.4475 146.09 69.4955C146.122 69.6235 146.122 69.7475 146.09 69.8675C146.01 69.8675 145.87 69.8635 145.67 69.8555C145.478 69.8555 145.282 69.8555 145.082 69.8555C144.89 69.8475 144.75 69.8435 144.662 69.8435C144.614 69.8435 144.518 69.8475 144.374 69.8555C144.238 69.8555 144.086 69.8555 143.918 69.8555C143.75 69.8555 143.594 69.8555 143.45 69.8555C143.314 69.8635 143.222 69.8675 143.174 69.8675C143.158 69.7395 143.158 69.6155 143.174 69.4955C143.55 69.4475 143.818 69.3995 143.978 69.3515C144.138 69.3035 144.238 69.2075 144.278 69.0635C144.326 68.9195 144.354 68.6915 144.362 68.3795L144.59 62.7755C144.606 62.4955 144.594 62.2955 144.554 62.1755C144.514 62.0555 144.406 61.9755 144.23 61.9355C144.062 61.8875 143.782 61.8475 143.39 61.8155C143.382 61.6875 143.382 61.5635 143.39 61.4435C143.662 61.4435 143.942 61.4475 144.23 61.4555C144.518 61.4635 144.838 61.4675 145.19 61.4675C145.31 61.4675 145.47 61.4675 145.67 61.4675C145.87 61.4675 146.054 61.4635 146.222 61.4555L148.706 68.0315ZM159.143 69.9755C158.615 69.9755 158.283 69.7115 158.147 69.1835C157.579 69.7275 156.999 69.9995 156.407 69.9995C155.999 69.9995 155.651 69.8795 155.363 69.6395C155.083 69.3915 154.943 69.0515 154.943 68.6195C154.943 67.5635 156.019 66.8995 158.171 66.6275C158.171 66.4355 158.171 66.2395 158.171 66.0395C158.179 65.8395 158.183 65.6275 158.183 65.4035C158.183 65.1235 158.079 64.9075 157.871 64.7555C157.671 64.5955 157.427 64.5155 157.139 64.5155C156.931 64.5155 156.755 64.5475 156.611 64.6115C156.611 64.7955 156.571 64.9835 156.491 65.1755C156.411 65.3675 156.299 65.5315 156.155 65.6675C156.019 65.7955 155.851 65.8595 155.651 65.8595C155.475 65.8595 155.335 65.8115 155.231 65.7155C155.135 65.6115 155.087 65.4875 155.087 65.3435C155.087 65.1515 155.175 64.9715 155.351 64.8035C155.535 64.6275 155.767 64.4795 156.047 64.3595C156.327 64.2315 156.619 64.1315 156.923 64.0595C157.227 63.9875 157.499 63.9515 157.739 63.9515C158.035 63.9515 158.307 64.0075 158.555 64.1195C158.811 64.2235 159.015 64.3835 159.167 64.5995C159.327 64.8075 159.407 65.0675 159.407 65.3795C159.407 65.5715 159.403 65.8235 159.395 66.1355C159.387 66.4395 159.379 66.7675 159.371 67.1195C159.371 67.4635 159.367 67.7915 159.359 68.1035C159.351 68.4155 159.347 68.6675 159.347 68.8595C159.347 69.1155 159.459 69.2435 159.683 69.2435C159.827 69.2435 160.047 69.1955 160.343 69.0995C160.375 69.1395 160.395 69.1835 160.403 69.2315C160.419 69.2795 160.431 69.3235 160.439 69.3635C160.239 69.5795 160.027 69.7355 159.803 69.8315C159.587 69.9275 159.367 69.9755 159.143 69.9755ZM158.147 68.8595L158.171 67.0595C157.435 67.1555 156.927 67.3115 156.647 67.5275C156.375 67.7435 156.239 68.0195 156.239 68.3555C156.239 68.6355 156.311 68.8515 156.455 69.0035C156.607 69.1475 156.795 69.2195 157.019 69.2195C157.163 69.2195 157.323 69.1875 157.499 69.1235C157.683 69.0595 157.899 68.9715 158.147 68.8595ZM164.545 69.8675C164.529 69.7395 164.529 69.6155 164.545 69.4955C164.793 69.4795 164.977 69.4555 165.097 69.4235C165.217 69.3835 165.297 69.3035 165.337 69.1835C165.377 69.0635 165.397 68.8715 165.397 68.6075V66.1835C165.397 65.7035 165.321 65.3475 165.169 65.1155C165.025 64.8755 164.733 64.7555 164.293 64.7555C164.061 64.7555 163.837 64.7995 163.621 64.8875C163.405 64.9675 163.169 65.1235 162.913 65.3555V68.4875C162.913 68.7995 162.929 69.0235 162.961 69.1595C163.001 69.2955 163.081 69.3835 163.201 69.4235C163.321 69.4555 163.509 69.4795 163.765 69.4955C163.781 69.6155 163.781 69.7395 163.765 69.8675C163.541 69.8675 163.305 69.8635 163.057 69.8555C162.817 69.8475 162.557 69.8435 162.277 69.8435C162.021 69.8435 161.769 69.8475 161.521 69.8555C161.273 69.8635 161.029 69.8675 160.789 69.8675C160.765 69.7395 160.765 69.6155 160.789 69.4955C161.061 69.4795 161.261 69.4555 161.389 69.4235C161.517 69.3835 161.601 69.3035 161.641 69.1835C161.681 69.0635 161.701 68.8715 161.701 68.6075V65.9195C161.701 65.6075 161.685 65.3755 161.653 65.2235C161.629 65.0715 161.553 64.9675 161.425 64.9115C161.305 64.8475 161.097 64.7955 160.801 64.7555C160.777 64.6435 160.777 64.5395 160.801 64.4435C161.489 64.3075 162.121 64.1235 162.697 63.8915L162.901 63.9635V64.8635C163.269 64.5275 163.629 64.2915 163.981 64.1555C164.333 64.0195 164.669 63.9515 164.989 63.9515C165.517 63.9515 165.921 64.1075 166.201 64.4195C166.481 64.7315 166.621 65.1795 166.621 65.7635V68.4875C166.621 68.7995 166.637 69.0235 166.669 69.1595C166.709 69.2955 166.789 69.3835 166.909 69.4235C167.029 69.4555 167.221 69.4795 167.485 69.4955C167.501 69.6155 167.501 69.7395 167.485 69.8675C167.245 69.8675 167.009 69.8635 166.777 69.8555C166.553 69.8475 166.289 69.8435 165.985 69.8435C165.689 69.8435 165.429 69.8475 165.205 69.8555C164.989 69.8635 164.769 69.8675 164.545 69.8675ZM172.291 69.9755C171.763 69.9755 171.431 69.7115 171.295 69.1835C170.727 69.7275 170.147 69.9995 169.555 69.9995C169.147 69.9995 168.799 69.8795 168.511 69.6395C168.231 69.3915 168.091 69.0515 168.091 68.6195C168.091 67.5635 169.167 66.8995 171.319 66.6275C171.319 66.4355 171.319 66.2395 171.319 66.0395C171.327 65.8395 171.331 65.6275 171.331 65.4035C171.331 65.1235 171.227 64.9075 171.019 64.7555C170.819 64.5955 170.575 64.5155 170.287 64.5155C170.079 64.5155 169.903 64.5475 169.759 64.6115C169.759 64.7955 169.719 64.9835 169.639 65.1755C169.559 65.3675 169.447 65.5315 169.303 65.6675C169.167 65.7955 168.999 65.8595 168.799 65.8595C168.623 65.8595 168.483 65.8115 168.379 65.7155C168.283 65.6115 168.235 65.4875 168.235 65.3435C168.235 65.1515 168.323 64.9715 168.499 64.8035C168.683 64.6275 168.915 64.4795 169.195 64.3595C169.475 64.2315 169.767 64.1315 170.071 64.0595C170.375 63.9875 170.647 63.9515 170.887 63.9515C171.183 63.9515 171.455 64.0075 171.703 64.1195C171.959 64.2235 172.163 64.3835 172.315 64.5995C172.475 64.8075 172.555 65.0675 172.555 65.3795C172.555 65.5715 172.551 65.8235 172.543 66.1355C172.535 66.4395 172.527 66.7675 172.519 67.1195C172.519 67.4635 172.515 67.7915 172.507 68.1035C172.499 68.4155 172.495 68.6675 172.495 68.8595C172.495 69.1155 172.607 69.2435 172.831 69.2435C172.975 69.2435 173.195 69.1955 173.491 69.0995C173.523 69.1395 173.543 69.1835 173.551 69.2315C173.567 69.2795 173.579 69.3235 173.587 69.3635C173.387 69.5795 173.175 69.7355 172.951 69.8315C172.735 69.9275 172.515 69.9755 172.291 69.9755ZM171.295 68.8595L171.319 67.0595C170.583 67.1555 170.075 67.3115 169.795 67.5275C169.523 67.7435 169.387 68.0195 169.387 68.3555C169.387 68.6355 169.459 68.8515 169.603 69.0035C169.755 69.1475 169.943 69.2195 170.167 69.2195C170.311 69.2195 170.471 69.1875 170.647 69.1235C170.831 69.0595 171.047 68.9715 171.295 68.8595ZM176.289 72.9155C175.585 72.9155 175.017 72.7915 174.585 72.5435C174.153 72.2955 173.937 71.9515 173.937 71.5115C173.937 71.1675 174.057 70.8835 174.297 70.6595C174.537 70.4355 174.833 70.2115 175.185 69.9875C174.873 69.9155 174.637 69.7915 174.477 69.6155C174.317 69.4315 174.237 69.2155 174.237 68.9675C174.237 68.5355 174.553 68.0995 175.185 67.6595C174.921 67.4915 174.709 67.2755 174.549 67.0115C174.389 66.7395 174.309 66.4275 174.309 66.0755C174.309 65.6355 174.421 65.2595 174.645 64.9475C174.877 64.6275 175.177 64.3835 175.545 64.2155C175.921 64.0395 176.321 63.9515 176.745 63.9515C177.369 63.9515 177.889 64.1235 178.305 64.4675C178.737 64.1235 179.161 63.9515 179.577 63.9515C179.785 63.9515 179.949 63.9995 180.069 64.0955C180.189 64.1835 180.249 64.3155 180.249 64.4915C180.249 64.6675 180.193 64.8075 180.081 64.9115C179.969 65.0155 179.833 65.0675 179.673 65.0675C179.521 65.0675 179.389 65.0235 179.277 64.9355C179.173 64.8395 179.105 64.7075 179.073 64.5395C178.961 64.5635 178.869 64.5915 178.797 64.6235C178.733 64.6555 178.657 64.6995 178.569 64.7555C178.841 65.0995 178.977 65.5075 178.977 65.9795C178.977 66.4195 178.869 66.7955 178.653 67.1075C178.437 67.4115 178.149 67.6475 177.789 67.8155C177.437 67.9755 177.049 68.0555 176.625 68.0555C176.225 68.0555 175.853 67.9835 175.509 67.8395C175.309 68.0395 175.209 68.2515 175.209 68.4755C175.209 68.6755 175.285 68.8035 175.437 68.8595C175.589 68.9075 175.869 68.9315 176.277 68.9315C176.461 68.9315 176.681 68.9315 176.937 68.9315C177.193 68.9235 177.381 68.9195 177.501 68.9195C178.301 68.9195 178.877 69.0635 179.229 69.3515C179.581 69.6315 179.757 70.0195 179.757 70.5155C179.757 70.9075 179.661 71.2515 179.469 71.5475C179.277 71.8515 179.017 72.1035 178.689 72.3035C178.361 72.5115 177.989 72.6635 177.573 72.7595C177.165 72.8635 176.737 72.9155 176.289 72.9155ZM175.701 70.0475C175.269 70.4075 175.053 70.7875 175.053 71.1875C175.053 71.4675 175.137 71.6955 175.305 71.8715C175.473 72.0475 175.693 72.1755 175.965 72.2555C176.237 72.3355 176.525 72.3755 176.829 72.3755C177.101 72.3755 177.385 72.3355 177.681 72.2555C177.977 72.1755 178.229 72.0315 178.437 71.8235C178.645 71.6235 178.749 71.3395 178.749 70.9715C178.749 70.6355 178.629 70.3955 178.389 70.2515C178.157 70.1075 177.721 70.0355 177.081 70.0355C176.929 70.0355 176.741 70.0355 176.517 70.0355C176.293 70.0435 176.045 70.0475 175.773 70.0475C175.749 70.0475 175.725 70.0475 175.701 70.0475ZM176.649 67.6355C177.001 67.6355 177.269 67.4955 177.453 67.2155C177.645 66.9275 177.741 66.5315 177.741 66.0275C177.741 65.5155 177.645 65.1115 177.453 64.8155C177.261 64.5195 176.981 64.3715 176.613 64.3715C176.269 64.3715 176.001 64.5115 175.809 64.7915C175.625 65.0635 175.533 65.4515 175.533 65.9555C175.533 66.4675 175.629 66.8755 175.821 67.1795C176.021 67.4835 176.297 67.6355 176.649 67.6355ZM183.178 69.9995C182.61 69.9995 182.13 69.8675 181.738 69.6035C181.346 69.3395 181.046 68.9875 180.838 68.5475C180.638 68.0995 180.538 67.6075 180.538 67.0715C180.538 66.5195 180.642 66.0075 180.85 65.5355C181.066 65.0635 181.378 64.6835 181.786 64.3955C182.194 64.0995 182.69 63.9515 183.274 63.9515C183.978 63.9515 184.526 64.1635 184.918 64.5875C185.318 65.0035 185.518 65.5435 185.518 66.2075C185.518 66.2875 185.514 66.3595 185.506 66.4235C185.506 66.4795 185.502 66.5275 185.494 66.5675L181.714 66.5315C181.714 66.5635 181.714 66.5915 181.714 66.6155C181.714 67.3995 181.894 68.0155 182.254 68.4635C182.614 68.9115 183.118 69.1355 183.766 69.1355C184.31 69.1355 184.846 68.9595 185.374 68.6075C185.454 68.7035 185.514 68.7955 185.554 68.8835C184.874 69.6275 184.082 69.9995 183.178 69.9995ZM181.75 66.0875L184.234 66.0395C184.242 66.0235 184.246 66.0035 184.246 65.9795C184.246 65.9475 184.246 65.9275 184.246 65.9195C184.246 65.4875 184.15 65.1275 183.958 64.8395C183.774 64.5515 183.498 64.4075 183.13 64.4075C182.786 64.4075 182.486 64.5475 182.23 64.8275C181.974 65.1075 181.814 65.5275 181.75 66.0875ZM193.643 69.8675C193.619 69.7395 193.619 69.6155 193.643 69.4955C193.883 69.4795 194.063 69.4555 194.183 69.4235C194.303 69.3835 194.383 69.3035 194.423 69.1835C194.471 69.0635 194.495 68.8715 194.495 68.6075V66.1835C194.495 65.7115 194.423 65.3555 194.279 65.1155C194.143 64.8755 193.859 64.7555 193.427 64.7555C192.891 64.7555 192.435 64.9555 192.059 65.3555C192.075 65.4835 192.083 65.6195 192.083 65.7635V68.4875C192.083 68.7995 192.099 69.0235 192.131 69.1595C192.171 69.2955 192.251 69.3835 192.371 69.4235C192.491 69.4555 192.675 69.4795 192.923 69.4955C192.939 69.6155 192.939 69.7395 192.923 69.8675C192.699 69.8675 192.475 69.8635 192.251 69.8555C192.027 69.8475 191.763 69.8435 191.459 69.8435C191.163 69.8435 190.903 69.8475 190.679 69.8555C190.463 69.8635 190.255 69.8675 190.055 69.8675C190.031 69.7395 190.031 69.6155 190.055 69.4955C190.287 69.4795 190.459 69.4555 190.571 69.4235C190.691 69.3835 190.771 69.3035 190.811 69.1835C190.851 69.0635 190.871 68.8715 190.871 68.6075V66.1835C190.871 65.7115 190.803 65.3555 190.667 65.1155C190.531 64.8755 190.243 64.7555 189.803 64.7555C189.299 64.7555 188.859 64.9595 188.483 65.3675V68.4875C188.483 68.7995 188.499 69.0235 188.531 69.1595C188.571 69.2955 188.651 69.3835 188.771 69.4235C188.899 69.4555 189.091 69.4795 189.347 69.4955C189.363 69.6155 189.363 69.7395 189.347 69.8675C189.123 69.8675 188.891 69.8635 188.651 69.8555C188.419 69.8475 188.151 69.8435 187.847 69.8435C187.559 69.8435 187.299 69.8475 187.067 69.8555C186.835 69.8635 186.599 69.8675 186.359 69.8675C186.335 69.7395 186.335 69.6155 186.359 69.4955C186.631 69.4795 186.831 69.4555 186.959 69.4235C187.087 69.3835 187.171 69.3035 187.211 69.1835C187.251 69.0635 187.271 68.8715 187.271 68.6075V65.9195C187.271 65.6075 187.255 65.3755 187.223 65.2235C187.199 65.0715 187.123 64.9675 186.995 64.9115C186.875 64.8475 186.667 64.7955 186.371 64.7555C186.347 64.6435 186.347 64.5395 186.371 64.4435C186.707 64.3795 187.031 64.3035 187.343 64.2155C187.655 64.1275 187.963 64.0195 188.267 63.8915L188.471 63.9635V64.8515C189.119 64.2515 189.795 63.9515 190.499 63.9515C190.939 63.9515 191.271 64.0435 191.495 64.2275C191.719 64.4115 191.875 64.6395 191.963 64.9115C192.307 64.5835 192.659 64.3435 193.019 64.1915C193.379 64.0315 193.743 63.9515 194.111 63.9515C194.639 63.9515 195.035 64.1075 195.299 64.4195C195.571 64.7315 195.707 65.1795 195.707 65.7635V68.4875C195.707 68.7995 195.723 69.0235 195.755 69.1595C195.787 69.2955 195.863 69.3835 195.983 69.4235C196.103 69.4555 196.287 69.4795 196.535 69.4955C196.559 69.6155 196.559 69.7395 196.535 69.8675C196.311 69.8675 196.087 69.8635 195.863 69.8555C195.639 69.8475 195.379 69.8435 195.083 69.8435C194.779 69.8435 194.511 69.8475 194.279 69.8555C194.055 69.8635 193.843 69.8675 193.643 69.8675ZM199.901 69.9995C199.333 69.9995 198.853 69.8675 198.461 69.6035C198.069 69.3395 197.769 68.9875 197.561 68.5475C197.361 68.0995 197.261 67.6075 197.261 67.0715C197.261 66.5195 197.365 66.0075 197.573 65.5355C197.789 65.0635 198.101 64.6835 198.509 64.3955C198.917 64.0995 199.413 63.9515 199.997 63.9515C200.701 63.9515 201.249 64.1635 201.641 64.5875C202.041 65.0035 202.241 65.5435 202.241 66.2075C202.241 66.2875 202.237 66.3595 202.229 66.4235C202.229 66.4795 202.225 66.5275 202.217 66.5675L198.437 66.5315C198.437 66.5635 198.437 66.5915 198.437 66.6155C198.437 67.3995 198.617 68.0155 198.977 68.4635C199.337 68.9115 199.841 69.1355 200.489 69.1355C201.033 69.1355 201.569 68.9595 202.097 68.6075C202.177 68.7035 202.237 68.7955 202.277 68.8835C201.597 69.6275 200.805 69.9995 199.901 69.9995ZM198.473 66.0875L200.957 66.0395C200.965 66.0235 200.969 66.0035 200.969 65.9795C200.969 65.9475 200.969 65.9275 200.969 65.9195C200.969 65.4875 200.873 65.1275 200.681 64.8395C200.497 64.5515 200.221 64.4075 199.853 64.4075C199.509 64.4075 199.209 64.5475 198.953 64.8275C198.697 65.1075 198.537 65.5275 198.473 66.0875ZM206.838 69.8675C206.822 69.7395 206.822 69.6155 206.838 69.4955C207.086 69.4795 207.27 69.4555 207.39 69.4235C207.51 69.3835 207.59 69.3035 207.63 69.1835C207.67 69.0635 207.69 68.8715 207.69 68.6075V66.1835C207.69 65.7035 207.614 65.3475 207.462 65.1155C207.318 64.8755 207.026 64.7555 206.586 64.7555C206.354 64.7555 206.13 64.7995 205.914 64.8875C205.698 64.9675 205.462 65.1235 205.206 65.3555V68.4875C205.206 68.7995 205.222 69.0235 205.254 69.1595C205.294 69.2955 205.374 69.3835 205.494 69.4235C205.614 69.4555 205.802 69.4795 206.058 69.4955C206.074 69.6155 206.074 69.7395 206.058 69.8675C205.834 69.8675 205.598 69.8635 205.35 69.8555C205.11 69.8475 204.85 69.8435 204.57 69.8435C204.314 69.8435 204.062 69.8475 203.814 69.8555C203.566 69.8635 203.322 69.8675 203.082 69.8675C203.058 69.7395 203.058 69.6155 203.082 69.4955C203.354 69.4795 203.554 69.4555 203.682 69.4235C203.81 69.3835 203.894 69.3035 203.934 69.1835C203.974 69.0635 203.994 68.8715 203.994 68.6075V65.9195C203.994 65.6075 203.978 65.3755 203.946 65.2235C203.922 65.0715 203.846 64.9675 203.718 64.9115C203.598 64.8475 203.39 64.7955 203.094 64.7555C203.07 64.6435 203.07 64.5395 203.094 64.4435C203.782 64.3075 204.414 64.1235 204.99 63.8915L205.194 63.9635V64.8635C205.562 64.5275 205.922 64.2915 206.274 64.1555C206.626 64.0195 206.962 63.9515 207.282 63.9515C207.81 63.9515 208.214 64.1075 208.494 64.4195C208.774 64.7315 208.914 65.1795 208.914 65.7635V68.4875C208.914 68.7995 208.93 69.0235 208.962 69.1595C209.002 69.2955 209.082 69.3835 209.202 69.4235C209.322 69.4555 209.514 69.4795 209.778 69.4955C209.794 69.6155 209.794 69.7395 209.778 69.8675C209.538 69.8675 209.302 69.8635 209.07 69.8555C208.846 69.8475 208.582 69.8435 208.278 69.8435C207.982 69.8435 207.722 69.8475 207.498 69.8555C207.282 69.8635 207.062 69.8675 206.838 69.8675ZM212.616 69.9995C212.136 69.9995 211.756 69.8875 211.476 69.6635C211.196 69.4315 211.056 69.0995 211.056 68.6675C211.056 67.9635 211.06 67.2835 211.068 66.6275C211.084 65.9715 211.096 65.3395 211.104 64.7315H210.192C210.168 64.6115 210.168 64.5035 210.192 64.4075C210.984 64.0715 211.58 63.5235 211.98 62.7635C212.044 62.7635 212.108 62.7675 212.172 62.7755C212.236 62.7755 212.292 62.7795 212.34 62.7875C212.332 62.9955 212.324 63.2155 212.316 63.4475C212.316 63.6795 212.312 63.9235 212.304 64.1795H214.128C214.152 64.3555 214.152 64.5395 214.128 64.7315H212.304C212.288 65.2915 212.276 65.8835 212.268 66.5075C212.268 67.1235 212.268 67.7435 212.268 68.3675C212.268 69.0155 212.604 69.3395 213.276 69.3395C213.564 69.3395 213.832 69.2635 214.08 69.1115C214.152 69.2075 214.196 69.3275 214.212 69.4715C213.74 69.8235 213.208 69.9995 212.616 69.9995ZM220.045 70.0235C220.037 70.0235 219.905 70.0155 219.649 69.9995C219.401 69.9915 219.113 69.9595 218.785 69.9035C218.513 69.8555 218.265 69.8235 218.041 69.8075C217.825 69.7835 217.693 69.7715 217.645 69.7715C217.637 69.1075 217.601 68.3035 217.537 67.3595C217.601 67.3515 217.665 67.3475 217.729 67.3475C217.801 67.3475 217.865 67.3475 217.921 67.3475C218.073 68.0515 218.325 68.5955 218.677 68.9795C219.037 69.3635 219.509 69.5555 220.093 69.5555C220.613 69.5555 221.037 69.4155 221.365 69.1355C221.693 68.8475 221.857 68.4715 221.857 68.0075C221.857 67.6555 221.765 67.3675 221.581 67.1435C221.405 66.9195 221.169 66.7315 220.873 66.5795C220.585 66.4195 220.277 66.2715 219.949 66.1355C219.565 65.9675 219.197 65.7915 218.845 65.6075C218.501 65.4155 218.217 65.1715 217.993 64.8755C217.769 64.5795 217.657 64.1955 217.657 63.7235C217.657 63.2195 217.781 62.7875 218.029 62.4275C218.285 62.0675 218.625 61.7955 219.049 61.6115C219.473 61.4195 219.941 61.3235 220.453 61.3235C220.613 61.3235 220.777 61.3315 220.945 61.3475C221.121 61.3635 221.301 61.3875 221.485 61.4195C221.717 61.4515 221.893 61.4715 222.013 61.4795C222.141 61.4875 222.225 61.4915 222.265 61.4915C222.289 61.4915 222.333 61.4915 222.397 61.4915C222.461 61.4835 222.513 61.4755 222.553 61.4675C222.569 61.8195 222.585 62.1835 222.601 62.5595C222.617 62.9355 222.641 63.3275 222.673 63.7355C222.513 63.7595 222.381 63.7675 222.277 63.7595C222.093 63.0635 221.865 62.5635 221.593 62.2595C221.321 61.9475 220.933 61.7915 220.429 61.7915C219.989 61.7915 219.613 61.9115 219.301 62.1515C218.989 62.3835 218.833 62.7315 218.833 63.1955C218.833 63.4435 218.889 63.6635 219.001 63.8555C219.121 64.0475 219.317 64.2315 219.589 64.4075C219.861 64.5835 220.237 64.7715 220.717 64.9715C220.981 65.0835 221.245 65.2075 221.509 65.3435C221.781 65.4795 222.029 65.6435 222.253 65.8355C222.477 66.0195 222.657 66.2475 222.793 66.5195C222.929 66.7835 222.997 67.0995 222.997 67.4675C222.997 68.0115 222.861 68.4755 222.589 68.8595C222.317 69.2355 221.957 69.5235 221.509 69.7235C221.069 69.9235 220.581 70.0235 220.045 70.0235ZM224.546 72.9155C224.33 72.9155 224.162 72.8515 224.042 72.7235C223.93 72.6035 223.874 72.4595 223.874 72.2915C223.874 72.0675 223.994 71.8475 224.234 71.6315C224.474 71.4235 224.866 71.3195 225.41 71.3195C225.514 71.1355 225.614 70.9355 225.71 70.7195C225.814 70.5115 225.934 70.2515 226.07 69.9395C225.982 69.7155 225.87 69.4275 225.734 69.0755C225.598 68.7235 225.442 68.3355 225.266 67.9115C225.098 67.4795 224.926 67.0355 224.75 66.5795C224.574 66.1155 224.402 65.6675 224.234 65.2355C224.138 64.9795 224.03 64.8035 223.91 64.7075C223.798 64.6115 223.578 64.5475 223.25 64.5155C223.226 64.4035 223.226 64.2795 223.25 64.1435C223.482 64.1435 223.718 64.1475 223.958 64.1555C224.198 64.1635 224.446 64.1675 224.702 64.1675C224.934 64.1675 225.186 64.1635 225.458 64.1555C225.73 64.1475 225.962 64.1435 226.154 64.1435C226.17 64.2635 226.17 64.3875 226.154 64.5155C225.882 64.5315 225.69 64.5595 225.578 64.5995C225.474 64.6395 225.422 64.7195 225.422 64.8395C225.422 64.9515 225.462 65.1235 225.542 65.3555C225.75 65.9235 225.95 66.4475 226.142 66.9275C226.342 67.4075 226.542 67.8995 226.742 68.4035C226.998 67.8195 227.222 67.2955 227.414 66.8315C227.614 66.3675 227.814 65.8835 228.014 65.3795C228.102 65.1475 228.146 64.9755 228.146 64.8635C228.146 64.7515 228.086 64.6715 227.966 64.6235C227.846 64.5755 227.634 64.5395 227.33 64.5155C227.306 64.3875 227.306 64.2635 227.33 64.1435C227.53 64.1435 227.734 64.1475 227.942 64.1555C228.158 64.1635 228.386 64.1675 228.626 64.1675C228.786 64.1675 228.958 64.1635 229.142 64.1555C229.334 64.1475 229.506 64.1435 229.658 64.1435C229.682 64.2635 229.682 64.3875 229.658 64.5155C229.322 64.5395 229.094 64.6155 228.974 64.7435C228.854 64.8635 228.742 65.0475 228.638 65.2955L226.586 70.0835C226.546 70.1795 226.474 70.3395 226.37 70.5635C226.266 70.7955 226.154 71.0315 226.034 71.2715C225.922 71.5195 225.826 71.7235 225.746 71.8835C225.546 72.2755 225.35 72.5435 225.158 72.6875C224.966 72.8395 224.762 72.9155 224.546 72.9155ZM230.282 67.9595C230.402 68.4875 230.594 68.8915 230.858 69.1715C231.122 69.4435 231.462 69.5795 231.878 69.5795C232.19 69.5795 232.454 69.5075 232.67 69.3635C232.886 69.2115 232.994 68.9755 232.994 68.6555C232.994 68.4155 232.934 68.2235 232.814 68.0795C232.702 67.9355 232.542 67.8155 232.334 67.7195C232.134 67.6155 231.906 67.5115 231.65 67.4075C231.354 67.2875 231.074 67.1595 230.81 67.0235C230.554 66.8795 230.342 66.7035 230.174 66.4955C230.014 66.2795 229.934 66.0035 229.934 65.6675C229.934 65.2835 230.034 64.9675 230.234 64.7195C230.442 64.4635 230.706 64.2715 231.026 64.1435C231.354 64.0155 231.702 63.9515 232.07 63.9515C232.254 63.9515 232.438 63.9635 232.622 63.9875C232.806 64.0115 232.906 64.0235 232.922 64.0235C233.082 64.0475 233.23 64.0635 233.366 64.0715C233.502 64.0715 233.574 64.0715 233.582 64.0715C233.59 64.0715 233.606 64.0715 233.63 64.0715C233.662 64.0715 233.702 64.0675 233.75 64.0595C233.75 64.3155 233.754 64.5755 233.762 64.8395C233.77 65.1035 233.786 65.3835 233.81 65.6795C233.802 65.6795 233.786 65.6795 233.762 65.6795C233.69 65.6875 233.622 65.6955 233.558 65.7035C233.502 65.7035 233.446 65.6995 233.39 65.6915C233.286 65.2435 233.13 64.9195 232.922 64.7195C232.722 64.5115 232.438 64.4075 232.07 64.4075C231.742 64.4075 231.478 64.4795 231.278 64.6235C231.086 64.7675 230.99 64.9675 230.99 65.2235C230.99 65.4315 231.054 65.6035 231.182 65.7395C231.31 65.8675 231.466 65.9755 231.65 66.0635C231.834 66.1515 232.01 66.2275 232.178 66.2915C232.49 66.4115 232.786 66.5475 233.066 66.6995C233.354 66.8435 233.586 67.0315 233.762 67.2635C233.946 67.4955 234.038 67.8075 234.038 68.1995C234.038 68.6155 233.93 68.9595 233.714 69.2315C233.506 69.4955 233.238 69.6915 232.91 69.8195C232.582 69.9395 232.238 69.9995 231.878 69.9995C231.67 69.9995 231.462 69.9835 231.254 69.9515C231.054 69.9195 230.946 69.9035 230.93 69.9035C230.914 69.9035 230.846 69.8955 230.726 69.8795C230.614 69.8635 230.486 69.8475 230.342 69.8315C230.206 69.8155 230.086 69.8075 229.982 69.8075C229.982 69.5595 229.97 69.2835 229.946 68.9795C229.93 68.6755 229.91 68.3395 229.886 67.9715C229.902 67.9715 229.922 67.9715 229.946 67.9715C230.018 67.9635 230.078 67.9595 230.126 67.9595C230.182 67.9515 230.234 67.9515 230.282 67.9595ZM237.12 69.9995C236.64 69.9995 236.26 69.8875 235.98 69.6635C235.7 69.4315 235.56 69.0995 235.56 68.6675C235.56 67.9635 235.564 67.2835 235.572 66.6275C235.588 65.9715 235.6 65.3395 235.608 64.7315H234.696C234.672 64.6115 234.672 64.5035 234.696 64.4075C235.488 64.0715 236.084 63.5235 236.484 62.7635C236.548 62.7635 236.612 62.7675 236.676 62.7755C236.74 62.7755 236.796 62.7795 236.844 62.7875C236.836 62.9955 236.828 63.2155 236.82 63.4475C236.82 63.6795 236.816 63.9235 236.808 64.1795H238.632C238.656 64.3555 238.656 64.5395 238.632 64.7315H236.808C236.792 65.2915 236.78 65.8835 236.772 66.5075C236.772 67.1235 236.772 67.7435 236.772 68.3675C236.772 69.0155 237.108 69.3395 237.78 69.3395C238.068 69.3395 238.336 69.2635 238.584 69.1115C238.656 69.2075 238.7 69.3275 238.716 69.4715C238.244 69.8235 237.712 69.9995 237.12 69.9995ZM241.831 69.9995C241.263 69.9995 240.783 69.8675 240.391 69.6035C239.999 69.3395 239.699 68.9875 239.491 68.5475C239.291 68.0995 239.191 67.6075 239.191 67.0715C239.191 66.5195 239.295 66.0075 239.503 65.5355C239.719 65.0635 240.031 64.6835 240.439 64.3955C240.847 64.0995 241.343 63.9515 241.927 63.9515C242.631 63.9515 243.179 64.1635 243.571 64.5875C243.971 65.0035 244.171 65.5435 244.171 66.2075C244.171 66.2875 244.167 66.3595 244.159 66.4235C244.159 66.4795 244.155 66.5275 244.147 66.5675L240.367 66.5315C240.367 66.5635 240.367 66.5915 240.367 66.6155C240.367 67.3995 240.547 68.0155 240.907 68.4635C241.267 68.9115 241.771 69.1355 242.419 69.1355C242.963 69.1355 243.499 68.9595 244.027 68.6075C244.107 68.7035 244.167 68.7955 244.207 68.8835C243.527 69.6275 242.735 69.9995 241.831 69.9995ZM240.403 66.0875L242.887 66.0395C242.895 66.0235 242.899 66.0035 242.899 65.9795C242.899 65.9475 242.899 65.9275 242.899 65.9195C242.899 65.4875 242.803 65.1275 242.611 64.8395C242.427 64.5515 242.151 64.4075 241.783 64.4075C241.439 64.4075 241.139 64.5475 240.883 64.8275C240.627 65.1075 240.467 65.5275 240.403 66.0875ZM252.296 69.8675C252.272 69.7395 252.272 69.6155 252.296 69.4955C252.536 69.4795 252.716 69.4555 252.836 69.4235C252.956 69.3835 253.036 69.3035 253.076 69.1835C253.124 69.0635 253.148 68.8715 253.148 68.6075V66.1835C253.148 65.7115 253.076 65.3555 252.932 65.1155C252.796 64.8755 252.512 64.7555 252.08 64.7555C251.544 64.7555 251.088 64.9555 250.712 65.3555C250.728 65.4835 250.736 65.6195 250.736 65.7635V68.4875C250.736 68.7995 250.752 69.0235 250.784 69.1595C250.824 69.2955 250.904 69.3835 251.023 69.4235C251.144 69.4555 251.328 69.4795 251.576 69.4955C251.592 69.6155 251.592 69.7395 251.576 69.8675C251.352 69.8675 251.128 69.8635 250.904 69.8555C250.68 69.8475 250.416 69.8435 250.112 69.8435C249.816 69.8435 249.556 69.8475 249.332 69.8555C249.116 69.8635 248.908 69.8675 248.708 69.8675C248.684 69.7395 248.684 69.6155 248.708 69.4955C248.94 69.4795 249.112 69.4555 249.224 69.4235C249.344 69.3835 249.424 69.3035 249.464 69.1835C249.504 69.0635 249.524 68.8715 249.524 68.6075V66.1835C249.524 65.7115 249.456 65.3555 249.32 65.1155C249.184 64.8755 248.896 64.7555 248.456 64.7555C247.952 64.7555 247.512 64.9595 247.136 65.3675V68.4875C247.136 68.7995 247.152 69.0235 247.184 69.1595C247.224 69.2955 247.304 69.3835 247.424 69.4235C247.552 69.4555 247.744 69.4795 248 69.4955C248.016 69.6155 248.016 69.7395 248 69.8675C247.776 69.8675 247.544 69.8635 247.304 69.8555C247.072 69.8475 246.804 69.8435 246.5 69.8435C246.212 69.8435 245.952 69.8475 245.72 69.8555C245.488 69.8635 245.252 69.8675 245.012 69.8675C244.988 69.7395 244.988 69.6155 245.012 69.4955C245.284 69.4795 245.484 69.4555 245.612 69.4235C245.74 69.3835 245.824 69.3035 245.864 69.1835C245.904 69.0635 245.924 68.8715 245.924 68.6075V65.9195C245.924 65.6075 245.908 65.3755 245.876 65.2235C245.852 65.0715 245.776 64.9675 245.648 64.9115C245.528 64.8475 245.32 64.7955 245.024 64.7555C245 64.6435 245 64.5395 245.024 64.4435C245.36 64.3795 245.684 64.3035 245.996 64.2155C246.308 64.1275 246.616 64.0195 246.92 63.8915L247.124 63.9635V64.8515C247.772 64.2515 248.448 63.9515 249.152 63.9515C249.592 63.9515 249.924 64.0435 250.148 64.2275C250.372 64.4115 250.528 64.6395 250.616 64.9115C250.96 64.5835 251.312 64.3435 251.672 64.1915C252.032 64.0315 252.396 63.9515 252.764 63.9515C253.292 63.9515 253.688 64.1075 253.952 64.4195C254.224 64.7315 254.36 65.1795 254.36 65.7635V68.4875C254.36 68.7995 254.376 69.0235 254.408 69.1595C254.44 69.2955 254.516 69.3835 254.636 69.4235C254.756 69.4555 254.94 69.4795 255.188 69.4955C255.212 69.6155 255.212 69.7395 255.188 69.8675C254.964 69.8675 254.74 69.8635 254.516 69.8555C254.292 69.8475 254.032 69.8435 253.736 69.8435C253.432 69.8435 253.164 69.8475 252.932 69.8555C252.708 69.8635 252.496 69.8675 252.296 69.8675Z" fill="#A2D2FF"/>
<defs>
<clipPath id="clip0_2249_5695">
<rect width="111.268" height="86.2892" fill="white" transform="translate(0.5 0.855469)"/>
</clipPath>
</defs>
</svg>
