<svg width="285" height="88" viewBox="0 0 285 88" fill="none" xmlns="http://www.w3.org/2000/svg">
<g clip-path="url(#clip0_2197_19279)">
<mask id="mask0_2197_19279" style="mask-type:luminance" maskUnits="userSpaceOnUse" x="0" y="5" width="84" height="53">
<path d="M46.6942 38.169L51.9161 57.4277L70.7955 47.7983L83.6495 8.87982L78.0259 5.67004L70.3938 9.28104L60.7533 21.3177L0.5 10.4847L46.6942 38.169Z" fill="white"/>
</mask>
<g mask="url(#mask0_2197_19279)">
<path fill-rule="evenodd" clip-rule="evenodd" d="M36.2503 16.9043L46.6942 38.169L0.5 10.4847L36.2503 16.9043Z" fill="#FCBE4F"/>
<path fill-rule="evenodd" clip-rule="evenodd" d="M47.4975 39.7739L36.2502 16.9043L60.7532 21.3177L47.4975 39.7739Z" fill="#E08D3D"/>
<path fill-rule="evenodd" clip-rule="evenodd" d="M7.73035 14.8981L52.3178 32.5519L47.0958 39.7739L46.6941 38.169L7.73035 14.8981Z" fill="#FF9533"/>
<path fill-rule="evenodd" clip-rule="evenodd" d="M47.4975 39.7739L41.8739 28.5397L52.7195 32.1507L47.4975 39.7739Z" fill="#E2712F"/>
<path fill-rule="evenodd" clip-rule="evenodd" d="M46.6942 38.169L60.7533 21.3177L51.9162 57.4277L46.6942 38.169Z" fill="#FA5563"/>
<path fill-rule="evenodd" clip-rule="evenodd" d="M46.6942 38.169L51.9162 32.1507V57.4277L46.6942 38.169Z" fill="#D43A46"/>
<path fill-rule="evenodd" clip-rule="evenodd" d="M51.9161 57.4277L60.7533 21.3177L79.2309 22.1201L54.728 55.8228L51.9161 57.4277Z" fill="#FB5690"/>
<path fill-rule="evenodd" clip-rule="evenodd" d="M60.7533 21.3177L79.231 22.1201L56.3347 39.3727L60.7533 21.3177Z" fill="#FE3277"/>
<path fill-rule="evenodd" clip-rule="evenodd" d="M54.7279 55.8228L70.7954 47.7984L79.2309 21.7189L54.7279 55.8228Z" fill="#E04EB1"/>
<path fill-rule="evenodd" clip-rule="evenodd" d="M54.7279 55.8228L70.7954 47.7983L67.1802 38.5702L54.7279 55.8228Z" fill="#D93490"/>
<path fill-rule="evenodd" clip-rule="evenodd" d="M60.7533 21.3177L69.9921 9.68225L79.6327 21.7189L79.231 22.5213L60.7533 21.3177Z" fill="#FF5F70"/>
<path fill-rule="evenodd" clip-rule="evenodd" d="M79.6326 21.7189L69.9921 9.68226L78.0258 5.67004L83.6495 8.87982L79.6326 21.7189Z" fill="#FE993F"/>
<path fill-rule="evenodd" clip-rule="evenodd" d="M83.6495 8.87982L78.0259 5.67004L79.6326 21.7189L83.6495 8.87982Z" fill="#FFBC65"/>
</g>
<path fill-rule="evenodd" clip-rule="evenodd" d="M51.9161 57.8289L61.5567 53.0142L72.4022 67.057L59.5482 87.1181L51.9161 57.8289Z" fill="#5E1D6F"/>
<mask id="mask1_2197_19279" style="mask-type:luminance" maskUnits="userSpaceOnUse" x="51" y="53" width="22" height="35">
<path d="M51.9161 57.8289L61.5567 53.0142L72.4022 67.057L59.5482 87.1181L51.9161 57.8289Z" fill="white"/>
</mask>
<g mask="url(#mask1_2197_19279)">
<path fill-rule="evenodd" clip-rule="evenodd" d="M59.5482 87.1181L61.5567 53.0142L72.4022 67.057L59.5482 87.1181Z" fill="#AA379C"/>
<path fill-rule="evenodd" clip-rule="evenodd" d="M59.5482 87.1181L52.7195 61.0387L61.5566 53.0142L59.5482 87.1181Z" fill="#852B82"/>
</g>
<path fill-rule="evenodd" clip-rule="evenodd" d="M36.2503 16.503L60.7533 20.9165L29.0199 0.855377L36.2503 16.503Z" fill="#FF8E42"/>
<mask id="mask2_2197_19279" style="mask-type:luminance" maskUnits="userSpaceOnUse" x="29" y="0" width="32" height="21">
<path d="M36.2503 16.503L60.7533 20.9165L29.0199 0.855377L36.2503 16.503Z" fill="white"/>
</mask>
<g mask="url(#mask2_2197_19279)">
<path fill-rule="evenodd" clip-rule="evenodd" d="M36.2503 16.503L29.0199 0.855377L45.4891 18.1079L36.2503 16.503Z" fill="#FF7352"/>
</g>
<path fill-rule="evenodd" clip-rule="evenodd" d="M82.4445 14.0957L84.0512 9.28104L111.768 12.4908L82.4445 14.0957Z" fill="#FC5461"/>
<mask id="mask3_2197_19279" style="mask-type:luminance" maskUnits="userSpaceOnUse" x="82" y="9" width="30" height="6">
<path d="M82.4445 14.0957L84.0512 9.28104L111.768 12.4908L82.4445 14.0957Z" fill="white"/>
</mask>
<g mask="url(#mask3_2197_19279)">
<path fill-rule="evenodd" clip-rule="evenodd" d="M82.4445 14.0957L111.768 12.4908L83.2478 11.6884L82.4445 14.0957Z" fill="#D43A44"/>
</g>
</g>
<path d="M116.423 55.0492H109.151V45.8692H100.547V55.0492H93.2748V31.0372H100.547V39.5332H109.151V31.0372H116.423V55.0492ZM144.574 55.0492H136.69L135.754 51.9532H126.538L125.602 55.0492H117.718L126.574 31.0372H135.718L144.574 55.0492ZM133.882 45.9052L131.146 37.4452L128.41 45.9052H133.882ZM167.361 55.0492H159.081L155.769 47.3452H153.141V55.0492H145.869V31.0372H158.685C164.301 31.0372 167.325 34.7812 167.325 39.2812C167.325 43.4212 164.913 45.6172 163.005 46.5532L167.361 55.0492ZM159.945 39.1732C159.945 37.8772 158.793 37.0852 157.569 37.0852H153.141V41.2972H157.569C158.793 41.2972 159.945 40.5052 159.945 39.1732ZM168.431 51.6652L172.211 46.2652C174.011 47.9932 176.711 49.3612 179.951 49.3612C181.319 49.3612 182.615 48.8932 182.615 47.9572C182.615 47.0212 181.607 46.5532 179.231 46.1212C175.271 45.4012 169.223 44.4652 169.223 38.4532C169.223 34.3852 172.607 30.6772 179.195 30.6772C183.119 30.6772 186.647 31.7932 189.383 34.0252L185.495 39.1732C183.407 37.5892 180.707 36.7972 178.799 36.7972C176.999 36.7972 176.603 37.4452 176.603 38.0572C176.603 38.9932 177.575 39.3172 180.131 39.7492C184.091 40.4332 189.959 41.5852 189.959 47.1292C189.959 52.4212 186.035 55.4812 179.591 55.4812C174.479 55.4812 170.987 53.9692 168.431 51.6652ZM216.609 55.0492H208.725L207.789 51.9532H198.573L197.637 55.0492H189.753L198.609 31.0372H207.753L216.609 55.0492ZM205.917 45.9052L203.181 37.4452L200.445 45.9052H205.917Z" fill="#A2D2FF"/>
<path d="M91.896 69.8674C91.88 69.7474 91.88 69.6194 91.896 69.4834C92.272 69.4434 92.54 69.4074 92.7 69.3754C92.86 69.3354 92.96 69.2554 93 69.1354C93.04 69.0074 93.06 68.8034 93.06 68.5234V62.9434C93.06 62.6074 93.04 62.3674 93 62.2234C92.96 62.0794 92.856 61.9874 92.688 61.9474C92.528 61.8994 92.264 61.8594 91.896 61.8274C91.88 61.7074 91.88 61.5794 91.896 61.4434C92.064 61.4434 92.26 61.4474 92.484 61.4554C92.716 61.4554 92.944 61.4594 93.168 61.4674C93.392 61.4674 93.576 61.4674 93.72 61.4674C93.872 61.4674 94.06 61.4674 94.284 61.4674C94.516 61.4594 94.748 61.4554 94.98 61.4554C95.22 61.4474 95.416 61.4434 95.568 61.4434C95.592 61.5634 95.592 61.6914 95.568 61.8274C95.192 61.8594 94.92 61.8954 94.752 61.9354C94.584 61.9754 94.48 62.0554 94.44 62.1754C94.4 62.2954 94.38 62.4994 94.38 62.7874V68.3674C94.38 68.6394 94.38 68.8594 94.38 69.0274C94.388 69.1874 94.396 69.2954 94.404 69.3514H96.108C96.772 69.3514 97.264 69.2034 97.584 68.9074C97.848 68.6514 98.124 68.2034 98.412 67.5634C98.54 67.5394 98.664 67.5394 98.784 67.5634C98.688 68.0514 98.608 68.4914 98.544 68.8834C98.488 69.2674 98.44 69.5914 98.4 69.8554C97.624 69.8554 96.848 69.8554 96.072 69.8554C95.304 69.8474 94.532 69.8434 93.756 69.8434C93.604 69.8434 93.412 69.8474 93.18 69.8554C92.948 69.8554 92.716 69.8554 92.484 69.8554C92.252 69.8634 92.056 69.8674 91.896 69.8674ZM101.979 69.9994C101.411 69.9994 100.931 69.8674 100.539 69.6034C100.147 69.3394 99.8471 68.9874 99.6391 68.5474C99.4391 68.0994 99.3391 67.6074 99.3391 67.0714C99.3391 66.5194 99.4431 66.0074 99.6511 65.5354C99.8671 65.0634 100.179 64.6834 100.587 64.3954C100.995 64.0994 101.491 63.9514 102.075 63.9514C102.779 63.9514 103.327 64.1634 103.719 64.5874C104.119 65.0034 104.319 65.5434 104.319 66.2074C104.319 66.2874 104.315 66.3594 104.307 66.4234C104.307 66.4794 104.303 66.5274 104.295 66.5674L100.515 66.5314C100.515 66.5634 100.515 66.5914 100.515 66.6154C100.515 67.3994 100.695 68.0154 101.055 68.4634C101.415 68.9114 101.919 69.1354 102.567 69.1354C103.111 69.1354 103.647 68.9594 104.175 68.6074C104.255 68.7034 104.315 68.7954 104.355 68.8834C103.675 69.6274 102.883 69.9994 101.979 69.9994ZM100.551 66.0874L103.035 66.0394C103.043 66.0234 103.047 66.0034 103.047 65.9794C103.047 65.9474 103.047 65.9274 103.047 65.9194C103.047 65.4874 102.951 65.1274 102.759 64.8394C102.575 64.5514 102.299 64.4074 101.931 64.4074C101.587 64.4074 101.287 64.5474 101.031 64.8274C100.775 65.1074 100.615 65.5274 100.551 66.0874ZM109.432 69.9754C108.904 69.9754 108.572 69.7114 108.436 69.1834C107.868 69.7274 107.288 69.9994 106.696 69.9994C106.288 69.9994 105.94 69.8794 105.652 69.6394C105.372 69.3914 105.232 69.0514 105.232 68.6194C105.232 67.5634 106.308 66.8994 108.46 66.6274C108.46 66.4354 108.46 66.2394 108.46 66.0394C108.468 65.8394 108.472 65.6274 108.472 65.4034C108.472 65.1234 108.368 64.9074 108.16 64.7554C107.96 64.5954 107.716 64.5154 107.428 64.5154C107.22 64.5154 107.044 64.5474 106.9 64.6114C106.9 64.7954 106.86 64.9834 106.78 65.1754C106.7 65.3674 106.588 65.5314 106.444 65.6674C106.308 65.7954 106.14 65.8594 105.94 65.8594C105.764 65.8594 105.624 65.8114 105.52 65.7154C105.424 65.6114 105.376 65.4874 105.376 65.3434C105.376 65.1514 105.464 64.9714 105.64 64.8034C105.824 64.6274 106.056 64.4794 106.336 64.3594C106.616 64.2314 106.908 64.1314 107.212 64.0594C107.516 63.9874 107.788 63.9514 108.028 63.9514C108.324 63.9514 108.596 64.0074 108.844 64.1194C109.1 64.2234 109.304 64.3834 109.456 64.5994C109.616 64.8074 109.696 65.0674 109.696 65.3794C109.696 65.5714 109.692 65.8234 109.684 66.1354C109.676 66.4394 109.668 66.7674 109.66 67.1194C109.66 67.4634 109.656 67.7914 109.648 68.1034C109.64 68.4154 109.636 68.6674 109.636 68.8594C109.636 69.1154 109.748 69.2434 109.972 69.2434C110.116 69.2434 110.336 69.1954 110.632 69.0994C110.664 69.1394 110.684 69.1834 110.692 69.2314C110.708 69.2794 110.72 69.3234 110.728 69.3634C110.528 69.5794 110.316 69.7354 110.092 69.8314C109.876 69.9274 109.656 69.9754 109.432 69.9754ZM108.436 68.8594L108.46 67.0594C107.724 67.1554 107.216 67.3114 106.936 67.5274C106.664 67.7434 106.528 68.0194 106.528 68.3554C106.528 68.6354 106.6 68.8514 106.744 69.0034C106.896 69.1474 107.084 69.2194 107.308 69.2194C107.452 69.2194 107.612 69.1874 107.788 69.1234C107.972 69.0594 108.188 68.9714 108.436 68.8594ZM111.078 69.8674C111.054 69.7394 111.054 69.6154 111.078 69.4954C111.35 69.4794 111.55 69.4554 111.678 69.4234C111.806 69.3834 111.89 69.3034 111.93 69.1834C111.97 69.0634 111.99 68.8714 111.99 68.6074V65.9194C111.99 65.6074 111.974 65.3754 111.942 65.2234C111.918 65.0714 111.842 64.9674 111.714 64.9114C111.594 64.8474 111.386 64.7954 111.09 64.7554C111.066 64.6434 111.066 64.5394 111.09 64.4434C111.41 64.3794 111.722 64.3074 112.026 64.2274C112.33 64.1394 112.65 64.0274 112.986 63.8914L113.19 63.9634V65.0194C113.75 64.3074 114.322 63.9514 114.906 63.9514C115.186 63.9514 115.394 64.0274 115.53 64.1794C115.666 64.3234 115.734 64.4874 115.734 64.6714C115.734 64.8874 115.662 65.0554 115.518 65.1754C115.374 65.2874 115.21 65.3434 115.026 65.3434C114.874 65.3434 114.722 65.3034 114.57 65.2234C114.426 65.1434 114.318 65.0194 114.246 64.8514C113.974 64.8514 113.73 64.9594 113.514 65.1754C113.306 65.3834 113.202 65.6274 113.202 65.9074V68.4874C113.202 68.7994 113.218 69.0234 113.25 69.1594C113.29 69.2954 113.386 69.3834 113.538 69.4234C113.698 69.4554 113.954 69.4794 114.306 69.4954C114.322 69.6074 114.322 69.7314 114.306 69.8674C114.034 69.8674 113.754 69.8634 113.466 69.8554C113.178 69.8474 112.882 69.8434 112.578 69.8434C112.282 69.8434 112.018 69.8474 111.786 69.8554C111.562 69.8634 111.326 69.8674 111.078 69.8674ZM119.756 69.8674C119.74 69.7394 119.74 69.6154 119.756 69.4954C120.004 69.4794 120.188 69.4554 120.308 69.4234C120.428 69.3834 120.508 69.3034 120.548 69.1834C120.588 69.0634 120.608 68.8714 120.608 68.6074V66.1834C120.608 65.7034 120.532 65.3474 120.38 65.1154C120.236 64.8754 119.944 64.7554 119.504 64.7554C119.272 64.7554 119.048 64.7994 118.832 64.8874C118.616 64.9674 118.38 65.1234 118.124 65.3554V68.4874C118.124 68.7994 118.14 69.0234 118.172 69.1594C118.212 69.2954 118.292 69.3834 118.412 69.4234C118.532 69.4554 118.72 69.4794 118.976 69.4954C118.992 69.6154 118.992 69.7394 118.976 69.8674C118.752 69.8674 118.516 69.8634 118.268 69.8554C118.028 69.8474 117.768 69.8434 117.488 69.8434C117.232 69.8434 116.98 69.8474 116.732 69.8554C116.484 69.8634 116.24 69.8674 116 69.8674C115.976 69.7394 115.976 69.6154 116 69.4954C116.272 69.4794 116.472 69.4554 116.6 69.4234C116.728 69.3834 116.812 69.3034 116.852 69.1834C116.892 69.0634 116.912 68.8714 116.912 68.6074V65.9194C116.912 65.6074 116.896 65.3754 116.864 65.2234C116.84 65.0714 116.764 64.9674 116.636 64.9114C116.516 64.8474 116.308 64.7954 116.012 64.7554C115.988 64.6434 115.988 64.5394 116.012 64.4434C116.7 64.3074 117.332 64.1234 117.908 63.8914L118.112 63.9634V64.8634C118.48 64.5274 118.84 64.2914 119.192 64.1554C119.544 64.0194 119.88 63.9514 120.2 63.9514C120.728 63.9514 121.132 64.1074 121.412 64.4194C121.692 64.7314 121.832 65.1794 121.832 65.7634V68.4874C121.832 68.7994 121.848 69.0234 121.88 69.1594C121.92 69.2954 122 69.3834 122.12 69.4234C122.24 69.4554 122.432 69.4794 122.696 69.4954C122.712 69.6154 122.712 69.7394 122.696 69.8674C122.456 69.8674 122.22 69.8634 121.988 69.8554C121.764 69.8474 121.5 69.8434 121.196 69.8434C120.9 69.8434 120.64 69.8474 120.416 69.8554C120.2 69.8634 119.98 69.8674 119.756 69.8674ZM126.23 69.8674C126.006 69.8674 125.774 69.8634 125.534 69.8554C125.294 69.8474 125.034 69.8434 124.754 69.8434C124.498 69.8434 124.238 69.8474 123.974 69.8554C123.718 69.8634 123.47 69.8674 123.23 69.8674C123.206 69.7394 123.206 69.6154 123.23 69.4954C123.502 69.4794 123.702 69.4554 123.83 69.4234C123.958 69.3834 124.042 69.3034 124.082 69.1834C124.122 69.0634 124.142 68.8714 124.142 68.6074V65.9194C124.142 65.6074 124.13 65.3754 124.106 65.2234C124.082 65.0714 124.006 64.9674 123.878 64.9114C123.758 64.8474 123.546 64.7954 123.242 64.7554C123.218 64.6434 123.218 64.5394 123.242 64.4434C123.594 64.3794 123.93 64.2994 124.25 64.2034C124.57 64.1074 124.878 64.0034 125.174 63.8914L125.378 63.9634C125.37 64.2114 125.362 64.4434 125.354 64.6594C125.354 64.8754 125.354 65.0794 125.354 65.2714V68.4874C125.354 68.7994 125.37 69.0234 125.402 69.1594C125.442 69.2954 125.522 69.3834 125.642 69.4234C125.77 69.4554 125.966 69.4794 126.23 69.4954C126.254 69.6154 126.254 69.7394 126.23 69.8674ZM123.83 61.8514C123.83 61.6194 123.91 61.4234 124.07 61.2634C124.238 61.1034 124.438 61.0234 124.67 61.0234C124.894 61.0234 125.086 61.1034 125.246 61.2634C125.414 61.4234 125.498 61.6154 125.498 61.8394C125.498 62.0474 125.418 62.2394 125.258 62.4154C125.098 62.5834 124.894 62.6674 124.646 62.6674C124.422 62.6674 124.23 62.5874 124.07 62.4274C123.91 62.2674 123.83 62.0754 123.83 61.8514ZM130.56 69.8674C130.544 69.7394 130.544 69.6154 130.56 69.4954C130.808 69.4794 130.992 69.4554 131.112 69.4234C131.232 69.3834 131.312 69.3034 131.352 69.1834C131.392 69.0634 131.412 68.8714 131.412 68.6074V66.1834C131.412 65.7034 131.336 65.3474 131.184 65.1154C131.04 64.8754 130.748 64.7554 130.308 64.7554C130.076 64.7554 129.852 64.7994 129.636 64.8874C129.42 64.9674 129.184 65.1234 128.928 65.3554V68.4874C128.928 68.7994 128.944 69.0234 128.976 69.1594C129.016 69.2954 129.096 69.3834 129.216 69.4234C129.336 69.4554 129.524 69.4794 129.78 69.4954C129.796 69.6154 129.796 69.7394 129.78 69.8674C129.556 69.8674 129.32 69.8634 129.072 69.8554C128.832 69.8474 128.572 69.8434 128.292 69.8434C128.036 69.8434 127.784 69.8474 127.536 69.8554C127.288 69.8634 127.044 69.8674 126.804 69.8674C126.78 69.7394 126.78 69.6154 126.804 69.4954C127.076 69.4794 127.276 69.4554 127.404 69.4234C127.532 69.3834 127.616 69.3034 127.656 69.1834C127.696 69.0634 127.716 68.8714 127.716 68.6074V65.9194C127.716 65.6074 127.7 65.3754 127.668 65.2234C127.644 65.0714 127.568 64.9674 127.44 64.9114C127.32 64.8474 127.112 64.7954 126.816 64.7554C126.792 64.6434 126.792 64.5394 126.816 64.4434C127.504 64.3074 128.136 64.1234 128.712 63.8914L128.916 63.9634V64.8634C129.284 64.5274 129.644 64.2914 129.996 64.1554C130.348 64.0194 130.684 63.9514 131.004 63.9514C131.532 63.9514 131.936 64.1074 132.216 64.4194C132.496 64.7314 132.636 65.1794 132.636 65.7634V68.4874C132.636 68.7994 132.652 69.0234 132.684 69.1594C132.724 69.2954 132.804 69.3834 132.924 69.4234C133.044 69.4554 133.236 69.4794 133.5 69.4954C133.516 69.6154 133.516 69.7394 133.5 69.8674C133.26 69.8674 133.024 69.8634 132.792 69.8554C132.568 69.8474 132.304 69.8434 132 69.8434C131.704 69.8434 131.444 69.8474 131.22 69.8554C131.004 69.8634 130.784 69.8674 130.56 69.8674ZM136.387 72.9154C135.683 72.9154 135.115 72.7914 134.683 72.5434C134.251 72.2954 134.035 71.9514 134.035 71.5114C134.035 71.1674 134.155 70.8834 134.395 70.6594C134.635 70.4354 134.931 70.2114 135.283 69.9874C134.971 69.9154 134.735 69.7914 134.575 69.6154C134.415 69.4314 134.335 69.2154 134.335 68.9674C134.335 68.5354 134.651 68.0994 135.283 67.6594C135.019 67.4914 134.807 67.2754 134.647 67.0114C134.487 66.7394 134.407 66.4274 134.407 66.0754C134.407 65.6354 134.519 65.2594 134.743 64.9474C134.975 64.6274 135.275 64.3834 135.643 64.2154C136.019 64.0394 136.419 63.9514 136.843 63.9514C137.467 63.9514 137.987 64.1234 138.403 64.4674C138.835 64.1234 139.259 63.9514 139.675 63.9514C139.883 63.9514 140.047 63.9994 140.167 64.0954C140.287 64.1834 140.347 64.3154 140.347 64.4914C140.347 64.6674 140.291 64.8074 140.179 64.9114C140.067 65.0154 139.931 65.0674 139.771 65.0674C139.619 65.0674 139.487 65.0234 139.375 64.9354C139.271 64.8394 139.203 64.7074 139.171 64.5394C139.059 64.5634 138.967 64.5914 138.895 64.6234C138.831 64.6554 138.755 64.6994 138.667 64.7554C138.939 65.0994 139.075 65.5074 139.075 65.9794C139.075 66.4194 138.967 66.7954 138.751 67.1074C138.535 67.4114 138.247 67.6474 137.887 67.8154C137.535 67.9754 137.147 68.0554 136.723 68.0554C136.323 68.0554 135.951 67.9834 135.607 67.8394C135.407 68.0394 135.307 68.2514 135.307 68.4754C135.307 68.6754 135.383 68.8034 135.535 68.8594C135.687 68.9074 135.967 68.9314 136.375 68.9314C136.559 68.9314 136.779 68.9314 137.035 68.9314C137.291 68.9234 137.479 68.9194 137.599 68.9194C138.399 68.9194 138.975 69.0634 139.327 69.3514C139.679 69.6314 139.855 70.0194 139.855 70.5154C139.855 70.9074 139.759 71.2514 139.567 71.5474C139.375 71.8514 139.115 72.1034 138.787 72.3034C138.459 72.5114 138.087 72.6634 137.671 72.7594C137.263 72.8634 136.835 72.9154 136.387 72.9154ZM135.799 70.0474C135.367 70.4074 135.151 70.7874 135.151 71.1874C135.151 71.4674 135.235 71.6954 135.403 71.8714C135.571 72.0474 135.791 72.1754 136.063 72.2554C136.335 72.3354 136.623 72.3754 136.927 72.3754C137.199 72.3754 137.483 72.3354 137.779 72.2554C138.075 72.1754 138.327 72.0314 138.535 71.8234C138.743 71.6234 138.847 71.3394 138.847 70.9714C138.847 70.6354 138.727 70.3954 138.487 70.2514C138.255 70.1074 137.819 70.0354 137.179 70.0354C137.027 70.0354 136.839 70.0354 136.615 70.0354C136.391 70.0434 136.143 70.0474 135.871 70.0474C135.847 70.0474 135.823 70.0474 135.799 70.0474ZM136.747 67.6354C137.099 67.6354 137.367 67.4954 137.551 67.2154C137.743 66.9274 137.839 66.5314 137.839 66.0274C137.839 65.5154 137.743 65.1114 137.551 64.8154C137.359 64.5194 137.079 64.3714 136.711 64.3714C136.367 64.3714 136.099 64.5114 135.907 64.7914C135.723 65.0634 135.631 65.4514 135.631 65.9554C135.631 66.4674 135.727 66.8754 135.919 67.1794C136.119 67.4834 136.395 67.6354 136.747 67.6354ZM148.706 68.0314L151.274 61.4554C151.442 61.4634 151.618 61.4674 151.802 61.4674C151.986 61.4674 152.142 61.4674 152.27 61.4674C152.334 61.4674 152.45 61.4674 152.618 61.4674C152.794 61.4594 152.982 61.4554 153.182 61.4554C153.39 61.4554 153.578 61.4554 153.746 61.4554C153.922 61.4474 154.042 61.4434 154.106 61.4434C154.13 61.5634 154.13 61.6874 154.106 61.8154H154.082C153.714 61.8554 153.446 61.8954 153.278 61.9354C153.11 61.9674 153.006 62.0474 152.966 62.1754C152.934 62.2954 152.918 62.4954 152.918 62.7754L153.014 68.3794C153.014 68.6274 153.022 68.8234 153.038 68.9674C153.054 69.1114 153.098 69.2154 153.17 69.2794C153.242 69.3434 153.358 69.3914 153.518 69.4234C153.678 69.4474 153.906 69.4714 154.202 69.4954C154.226 69.6154 154.226 69.7394 154.202 69.8674C154.138 69.8674 154.018 69.8634 153.842 69.8554C153.674 69.8554 153.486 69.8554 153.278 69.8554C153.078 69.8554 152.89 69.8554 152.714 69.8554C152.546 69.8474 152.43 69.8434 152.366 69.8434C152.302 69.8434 152.186 69.8474 152.018 69.8554C151.85 69.8554 151.666 69.8554 151.466 69.8554C151.266 69.8554 151.082 69.8554 150.914 69.8554C150.746 69.8634 150.63 69.8674 150.566 69.8674C150.558 69.7474 150.558 69.6234 150.566 69.4954H150.59C150.942 69.4554 151.198 69.4194 151.358 69.3874C151.518 69.3474 151.614 69.2674 151.646 69.1474C151.686 69.0194 151.706 68.8154 151.706 68.5354L151.598 62.1034L148.574 69.8434C148.518 69.8674 148.43 69.8834 148.31 69.8914C148.19 69.8994 148.086 69.9034 147.998 69.9034L145.154 62.3554L144.962 68.5354C144.954 68.7994 144.966 68.9914 144.998 69.1114C145.03 69.2234 145.126 69.3034 145.286 69.3514C145.446 69.3994 145.714 69.4474 146.09 69.4954C146.122 69.6234 146.122 69.7474 146.09 69.8674C146.01 69.8674 145.87 69.8634 145.67 69.8554C145.478 69.8554 145.282 69.8554 145.082 69.8554C144.89 69.8474 144.75 69.8434 144.662 69.8434C144.614 69.8434 144.518 69.8474 144.374 69.8554C144.238 69.8554 144.086 69.8554 143.918 69.8554C143.75 69.8554 143.594 69.8554 143.45 69.8554C143.314 69.8634 143.222 69.8674 143.174 69.8674C143.158 69.7394 143.158 69.6154 143.174 69.4954C143.55 69.4474 143.818 69.3994 143.978 69.3514C144.138 69.3034 144.238 69.2074 144.278 69.0634C144.326 68.9194 144.354 68.6914 144.362 68.3794L144.59 62.7754C144.606 62.4954 144.594 62.2954 144.554 62.1754C144.514 62.0554 144.406 61.9754 144.23 61.9354C144.062 61.8874 143.782 61.8474 143.39 61.8154C143.382 61.6874 143.382 61.5634 143.39 61.4434C143.662 61.4434 143.942 61.4474 144.23 61.4554C144.518 61.4634 144.838 61.4674 145.19 61.4674C145.31 61.4674 145.47 61.4674 145.67 61.4674C145.87 61.4674 146.054 61.4634 146.222 61.4554L148.706 68.0314ZM159.143 69.9754C158.615 69.9754 158.283 69.7114 158.147 69.1834C157.579 69.7274 156.999 69.9994 156.407 69.9994C155.999 69.9994 155.651 69.8794 155.363 69.6394C155.083 69.3914 154.943 69.0514 154.943 68.6194C154.943 67.5634 156.019 66.8994 158.171 66.6274C158.171 66.4354 158.171 66.2394 158.171 66.0394C158.179 65.8394 158.183 65.6274 158.183 65.4034C158.183 65.1234 158.079 64.9074 157.871 64.7554C157.671 64.5954 157.427 64.5154 157.139 64.5154C156.931 64.5154 156.755 64.5474 156.611 64.6114C156.611 64.7954 156.571 64.9834 156.491 65.1754C156.411 65.3674 156.299 65.5314 156.155 65.6674C156.019 65.7954 155.851 65.8594 155.651 65.8594C155.475 65.8594 155.335 65.8114 155.231 65.7154C155.135 65.6114 155.087 65.4874 155.087 65.3434C155.087 65.1514 155.175 64.9714 155.351 64.8034C155.535 64.6274 155.767 64.4794 156.047 64.3594C156.327 64.2314 156.619 64.1314 156.923 64.0594C157.227 63.9874 157.499 63.9514 157.739 63.9514C158.035 63.9514 158.307 64.0074 158.555 64.1194C158.811 64.2234 159.015 64.3834 159.167 64.5994C159.327 64.8074 159.407 65.0674 159.407 65.3794C159.407 65.5714 159.403 65.8234 159.395 66.1354C159.387 66.4394 159.379 66.7674 159.371 67.1194C159.371 67.4634 159.367 67.7914 159.359 68.1034C159.351 68.4154 159.347 68.6674 159.347 68.8594C159.347 69.1154 159.459 69.2434 159.683 69.2434C159.827 69.2434 160.047 69.1954 160.343 69.0994C160.375 69.1394 160.395 69.1834 160.403 69.2314C160.419 69.2794 160.431 69.3234 160.439 69.3634C160.239 69.5794 160.027 69.7354 159.803 69.8314C159.587 69.9274 159.367 69.9754 159.143 69.9754ZM158.147 68.8594L158.171 67.0594C157.435 67.1554 156.927 67.3114 156.647 67.5274C156.375 67.7434 156.239 68.0194 156.239 68.3554C156.239 68.6354 156.311 68.8514 156.455 69.0034C156.607 69.1474 156.795 69.2194 157.019 69.2194C157.163 69.2194 157.323 69.1874 157.499 69.1234C157.683 69.0594 157.899 68.9714 158.147 68.8594ZM164.545 69.8674C164.529 69.7394 164.529 69.6154 164.545 69.4954C164.793 69.4794 164.977 69.4554 165.097 69.4234C165.217 69.3834 165.297 69.3034 165.337 69.1834C165.377 69.0634 165.397 68.8714 165.397 68.6074V66.1834C165.397 65.7034 165.321 65.3474 165.169 65.1154C165.025 64.8754 164.733 64.7554 164.293 64.7554C164.061 64.7554 163.837 64.7994 163.621 64.8874C163.405 64.9674 163.169 65.1234 162.913 65.3554V68.4874C162.913 68.7994 162.929 69.0234 162.961 69.1594C163.001 69.2954 163.081 69.3834 163.201 69.4234C163.321 69.4554 163.509 69.4794 163.765 69.4954C163.781 69.6154 163.781 69.7394 163.765 69.8674C163.541 69.8674 163.305 69.8634 163.057 69.8554C162.817 69.8474 162.557 69.8434 162.277 69.8434C162.021 69.8434 161.769 69.8474 161.521 69.8554C161.273 69.8634 161.029 69.8674 160.789 69.8674C160.765 69.7394 160.765 69.6154 160.789 69.4954C161.061 69.4794 161.261 69.4554 161.389 69.4234C161.517 69.3834 161.601 69.3034 161.641 69.1834C161.681 69.0634 161.701 68.8714 161.701 68.6074V65.9194C161.701 65.6074 161.685 65.3754 161.653 65.2234C161.629 65.0714 161.553 64.9674 161.425 64.9114C161.305 64.8474 161.097 64.7954 160.801 64.7554C160.777 64.6434 160.777 64.5394 160.801 64.4434C161.489 64.3074 162.121 64.1234 162.697 63.8914L162.901 63.9634V64.8634C163.269 64.5274 163.629 64.2914 163.981 64.1554C164.333 64.0194 164.669 63.9514 164.989 63.9514C165.517 63.9514 165.921 64.1074 166.201 64.4194C166.481 64.7314 166.621 65.1794 166.621 65.7634V68.4874C166.621 68.7994 166.637 69.0234 166.669 69.1594C166.709 69.2954 166.789 69.3834 166.909 69.4234C167.029 69.4554 167.221 69.4794 167.485 69.4954C167.501 69.6154 167.501 69.7394 167.485 69.8674C167.245 69.8674 167.009 69.8634 166.777 69.8554C166.553 69.8474 166.289 69.8434 165.985 69.8434C165.689 69.8434 165.429 69.8474 165.205 69.8554C164.989 69.8634 164.769 69.8674 164.545 69.8674ZM172.291 69.9754C171.763 69.9754 171.431 69.7114 171.295 69.1834C170.727 69.7274 170.147 69.9994 169.555 69.9994C169.147 69.9994 168.799 69.8794 168.511 69.6394C168.231 69.3914 168.091 69.0514 168.091 68.6194C168.091 67.5634 169.167 66.8994 171.319 66.6274C171.319 66.4354 171.319 66.2394 171.319 66.0394C171.327 65.8394 171.331 65.6274 171.331 65.4034C171.331 65.1234 171.227 64.9074 171.019 64.7554C170.819 64.5954 170.575 64.5154 170.287 64.5154C170.079 64.5154 169.903 64.5474 169.759 64.6114C169.759 64.7954 169.719 64.9834 169.639 65.1754C169.559 65.3674 169.447 65.5314 169.303 65.6674C169.167 65.7954 168.999 65.8594 168.799 65.8594C168.623 65.8594 168.483 65.8114 168.379 65.7154C168.283 65.6114 168.235 65.4874 168.235 65.3434C168.235 65.1514 168.323 64.9714 168.499 64.8034C168.683 64.6274 168.915 64.4794 169.195 64.3594C169.475 64.2314 169.767 64.1314 170.071 64.0594C170.375 63.9874 170.647 63.9514 170.887 63.9514C171.183 63.9514 171.455 64.0074 171.703 64.1194C171.959 64.2234 172.163 64.3834 172.315 64.5994C172.475 64.8074 172.555 65.0674 172.555 65.3794C172.555 65.5714 172.551 65.8234 172.543 66.1354C172.535 66.4394 172.527 66.7674 172.519 67.1194C172.519 67.4634 172.515 67.7914 172.507 68.1034C172.499 68.4154 172.495 68.6674 172.495 68.8594C172.495 69.1154 172.607 69.2434 172.831 69.2434C172.975 69.2434 173.195 69.1954 173.491 69.0994C173.523 69.1394 173.543 69.1834 173.551 69.2314C173.567 69.2794 173.579 69.3234 173.587 69.3634C173.387 69.5794 173.175 69.7354 172.951 69.8314C172.735 69.9274 172.515 69.9754 172.291 69.9754ZM171.295 68.8594L171.319 67.0594C170.583 67.1554 170.075 67.3114 169.795 67.5274C169.523 67.7434 169.387 68.0194 169.387 68.3554C169.387 68.6354 169.459 68.8514 169.603 69.0034C169.755 69.1474 169.943 69.2194 170.167 69.2194C170.311 69.2194 170.471 69.1874 170.647 69.1234C170.831 69.0594 171.047 68.9714 171.295 68.8594ZM176.289 72.9154C175.585 72.9154 175.017 72.7914 174.585 72.5434C174.153 72.2954 173.937 71.9514 173.937 71.5114C173.937 71.1674 174.057 70.8834 174.297 70.6594C174.537 70.4354 174.833 70.2114 175.185 69.9874C174.873 69.9154 174.637 69.7914 174.477 69.6154C174.317 69.4314 174.237 69.2154 174.237 68.9674C174.237 68.5354 174.553 68.0994 175.185 67.6594C174.921 67.4914 174.709 67.2754 174.549 67.0114C174.389 66.7394 174.309 66.4274 174.309 66.0754C174.309 65.6354 174.421 65.2594 174.645 64.9474C174.877 64.6274 175.177 64.3834 175.545 64.2154C175.921 64.0394 176.321 63.9514 176.745 63.9514C177.369 63.9514 177.889 64.1234 178.305 64.4674C178.737 64.1234 179.161 63.9514 179.577 63.9514C179.785 63.9514 179.949 63.9994 180.069 64.0954C180.189 64.1834 180.249 64.3154 180.249 64.4914C180.249 64.6674 180.193 64.8074 180.081 64.9114C179.969 65.0154 179.833 65.0674 179.673 65.0674C179.521 65.0674 179.389 65.0234 179.277 64.9354C179.173 64.8394 179.105 64.7074 179.073 64.5394C178.961 64.5634 178.869 64.5914 178.797 64.6234C178.733 64.6554 178.657 64.6994 178.569 64.7554C178.841 65.0994 178.977 65.5074 178.977 65.9794C178.977 66.4194 178.869 66.7954 178.653 67.1074C178.437 67.4114 178.149 67.6474 177.789 67.8154C177.437 67.9754 177.049 68.0554 176.625 68.0554C176.225 68.0554 175.853 67.9834 175.509 67.8394C175.309 68.0394 175.209 68.2514 175.209 68.4754C175.209 68.6754 175.285 68.8034 175.437 68.8594C175.589 68.9074 175.869 68.9314 176.277 68.9314C176.461 68.9314 176.681 68.9314 176.937 68.9314C177.193 68.9234 177.381 68.9194 177.501 68.9194C178.301 68.9194 178.877 69.0634 179.229 69.3514C179.581 69.6314 179.757 70.0194 179.757 70.5154C179.757 70.9074 179.661 71.2514 179.469 71.5474C179.277 71.8514 179.017 72.1034 178.689 72.3034C178.361 72.5114 177.989 72.6634 177.573 72.7594C177.165 72.8634 176.737 72.9154 176.289 72.9154ZM175.701 70.0474C175.269 70.4074 175.053 70.7874 175.053 71.1874C175.053 71.4674 175.137 71.6954 175.305 71.8714C175.473 72.0474 175.693 72.1754 175.965 72.2554C176.237 72.3354 176.525 72.3754 176.829 72.3754C177.101 72.3754 177.385 72.3354 177.681 72.2554C177.977 72.1754 178.229 72.0314 178.437 71.8234C178.645 71.6234 178.749 71.3394 178.749 70.9714C178.749 70.6354 178.629 70.3954 178.389 70.2514C178.157 70.1074 177.721 70.0354 177.081 70.0354C176.929 70.0354 176.741 70.0354 176.517 70.0354C176.293 70.0434 176.045 70.0474 175.773 70.0474C175.749 70.0474 175.725 70.0474 175.701 70.0474ZM176.649 67.6354C177.001 67.6354 177.269 67.4954 177.453 67.2154C177.645 66.9274 177.741 66.5314 177.741 66.0274C177.741 65.5154 177.645 65.1114 177.453 64.8154C177.261 64.5194 176.981 64.3714 176.613 64.3714C176.269 64.3714 176.001 64.5114 175.809 64.7914C175.625 65.0634 175.533 65.4514 175.533 65.9554C175.533 66.4674 175.629 66.8754 175.821 67.1794C176.021 67.4834 176.297 67.6354 176.649 67.6354ZM183.178 69.9994C182.61 69.9994 182.13 69.8674 181.738 69.6034C181.346 69.3394 181.046 68.9874 180.838 68.5474C180.638 68.0994 180.538 67.6074 180.538 67.0714C180.538 66.5194 180.642 66.0074 180.85 65.5354C181.066 65.0634 181.378 64.6834 181.786 64.3954C182.194 64.0994 182.69 63.9514 183.274 63.9514C183.978 63.9514 184.526 64.1634 184.918 64.5874C185.318 65.0034 185.518 65.5434 185.518 66.2074C185.518 66.2874 185.514 66.3594 185.506 66.4234C185.506 66.4794 185.502 66.5274 185.494 66.5674L181.714 66.5314C181.714 66.5634 181.714 66.5914 181.714 66.6154C181.714 67.3994 181.894 68.0154 182.254 68.4634C182.614 68.9114 183.118 69.1354 183.766 69.1354C184.31 69.1354 184.846 68.9594 185.374 68.6074C185.454 68.7034 185.514 68.7954 185.554 68.8834C184.874 69.6274 184.082 69.9994 183.178 69.9994ZM181.75 66.0874L184.234 66.0394C184.242 66.0234 184.246 66.0034 184.246 65.9794C184.246 65.9474 184.246 65.9274 184.246 65.9194C184.246 65.4874 184.15 65.1274 183.958 64.8394C183.774 64.5514 183.498 64.4074 183.13 64.4074C182.786 64.4074 182.486 64.5474 182.23 64.8274C181.974 65.1074 181.814 65.5274 181.75 66.0874ZM193.643 69.8674C193.619 69.7394 193.619 69.6154 193.643 69.4954C193.883 69.4794 194.063 69.4554 194.183 69.4234C194.303 69.3834 194.383 69.3034 194.423 69.1834C194.471 69.0634 194.495 68.8714 194.495 68.6074V66.1834C194.495 65.7114 194.423 65.3554 194.279 65.1154C194.143 64.8754 193.859 64.7554 193.427 64.7554C192.891 64.7554 192.435 64.9554 192.059 65.3554C192.075 65.4834 192.083 65.6194 192.083 65.7634V68.4874C192.083 68.7994 192.099 69.0234 192.131 69.1594C192.171 69.2954 192.251 69.3834 192.371 69.4234C192.491 69.4554 192.675 69.4794 192.923 69.4954C192.939 69.6154 192.939 69.7394 192.923 69.8674C192.699 69.8674 192.475 69.8634 192.251 69.8554C192.027 69.8474 191.763 69.8434 191.459 69.8434C191.163 69.8434 190.903 69.8474 190.679 69.8554C190.463 69.8634 190.255 69.8674 190.055 69.8674C190.031 69.7394 190.031 69.6154 190.055 69.4954C190.287 69.4794 190.459 69.4554 190.571 69.4234C190.691 69.3834 190.771 69.3034 190.811 69.1834C190.851 69.0634 190.871 68.8714 190.871 68.6074V66.1834C190.871 65.7114 190.803 65.3554 190.667 65.1154C190.531 64.8754 190.243 64.7554 189.803 64.7554C189.299 64.7554 188.859 64.9594 188.483 65.3674V68.4874C188.483 68.7994 188.499 69.0234 188.531 69.1594C188.571 69.2954 188.651 69.3834 188.771 69.4234C188.899 69.4554 189.091 69.4794 189.347 69.4954C189.363 69.6154 189.363 69.7394 189.347 69.8674C189.123 69.8674 188.891 69.8634 188.651 69.8554C188.419 69.8474 188.151 69.8434 187.847 69.8434C187.559 69.8434 187.299 69.8474 187.067 69.8554C186.835 69.8634 186.599 69.8674 186.359 69.8674C186.335 69.7394 186.335 69.6154 186.359 69.4954C186.631 69.4794 186.831 69.4554 186.959 69.4234C187.087 69.3834 187.171 69.3034 187.211 69.1834C187.251 69.0634 187.271 68.8714 187.271 68.6074V65.9194C187.271 65.6074 187.255 65.3754 187.223 65.2234C187.199 65.0714 187.123 64.9674 186.995 64.9114C186.875 64.8474 186.667 64.7954 186.371 64.7554C186.347 64.6434 186.347 64.5394 186.371 64.4434C186.707 64.3794 187.031 64.3034 187.343 64.2154C187.655 64.1274 187.963 64.0194 188.267 63.8914L188.471 63.9634V64.8514C189.119 64.2514 189.795 63.9514 190.499 63.9514C190.939 63.9514 191.271 64.0434 191.495 64.2274C191.719 64.4114 191.875 64.6394 191.963 64.9114C192.307 64.5834 192.659 64.3434 193.019 64.1914C193.379 64.0314 193.743 63.9514 194.111 63.9514C194.639 63.9514 195.035 64.1074 195.299 64.4194C195.571 64.7314 195.707 65.1794 195.707 65.7634V68.4874C195.707 68.7994 195.723 69.0234 195.755 69.1594C195.787 69.2954 195.863 69.3834 195.983 69.4234C196.103 69.4554 196.287 69.4794 196.535 69.4954C196.559 69.6154 196.559 69.7394 196.535 69.8674C196.311 69.8674 196.087 69.8634 195.863 69.8554C195.639 69.8474 195.379 69.8434 195.083 69.8434C194.779 69.8434 194.511 69.8474 194.279 69.8554C194.055 69.8634 193.843 69.8674 193.643 69.8674ZM199.901 69.9994C199.333 69.9994 198.853 69.8674 198.461 69.6034C198.069 69.3394 197.769 68.9874 197.561 68.5474C197.361 68.0994 197.261 67.6074 197.261 67.0714C197.261 66.5194 197.365 66.0074 197.573 65.5354C197.789 65.0634 198.101 64.6834 198.509 64.3954C198.917 64.0994 199.413 63.9514 199.997 63.9514C200.701 63.9514 201.249 64.1634 201.641 64.5874C202.041 65.0034 202.241 65.5434 202.241 66.2074C202.241 66.2874 202.237 66.3594 202.229 66.4234C202.229 66.4794 202.225 66.5274 202.217 66.5674L198.437 66.5314C198.437 66.5634 198.437 66.5914 198.437 66.6154C198.437 67.3994 198.617 68.0154 198.977 68.4634C199.337 68.9114 199.841 69.1354 200.489 69.1354C201.033 69.1354 201.569 68.9594 202.097 68.6074C202.177 68.7034 202.237 68.7954 202.277 68.8834C201.597 69.6274 200.805 69.9994 199.901 69.9994ZM198.473 66.0874L200.957 66.0394C200.965 66.0234 200.969 66.0034 200.969 65.9794C200.969 65.9474 200.969 65.9274 200.969 65.9194C200.969 65.4874 200.873 65.1274 200.681 64.8394C200.497 64.5514 200.221 64.4074 199.853 64.4074C199.509 64.4074 199.209 64.5474 198.953 64.8274C198.697 65.1074 198.537 65.5274 198.473 66.0874ZM206.838 69.8674C206.822 69.7394 206.822 69.6154 206.838 69.4954C207.086 69.4794 207.27 69.4554 207.39 69.4234C207.51 69.3834 207.59 69.3034 207.63 69.1834C207.67 69.0634 207.69 68.8714 207.69 68.6074V66.1834C207.69 65.7034 207.614 65.3474 207.462 65.1154C207.318 64.8754 207.026 64.7554 206.586 64.7554C206.354 64.7554 206.13 64.7994 205.914 64.8874C205.698 64.9674 205.462 65.1234 205.206 65.3554V68.4874C205.206 68.7994 205.222 69.0234 205.254 69.1594C205.294 69.2954 205.374 69.3834 205.494 69.4234C205.614 69.4554 205.802 69.4794 206.058 69.4954C206.074 69.6154 206.074 69.7394 206.058 69.8674C205.834 69.8674 205.598 69.8634 205.35 69.8554C205.11 69.8474 204.85 69.8434 204.57 69.8434C204.314 69.8434 204.062 69.8474 203.814 69.8554C203.566 69.8634 203.322 69.8674 203.082 69.8674C203.058 69.7394 203.058 69.6154 203.082 69.4954C203.354 69.4794 203.554 69.4554 203.682 69.4234C203.81 69.3834 203.894 69.3034 203.934 69.1834C203.974 69.0634 203.994 68.8714 203.994 68.6074V65.9194C203.994 65.6074 203.978 65.3754 203.946 65.2234C203.922 65.0714 203.846 64.9674 203.718 64.9114C203.598 64.8474 203.39 64.7954 203.094 64.7554C203.07 64.6434 203.07 64.5394 203.094 64.4434C203.782 64.3074 204.414 64.1234 204.99 63.8914L205.194 63.9634V64.8634C205.562 64.5274 205.922 64.2914 206.274 64.1554C206.626 64.0194 206.962 63.9514 207.282 63.9514C207.81 63.9514 208.214 64.1074 208.494 64.4194C208.774 64.7314 208.914 65.1794 208.914 65.7634V68.4874C208.914 68.7994 208.93 69.0234 208.962 69.1594C209.002 69.2954 209.082 69.3834 209.202 69.4234C209.322 69.4554 209.514 69.4794 209.778 69.4954C209.794 69.6154 209.794 69.7394 209.778 69.8674C209.538 69.8674 209.302 69.8634 209.07 69.8554C208.846 69.8474 208.582 69.8434 208.278 69.8434C207.982 69.8434 207.722 69.8474 207.498 69.8554C207.282 69.8634 207.062 69.8674 206.838 69.8674ZM212.616 69.9994C212.136 69.9994 211.756 69.8874 211.476 69.6634C211.196 69.4314 211.056 69.0994 211.056 68.6674C211.056 67.9634 211.06 67.2834 211.068 66.6274C211.084 65.9714 211.096 65.3394 211.104 64.7314H210.192C210.168 64.6114 210.168 64.5034 210.192 64.4074C210.984 64.0714 211.58 63.5234 211.98 62.7634C212.044 62.7634 212.108 62.7674 212.172 62.7754C212.236 62.7754 212.292 62.7794 212.34 62.7874C212.332 62.9954 212.324 63.2154 212.316 63.4474C212.316 63.6794 212.312 63.9234 212.304 64.1794H214.128C214.152 64.3554 214.152 64.5394 214.128 64.7314H212.304C212.288 65.2914 212.276 65.8834 212.268 66.5074C212.268 67.1234 212.268 67.7434 212.268 68.3674C212.268 69.0154 212.604 69.3394 213.276 69.3394C213.564 69.3394 213.832 69.2634 214.08 69.1114C214.152 69.2074 214.196 69.3274 214.212 69.4714C213.74 69.8234 213.208 69.9994 212.616 69.9994ZM220.045 70.0234C220.037 70.0234 219.905 70.0154 219.649 69.9994C219.401 69.9914 219.113 69.9594 218.785 69.9034C218.513 69.8554 218.265 69.8234 218.041 69.8074C217.825 69.7834 217.693 69.7714 217.645 69.7714C217.637 69.1074 217.601 68.3034 217.537 67.3594C217.601 67.3514 217.665 67.3474 217.729 67.3474C217.801 67.3474 217.865 67.3474 217.921 67.3474C218.073 68.0514 218.325 68.5954 218.677 68.9794C219.037 69.3634 219.509 69.5554 220.093 69.5554C220.613 69.5554 221.037 69.4154 221.365 69.1354C221.693 68.8474 221.857 68.4714 221.857 68.0074C221.857 67.6554 221.765 67.3674 221.581 67.1434C221.405 66.9194 221.169 66.7314 220.873 66.5794C220.585 66.4194 220.277 66.2714 219.949 66.1354C219.565 65.9674 219.197 65.7914 218.845 65.6074C218.501 65.4154 218.217 65.1714 217.993 64.8754C217.769 64.5794 217.657 64.1954 217.657 63.7234C217.657 63.2194 217.781 62.7874 218.029 62.4274C218.285 62.0674 218.625 61.7954 219.049 61.6114C219.473 61.4194 219.941 61.3234 220.453 61.3234C220.613 61.3234 220.777 61.3314 220.945 61.3474C221.121 61.3634 221.301 61.3874 221.485 61.4194C221.717 61.4514 221.893 61.4714 222.013 61.4794C222.141 61.4874 222.225 61.4914 222.265 61.4914C222.289 61.4914 222.333 61.4914 222.397 61.4914C222.461 61.4834 222.513 61.4754 222.553 61.4674C222.569 61.8194 222.585 62.1834 222.601 62.5594C222.617 62.9354 222.641 63.3274 222.673 63.7354C222.513 63.7594 222.381 63.7674 222.277 63.7594C222.093 63.0634 221.865 62.5634 221.593 62.2594C221.321 61.9474 220.933 61.7914 220.429 61.7914C219.989 61.7914 219.613 61.9114 219.301 62.1514C218.989 62.3834 218.833 62.7314 218.833 63.1954C218.833 63.4434 218.889 63.6634 219.001 63.8554C219.121 64.0474 219.317 64.2314 219.589 64.4074C219.861 64.5834 220.237 64.7714 220.717 64.9714C220.981 65.0834 221.245 65.2074 221.509 65.3434C221.781 65.4794 222.029 65.6434 222.253 65.8354C222.477 66.0194 222.657 66.2474 222.793 66.5194C222.929 66.7834 222.997 67.0994 222.997 67.4674C222.997 68.0114 222.861 68.4754 222.589 68.8594C222.317 69.2354 221.957 69.5234 221.509 69.7234C221.069 69.9234 220.581 70.0234 220.045 70.0234ZM224.546 72.9154C224.33 72.9154 224.162 72.8514 224.042 72.7234C223.93 72.6034 223.874 72.4594 223.874 72.2914C223.874 72.0674 223.994 71.8474 224.234 71.6314C224.474 71.4234 224.866 71.3194 225.41 71.3194C225.514 71.1354 225.614 70.9354 225.71 70.7194C225.814 70.5114 225.934 70.2514 226.07 69.9394C225.982 69.7154 225.87 69.4274 225.734 69.0754C225.598 68.7234 225.442 68.3354 225.266 67.9114C225.098 67.4794 224.926 67.0354 224.75 66.5794C224.574 66.1154 224.402 65.6674 224.234 65.2354C224.138 64.9794 224.03 64.8034 223.91 64.7074C223.798 64.6114 223.578 64.5474 223.25 64.5154C223.226 64.4034 223.226 64.2794 223.25 64.1434C223.482 64.1434 223.718 64.1474 223.958 64.1554C224.198 64.1634 224.446 64.1674 224.702 64.1674C224.934 64.1674 225.186 64.1634 225.458 64.1554C225.73 64.1474 225.962 64.1434 226.154 64.1434C226.17 64.2634 226.17 64.3874 226.154 64.5154C225.882 64.5314 225.69 64.5594 225.578 64.5994C225.474 64.6394 225.422 64.7194 225.422 64.8394C225.422 64.9514 225.462 65.1234 225.542 65.3554C225.75 65.9234 225.95 66.4474 226.142 66.9274C226.342 67.4074 226.542 67.8994 226.742 68.4034C226.998 67.8194 227.222 67.2954 227.414 66.8314C227.614 66.3674 227.814 65.8834 228.014 65.3794C228.102 65.1474 228.146 64.9754 228.146 64.8634C228.146 64.7514 228.086 64.6714 227.966 64.6234C227.846 64.5754 227.634 64.5394 227.33 64.5154C227.306 64.3874 227.306 64.2634 227.33 64.1434C227.53 64.1434 227.734 64.1474 227.942 64.1554C228.158 64.1634 228.386 64.1674 228.626 64.1674C228.786 64.1674 228.958 64.1634 229.142 64.1554C229.334 64.1474 229.506 64.1434 229.658 64.1434C229.682 64.2634 229.682 64.3874 229.658 64.5154C229.322 64.5394 229.094 64.6154 228.974 64.7434C228.854 64.8634 228.742 65.0474 228.638 65.2954L226.586 70.0834C226.546 70.1794 226.474 70.3394 226.37 70.5634C226.266 70.7954 226.154 71.0314 226.034 71.2714C225.922 71.5194 225.826 71.7234 225.746 71.8834C225.546 72.2754 225.35 72.5434 225.158 72.6874C224.966 72.8394 224.762 72.9154 224.546 72.9154ZM230.282 67.9594C230.402 68.4874 230.594 68.8914 230.858 69.1714C231.122 69.4434 231.462 69.5794 231.878 69.5794C232.19 69.5794 232.454 69.5074 232.67 69.3634C232.886 69.2114 232.994 68.9754 232.994 68.6554C232.994 68.4154 232.934 68.2234 232.814 68.0794C232.702 67.9354 232.542 67.8154 232.334 67.7194C232.134 67.6154 231.906 67.5114 231.65 67.4074C231.354 67.2874 231.074 67.1594 230.81 67.0234C230.554 66.8794 230.342 66.7034 230.174 66.4954C230.014 66.2794 229.934 66.0034 229.934 65.6674C229.934 65.2834 230.034 64.9674 230.234 64.7194C230.442 64.4634 230.706 64.2714 231.026 64.1434C231.354 64.0154 231.702 63.9514 232.07 63.9514C232.254 63.9514 232.438 63.9634 232.622 63.9874C232.806 64.0114 232.906 64.0234 232.922 64.0234C233.082 64.0474 233.23 64.0634 233.366 64.0714C233.502 64.0714 233.574 64.0714 233.582 64.0714C233.59 64.0714 233.606 64.0714 233.63 64.0714C233.662 64.0714 233.702 64.0674 233.75 64.0594C233.75 64.3154 233.754 64.5754 233.762 64.8394C233.77 65.1034 233.786 65.3834 233.81 65.6794C233.802 65.6794 233.786 65.6794 233.762 65.6794C233.69 65.6874 233.622 65.6954 233.558 65.7034C233.502 65.7034 233.446 65.6994 233.39 65.6914C233.286 65.2434 233.13 64.9194 232.922 64.7194C232.722 64.5114 232.438 64.4074 232.07 64.4074C231.742 64.4074 231.478 64.4794 231.278 64.6234C231.086 64.7674 230.99 64.9674 230.99 65.2234C230.99 65.4314 231.054 65.6034 231.182 65.7394C231.31 65.8674 231.466 65.9754 231.65 66.0634C231.834 66.1514 232.01 66.2274 232.178 66.2914C232.49 66.4114 232.786 66.5474 233.066 66.6994C233.354 66.8434 233.586 67.0314 233.762 67.2634C233.946 67.4954 234.038 67.8074 234.038 68.1994C234.038 68.6154 233.93 68.9594 233.714 69.2314C233.506 69.4954 233.238 69.6914 232.91 69.8194C232.582 69.9394 232.238 69.9994 231.878 69.9994C231.67 69.9994 231.462 69.9834 231.254 69.9514C231.054 69.9194 230.946 69.9034 230.93 69.9034C230.914 69.9034 230.846 69.8954 230.726 69.8794C230.614 69.8634 230.486 69.8474 230.342 69.8314C230.206 69.8154 230.086 69.8074 229.982 69.8074C229.982 69.5594 229.97 69.2834 229.946 68.9794C229.93 68.6754 229.91 68.3394 229.886 67.9714C229.902 67.9714 229.922 67.9714 229.946 67.9714C230.018 67.9634 230.078 67.9594 230.126 67.9594C230.182 67.9514 230.234 67.9514 230.282 67.9594ZM237.12 69.9994C236.64 69.9994 236.26 69.8874 235.98 69.6634C235.7 69.4314 235.56 69.0994 235.56 68.6674C235.56 67.9634 235.564 67.2834 235.572 66.6274C235.588 65.9714 235.6 65.3394 235.608 64.7314H234.696C234.672 64.6114 234.672 64.5034 234.696 64.4074C235.488 64.0714 236.084 63.5234 236.484 62.7634C236.548 62.7634 236.612 62.7674 236.676 62.7754C236.74 62.7754 236.796 62.7794 236.844 62.7874C236.836 62.9954 236.828 63.2154 236.82 63.4474C236.82 63.6794 236.816 63.9234 236.808 64.1794H238.632C238.656 64.3554 238.656 64.5394 238.632 64.7314H236.808C236.792 65.2914 236.78 65.8834 236.772 66.5074C236.772 67.1234 236.772 67.7434 236.772 68.3674C236.772 69.0154 237.108 69.3394 237.78 69.3394C238.068 69.3394 238.336 69.2634 238.584 69.1114C238.656 69.2074 238.7 69.3274 238.716 69.4714C238.244 69.8234 237.712 69.9994 237.12 69.9994ZM241.831 69.9994C241.263 69.9994 240.783 69.8674 240.391 69.6034C239.999 69.3394 239.699 68.9874 239.491 68.5474C239.291 68.0994 239.191 67.6074 239.191 67.0714C239.191 66.5194 239.295 66.0074 239.503 65.5354C239.719 65.0634 240.031 64.6834 240.439 64.3954C240.847 64.0994 241.343 63.9514 241.927 63.9514C242.631 63.9514 243.179 64.1634 243.571 64.5874C243.971 65.0034 244.171 65.5434 244.171 66.2074C244.171 66.2874 244.167 66.3594 244.159 66.4234C244.159 66.4794 244.155 66.5274 244.147 66.5674L240.367 66.5314C240.367 66.5634 240.367 66.5914 240.367 66.6154C240.367 67.3994 240.547 68.0154 240.907 68.4634C241.267 68.9114 241.771 69.1354 242.419 69.1354C242.963 69.1354 243.499 68.9594 244.027 68.6074C244.107 68.7034 244.167 68.7954 244.207 68.8834C243.527 69.6274 242.735 69.9994 241.831 69.9994ZM240.403 66.0874L242.887 66.0394C242.895 66.0234 242.899 66.0034 242.899 65.9794C242.899 65.9474 242.899 65.9274 242.899 65.9194C242.899 65.4874 242.803 65.1274 242.611 64.8394C242.427 64.5514 242.151 64.4074 241.783 64.4074C241.439 64.4074 241.139 64.5474 240.883 64.8274C240.627 65.1074 240.467 65.5274 240.403 66.0874ZM252.296 69.8674C252.272 69.7394 252.272 69.6154 252.296 69.4954C252.536 69.4794 252.716 69.4554 252.836 69.4234C252.956 69.3834 253.036 69.3034 253.076 69.1834C253.124 69.0634 253.148 68.8714 253.148 68.6074V66.1834C253.148 65.7114 253.076 65.3554 252.932 65.1154C252.796 64.8754 252.512 64.7554 252.08 64.7554C251.544 64.7554 251.088 64.9554 250.712 65.3554C250.728 65.4834 250.736 65.6194 250.736 65.7634V68.4874C250.736 68.7994 250.752 69.0234 250.784 69.1594C250.824 69.2954 250.904 69.3834 251.023 69.4234C251.144 69.4554 251.328 69.4794 251.576 69.4954C251.592 69.6154 251.592 69.7394 251.576 69.8674C251.352 69.8674 251.128 69.8634 250.904 69.8554C250.68 69.8474 250.416 69.8434 250.112 69.8434C249.816 69.8434 249.556 69.8474 249.332 69.8554C249.116 69.8634 248.908 69.8674 248.708 69.8674C248.684 69.7394 248.684 69.6154 248.708 69.4954C248.94 69.4794 249.112 69.4554 249.224 69.4234C249.344 69.3834 249.424 69.3034 249.464 69.1834C249.504 69.0634 249.524 68.8714 249.524 68.6074V66.1834C249.524 65.7114 249.456 65.3554 249.32 65.1154C249.184 64.8754 248.896 64.7554 248.456 64.7554C247.952 64.7554 247.512 64.9594 247.136 65.3674V68.4874C247.136 68.7994 247.152 69.0234 247.184 69.1594C247.224 69.2954 247.304 69.3834 247.424 69.4234C247.552 69.4554 247.744 69.4794 248 69.4954C248.016 69.6154 248.016 69.7394 248 69.8674C247.776 69.8674 247.544 69.8634 247.304 69.8554C247.072 69.8474 246.804 69.8434 246.5 69.8434C246.212 69.8434 245.952 69.8474 245.72 69.8554C245.488 69.8634 245.252 69.8674 245.012 69.8674C244.988 69.7394 244.988 69.6154 245.012 69.4954C245.284 69.4794 245.484 69.4554 245.612 69.4234C245.74 69.3834 245.824 69.3034 245.864 69.1834C245.904 69.0634 245.924 68.8714 245.924 68.6074V65.9194C245.924 65.6074 245.908 65.3754 245.876 65.2234C245.852 65.0714 245.776 64.9674 245.648 64.9114C245.528 64.8474 245.32 64.7954 245.024 64.7554C245 64.6434 245 64.5394 245.024 64.4434C245.36 64.3794 245.684 64.3034 245.996 64.2154C246.308 64.1274 246.616 64.0194 246.92 63.8914L247.124 63.9634V64.8514C247.772 64.2514 248.448 63.9514 249.152 63.9514C249.592 63.9514 249.924 64.0434 250.148 64.2274C250.372 64.4114 250.528 64.6394 250.616 64.9114C250.96 64.5834 251.312 64.3434 251.672 64.1914C252.032 64.0314 252.396 63.9514 252.764 63.9514C253.292 63.9514 253.688 64.1074 253.952 64.4194C254.224 64.7314 254.36 65.1794 254.36 65.7634V68.4874C254.36 68.7994 254.376 69.0234 254.408 69.1594C254.44 69.2954 254.516 69.3834 254.636 69.4234C254.756 69.4554 254.94 69.4794 255.188 69.4954C255.212 69.6154 255.212 69.7394 255.188 69.8674C254.964 69.8674 254.74 69.8634 254.516 69.8554C254.292 69.8474 254.032 69.8434 253.736 69.8434C253.432 69.8434 253.164 69.8474 252.932 69.8554C252.708 69.8634 252.496 69.8674 252.296 69.8674Z" fill="#A2D2FF"/>
<defs>
<clipPath id="clip0_2197_19279">
<rect width="111.268" height="86.2892" fill="white" transform="translate(0.5 0.855377)"/>
</clipPath>
</defs>
</svg>
