<svg width="113" height="111" viewBox="0 0 113 111" fill="none" xmlns="http://www.w3.org/2000/svg">
<rect width="113" height="111" rx="7" fill="#F5F5F5"/>
<g clip-path="url(#clip0_3730_52419)">
<path d="M29.6342 82.7199C26.0048 79.1684 23.1098 74.9202 21.1183 70.223C19.1268 65.5259 18.0785 60.4739 18.0346 55.3619C17.9908 50.2499 18.9523 45.1802 20.8629 40.4487C22.7736 35.7172 25.5952 31.4186 29.1631 27.8037C32.7311 24.1889 36.9738 21.3301 41.6439 19.3943C46.314 17.4585 51.3178 16.4844 56.3634 16.5288C61.409 16.5732 66.3954 17.6353 71.0315 19.653C75.6677 21.6708 79.8608 24.6038 83.3662 28.2809C90.2882 35.5421 94.1183 45.2673 94.0318 55.3619C93.9452 65.4565 89.9488 75.1127 82.9033 82.251C75.8577 89.3892 66.3269 93.4382 56.3634 93.5259C46.3999 93.6136 36.801 89.733 29.6342 82.7199ZM78.0082 77.2914C83.7124 71.5121 86.9171 63.6736 86.9171 55.5004C86.9171 47.3272 83.7124 39.4888 78.0082 33.7094C72.3039 27.9301 64.5672 24.6833 56.5002 24.6833C48.4331 24.6833 40.6964 27.9301 34.9922 33.7094C29.2879 39.4888 26.0832 47.3272 26.0832 55.5004C26.0832 63.6736 29.2879 71.5121 34.9922 77.2914C40.6964 83.0708 48.4331 86.3176 56.5002 86.3176C64.5672 86.3176 72.3039 83.0708 78.0082 77.2914ZM52.7002 36.2504H60.3002V59.3504H52.7002V36.2504ZM52.7002 67.0504H60.3002V74.7504H52.7002V67.0504Z" fill="#092C4C"/>
</g>
<defs>
<clipPath id="clip0_3730_52419">
<rect width="76" height="77" fill="white" transform="translate(18.5 17)"/>
</clipPath>
</defs>
</svg>
