<svg width="198" height="58" viewBox="0 0 198 58" fill="none" xmlns="http://www.w3.org/2000/svg">
<g id="Group">
<path id="BG" d="M190.667 57.4004H7.33333C3.30183 57.4004 0 54.1924 0 50.2754V7.52539C0 3.60842 3.30183 0.400393 7.33333 0.400393H190.667C194.698 0.400393 198 3.60842 198 7.52539V50.2754C198 54.1924 194.698 57.4004 190.667 57.4004Z" fill="black"/>
<path id="Border" d="M190.667 1.54217C194.062 1.54217 196.825 4.22652 196.825 7.52539V50.2754C196.825 53.5743 194.062 56.2586 190.667 56.2586H7.33333C3.938 56.2586 1.17517 53.5743 1.17517 50.2754V7.52539C1.17517 4.22652 3.938 1.54217 7.33333 1.54217H190.667ZM190.667 0.400393H7.33333C3.30183 0.400393 0 3.60842 0 7.52539V50.2754C0 54.1924 3.30183 57.4004 7.33333 57.4004H190.667C194.698 57.4004 198 54.1924 198 50.2754V7.52539C198 3.60842 194.698 0.400393 190.667 0.400393Z" fill="#A6A6A6"/>
<g id="Icon">
<path id="Vector" d="M15.3052 11.1429C14.8743 11.5811 14.625 12.2633 14.625 13.1468V44.6606C14.625 45.5441 14.8743 46.2264 15.3052 46.6646L15.4115 46.7607L33.5872 29.1086V28.6917L15.4115 11.0396L15.3052 11.1429Z" fill="url(#paint0_linear_3191_11884)"/>
<path id="Vector_2" d="M39.6378 34.9961L33.5859 29.1091V28.6922L39.6451 22.8052L39.7808 22.8818L46.9564 26.8487C49.0043 27.9744 49.0043 29.8269 46.9564 30.9598L39.7808 34.9195L39.6378 34.9961Z" fill="url(#paint1_linear_3191_11884)"/>
<path id="Vector_3" d="M39.7815 34.9192L33.5867 28.9003L15.3047 46.6647C15.9849 47.3594 17.094 47.4431 18.3554 46.7484L39.7815 34.9192Z" fill="url(#paint2_linear_3191_11884)"/>
<path id="Vector_4" d="M39.7815 22.8815L18.3554 11.0523C17.094 10.3647 15.9849 10.4484 15.3047 11.1431L33.5867 28.9004L39.7815 22.8815Z" fill="url(#paint3_linear_3191_11884)"/>
</g>
<g id="GET IT ON">
<path id="G" d="M69.5438 14.9983C69.5438 16.1882 69.1771 17.1412 68.4548 17.8519C67.6243 18.6944 66.5426 19.1183 65.2171 19.1183C63.9503 19.1183 62.8686 18.6873 61.9813 17.8376C61.0921 16.9755 60.6484 15.9174 60.6484 14.651C60.6484 13.3845 61.0921 12.3264 61.9813 11.4714C62.8686 10.6147 63.9503 10.1836 65.2171 10.1836C65.8478 10.1836 66.4491 10.3101 67.0229 10.5452C67.5949 10.7821 68.0606 11.1027 68.3979 11.4982L67.6316 12.2498C67.0431 11.5748 66.2419 11.2417 65.2171 11.2417C64.2931 11.2417 63.4919 11.5552 62.8118 12.1875C62.1389 12.8216 61.8016 13.6428 61.8016 14.651C61.8016 15.6592 62.1389 16.4874 62.8118 17.1216C63.4919 17.7468 64.2931 18.0674 65.2171 18.0674C66.1979 18.0674 67.0229 17.7468 67.6738 17.1144C68.1028 16.6958 68.3466 16.1187 68.4108 15.3813H65.2171V14.3517H69.4778C69.5291 14.5744 69.5438 14.7899 69.5438 14.9983Z" fill="white" stroke="black" stroke-width="0.16" stroke-miterlimit="10"/>
<path id="E" d="M76.3031 11.4281H72.301V14.1356H75.909V15.1651H72.301V17.8726H76.3031V18.9218H71.168V10.3789H76.3031V11.4281Z" fill="white" stroke="black" stroke-width="0.16" stroke-miterlimit="10"/>
<path id="T" d="M81.0722 18.9218H79.9392V11.4281H77.4844V10.3789H83.5289V11.4281H81.0722V18.9218Z" fill="white" stroke="black" stroke-width="0.16" stroke-miterlimit="10"/>
<path id="I" d="M87.9062 18.9218V10.3789H89.0374V18.9218H87.9062Z" fill="white" stroke="black" stroke-width="0.16" stroke-miterlimit="10"/>
<path id="T_2" d="M94.0488 18.9218H92.9249V11.4281H90.4609V10.3789H96.5128V11.4281H94.0488V18.9218Z" fill="white" stroke="black" stroke-width="0.16" stroke-miterlimit="10"/>
<path id="O" d="M107.957 17.8234C107.089 18.6873 106.015 19.1183 104.734 19.1183C103.445 19.1183 102.37 18.6873 101.503 17.8234C100.638 16.9612 100.207 15.9032 100.207 14.651C100.207 13.3987 100.638 12.3407 101.503 11.4786C102.37 10.6147 103.445 10.1836 104.734 10.1836C106.008 10.1836 107.082 10.6147 107.949 11.4857C108.822 12.3549 109.253 13.4059 109.253 14.651C109.253 15.9032 108.822 16.9612 107.957 17.8234ZM102.341 17.1073C102.994 17.7468 103.788 18.0674 104.734 18.0674C105.672 18.0674 106.473 17.7468 107.119 17.1073C107.77 16.4678 108.1 15.6467 108.1 14.651C108.1 13.6552 107.77 12.8341 107.119 12.1946C106.473 11.5552 105.672 11.2345 104.734 11.2345C103.788 11.2345 102.994 11.5552 102.341 12.1946C101.69 12.8341 101.36 13.6552 101.36 14.651C101.36 15.6467 101.69 16.4678 102.341 17.1073Z" fill="white" stroke="black" stroke-width="0.16" stroke-miterlimit="10"/>
<path id="N" d="M110.844 18.9218V10.3789H112.219L116.494 17.023H116.544L116.494 15.3807V10.3789H117.625V18.9218H116.445L111.968 11.95H111.918L111.968 13.5994V18.9218H110.844Z" fill="white" stroke="black" stroke-width="0.16" stroke-miterlimit="10"/>
</g>
<g id="Google Play">
<path id="Google Play_2" d="M99.9307 31.3978C96.4859 31.3978 93.6717 33.945 93.6717 37.4594C93.6717 40.9453 96.4859 43.5192 99.9307 43.5192C103.383 43.5192 106.197 40.9453 106.197 37.4594C106.197 33.945 103.383 31.3978 99.9307 31.3978ZM99.9307 41.1323C98.0406 41.1323 96.4144 39.6165 96.4144 37.4594C96.4144 35.2738 98.0406 33.7847 99.9307 33.7847C101.821 33.7847 103.454 35.2738 103.454 37.4594C103.454 39.6165 101.821 41.1323 99.9307 41.1323ZM86.2742 31.3978C82.8221 31.3978 80.0152 33.945 80.0152 37.4594C80.0152 40.9453 82.8221 43.5192 86.2742 43.5192C89.7246 43.5192 92.5332 40.9453 92.5332 37.4594C92.5332 33.945 89.7246 31.3978 86.2742 31.3978ZM86.2742 41.1323C84.3822 41.1323 82.7506 39.6165 82.7506 37.4594C82.7506 35.2738 84.3822 33.7847 86.2742 33.7847C88.1644 33.7847 89.7906 35.2738 89.7906 37.4594C89.7906 39.6165 88.1644 41.1323 86.2742 41.1323ZM70.0236 33.2557V35.8313H76.3541C76.1689 37.2706 75.6739 38.3287 74.9149 39.0661C73.9909 39.9567 72.5517 40.9453 70.0236 40.9453C66.1277 40.9453 63.0771 37.8905 63.0771 34.1053C63.0771 30.3202 66.1277 27.2653 70.0236 27.2653C72.1301 27.2653 73.6627 28.0651 74.7939 29.1018L76.6621 27.2867C75.0799 25.8189 72.9752 24.6914 70.0236 24.6914C64.6812 24.6914 60.1914 28.9148 60.1914 34.1053C60.1914 39.2959 64.6812 43.5192 70.0236 43.5192C72.9111 43.5192 75.0799 42.6001 76.7849 40.8758C78.5321 39.1783 79.0766 36.7914 79.0766 34.8641C79.0766 34.2656 79.0252 33.7152 78.9336 33.2557H70.0236ZM136.475 35.2524C135.959 33.8969 134.37 31.3978 131.132 31.3978C127.924 31.3978 125.253 33.8542 125.253 37.4594C125.253 40.8545 127.896 43.5192 131.44 43.5192C134.306 43.5192 135.959 41.8217 136.64 40.8331L134.513 39.4562C133.803 40.4644 132.837 41.1323 131.44 41.1323C130.052 41.1323 129.057 40.5143 128.419 39.2959L136.762 35.9418L136.475 35.2524ZM127.968 37.2706C127.896 34.9336 129.836 33.7366 131.226 33.7366C132.315 33.7366 133.239 34.2656 133.547 35.0227L127.968 37.2706ZM121.186 43.1505H123.929V25.338H121.186V43.1505ZM116.695 32.748H116.603C115.987 32.0391 114.812 31.3978 113.323 31.3978C110.199 31.3978 107.343 34.0626 107.343 37.479C107.343 40.8758 110.199 43.5192 113.323 43.5192C114.812 43.5192 115.987 42.8726 116.603 42.1423H116.695V43.0116C116.695 45.329 115.421 46.5741 113.365 46.5741C111.69 46.5741 110.65 45.3984 110.221 44.4098L107.836 45.3771C108.524 46.9838 110.344 48.9609 113.365 48.9609C116.581 48.9609 119.294 47.1227 119.294 42.65V31.7665H116.695V32.748ZM113.558 41.1323C111.668 41.1323 110.086 39.5951 110.086 37.479C110.086 35.3433 111.668 33.7847 113.558 33.7847C115.421 33.7847 116.889 35.3433 116.889 37.479C116.889 39.5951 115.421 41.1323 113.558 41.1323ZM149.315 25.338H142.756V43.1505H145.491V36.4013H149.315C152.353 36.4013 155.332 34.2656 155.332 30.8688C155.332 27.4737 152.346 25.338 149.315 25.338ZM149.387 33.9236H145.491V27.8157H149.387C151.429 27.8157 152.595 29.4634 152.595 30.8688C152.595 32.2475 151.429 33.9236 149.387 33.9236ZM166.296 31.364C164.319 31.364 162.264 32.2118 161.419 34.0911L163.846 35.0797C164.369 34.0911 165.329 33.7704 166.345 33.7704C167.764 33.7704 169.203 34.5987 169.225 36.0611V36.2482C168.73 35.9703 167.671 35.5588 166.367 35.5588C163.753 35.5588 161.089 36.9571 161.089 39.5666C161.089 41.9535 163.23 43.4907 165.637 43.4907C167.478 43.4907 168.494 42.6838 169.132 41.7451H169.225V43.122H171.867V36.2891C171.867 33.131 169.44 31.364 166.296 31.364ZM165.966 41.1252C165.071 41.1252 163.824 40.6942 163.824 39.6165C163.824 38.2378 165.379 37.7088 166.725 37.7088C167.929 37.7088 168.494 37.9671 169.225 38.3073C169.011 39.9567 167.55 41.1252 165.966 41.1252ZM181.492 31.7541L178.348 39.4758H178.254L175.004 31.7541H172.054L176.938 42.5449L174.151 48.5495H177.01L184.535 31.7541H181.492ZM156.836 43.1505H159.578V25.338H156.836V43.1505Z" fill="white"/>
</g>
</g>
<defs>
<linearGradient id="paint0_linear_3191_11884" x1="31.9734" y1="44.9888" x2="8.06839" y2="20.3849" gradientUnits="userSpaceOnUse">
<stop stop-color="#00A0FF"/>
<stop offset="0.0066" stop-color="#00A1FF"/>
<stop offset="0.2601" stop-color="#00BEFF"/>
<stop offset="0.5122" stop-color="#00D2FF"/>
<stop offset="0.7604" stop-color="#00DFFF"/>
<stop offset="1" stop-color="#00E3FF"/>
</linearGradient>
<linearGradient id="paint1_linear_3191_11884" x1="49.6231" y1="28.8987" x2="14.1343" y2="28.8987" gradientUnits="userSpaceOnUse">
<stop stop-color="#FFE000"/>
<stop offset="0.4087" stop-color="#FFBD00"/>
<stop offset="0.7754" stop-color="#FFA500"/>
<stop offset="1" stop-color="#FF9C00"/>
</linearGradient>
<linearGradient id="paint2_linear_3191_11884" x1="36.4129" y1="25.6284" x2="3.99584" y2="-7.73659" gradientUnits="userSpaceOnUse">
<stop stop-color="#FF3A44"/>
<stop offset="1" stop-color="#C31162"/>
</linearGradient>
<linearGradient id="paint3_linear_3191_11884" x1="10.7027" y1="57.1493" x2="25.1784" y2="42.2505" gradientUnits="userSpaceOnUse">
<stop stop-color="#32A071"/>
<stop offset="0.0685" stop-color="#2DA771"/>
<stop offset="0.4762" stop-color="#15CF74"/>
<stop offset="0.8009" stop-color="#06E775"/>
<stop offset="1" stop-color="#00F076"/>
</linearGradient>
</defs>
</svg>
