<svg width="203" height="135" viewBox="0 0 203 135" fill="none" xmlns="http://www.w3.org/2000/svg">
<path d="M22.4942 134.645H180.414C194.85 134.645 202.385 127.396 202.385 112.82V21.8954C202.385 7.31917 194.85 0.0704346 180.414 0.0704346H22.4942C8.05855 0.0704346 0.523438 7.31917 0.523438 21.8954V112.82C0.523438 127.396 8.05855 134.645 22.4942 134.645ZM15.9109 22.8409C15.9109 17.4832 18.2904 15.3558 23.5253 15.3558H179.383C184.618 15.3558 186.998 17.4832 186.998 22.8409V104.941L144.246 65.1515C140.756 61.9211 136.631 60.3453 132.348 60.3453C128.065 60.3453 124.099 61.8423 120.451 65.0727L81.3474 99.8194L63.3424 83.7461C60.0905 80.752 56.4419 79.255 52.6347 79.255C48.9861 79.255 45.6548 80.752 42.4821 83.5885L15.9109 107.226V22.8409ZM68.498 67.0425C78.8092 67.0425 87.3755 58.5331 87.3755 48.0539C87.3755 37.7324 78.8092 29.1442 68.498 29.1442C57.9489 29.1442 49.3034 37.7324 49.3034 48.0539C49.3034 58.5331 57.9489 67.0425 68.498 67.0425Z" fill="#499DE9"/>
</svg>
