<svg width="37" height="37" viewBox="0 0 37 37" fill="none" xmlns="http://www.w3.org/2000/svg">
<path d="M9.69686 24.7896C9.22501 25.2614 9.20254 26.104 9.7081 26.5983C10.2024 27.0927 11.045 27.0814 11.5169 26.6096L18.3925 19.7227L25.2793 26.6096C25.7624 27.0927 26.5938 27.0927 27.0881 26.5983C27.5712 26.0928 27.5824 25.2726 27.0881 24.7896L20.2125 17.9027L27.0881 11.0271C27.5824 10.544 27.5824 9.71268 27.0881 9.21835C26.5825 8.73526 25.7624 8.72403 25.2793 9.20712L18.3925 16.0939L11.5169 9.20712C11.045 8.73526 10.1912 8.71279 9.7081 9.21835C9.21377 9.71268 9.22501 10.5553 9.69686 11.0271L16.5837 17.9027L9.69686 24.7896Z" fill="#092C4C"/>
</svg>
