<svg width="134" height="114" viewBox="0 0 134 114" fill="none" xmlns="http://www.w3.org/2000/svg">
<path d="M82.7664 77.2156V87.5826H107.171C123.509 87.5826 133.5 77.9413 133.5 64.7752C133.5 53.7862 127.204 44.9225 116.849 40.8275C116.901 17.3982 99.9378 0.5 78.1354 0.5C64.2942 0.5 53.8873 7.60138 47.383 16.9835C34.9468 13.9252 20.2731 23.3073 19.7527 37.9248C7.83685 39.9463 0.5 49.795 0.5 62.339C0.5 76.2826 11.1671 87.5826 28.4945 87.5826H51.0254V77.2156H28.4945C17.151 77.2156 11.011 70.4771 11.011 62.1317C11.011 52.4385 17.4112 45.6482 28.0262 45.6482C28.8067 45.6482 29.1189 45.2335 29.0669 44.5078C28.7547 29.061 39.838 24.0849 51.0254 27.3505C51.7019 27.506 52.1182 27.4023 52.4304 26.8321C57.4257 17.761 65.1788 10.8151 78.0833 10.8151C94.4221 10.8151 106.078 23.722 106.858 38.806C107.014 41.5532 106.806 44.6115 106.598 47.0995C106.494 47.8252 106.806 48.2399 107.483 48.3436C117.005 50.1578 122.989 55.6523 122.989 64.3087C122.989 71.8766 117.682 77.2156 106.962 77.2156H82.7664ZM66.8959 113.5C69.6017 113.5 71.7872 111.323 71.7872 108.731V60.9913L71.2668 51.7647L74.597 55.6005L81.8298 62.8573C82.7144 63.7904 83.9112 64.3087 85.108 64.3087C87.5016 64.3087 89.4789 62.5463 89.4789 60.1101C89.4789 58.8661 89.0106 57.8812 88.0739 57.0518L70.5904 40.672C69.2895 39.4798 68.1968 39.0133 66.8959 39.0133C65.6471 39.0133 64.5023 39.4798 63.2015 40.672L45.7179 57.0518C44.7813 57.8812 44.365 58.8661 44.365 60.1101C44.365 62.5463 46.2903 64.3087 48.6839 64.3087C49.8807 64.3087 51.0775 63.7904 51.962 62.8573L59.1948 55.6005L62.5771 51.7647L62.0047 60.9913V108.731C62.0047 111.323 64.2422 113.5 66.8959 113.5Z" fill="#A2D2FF"/>
</svg>
